<?xml version="1.0" encoding="UTF-8" standalone="no"?><svg xmlns="http://www.w3.org/2000/svg" xmlns:xlink="http://www.w3.org/1999/xlink" clip-rule="evenodd" stroke-miterlimit="10" viewBox="0 0 204 43"><desc>SVG generated by Keynote</desc><defs></defs><g transform="matrix(1.00, 0.00, -0.00, -1.00, 0.0, 43.0)"><text xml:space="preserve" font-family="Helvetica,Helvetica" font-size="42.0" fill="#000000" transform="matrix(1.00, 0.00, -0.00, -1.00, 0.5, 10.7)">G</text><text xml:space="preserve" font-family="Helvetica,Helvetica" font-size="42.0" fill="#000000" transform="matrix(1.00, 0.00, -0.00, -1.00, 33.1, 10.7)">y</text><text xml:space="preserve" font-family="Helvetica,Helvetica" font-size="42.0" fill="#000000" transform="matrix(1.00, 0.00, -0.00, -1.00, 54.1, 10.7)">r</text><text xml:space="preserve" font-family="Helvetica,Helvetica" font-size="42.0" fill="#000000" transform="matrix(1.00, 0.00, -0.00, -1.00, 68.1, 10.7)">o</text><text xml:space="preserve" font-family="Helvetica,Helvetica" font-size="42.0" fill="#000000" transform="matrix(1.00, 0.00, -0.00, -1.00, 91.5, 10.7)">s</text><text xml:space="preserve" font-family="Helvetica,Helvetica" font-size="42.0" fill="#000000" transform="matrix(1.00, 0.00, -0.00, -1.00, 112.5, 10.7)">c</text><text xml:space="preserve" font-family="Helvetica,Helvetica" font-size="42.0" fill="#000000" transform="matrix(1.00, 0.00, -0.00, -1.00, 133.5, 10.7)">o</text><text xml:space="preserve" font-family="Helvetica,Helvetica" font-size="42.0" fill="#000000" transform="matrix(1.00, 0.00, -0.00, -1.00, 156.8, 10.7)">p</text><text xml:space="preserve" font-family="Helvetica,Helvetica" font-size="42.0" fill="#000000" transform="matrix(1.00, 0.00, -0.00, -1.00, 180.2, 10.7)">e</text></g></svg>