<?xml version="1.0" encoding="UTF-8" standalone="no"?><svg xmlns="http://www.w3.org/2000/svg" xmlns:xlink="http://www.w3.org/1999/xlink" clip-rule="evenodd" stroke-miterlimit="10" viewBox="0 0 521 27"><desc>SVG generated by Keynote</desc><defs></defs><g transform="matrix(1.00, 0.00, -0.00, -1.00, 0.0, 27.0)"><text xml:space="preserve" font-family="Helvetica,Helvetica" font-size="24.0" fill="#000000" transform="matrix(1.00, 0.00, -0.00, -1.00, 0.0, 7.0)">1</text><text xml:space="preserve" font-family="Helvetica,Helvetica" font-size="24.0" fill="#000000" transform="matrix(1.00, 0.00, -0.00, -1.00, 13.4, 7.0)">.</text><text xml:space="preserve" font-family="Helvetica,Helvetica" font-size="24.0" fill="#000000" transform="matrix(1.00, 0.00, -0.00, -1.00, 45.0, 7.0)">C</text><text xml:space="preserve" font-family="Helvetica,Helvetica" font-size="24.0" fill="#000000" transform="matrix(1.00, 0.00, -0.00, -1.00, 62.3, 7.0)">r</text><text xml:space="preserve" font-family="Helvetica,Helvetica" font-size="24.0" fill="#000000" transform="matrix(1.00, 0.00, -0.00, -1.00, 70.3, 7.0)">e</text><text xml:space="preserve" font-family="Helvetica,Helvetica" font-size="24.0" fill="#000000" transform="matrix(1.00, 0.00, -0.00, -1.00, 83.7, 7.0)">a</text><text xml:space="preserve" font-family="Helvetica,Helvetica" font-size="24.0" fill="#000000" transform="matrix(1.00, 0.00, -0.00, -1.00, 97.0, 7.0)">t</text><text xml:space="preserve" font-family="Helvetica,Helvetica" font-size="24.0" fill="#000000" transform="matrix(1.00, 0.00, -0.00, -1.00, 103.7, 7.0)">e</text><text xml:space="preserve" font-family="Helvetica,Helvetica" font-size="24.0" fill="#000000" transform="matrix(1.00, 0.00, -0.00, -1.00, 117.0, 7.0)"> </text><text xml:space="preserve" font-family="Helvetica,Helvetica" font-size="24.0" fill="#000000" transform="matrix(1.00, 0.00, -0.00, -1.00, 123.7, 7.0)">(</text><text xml:space="preserve" font-family="Helvetica,Helvetica" font-size="24.0" fill="#000000" transform="matrix(1.00, 0.00, -0.00, -1.00, 131.7, 7.0)">o</text><text xml:space="preserve" font-family="Helvetica,Helvetica" font-size="24.0" fill="#000000" transform="matrix(1.00, 0.00, -0.00, -1.00, 145.1, 7.0)">n</text><text xml:space="preserve" font-family="Helvetica,Helvetica" font-size="24.0" fill="#000000" transform="matrix(1.00, 0.00, -0.00, -1.00, 158.4, 7.0)">e</text><text xml:space="preserve" font-family="Helvetica,Helvetica" font-size="24.0" fill="#000000" transform="matrix(1.00, 0.00, -0.00, -1.00, 171.8, 7.0)">!</text><text xml:space="preserve" font-family="Helvetica,Helvetica" font-size="24.0" fill="#000000" transform="matrix(1.00, 0.00, -0.00, -1.00, 178.4, 7.0)">)</text><text xml:space="preserve" font-family="Helvetica,Helvetica" font-size="24.0" fill="#000000" transform="matrix(1.00, 0.00, -0.00, -1.00, 186.4, 7.0)"> </text><text xml:space="preserve" font-family="Helvetica,Helvetica" font-size="24.0" fill="#000000" transform="matrix(1.00, 0.00, -0.00, -1.00, 193.1, 7.0)">i</text><text xml:space="preserve" font-family="Helvetica,Helvetica" font-size="24.0" fill="#000000" transform="matrix(1.00, 0.00, -0.00, -1.00, 198.4, 7.0)">n</text><text xml:space="preserve" font-family="Helvetica,Helvetica" font-size="24.0" fill="#000000" transform="matrix(1.00, 0.00, -0.00, -1.00, 211.8, 7.0)">s</text><text xml:space="preserve" font-family="Helvetica,Helvetica" font-size="24.0" fill="#000000" transform="matrix(1.00, 0.00, -0.00, -1.00, 223.8, 7.0)">t</text><text xml:space="preserve" font-family="Helvetica,Helvetica" font-size="24.0" fill="#000000" transform="matrix(1.00, 0.00, -0.00, -1.00, 230.4, 7.0)">a</text><text xml:space="preserve" font-family="Helvetica,Helvetica" font-size="24.0" fill="#000000" transform="matrix(1.00, 0.00, -0.00, -1.00, 243.8, 7.0)">n</text><text xml:space="preserve" font-family="Helvetica,Helvetica" font-size="24.0" fill="#000000" transform="matrix(1.00, 0.00, -0.00, -1.00, 257.1, 7.0)">c</text><text xml:space="preserve" font-family="Helvetica,Helvetica" font-size="24.0" fill="#000000" transform="matrix(1.00, 0.00, -0.00, -1.00, 269.1, 7.0)">e</text><text xml:space="preserve" font-family="Helvetica,Helvetica" font-size="24.0" fill="#000000" transform="matrix(1.00, 0.00, -0.00, -1.00, 282.5, 7.0)"> </text><text xml:space="preserve" font-family="Helvetica,Helvetica" font-size="24.0" fill="#000000" transform="matrix(1.00, 0.00, -0.00, -1.00, 289.2, 7.0)">o</text><text xml:space="preserve" font-family="Helvetica,Helvetica" font-size="24.0" fill="#000000" transform="matrix(1.00, 0.00, -0.00, -1.00, 302.5, 7.0)">f</text><text xml:space="preserve" font-family="Helvetica,Helvetica" font-size="24.0" fill="#000000" transform="matrix(1.00, 0.00, -0.00, -1.00, 309.2, 7.0)"> </text><text xml:space="preserve" font-family="Helvetica,Helvetica" font-size="24.0" fill="#000000" transform="matrix(1.00, 0.00, -0.00, -1.00, 315.8, 7.0)">C</text><text xml:space="preserve" font-family="Helvetica,Helvetica" font-size="24.0" fill="#000000" transform="matrix(1.00, 0.00, -0.00, -1.00, 333.2, 7.0)">M</text><text xml:space="preserve" font-family="Helvetica,Helvetica" font-size="24.0" fill="#000000" transform="matrix(1.00, 0.00, -0.00, -1.00, 353.2, 7.0)">M</text><text xml:space="preserve" font-family="Helvetica,Helvetica" font-size="24.0" fill="#000000" transform="matrix(1.00, 0.00, -0.00, -1.00, 373.2, 7.0)">o</text><text xml:space="preserve" font-family="Helvetica,Helvetica" font-size="24.0" fill="#000000" transform="matrix(1.00, 0.00, -0.00, -1.00, 386.5, 7.0)">t</text><text xml:space="preserve" font-family="Helvetica,Helvetica" font-size="24.0" fill="#000000" transform="matrix(1.00, 0.00, -0.00, -1.00, 393.2, 7.0)">i</text><text xml:space="preserve" font-family="Helvetica,Helvetica" font-size="24.0" fill="#000000" transform="matrix(1.00, 0.00, -0.00, -1.00, 398.5, 7.0)">o</text><text xml:space="preserve" font-family="Helvetica,Helvetica" font-size="24.0" fill="#000000" transform="matrix(1.00, 0.00, -0.00, -1.00, 411.9, 7.0)">n</text><text xml:space="preserve" font-family="Helvetica,Helvetica" font-size="24.0" fill="#000000" transform="matrix(1.00, 0.00, -0.00, -1.00, 425.2, 7.0)">M</text><text xml:space="preserve" font-family="Helvetica,Helvetica" font-size="24.0" fill="#000000" transform="matrix(1.00, 0.00, -0.00, -1.00, 445.2, 7.0)">a</text><text xml:space="preserve" font-family="Helvetica,Helvetica" font-size="24.0" fill="#000000" transform="matrix(1.00, 0.00, -0.00, -1.00, 458.6, 7.0)">n</text><text xml:space="preserve" font-family="Helvetica,Helvetica" font-size="24.0" fill="#000000" transform="matrix(1.00, 0.00, -0.00, -1.00, 471.9, 7.0)">a</text><text xml:space="preserve" font-family="Helvetica,Helvetica" font-size="24.0" fill="#000000" transform="matrix(1.00, 0.00, -0.00, -1.00, 485.3, 7.0)">g</text><text xml:space="preserve" font-family="Helvetica,Helvetica" font-size="24.0" fill="#000000" transform="matrix(1.00, 0.00, -0.00, -1.00, 498.6, 7.0)">e</text><text xml:space="preserve" font-family="Helvetica,Helvetica" font-size="24.0" fill="#000000" transform="matrix(1.00, 0.00, -0.00, -1.00, 512.0, 7.0)">r</text></g></svg>