<?xml version="1.0" encoding="UTF-8" standalone="no"?><svg xmlns="http://www.w3.org/2000/svg" xmlns:xlink="http://www.w3.org/1999/xlink" clip-rule="evenodd" stroke-miterlimit="10" viewBox="0 0 271 42"><desc>SVG generated by Keynote</desc><defs></defs><g transform="matrix(1.00, 0.00, -0.00, -1.00, 0.0, 42.0)"><text xml:space="preserve" font-family="Helvetica,Helvetica" font-size="42.0" fill="#000000" transform="matrix(1.00, 0.00, -0.00, -1.00, -1.4, 10.7)">M</text><text xml:space="preserve" font-family="Helvetica,Helvetica" font-size="42.0" fill="#000000" transform="matrix(1.00, 0.00, -0.00, -1.00, 33.6, 10.7)">a</text><text xml:space="preserve" font-family="Helvetica,Helvetica" font-size="42.0" fill="#000000" transform="matrix(1.00, 0.00, -0.00, -1.00, 57.0, 10.7)">g</text><text xml:space="preserve" font-family="Helvetica,Helvetica" font-size="42.0" fill="#000000" transform="matrix(1.00, 0.00, -0.00, -1.00, 80.3, 10.7)">n</text><text xml:space="preserve" font-family="Helvetica,Helvetica" font-size="42.0" fill="#000000" transform="matrix(1.00, 0.00, -0.00, -1.00, 103.7, 10.7)">e</text><text xml:space="preserve" font-family="Helvetica,Helvetica" font-size="42.0" fill="#000000" transform="matrix(1.00, 0.00, -0.00, -1.00, 127.1, 10.7)">t</text><text xml:space="preserve" font-family="Helvetica,Helvetica" font-size="42.0" fill="#000000" transform="matrix(1.00, 0.00, -0.00, -1.00, 138.7, 10.7)">o</text><text xml:space="preserve" font-family="Helvetica,Helvetica" font-size="42.0" fill="#000000" transform="matrix(1.00, 0.00, -0.00, -1.00, 162.1, 10.7)">m</text><text xml:space="preserve" font-family="Helvetica,Helvetica" font-size="42.0" fill="#000000" transform="matrix(1.00, 0.00, -0.00, -1.00, 197.1, 10.7)">e</text><text xml:space="preserve" font-family="Helvetica,Helvetica" font-size="42.0" fill="#000000" transform="matrix(1.00, 0.00, -0.00, -1.00, 220.4, 10.7)">t</text><text xml:space="preserve" font-family="Helvetica,Helvetica" font-size="42.0" fill="#000000" transform="matrix(1.00, 0.00, -0.00, -1.00, 232.1, 10.7)">e</text><text xml:space="preserve" font-family="Helvetica,Helvetica" font-size="42.0" fill="#000000" transform="matrix(1.00, 0.00, -0.00, -1.00, 255.5, 10.7)">r</text></g></svg>