<?xml version="1.0" encoding="UTF-8" standalone="no"?><svg xmlns="http://www.w3.org/2000/svg" xmlns:xlink="http://www.w3.org/1999/xlink" clip-rule="evenodd" stroke-miterlimit="10" viewBox="0 0 805 23"><desc>SVG generated by Keynote</desc><defs></defs><g transform="matrix(1.00, 0.00, -0.00, -1.00, 0.0, 23.0)"><text xml:space="preserve" font-family="Monaco,Monaco" font-size="20.0" fill="#000000" transform="matrix(1.00, 0.00, -0.00, -1.00, 0.0, 5.7)">I</text><text xml:space="preserve" font-family="Monaco,Monaco" font-size="20.0" fill="#000000" transform="matrix(1.00, 0.00, -0.00, -1.00, 12.0, 5.7)">n</text><text xml:space="preserve" font-family="Monaco,Monaco" font-size="20.0" fill="#000000" transform="matrix(1.00, 0.00, -0.00, -1.00, 24.0, 5.7)"> </text><text xml:space="preserve" font-family="Monaco,Monaco" font-size="20.0" fill="#000000" transform="matrix(1.00, 0.00, -0.00, -1.00, 36.0, 5.7)">V</text><text xml:space="preserve" font-family="Monaco,Monaco" font-size="20.0" fill="#000000" transform="matrix(1.00, 0.00, -0.00, -1.00, 48.0, 5.7)">i</text><text xml:space="preserve" font-family="Monaco,Monaco" font-size="20.0" fill="#000000" transform="matrix(1.00, 0.00, -0.00, -1.00, 60.0, 5.7)">e</text><text xml:space="preserve" font-family="Monaco,Monaco" font-size="20.0" fill="#000000" transform="matrix(1.00, 0.00, -0.00, -1.00, 72.0, 5.7)">w</text><text xml:space="preserve" font-family="Monaco,Monaco" font-size="20.0" fill="#000000" transform="matrix(1.00, 0.00, -0.00, -1.00, 84.0, 5.7)">C</text><text xml:space="preserve" font-family="Monaco,Monaco" font-size="20.0" fill="#000000" transform="matrix(1.00, 0.00, -0.00, -1.00, 96.0, 5.7)">o</text><text xml:space="preserve" font-family="Monaco,Monaco" font-size="20.0" fill="#000000" transform="matrix(1.00, 0.00, -0.00, -1.00, 108.0, 5.7)">n</text><text xml:space="preserve" font-family="Monaco,Monaco" font-size="20.0" fill="#000000" transform="matrix(1.00, 0.00, -0.00, -1.00, 120.0, 5.7)">t</text><text xml:space="preserve" font-family="Monaco,Monaco" font-size="20.0" fill="#000000" transform="matrix(1.00, 0.00, -0.00, -1.00, 132.0, 5.7)">r</text><text xml:space="preserve" font-family="Monaco,Monaco" font-size="20.0" fill="#000000" transform="matrix(1.00, 0.00, -0.00, -1.00, 144.0, 5.7)">o</text><text xml:space="preserve" font-family="Monaco,Monaco" font-size="20.0" fill="#000000" transform="matrix(1.00, 0.00, -0.00, -1.00, 156.1, 5.7)">l</text><text xml:space="preserve" font-family="Monaco,Monaco" font-size="20.0" fill="#000000" transform="matrix(1.00, 0.00, -0.00, -1.00, 168.1, 5.7)">l</text><text xml:space="preserve" font-family="Monaco,Monaco" font-size="20.0" fill="#000000" transform="matrix(1.00, 0.00, -0.00, -1.00, 180.1, 5.7)">e</text><text xml:space="preserve" font-family="Monaco,Monaco" font-size="20.0" fill="#000000" transform="matrix(1.00, 0.00, -0.00, -1.00, 192.1, 5.7)">r</text><text xml:space="preserve" font-family="Monaco,Monaco" font-size="20.0" fill="#000000" transform="matrix(1.00, 0.00, -0.00, -1.00, 204.1, 5.7)">.</text><text xml:space="preserve" font-family="Monaco,Monaco" font-size="20.0" fill="#000000" transform="matrix(1.00, 0.00, -0.00, -1.00, 216.1, 5.7)">m</text><text xml:space="preserve" font-family="Monaco,Monaco" font-size="20.0" fill="#000000" transform="matrix(1.00, 0.00, -0.00, -1.00, 228.1, 5.7)"> </text><text xml:space="preserve" font-family="Monaco,Monaco" font-size="20.0" fill="#000000" transform="matrix(1.00, 0.00, -0.00, -1.00, 240.1, 5.7)">y</text><text xml:space="preserve" font-family="Monaco,Monaco" font-size="20.0" fill="#000000" transform="matrix(1.00, 0.00, -0.00, -1.00, 252.1, 5.7)">o</text><text xml:space="preserve" font-family="Monaco,Monaco" font-size="20.0" fill="#000000" transform="matrix(1.00, 0.00, -0.00, -1.00, 264.1, 5.7)">u</text><text xml:space="preserve" font-family="Monaco,Monaco" font-size="20.0" fill="#000000" transform="matrix(1.00, 0.00, -0.00, -1.00, 276.1, 5.7)">‘</text><text xml:space="preserve" font-family="Monaco,Monaco" font-size="20.0" fill="#000000" transform="matrix(1.00, 0.00, -0.00, -1.00, 288.1, 5.7)">l</text><text xml:space="preserve" font-family="Monaco,Monaco" font-size="20.0" fill="#000000" transform="matrix(1.00, 0.00, -0.00, -1.00, 300.1, 5.7)">l</text><text xml:space="preserve" font-family="Monaco,Monaco" font-size="20.0" fill="#000000" transform="matrix(1.00, 0.00, -0.00, -1.00, 312.1, 5.7)"> </text><text xml:space="preserve" font-family="Monaco,Monaco" font-size="20.0" fill="#000000" transform="matrix(1.00, 0.00, -0.00, -1.00, 324.1, 5.7)">f</text><text xml:space="preserve" font-family="Monaco,Monaco" font-size="20.0" fill="#000000" transform="matrix(1.00, 0.00, -0.00, -1.00, 336.1, 5.7)">i</text><text xml:space="preserve" font-family="Monaco,Monaco" font-size="20.0" fill="#000000" transform="matrix(1.00, 0.00, -0.00, -1.00, 348.1, 5.7)">n</text><text xml:space="preserve" font-family="Monaco,Monaco" font-size="20.0" fill="#000000" transform="matrix(1.00, 0.00, -0.00, -1.00, 360.1, 5.7)">d</text><text xml:space="preserve" font-family="Monaco,Monaco" font-size="20.0" fill="#000000" transform="matrix(1.00, 0.00, -0.00, -1.00, 372.1, 5.7)"> </text><text xml:space="preserve" font-family="Menlo-Regular,Menlo" font-size="20.0" fill="#8A2062" transform="matrix(1.00, 0.00, -0.00, -1.00, 384.1, 5.7)">s</text><text xml:space="preserve" font-family="Menlo-Regular,Menlo" font-size="20.0" fill="#8A2062" transform="matrix(1.00, 0.00, -0.00, -1.00, 396.1, 5.7)">e</text><text xml:space="preserve" font-family="Menlo-Regular,Menlo" font-size="20.0" fill="#8A2062" transform="matrix(1.00, 0.00, -0.00, -1.00, 408.1, 5.7)">l</text><text xml:space="preserve" font-family="Menlo-Regular,Menlo" font-size="20.0" fill="#8A2062" transform="matrix(1.00, 0.00, -0.00, -1.00, 420.2, 5.7)">f</text><text xml:space="preserve" font-family="Menlo-Regular,Menlo" font-size="20.0" fill="#000000" transform="matrix(1.00, 0.00, -0.00, -1.00, 432.2, 5.7)">.</text><text xml:space="preserve" font-family="Menlo-Regular,Menlo" font-size="20.0" fill="#4E8087" transform="matrix(1.00, 0.00, -0.00, -1.00, 444.3, 5.7)">f</text><text xml:space="preserve" font-family="Menlo-Regular,Menlo" font-size="20.0" fill="#4E8087" transform="matrix(1.00, 0.00, -0.00, -1.00, 456.3, 5.7)">l</text><text xml:space="preserve" font-family="Menlo-Regular,Menlo" font-size="20.0" fill="#4E8087" transform="matrix(1.00, 0.00, -0.00, -1.00, 468.4, 5.7)">i</text><text xml:space="preserve" font-family="Menlo-Regular,Menlo" font-size="20.0" fill="#4E8087" transform="matrix(1.00, 0.00, -0.00, -1.00, 480.4, 5.7)">g</text><text xml:space="preserve" font-family="Menlo-Regular,Menlo" font-size="20.0" fill="#4E8087" transform="matrix(1.00, 0.00, -0.00, -1.00, 492.4, 5.7)">h</text><text xml:space="preserve" font-family="Menlo-Regular,Menlo" font-size="20.0" fill="#4E8087" transform="matrix(1.00, 0.00, -0.00, -1.00, 504.5, 5.7)">t</text><text xml:space="preserve" font-family="Menlo-Regular,Menlo" font-size="20.0" fill="#4E8087" transform="matrix(1.00, 0.00, -0.00, -1.00, 516.5, 5.7)">P</text><text xml:space="preserve" font-family="Menlo-Regular,Menlo" font-size="20.0" fill="#4E8087" transform="matrix(1.00, 0.00, -0.00, -1.00, 528.6, 5.7)">l</text><text xml:space="preserve" font-family="Menlo-Regular,Menlo" font-size="20.0" fill="#4E8087" transform="matrix(1.00, 0.00, -0.00, -1.00, 540.6, 5.7)">a</text><text xml:space="preserve" font-family="Menlo-Regular,Menlo" font-size="20.0" fill="#4E8087" transform="matrix(1.00, 0.00, -0.00, -1.00, 552.7, 5.7)">n</text><text xml:space="preserve" font-family="Menlo-Regular,Menlo" font-size="20.0" fill="#4E8087" transform="matrix(1.00, 0.00, -0.00, -1.00, 564.7, 5.7)">e</text><text xml:space="preserve" font-family="Menlo-Regular,Menlo" font-size="20.0" fill="#4E8087" transform="matrix(1.00, 0.00, -0.00, -1.00, 576.7, 5.7)">V</text><text xml:space="preserve" font-family="Menlo-Regular,Menlo" font-size="20.0" fill="#4E8087" transform="matrix(1.00, 0.00, -0.00, -1.00, 588.8, 5.7)">i</text><text xml:space="preserve" font-family="Menlo-Regular,Menlo" font-size="20.0" fill="#4E8087" transform="matrix(1.00, 0.00, -0.00, -1.00, 600.8, 5.7)">e</text><text xml:space="preserve" font-family="Menlo-Regular,Menlo" font-size="20.0" fill="#4E8087" transform="matrix(1.00, 0.00, -0.00, -1.00, 612.9, 5.7)">w</text><text xml:space="preserve" font-family="Menlo-Regular,Menlo" font-size="20.0" fill="#4E8087" transform="matrix(1.00, 0.00, -0.00, -1.00, 624.9, 5.7)"> </text><text xml:space="preserve" font-family="Monaco,Monaco" font-size="20.0" fill="#000000" transform="matrix(1.00, 0.00, -0.00, -1.00, 636.9, 5.7)">t</text><text xml:space="preserve" font-family="Monaco,Monaco" font-size="20.0" fill="#000000" transform="matrix(1.00, 0.00, -0.00, -1.00, 648.9, 5.7)">h</text><text xml:space="preserve" font-family="Monaco,Monaco" font-size="20.0" fill="#000000" transform="matrix(1.00, 0.00, -0.00, -1.00, 660.9, 5.7)">a</text><text xml:space="preserve" font-family="Monaco,Monaco" font-size="20.0" fill="#000000" transform="matrix(1.00, 0.00, -0.00, -1.00, 672.9, 5.7)">t</text><text xml:space="preserve" font-family="Monaco,Monaco" font-size="20.0" fill="#000000" transform="matrix(1.00, 0.00, -0.00, -1.00, 684.9, 5.7)"> </text><text xml:space="preserve" font-family="Monaco,Monaco" font-size="20.0" fill="#000000" transform="matrix(1.00, 0.00, -0.00, -1.00, 696.9, 5.7)">h</text><text xml:space="preserve" font-family="Monaco,Monaco" font-size="20.0" fill="#000000" transform="matrix(1.00, 0.00, -0.00, -1.00, 708.9, 5.7)">o</text><text xml:space="preserve" font-family="Monaco,Monaco" font-size="20.0" fill="#000000" transform="matrix(1.00, 0.00, -0.00, -1.00, 721.0, 5.7)">l</text><text xml:space="preserve" font-family="Monaco,Monaco" font-size="20.0" fill="#000000" transform="matrix(1.00, 0.00, -0.00, -1.00, 733.0, 5.7)">d</text><text xml:space="preserve" font-family="Monaco,Monaco" font-size="20.0" fill="#000000" transform="matrix(1.00, 0.00, -0.00, -1.00, 745.0, 5.7)">s</text><text xml:space="preserve" font-family="Monaco,Monaco" font-size="20.0" fill="#000000" transform="matrix(1.00, 0.00, -0.00, -1.00, 757.0, 5.7)"> </text><text xml:space="preserve" font-family="Monaco,Monaco" font-size="20.0" fill="#000000" transform="matrix(1.00, 0.00, -0.00, -1.00, 769.0, 5.7)">t</text><text xml:space="preserve" font-family="Monaco,Monaco" font-size="20.0" fill="#000000" transform="matrix(1.00, 0.00, -0.00, -1.00, 781.0, 5.7)">h</text><text xml:space="preserve" font-family="Monaco,Monaco" font-size="20.0" fill="#000000" transform="matrix(1.00, 0.00, -0.00, -1.00, 793.0, 5.7)">e</text></g></svg>