<?xml version="1.0" encoding="UTF-8" standalone="no"?><svg xmlns="http://www.w3.org/2000/svg" xmlns:xlink="http://www.w3.org/1999/xlink" clip-rule="evenodd" stroke-miterlimit="10" viewBox="0 0 142 21"><desc>SVG generated by Keynote</desc><defs></defs><g transform="matrix(1.00, 0.00, -0.00, -1.00, 0.0, 21.0)"><text xml:space="preserve" font-family="Helvetica,Helvetica" font-size="20.0" fill="#000000" transform="matrix(1.00, 0.00, -0.00, -1.00, 1.2, 5.6)">V</text><text xml:space="preserve" font-family="Helvetica,Helvetica" font-size="20.0" fill="#000000" transform="matrix(1.00, 0.00, -0.00, -1.00, 13.0, 5.6)">a</text><text xml:space="preserve" font-family="Helvetica,Helvetica" font-size="20.0" fill="#000000" transform="matrix(1.00, 0.00, -0.00, -1.00, 24.1, 5.6)">r</text><text xml:space="preserve" font-family="Helvetica,Helvetica" font-size="20.0" fill="#000000" transform="matrix(1.00, 0.00, -0.00, -1.00, 30.8, 5.6)">i</text><text xml:space="preserve" font-family="Helvetica,Helvetica" font-size="20.0" fill="#000000" transform="matrix(1.00, 0.00, -0.00, -1.00, 35.3, 5.6)">o</text><text xml:space="preserve" font-family="Helvetica,Helvetica" font-size="20.0" fill="#000000" transform="matrix(1.00, 0.00, -0.00, -1.00, 46.4, 5.6)">u</text><text xml:space="preserve" font-family="Helvetica,Helvetica" font-size="20.0" fill="#000000" transform="matrix(1.00, 0.00, -0.00, -1.00, 57.5, 5.6)">s</text><text xml:space="preserve" font-family="Helvetica,Helvetica" font-size="20.0" fill="#000000" transform="matrix(1.00, 0.00, -0.00, -1.00, 67.5, 5.6)"> </text><text xml:space="preserve" font-family="Helvetica,Helvetica" font-size="20.0" fill="#000000" transform="matrix(1.00, 0.00, -0.00, -1.00, 73.1, 5.6)">w</text><text xml:space="preserve" font-family="Helvetica,Helvetica" font-size="20.0" fill="#000000" transform="matrix(1.00, 0.00, -0.00, -1.00, 87.5, 5.6)">a</text><text xml:space="preserve" font-family="Helvetica,Helvetica" font-size="20.0" fill="#000000" transform="matrix(1.00, 0.00, -0.00, -1.00, 98.6, 5.6)">y</text><text xml:space="preserve" font-family="Helvetica,Helvetica" font-size="20.0" fill="#000000" transform="matrix(1.00, 0.00, -0.00, -1.00, 108.6, 5.6)">s</text><text xml:space="preserve" font-family="Helvetica,Helvetica" font-size="20.0" fill="#000000" transform="matrix(1.00, 0.00, -0.00, -1.00, 118.6, 5.6)"> </text><text xml:space="preserve" font-family="Helvetica,Helvetica" font-size="20.0" fill="#000000" transform="matrix(1.00, 0.00, -0.00, -1.00, 124.2, 5.6)">t</text><text xml:space="preserve" font-family="Helvetica,Helvetica" font-size="20.0" fill="#000000" transform="matrix(1.00, 0.00, -0.00, -1.00, 129.7, 5.6)">o</text></g></svg>