<?xml version="1.0" encoding="UTF-8" standalone="no"?><svg xmlns="http://www.w3.org/2000/svg" xmlns:xlink="http://www.w3.org/1999/xlink" clip-rule="evenodd" stroke-miterlimit="10" viewBox="0 0 298 52"><desc>SVG generated by Keynote</desc><defs></defs><g transform="matrix(1.00, 0.00, -0.00, -1.00, 0.0, 52.0)"><text xml:space="preserve" font-family="Helvetica,Helvetica" font-size="51.3" fill="#D71E00" transform="matrix(1.00, 0.00, -0.00, -1.00, 0.0, 9.8)">-</text><text xml:space="preserve" font-family="Helvetica,Helvetica" font-size="30.0" fill="#000000" transform="matrix(1.00, 0.00, -0.00, -1.00, 45.0, 17.9)">N</text><text xml:space="preserve" font-family="Helvetica,Helvetica" font-size="30.0" fill="#000000" transform="matrix(1.00, 0.00, -0.00, -1.00, 66.7, 17.9)">e</text><text xml:space="preserve" font-family="Helvetica,Helvetica" font-size="30.0" fill="#000000" transform="matrix(1.00, 0.00, -0.00, -1.00, 83.4, 17.9)">e</text><text xml:space="preserve" font-family="Helvetica,Helvetica" font-size="30.0" fill="#000000" transform="matrix(1.00, 0.00, -0.00, -1.00, 100.1, 17.9)">d</text><text xml:space="preserve" font-family="Helvetica,Helvetica" font-size="30.0" fill="#000000" transform="matrix(1.00, 0.00, -0.00, -1.00, 116.7, 17.9)">s</text><text xml:space="preserve" font-family="Helvetica,Helvetica" font-size="30.0" fill="#000000" transform="matrix(1.00, 0.00, -0.00, -1.00, 131.7, 17.9)"> </text><text xml:space="preserve" font-family="Helvetica,Helvetica" font-size="30.0" fill="#000000" transform="matrix(1.00, 0.00, -0.00, -1.00, 140.1, 17.9)">C</text><text xml:space="preserve" font-family="Helvetica,Helvetica" font-size="30.0" fill="#000000" transform="matrix(1.00, 0.00, -0.00, -1.00, 161.7, 17.9)">P</text><text xml:space="preserve" font-family="Helvetica,Helvetica" font-size="30.0" fill="#000000" transform="matrix(1.00, 0.00, -0.00, -1.00, 181.8, 17.9)">U</text><text xml:space="preserve" font-family="Helvetica,Helvetica" font-size="30.0" fill="#000000" transform="matrix(1.00, 0.00, -0.00, -1.00, 203.4, 17.9)"> </text><text xml:space="preserve" font-family="Helvetica,Helvetica" font-size="30.0" fill="#000000" transform="matrix(1.00, 0.00, -0.00, -1.00, 211.8, 17.9)">P</text><text xml:space="preserve" font-family="Helvetica,Helvetica" font-size="30.0" fill="#000000" transform="matrix(1.00, 0.00, -0.00, -1.00, 231.8, 17.9)">o</text><text xml:space="preserve" font-family="Helvetica,Helvetica" font-size="30.0" fill="#000000" transform="matrix(1.00, 0.00, -0.00, -1.00, 248.5, 17.9)">w</text><text xml:space="preserve" font-family="Helvetica,Helvetica" font-size="30.0" fill="#000000" transform="matrix(1.00, 0.00, -0.00, -1.00, 270.1, 17.9)">e</text><text xml:space="preserve" font-family="Helvetica,Helvetica" font-size="30.0" fill="#000000" transform="matrix(1.00, 0.00, -0.00, -1.00, 286.8, 17.9)">r</text></g></svg>