<?xml version="1.0" encoding="UTF-8" standalone="no"?><svg xmlns="http://www.w3.org/2000/svg" xmlns:xlink="http://www.w3.org/1999/xlink" clip-rule="evenodd" stroke-miterlimit="10" viewBox="0 0 445 62"><desc>SVG generated by Keynote</desc><defs></defs><g transform="matrix(1.00, 0.00, -0.00, -1.00, 0.0, 62.0)"><text xml:space="preserve" font-family="LucidaGrande,Lucida Grande" font-size="51.3" fill="#37D000" transform="matrix(1.00, 0.00, -0.00, -1.00, 0.0, 14.3)">✓</text><text xml:space="preserve" font-family="Helvetica,Helvetica" font-size="30.0" fill="#000000" transform="matrix(1.00, 0.00, -0.00, -1.00, 45.0, 22.9)">E</text><text xml:space="preserve" font-family="Helvetica,Helvetica" font-size="30.0" fill="#000000" transform="matrix(1.00, 0.00, -0.00, -1.00, 65.0, 22.9)">n</text><text xml:space="preserve" font-family="Helvetica,Helvetica" font-size="30.0" fill="#000000" transform="matrix(1.00, 0.00, -0.00, -1.00, 81.7, 22.9)">a</text><text xml:space="preserve" font-family="Helvetica,Helvetica" font-size="30.0" fill="#000000" transform="matrix(1.00, 0.00, -0.00, -1.00, 98.4, 22.9)">b</text><text xml:space="preserve" font-family="Helvetica,Helvetica" font-size="30.0" fill="#000000" transform="matrix(1.00, 0.00, -0.00, -1.00, 115.1, 22.9)">l</text><text xml:space="preserve" font-family="Helvetica,Helvetica" font-size="30.0" fill="#000000" transform="matrix(1.00, 0.00, -0.00, -1.00, 121.8, 22.9)">e</text><text xml:space="preserve" font-family="Helvetica,Helvetica" font-size="30.0" fill="#000000" transform="matrix(1.00, 0.00, -0.00, -1.00, 138.4, 22.9)">s</text><text xml:space="preserve" font-family="Helvetica,Helvetica" font-size="30.0" fill="#000000" transform="matrix(1.00, 0.00, -0.00, -1.00, 153.4, 22.9)"> </text><text xml:space="preserve" font-family="Helvetica,Helvetica" font-size="30.0" fill="#000000" transform="matrix(1.00, 0.00, -0.00, -1.00, 161.8, 22.9)">i</text><text xml:space="preserve" font-family="Helvetica,Helvetica" font-size="30.0" fill="#000000" transform="matrix(1.00, 0.00, -0.00, -1.00, 168.4, 22.9)">n</text><text xml:space="preserve" font-family="Helvetica,Helvetica" font-size="30.0" fill="#000000" transform="matrix(1.00, 0.00, -0.00, -1.00, 185.1, 22.9)">t</text><text xml:space="preserve" font-family="Helvetica,Helvetica" font-size="30.0" fill="#000000" transform="matrix(1.00, 0.00, -0.00, -1.00, 193.5, 22.9)">u</text><text xml:space="preserve" font-family="Helvetica,Helvetica" font-size="30.0" fill="#000000" transform="matrix(1.00, 0.00, -0.00, -1.00, 210.2, 22.9)">i</text><text xml:space="preserve" font-family="Helvetica,Helvetica" font-size="30.0" fill="#000000" transform="matrix(1.00, 0.00, -0.00, -1.00, 216.8, 22.9)">t</text><text xml:space="preserve" font-family="Helvetica,Helvetica" font-size="30.0" fill="#000000" transform="matrix(1.00, 0.00, -0.00, -1.00, 225.2, 22.9)">i</text><text xml:space="preserve" font-family="Helvetica,Helvetica" font-size="30.0" fill="#000000" transform="matrix(1.00, 0.00, -0.00, -1.00, 231.8, 22.9)">v</text><text xml:space="preserve" font-family="Helvetica,Helvetica" font-size="30.0" fill="#000000" transform="matrix(1.00, 0.00, -0.00, -1.00, 246.8, 22.9)">e</text><text xml:space="preserve" font-family="Helvetica,Helvetica" font-size="30.0" fill="#000000" transform="matrix(1.00, 0.00, -0.00, -1.00, 263.5, 22.9)"> </text><text xml:space="preserve" font-family="Helvetica,Helvetica" font-size="30.0" fill="#000000" transform="matrix(1.00, 0.00, -0.00, -1.00, 271.8, 22.9)">g</text><text xml:space="preserve" font-family="Helvetica,Helvetica" font-size="30.0" fill="#000000" transform="matrix(1.00, 0.00, -0.00, -1.00, 288.5, 22.9)">a</text><text xml:space="preserve" font-family="Helvetica,Helvetica" font-size="30.0" fill="#000000" transform="matrix(1.00, 0.00, -0.00, -1.00, 305.2, 22.9)">m</text><text xml:space="preserve" font-family="Helvetica,Helvetica" font-size="30.0" fill="#000000" transform="matrix(1.00, 0.00, -0.00, -1.00, 330.2, 22.9)">e</text><text xml:space="preserve" font-family="Helvetica,Helvetica" font-size="30.0" fill="#000000" transform="matrix(1.00, 0.00, -0.00, -1.00, 346.9, 22.9)"> </text><text xml:space="preserve" font-family="Helvetica,Helvetica" font-size="30.0" fill="#000000" transform="matrix(1.00, 0.00, -0.00, -1.00, 355.2, 22.9)">c</text><text xml:space="preserve" font-family="Helvetica,Helvetica" font-size="30.0" fill="#000000" transform="matrix(1.00, 0.00, -0.00, -1.00, 370.2, 22.9)">o</text><text xml:space="preserve" font-family="Helvetica,Helvetica" font-size="30.0" fill="#000000" transform="matrix(1.00, 0.00, -0.00, -1.00, 386.9, 22.9)">n</text><text xml:space="preserve" font-family="Helvetica,Helvetica" font-size="30.0" fill="#000000" transform="matrix(1.00, 0.00, -0.00, -1.00, 403.6, 22.9)">t</text><text xml:space="preserve" font-family="Helvetica,Helvetica" font-size="30.0" fill="#000000" transform="matrix(1.00, 0.00, -0.00, -1.00, 411.9, 22.9)">r</text><text xml:space="preserve" font-family="Helvetica,Helvetica" font-size="30.0" fill="#000000" transform="matrix(1.00, 0.00, -0.00, -1.00, 421.9, 22.9)">o</text><text xml:space="preserve" font-family="Helvetica,Helvetica" font-size="30.0" fill="#000000" transform="matrix(1.00, 0.00, -0.00, -1.00, 438.6, 22.9)">l</text></g></svg>