<?xml version="1.0" encoding="UTF-8" standalone="no"?><svg xmlns="http://www.w3.org/2000/svg" xmlns:xlink="http://www.w3.org/1999/xlink" clip-rule="evenodd" stroke-miterlimit="10" viewBox="0 0 1026 771"><desc>SVG generated by Keynote</desc><defs></defs><g transform="matrix(1.00, 0.00, -0.00, -1.00, 0.0, 771.0)"><g><clipPath id="clip0x6080052a9ba0"><path d="M 876.7 641.8 C 873.4 642.1 869.3 641.7 863.7 640.9 C 860.0 640.4 856.1 639.9 855.1 639.7 C 854.0 639.6 852.7 639.3 852.0 639.1 C 851.4 638.8 850.5 638.8 850.0 639.0 C 849.5 639.2 848.8 639.1 848.6 638.7 C 848.4 638.3 847.7 638.2 847.0 638.3 C 846.3 638.5 845.6 638.4 845.4 638.0 C 845.2 637.7 844.3 637.6 843.5 637.8 C 842.7 638.0 841.9 637.9 841.7 637.5 C 841.4 637.0 836.8 636.1 833.3 635.9 C 832.6 635.8 831.7 635.6 831.4 635.4 C 830.5 635.0 820.1 633.3 818.9 633.5 C 818.4 633.5 817.5 633.4 817.0 633.2 C 816.1 632.8 815.3 632.6 811.9 632.1 C 811.0 632.0 809.8 631.7 809.3 631.5 C 808.8 631.3 807.2 631.0 805.8 630.9 C 804.4 630.7 802.7 630.4 802.1 630.2 C 801.5 629.9 800.6 629.8 800.1 630.0 C 799.5 630.2 799.0 630.1 798.8 629.8 C 798.6 629.5 797.9 629.2 797.3 629.2 C 794.5 629.0 792.3 628.7 791.2 628.2 C 790.6 628.0 789.7 627.9 789.2 628.1 C 788.7 628.3 788.1 628.2 787.8 627.8 C 787.6 627.4 787.0 627.3 786.5 627.5 C 785.9 627.7 785.2 627.6 784.8 627.3 C 784.1 626.8 778.3 625.8 775.7 625.9 C 775.1 625.9 774.1 625.6 773.7 625.2 C 773.2 624.8 772.4 624.7 771.9 624.9 C 771.4 625.1 770.8 625.0 770.6 624.6 C 770.3 624.3 769.6 624.2 768.9 624.4 C 768.2 624.6 767.3 624.5 766.8 624.1 C 766.3 623.7 764.7 623.3 763.1 623.1 C 761.6 623.0 759.9 622.8 759.4 622.6 C 758.9 622.4 749.4 620.6 738.3 618.6 C 703.2 612.5 701.5 612.1 694.6 608.7 C 681.7 602.3 674.2 592.0 670.4 575.4 C 669.7 572.4 668.9 569.5 668.7 569.0 C 668.5 568.5 668.2 567.3 668.1 566.3 C 667.5 561.6 665.2 552.7 664.4 551.8 C 663.0 550.2 661.3 542.8 662.1 541.8 C 662.9 540.9 662.4 537.9 661.3 536.5 C 661.0 536.1 660.9 535.5 661.1 535.1 C 661.4 534.7 661.3 534.1 661.1 533.6 C 660.8 533.2 660.5 532.6 660.5 532.2 C 660.4 529.5 659.3 524.8 658.8 524.5 C 658.5 524.3 658.4 523.8 658.6 523.5 C 658.9 523.1 658.7 522.5 658.3 522.0 C 657.9 521.5 657.7 520.9 657.7 520.6 C 658.0 519.5 656.9 513.3 656.3 513.0 C 656.0 512.8 655.9 512.2 656.1 511.8 C 656.3 511.3 656.2 510.7 655.8 510.5 C 655.4 510.3 655.3 509.7 655.5 509.1 C 655.7 508.6 655.5 507.8 655.1 507.3 C 654.7 506.8 654.5 506.1 654.7 505.7 C 654.9 505.4 654.8 504.9 654.4 504.7 C 654.0 504.4 653.9 503.8 654.1 503.3 C 654.3 502.8 654.3 502.0 654.0 501.6 C 653.8 501.3 653.5 500.0 653.4 498.8 C 653.3 497.6 653.0 496.3 652.7 495.9 C 652.4 495.4 652.3 494.6 652.4 494.0 C 652.5 493.4 652.3 492.8 651.9 492.6 C 651.6 492.3 651.5 491.8 651.6 491.3 C 651.8 490.8 651.7 490.2 651.3 490.0 C 651.0 489.8 650.8 489.2 651.0 488.7 C 651.2 488.1 651.0 487.3 650.6 486.8 C 650.2 486.3 650.0 485.7 650.0 485.4 C 650.1 485.1 650.1 484.7 650.0 484.5 C 649.9 484.3 649.8 483.1 649.6 481.8 C 649.5 480.5 649.2 479.1 648.9 478.7 C 648.7 478.3 648.4 476.9 648.3 475.7 C 648.2 474.4 647.8 473.2 647.5 472.8 C 647.1 472.5 647.0 471.8 647.2 471.4 C 647.4 470.9 647.0 469.5 646.4 468.3 C 645.9 467.0 645.5 465.8 645.8 465.4 C 646.0 465.1 645.9 464.6 645.5 464.4 C 645.2 464.2 645.1 463.6 645.2 463.1 C 645.4 462.6 644.9 461.7 643.9 461.1 C 642.6 460.3 642.3 459.6 642.6 458.5 C 642.8 457.7 642.6 456.9 642.3 456.7 C 641.9 456.4 641.8 455.7 642.0 455.1 C 642.2 454.4 642.1 453.7 641.7 453.5 C 641.3 453.3 641.3 452.6 641.6 451.6 C 641.9 450.8 642.1 449.4 642.0 448.6 C 641.8 447.8 641.5 446.0 641.3 444.6 C 641.1 443.3 640.7 441.6 640.4 441.0 C 640.0 440.4 639.9 439.7 640.2 439.5 C 640.4 439.3 640.2 438.7 639.8 438.2 C 639.4 437.8 639.3 437.2 639.5 437.0 C 639.7 436.8 639.6 436.2 639.3 435.8 C 639.0 435.3 638.7 434.3 638.6 433.6 C 638.4 431.6 638.0 429.2 637.8 429.2 C 637.8 429.2 637.6 428.3 637.5 427.3 C 637.1 424.2 636.3 424.1 632.5 426.5 C 621.2 433.8 610.9 435.5 600.5 431.9 C 594.2 429.8 590.8 427.9 586.7 424.0 C 573.8 412.0 571.9 395.0 581.9 378.6 C 583.2 376.5 586.6 371.8 589.4 368.1 C 597.9 357.3 607.6 344.1 607.4 343.8 C 607.2 343.6 607.7 343.1 608.4 342.6 C 609.4 341.9 609.5 341.5 609.0 340.8 C 608.5 340.2 607.9 340.1 607.2 340.5 C 606.2 341.0 603.9 341.9 603.2 342.1 C 603.1 342.1 602.6 342.4 602.1 342.6 C 601.7 342.9 601.0 343.0 600.7 342.8 C 600.4 342.6 600.0 342.7 599.8 342.9 C 599.7 343.2 596.7 343.5 593.2 343.6 C 583.4 343.9 576.5 341.2 569.2 334.2 C 561.2 326.6 557.9 315.8 559.7 302.8 C 560.3 298.5 561.1 296.1 563.3 291.7 L 566.1 286.0 L 563.7 285.0 C 558.3 282.8 556.7 281.9 553.6 278.8 C 549.7 274.9 546.7 268.9 545.7 263.0 C 544.7 256.9 545.7 247.9 549.5 230.1 C 549.8 228.7 551.5 223.1 553.3 217.6 C 556.8 206.9 566.0 187.3 569.3 183.5 C 570.4 182.3 571.2 180.8 571.2 180.1 C 571.2 178.9 573.2 172.7 574.4 170.0 C 575.9 166.8 581.4 155.0 585.9 145.6 C 588.7 140.0 591.3 134.4 591.8 133.2 C 592.2 131.9 594.7 126.7 597.3 121.5 C 599.8 116.4 602.0 111.8 602.0 111.3 C 602.0 110.8 603.3 107.7 604.9 104.4 C 609.0 95.9 614.2 82.9 617.2 73.6 C 619.1 67.9 620.8 62.5 622.6 56.6 C 622.6 56.5 622.7 56.5 622.7 56.4 C 622.8 55.8 623.1 54.7 623.6 53.9 C 624.0 53.2 624.1 52.8 623.9 52.3 C 624.3 51.1 625.4 47.7 625.5 47.4 C 625.5 47.3 625.6 45.3 625.7 44.7 C 626.0 43.6 626.2 40.3 626.4 35.7 C 626.6 31.9 626.8 29.3 627.0 27.8 C 627.4 27.2 627.6 26.0 628.5 20.2 C 628.7 19.1 629.1 16.8 629.4 15.1 C 629.7 13.3 630.2 10.1 630.4 7.9 C 630.6 5.7 631.0 3.5 631.2 2.9 C 631.2 2.7 632.7 2.6 637.5 2.4 C 637.6 2.4 637.9 2.4 638.1 2.4 C 642.9 2.3 650.9 2.2 664.3 2.1 C 690.8 2.0 737.1 2.0 827.7 2.0 C 828.0 2.0 828.0 2.0 828.3 2.0 L 1025.0 2.0 L 1025.0 70.8 L 1025.0 139.6 L 1020.4 144.5 C 1017.8 147.3 1015.4 149.7 1014.9 150.0 C 1014.5 150.3 1014.1 150.9 1014.1 151.3 C 1014.1 151.8 1013.3 153.0 1012.2 154.0 C 1011.2 155.1 1010.3 156.1 1010.3 156.4 C 1010.3 156.7 1008.8 158.7 1006.9 160.9 C 1005.1 163.1 1002.9 165.9 1002.0 167.1 C 1001.1 168.3 1000.1 169.6 999.6 169.8 C 999.1 170.1 998.8 170.7 998.8 171.2 C 998.8 171.6 998.0 172.7 997.2 173.5 C 996.3 174.3 995.7 175.1 995.9 175.3 C 996.1 175.5 995.5 176.4 994.7 177.3 C 992.8 179.2 982.1 195.1 982.1 195.8 C 982.1 196.1 981.7 196.7 981.1 197.2 C 980.1 198.1 976.8 203.4 971.4 213.2 C 970.5 214.7 969.4 216.3 968.9 216.6 C 968.4 216.8 968.0 217.7 968.0 218.4 C 968.0 219.6 966.6 222.7 965.1 224.7 C 964.7 225.2 964.0 226.7 963.6 228.0 C 963.2 229.3 962.0 231.5 961.0 232.9 C 959.9 234.4 959.1 236.1 959.1 236.9 C 959.1 238.8 957.3 242.1 955.4 243.6 C 954.0 244.8 953.8 245.4 953.9 248.0 C 954.1 253.3 950.4 258.1 944.5 260.1 C 942.3 260.9 942.1 261.2 941.7 263.8 C 941.1 268.0 939.8 270.7 936.4 274.6 C 934.7 276.5 932.4 280.1 931.1 282.6 C 929.9 285.1 927.8 288.4 926.5 290.0 C 925.2 291.5 923.5 294.1 922.7 295.6 C 921.2 298.6 919.3 305.5 919.4 307.9 C 919.5 311.6 917.5 316.0 914.3 319.2 L 911.0 322.4 L 911.0 330.7 C 911.2 335.2 911.9 342.1 912.1 346.0 C 912.5 353.4 911.5 371.9 910.4 379.1 C 910.0 381.4 909.2 384.0 908.6 384.8 C 907.9 385.6 907.2 386.9 907.0 387.6 C 906.3 389.8 899.3 396.1 895.9 397.6 C 891.7 399.5 881.9 400.0 877.1 398.5 C 875.3 398.0 873.5 397.7 873.2 397.9 C 873.0 398.0 871.0 397.4 868.9 396.6 C 866.8 395.7 864.9 395.2 864.8 395.4 C 864.3 396.3 864.5 399.4 865.1 399.8 C 865.4 400.0 865.5 400.8 865.3 401.6 C 865.1 402.4 865.2 403.3 865.6 403.5 C 866.0 403.8 866.1 404.7 865.9 405.5 C 865.7 406.4 865.8 407.5 866.3 408.0 C 866.7 408.5 866.8 409.5 866.6 410.2 C 866.4 410.9 866.6 411.6 866.9 411.9 C 867.3 412.1 867.5 413.1 867.2 414.1 C 867.0 415.2 867.1 416.1 867.5 416.4 C 867.9 416.6 868.1 417.4 867.9 418.0 C 867.6 418.7 867.8 419.7 868.2 420.2 C 868.6 420.7 868.8 421.7 868.5 422.4 C 868.3 423.1 868.5 423.8 868.9 424.0 C 869.3 424.3 869.4 425.2 869.2 426.3 C 868.9 427.3 869.1 428.3 869.5 428.5 C 869.8 428.8 870.0 429.5 869.8 430.2 C 869.6 430.9 869.7 431.9 870.1 432.4 C 870.5 432.9 870.7 433.8 870.5 434.5 C 870.2 435.2 870.4 436.0 870.8 436.2 C 871.2 436.5 871.3 437.4 871.1 438.4 C 870.9 439.5 871.0 440.4 871.4 440.7 C 871.8 440.9 871.9 441.7 871.7 442.4 C 871.5 443.1 871.6 444.0 872.0 444.5 C 872.5 445.0 872.6 446.0 872.4 446.7 C 872.2 447.4 872.2 448.4 872.5 448.8 C 872.8 449.3 873.0 450.4 873.0 451.2 C 873.0 452.2 873.3 452.8 873.8 452.7 C 874.4 452.6 874.4 453.0 873.9 454.2 C 873.5 455.3 873.5 456.2 873.9 456.6 C 874.3 457.1 874.4 458.0 874.2 458.8 C 874.0 459.6 874.1 460.6 874.4 461.0 C 874.8 461.4 875.0 462.4 874.9 463.1 C 874.8 463.8 875.0 464.7 875.3 465.1 C 875.6 465.5 875.8 466.5 875.5 467.4 C 875.3 468.3 875.4 469.2 875.9 469.5 C 876.3 469.7 876.4 470.5 876.2 471.2 C 876.0 471.9 876.1 472.8 876.5 473.3 C 876.9 473.8 877.1 474.8 876.9 475.5 C 876.6 476.2 876.8 476.9 877.1 477.1 C 877.5 477.4 877.6 478.3 877.4 479.1 C 877.2 480.0 877.3 481.0 877.6 481.5 C 878.0 481.9 878.2 482.9 878.1 483.5 C 878.0 484.2 878.2 485.1 878.5 485.6 C 878.8 486.0 879.0 487.0 878.7 487.9 C 878.5 488.8 878.6 489.7 879.0 489.9 C 879.4 490.2 879.6 490.6 879.4 490.9 C 879.2 491.2 879.5 491.8 880.0 492.2 C 880.7 492.7 880.7 493.4 880.3 495.2 C 879.8 496.7 879.9 497.7 880.3 498.2 C 880.7 498.6 880.8 499.6 880.6 500.4 C 880.4 501.2 880.5 502.2 880.9 502.7 C 881.3 503.2 881.5 504.0 881.3 504.6 C 881.0 505.2 881.2 506.0 881.6 506.5 C 882.0 507.0 882.1 507.9 881.9 508.4 C 881.7 509.0 881.8 509.9 882.3 510.4 C 882.7 510.9 882.8 511.9 882.6 512.7 C 882.4 513.4 882.5 514.4 882.9 514.9 C 883.3 515.4 883.5 516.4 883.3 517.1 C 883.0 517.8 883.2 518.5 883.5 518.7 C 883.9 519.0 884.0 519.9 883.8 520.7 C 883.6 521.6 883.7 522.7 884.1 523.2 C 884.5 523.6 884.7 524.5 884.5 525.1 C 884.2 525.7 884.3 526.6 884.5 527.2 C 884.8 527.9 885.1 529.2 885.2 530.3 C 885.6 533.4 885.9 535.4 886.1 535.7 C 886.1 535.9 886.3 537.1 886.5 538.3 C 886.9 541.6 887.2 543.7 887.3 544.0 C 887.5 544.3 887.6 545.5 888.1 550.4 C 888.1 551.0 888.3 551.8 888.5 552.4 C 888.7 552.9 888.9 554.2 889.0 555.2 C 889.4 559.5 889.9 563.0 892.5 580.2 C 894.0 590.1 895.4 598.6 895.6 599.1 C 895.8 599.6 895.9 600.2 895.8 600.5 C 895.8 600.7 896.2 604.2 896.8 608.2 C 898.1 617.6 897.7 622.5 895.2 628.6 C 892.9 633.9 890.1 637.1 885.6 639.4 C 882.8 640.8 880.1 641.6 876.7 641.8 Z M 367.1 608.3 C 356.4 608.4 303.0 607.6 280.7 607.1 C 273.1 606.9 251.9 606.4 233.6 606.1 C 215.3 605.7 197.6 605.1 194.3 604.8 C 178.9 603.1 169.3 597.1 164.2 586.1 C 160.5 578.2 160.3 573.4 162.6 546.3 C 165.0 517.7 165.6 504.4 164.5 504.3 C 164.2 504.3 163.1 506.2 162.1 508.6 C 158.0 518.4 150.8 525.5 142.6 528.0 C 134.1 530.7 127.6 529.0 120.8 522.5 C 117.7 519.4 116.0 514.7 114.5 504.7 C 114.3 503.3 114.1 495.1 114.0 486.4 C 113.8 471.1 113.7 470.7 112.1 467.9 C 110.5 464.9 109.1 461.2 106.6 452.3 C 105.5 448.5 104.3 446.3 102.0 443.4 C 100.3 441.3 98.0 437.6 96.9 435.3 C 95.8 433.0 93.7 429.6 92.1 427.6 C 87.3 421.4 87.0 420.9 83.3 414.4 C 81.4 410.9 79.7 407.3 79.6 406.4 C 79.5 405.5 78.8 404.0 78.0 403.1 C 77.3 402.1 76.1 399.7 75.3 397.7 C 73.7 393.5 72.2 390.3 69.9 385.6 C 68.9 383.8 68.2 381.7 68.2 381.0 C 68.2 380.4 67.9 379.5 67.6 379.2 C 67.3 378.9 66.1 376.4 65.1 373.8 C 62.1 366.5 53.5 350.2 51.9 348.8 C 51.3 348.4 50.9 347.7 50.9 347.3 C 50.9 346.9 49.8 345.0 48.5 343.2 C 47.2 341.4 44.9 337.9 43.3 335.4 C 41.8 332.9 40.3 330.9 40.1 330.9 C 39.8 330.9 39.3 330.3 38.9 329.5 C 38.0 327.9 35.6 324.7 30.3 318.3 C 22.3 308.7 14.9 294.9 12.2 284.5 C 11.7 282.8 10.9 280.0 10.4 278.4 C 8.4 272.6 6.8 263.1 5.5 249.6 C 3.1 226.1 2.3 219.3 1.6 218.7 C 1.2 218.3 1.0 180.2 1.0 110.0 L 1.0 2.0 L 132.2 2.0 L 171.0 2.0 L 263.3 2.0 L 267.1 7.2 C 277.5 21.7 289.0 39.7 296.7 53.7 C 297.6 55.3 301.3 61.6 304.8 67.6 C 313.9 83.0 315.6 86.3 317.2 90.6 C 317.9 92.7 318.7 94.9 318.9 95.4 C 319.1 95.9 319.4 96.8 319.4 97.4 C 319.5 98.0 319.8 99.0 320.1 99.7 C 320.3 100.3 320.6 101.1 320.6 101.4 C 320.7 101.8 322.2 103.3 324.1 104.8 C 326.6 106.9 328.0 107.6 329.7 107.6 C 332.1 107.6 395.7 113.3 415.1 115.2 C 430.3 116.8 433.5 117.6 441.6 121.7 C 450.1 126.1 454.3 128.9 456.9 132.1 L 459.1 134.7 L 461.9 133.4 C 463.4 132.6 466.2 131.7 468.1 131.3 C 473.0 130.3 487.0 129.9 491.5 130.6 C 503.8 132.7 510.3 142.9 507.6 155.9 C 506.2 162.7 502.0 167.8 492.1 175.2 C 489.9 176.8 487.1 179.7 485.8 181.5 C 484.6 183.4 481.8 187.0 479.5 189.6 C 477.3 192.2 474.0 196.3 472.3 198.8 C 470.6 201.2 468.6 203.7 467.9 204.2 C 467.2 204.7 465.8 205.8 464.9 206.7 C 464.0 207.6 462.8 208.5 462.3 208.6 C 461.0 208.9 460.3 209.8 460.0 211.4 C 459.4 215.2 458.5 222.6 457.7 230.4 C 457.6 231.7 457.3 233.3 457.0 234.0 C 456.3 236.3 457.5 236.3 460.9 233.9 C 462.6 232.7 464.5 231.8 465.0 231.7 C 465.6 231.7 466.3 231.4 466.7 231.0 C 467.8 229.9 477.1 228.5 480.4 228.9 C 486.8 229.7 492.6 233.5 495.3 238.9 C 496.9 242.1 497.0 242.8 497.0 251.9 C 497.0 257.2 496.6 263.9 496.2 266.9 C 495.7 269.9 495.4 275.1 495.4 278.4 C 495.5 281.8 495.3 284.8 495.0 285.2 C 494.7 285.6 494.3 288.5 494.1 291.6 C 493.4 301.3 491.2 308.5 486.4 316.7 C 482.3 323.8 479.0 326.8 470.6 331.0 C 465.5 333.6 454.8 338.1 449.6 339.8 C 444.0 341.8 442.4 342.8 442.9 344.4 C 443.2 345.1 443.0 346.1 442.6 346.6 C 441.9 347.4 442.0 350.4 442.7 351.1 C 443.2 351.6 448.4 349.0 448.4 348.2 C 448.4 347.9 449.2 347.7 450.1 347.7 C 451.1 347.7 452.7 347.3 453.8 346.9 C 454.9 346.4 456.0 346.0 456.4 345.9 C 456.7 345.8 457.1 345.7 457.3 345.7 C 457.9 345.5 466.6 345.0 469.1 345.0 C 474.9 345.1 481.4 349.1 484.1 354.2 C 485.6 357.1 485.8 358.1 485.7 363.6 C 485.7 370.9 484.3 378.7 481.3 388.2 C 480.1 392.1 479.0 397.1 478.8 399.4 C 478.5 401.7 477.7 406.0 476.8 409.0 C 476.0 412.0 474.8 416.4 474.3 418.8 C 472.2 427.6 466.1 441.1 461.4 447.2 C 457.1 452.9 447.6 456.6 433.6 458.0 C 427.1 458.7 427.2 458.6 427.4 466.0 C 427.5 469.6 427.4 472.6 427.1 472.8 C 426.8 473.0 426.7 473.5 426.9 474.0 C 427.0 474.5 426.6 475.2 426.0 475.5 C 425.1 476.0 424.8 476.8 425.0 478.0 C 425.1 478.9 424.9 480.1 424.6 480.5 C 424.3 480.9 424.1 482.0 424.3 483.0 C 424.5 483.9 424.5 485.0 424.2 485.3 C 424.0 485.7 423.8 487.8 423.7 490.1 C 423.6 492.3 423.2 494.5 422.8 495.0 C 422.5 495.4 422.3 496.4 422.5 497.2 C 422.7 498.0 422.6 499.0 422.2 499.5 C 421.8 500.0 421.6 500.8 421.9 501.4 C 422.1 502.0 421.9 503.3 421.5 504.4 C 420.9 505.8 420.9 506.7 421.3 507.8 C 422.4 510.1 422.7 511.3 422.2 511.7 C 422.0 512.0 421.8 512.5 421.8 512.9 C 421.8 513.3 421.4 513.6 420.8 513.6 C 420.1 513.6 420.0 514.6 420.0 518.0 L 420.0 522.3 L 422.7 524.0 C 429.7 528.0 440.0 535.8 443.6 539.6 C 451.3 547.9 453.6 555.7 451.2 565.3 C 448.4 576.2 442.1 582.7 431.4 585.7 C 427.3 586.8 417.0 586.8 412.9 585.7 C 409.9 584.8 409.8 584.8 408.6 586.3 C 408.0 587.2 407.4 588.4 407.4 589.0 C 407.4 589.6 407.1 590.1 406.8 590.1 C 406.5 590.1 405.4 591.5 404.3 593.3 C 400.6 599.3 391.3 605.0 381.9 607.2 C 378.5 607.9 373.9 608.3 367.1 608.3 Z M 882.4 469.9 C 881.9 470.4 881.8 468.4 882.3 467.2 C 882.4 467.1 882.6 467.5 882.7 468.1 C 882.9 468.8 882.8 469.6 882.4 469.9 Z M 878.2 456.6 C 877.6 456.8 877.2 456.3 877.0 455.0 C 876.9 454.0 876.8 453.2 876.9 453.2 C 878.9 453.2 879.9 455.9 878.2 456.6 Z M 878.2 456.6 "></path></clipPath><g clip-path="url(#clip0x6080052a9ba0)"><image xlink:href="../../B8F33216-60A0-4215-ACF5-14529CFE78E1/assets/AA8FA9E86DB61FA1B9767B61C114E054.jpeg" width="1600.00" height="1200.00" transform="matrix(0.64, 0.00, -0.00, -0.64, 1.0, 770.0)"></image></g></g></g></svg>