<?xml version="1.0" encoding="UTF-8" standalone="no"?><svg xmlns="http://www.w3.org/2000/svg" xmlns:xlink="http://www.w3.org/1999/xlink" clip-rule="evenodd" stroke-miterlimit="10" viewBox="0 0 749 52"><desc>SVG generated by Keynote</desc><defs></defs><g transform="matrix(1.00, 0.00, -0.00, -1.00, 0.0, 52.0)"><text xml:space="preserve" font-family="Helvetica,Helvetica" font-size="51.3" fill="#000000" transform="matrix(1.00, 0.00, -0.00, -1.00, 0.0, 9.8)">•</text><text xml:space="preserve" font-family="Helvetica,Helvetica" font-size="30.0" fill="#000000" transform="matrix(1.00, 0.00, -0.00, -1.00, 45.0, 17.9)">C</text><text xml:space="preserve" font-family="Helvetica,Helvetica" font-size="30.0" fill="#000000" transform="matrix(1.00, 0.00, -0.00, -1.00, 66.7, 17.9)">a</text><text xml:space="preserve" font-family="Helvetica,Helvetica" font-size="30.0" fill="#000000" transform="matrix(1.00, 0.00, -0.00, -1.00, 83.4, 17.9)">l</text><text xml:space="preserve" font-family="Helvetica,Helvetica" font-size="30.0" fill="#000000" transform="matrix(1.00, 0.00, -0.00, -1.00, 90.0, 17.9)">c</text><text xml:space="preserve" font-family="Helvetica,Helvetica" font-size="30.0" fill="#000000" transform="matrix(1.00, 0.00, -0.00, -1.00, 105.0, 17.9)">u</text><text xml:space="preserve" font-family="Helvetica,Helvetica" font-size="30.0" fill="#000000" transform="matrix(1.00, 0.00, -0.00, -1.00, 121.7, 17.9)">l</text><text xml:space="preserve" font-family="Helvetica,Helvetica" font-size="30.0" fill="#000000" transform="matrix(1.00, 0.00, -0.00, -1.00, 128.4, 17.9)">a</text><text xml:space="preserve" font-family="Helvetica,Helvetica" font-size="30.0" fill="#000000" transform="matrix(1.00, 0.00, -0.00, -1.00, 145.1, 17.9)">t</text><text xml:space="preserve" font-family="Helvetica,Helvetica" font-size="30.0" fill="#000000" transform="matrix(1.00, 0.00, -0.00, -1.00, 153.4, 17.9)">e</text><text xml:space="preserve" font-family="Helvetica,Helvetica" font-size="30.0" fill="#000000" transform="matrix(1.00, 0.00, -0.00, -1.00, 170.1, 17.9)">s</text><text xml:space="preserve" font-family="Helvetica,Helvetica" font-size="30.0" fill="#000000" transform="matrix(1.00, 0.00, -0.00, -1.00, 185.1, 17.9)"> </text><text xml:space="preserve" font-family="Helvetica,Helvetica" font-size="30.0" fill="#000000" transform="matrix(1.00, 0.00, -0.00, -1.00, 193.4, 17.9)">v</text><text xml:space="preserve" font-family="Helvetica,Helvetica" font-size="30.0" fill="#000000" transform="matrix(1.00, 0.00, -0.00, -1.00, 208.4, 17.9)">e</text><text xml:space="preserve" font-family="Helvetica,Helvetica" font-size="30.0" fill="#000000" transform="matrix(1.00, 0.00, -0.00, -1.00, 225.1, 17.9)">r</text><text xml:space="preserve" font-family="Helvetica,Helvetica" font-size="30.0" fill="#000000" transform="matrix(1.00, 0.00, -0.00, -1.00, 235.1, 17.9)">y</text><text xml:space="preserve" font-family="Helvetica,Helvetica" font-size="30.0" fill="#000000" transform="matrix(1.00, 0.00, -0.00, -1.00, 250.1, 17.9)"> </text><text xml:space="preserve" font-family="Helvetica,Helvetica" font-size="30.0" fill="#000000" transform="matrix(1.00, 0.00, -0.00, -1.00, 258.4, 17.9)">e</text><text xml:space="preserve" font-family="Helvetica,Helvetica" font-size="30.0" fill="#000000" transform="matrix(1.00, 0.00, -0.00, -1.00, 275.1, 17.9)">x</text><text xml:space="preserve" font-family="Helvetica,Helvetica" font-size="30.0" fill="#000000" transform="matrix(1.00, 0.00, -0.00, -1.00, 290.1, 17.9)">a</text><text xml:space="preserve" font-family="Helvetica,Helvetica" font-size="30.0" fill="#000000" transform="matrix(1.00, 0.00, -0.00, -1.00, 306.8, 17.9)">c</text><text xml:space="preserve" font-family="Helvetica,Helvetica" font-size="30.0" fill="#000000" transform="matrix(1.00, 0.00, -0.00, -1.00, 321.8, 17.9)">t</text><text xml:space="preserve" font-family="Helvetica,Helvetica" font-size="30.0" fill="#000000" transform="matrix(1.00, 0.00, -0.00, -1.00, 330.2, 17.9)"> </text><text xml:space="preserve" font-family="Helvetica,Helvetica" font-size="30.0" fill="#000000" transform="matrix(1.00, 0.00, -0.00, -1.00, 338.5, 17.9)">m</text><text xml:space="preserve" font-family="Helvetica,Helvetica" font-size="30.0" fill="#000000" transform="matrix(1.00, 0.00, -0.00, -1.00, 363.5, 17.9)">o</text><text xml:space="preserve" font-family="Helvetica,Helvetica" font-size="30.0" fill="#000000" transform="matrix(1.00, 0.00, -0.00, -1.00, 380.2, 17.9)">t</text><text xml:space="preserve" font-family="Helvetica,Helvetica" font-size="30.0" fill="#000000" transform="matrix(1.00, 0.00, -0.00, -1.00, 388.5, 17.9)">i</text><text xml:space="preserve" font-family="Helvetica,Helvetica" font-size="30.0" fill="#000000" transform="matrix(1.00, 0.00, -0.00, -1.00, 395.2, 17.9)">o</text><text xml:space="preserve" font-family="Helvetica,Helvetica" font-size="30.0" fill="#000000" transform="matrix(1.00, 0.00, -0.00, -1.00, 411.9, 17.9)">n</text><text xml:space="preserve" font-family="Helvetica,Helvetica" font-size="30.0" fill="#000000" transform="matrix(1.00, 0.00, -0.00, -1.00, 428.5, 17.9)"> </text><text xml:space="preserve" font-family="Helvetica,Helvetica" font-size="30.0" fill="#000000" transform="matrix(1.00, 0.00, -0.00, -1.00, 436.9, 17.9)">o</text><text xml:space="preserve" font-family="Helvetica,Helvetica" font-size="30.0" fill="#000000" transform="matrix(1.00, 0.00, -0.00, -1.00, 453.6, 17.9)">v</text><text xml:space="preserve" font-family="Helvetica,Helvetica" font-size="30.0" fill="#000000" transform="matrix(1.00, 0.00, -0.00, -1.00, 468.6, 17.9)">e</text><text xml:space="preserve" font-family="Helvetica,Helvetica" font-size="30.0" fill="#000000" transform="matrix(1.00, 0.00, -0.00, -1.00, 485.3, 17.9)">r</text><text xml:space="preserve" font-family="Helvetica,Helvetica" font-size="30.0" fill="#000000" transform="matrix(1.00, 0.00, -0.00, -1.00, 495.2, 17.9)"> </text><text xml:space="preserve" font-family="Helvetica,Helvetica" font-size="30.0" fill="#000000" transform="matrix(1.00, 0.00, -0.00, -1.00, 503.6, 17.9)">v</text><text xml:space="preserve" font-family="Helvetica,Helvetica" font-size="30.0" fill="#000000" transform="matrix(1.00, 0.00, -0.00, -1.00, 518.6, 17.9)">a</text><text xml:space="preserve" font-family="Helvetica,Helvetica" font-size="30.0" fill="#000000" transform="matrix(1.00, 0.00, -0.00, -1.00, 535.3, 17.9)">r</text><text xml:space="preserve" font-family="Helvetica,Helvetica" font-size="30.0" fill="#000000" transform="matrix(1.00, 0.00, -0.00, -1.00, 545.3, 17.9)">i</text><text xml:space="preserve" font-family="Helvetica,Helvetica" font-size="30.0" fill="#000000" transform="matrix(1.00, 0.00, -0.00, -1.00, 551.9, 17.9)">o</text><text xml:space="preserve" font-family="Helvetica,Helvetica" font-size="30.0" fill="#000000" transform="matrix(1.00, 0.00, -0.00, -1.00, 568.6, 17.9)">u</text><text xml:space="preserve" font-family="Helvetica,Helvetica" font-size="30.0" fill="#000000" transform="matrix(1.00, 0.00, -0.00, -1.00, 585.3, 17.9)">s</text><text xml:space="preserve" font-family="Helvetica,Helvetica" font-size="30.0" fill="#000000" transform="matrix(1.00, 0.00, -0.00, -1.00, 600.3, 17.9)"> </text><text xml:space="preserve" font-family="Helvetica,Helvetica" font-size="30.0" fill="#000000" transform="matrix(1.00, 0.00, -0.00, -1.00, 608.6, 17.9)">o</text><text xml:space="preserve" font-family="Helvetica,Helvetica" font-size="30.0" fill="#000000" transform="matrix(1.00, 0.00, -0.00, -1.00, 625.3, 17.9)">p</text><text xml:space="preserve" font-family="Helvetica,Helvetica" font-size="30.0" fill="#000000" transform="matrix(1.00, 0.00, -0.00, -1.00, 642.0, 17.9)">e</text><text xml:space="preserve" font-family="Helvetica,Helvetica" font-size="30.0" fill="#000000" transform="matrix(1.00, 0.00, -0.00, -1.00, 658.7, 17.9)">r</text><text xml:space="preserve" font-family="Helvetica,Helvetica" font-size="30.0" fill="#000000" transform="matrix(1.00, 0.00, -0.00, -1.00, 668.7, 17.9)">a</text><text xml:space="preserve" font-family="Helvetica,Helvetica" font-size="30.0" fill="#000000" transform="matrix(1.00, 0.00, -0.00, -1.00, 685.4, 17.9)">t</text><text xml:space="preserve" font-family="Helvetica,Helvetica" font-size="30.0" fill="#000000" transform="matrix(1.00, 0.00, -0.00, -1.00, 693.7, 17.9)">i</text><text xml:space="preserve" font-family="Helvetica,Helvetica" font-size="30.0" fill="#000000" transform="matrix(1.00, 0.00, -0.00, -1.00, 700.4, 17.9)">o</text><text xml:space="preserve" font-family="Helvetica,Helvetica" font-size="30.0" fill="#000000" transform="matrix(1.00, 0.00, -0.00, -1.00, 717.1, 17.9)">n</text><text xml:space="preserve" font-family="Helvetica,Helvetica" font-size="30.0" fill="#000000" transform="matrix(1.00, 0.00, -0.00, -1.00, 733.8, 17.9)">s</text></g></svg>