<?xml version="1.0" encoding="UTF-8" standalone="no"?><svg xmlns="http://www.w3.org/2000/svg" xmlns:xlink="http://www.w3.org/1999/xlink" clip-rule="evenodd" stroke-miterlimit="10" viewBox="0 0 259 39"><desc>SVG generated by Keynote</desc><defs></defs><g transform="matrix(1.00, 0.00, -0.00, -1.00, 0.0, 39.0)"><text xml:space="preserve" font-family="Helvetica,Helvetica" font-size="48.0" fill="#000000" transform="matrix(1.00, 0.00, -0.00, -1.00, -0.7, 2.0)">C</text><text xml:space="preserve" font-family="Helvetica,Helvetica" font-size="48.0" fill="#000000" transform="matrix(1.00, 0.00, -0.00, -1.00, 34.0, 2.0)">o</text><text xml:space="preserve" font-family="Helvetica,Helvetica" font-size="48.0" fill="#000000" transform="matrix(1.00, 0.00, -0.00, -1.00, 60.7, 2.0)">r</text><text xml:space="preserve" font-family="Helvetica,Helvetica" font-size="48.0" fill="#000000" transform="matrix(1.00, 0.00, -0.00, -1.00, 76.6, 2.0)">e</text><text xml:space="preserve" font-family="Helvetica,Helvetica" font-size="48.0" fill="#000000" transform="matrix(1.00, 0.00, -0.00, -1.00, 103.3, 2.0)"> </text><text xml:space="preserve" font-family="Helvetica,Helvetica" font-size="48.0" fill="#000000" transform="matrix(1.00, 0.00, -0.00, -1.00, 116.7, 2.0)">M</text><text xml:space="preserve" font-family="Helvetica,Helvetica" font-size="48.0" fill="#000000" transform="matrix(1.00, 0.00, -0.00, -1.00, 156.7, 2.0)">o</text><text xml:space="preserve" font-family="Helvetica,Helvetica" font-size="48.0" fill="#000000" transform="matrix(1.00, 0.00, -0.00, -1.00, 183.4, 2.0)">t</text><text xml:space="preserve" font-family="Helvetica,Helvetica" font-size="48.0" fill="#000000" transform="matrix(1.00, 0.00, -0.00, -1.00, 196.7, 2.0)">i</text><text xml:space="preserve" font-family="Helvetica,Helvetica" font-size="48.0" fill="#000000" transform="matrix(1.00, 0.00, -0.00, -1.00, 207.4, 2.0)">o</text><text xml:space="preserve" font-family="Helvetica,Helvetica" font-size="48.0" fill="#000000" transform="matrix(1.00, 0.00, -0.00, -1.00, 234.1, 2.0)">n</text></g></svg>