<?xml version="1.0" encoding="UTF-8" standalone="no"?><svg xmlns="http://www.w3.org/2000/svg" xmlns:xlink="http://www.w3.org/1999/xlink" clip-rule="evenodd" stroke-miterlimit="10" viewBox="0 0 242 112"><desc>SVG generated by Keynote</desc><defs></defs><g transform="matrix(1.00, 0.00, -0.00, -1.00, 0.0, 112.0)"><path d="M 72.0 110.0 C 61.0 110.0 52.0 101.0 52.0 90.0 L 52.0 62.2 L 2.0 52.2 L 52.0 42.2 L 52.0 22.0 C 52.0 11.0 61.0 2.0 72.0 2.0 L 220.0 2.0 C 231.0 2.0 240.0 11.0 240.0 22.0 L 240.0 90.0 C 240.0 101.0 231.0 110.0 220.0 110.0 L 72.0 110.0 Z M 72.0 110.0 " fill="#F9ED9B"></path><path d="M 20.0 0.0 C 9.0 0.0 0.0 9.0 0.0 20.0 L 0.0 47.8 L -50.0 57.8 L 0.0 67.8 L 0.0 88.0 C 0.0 99.0 9.0 108.0 20.0 108.0 L 168.0 108.0 C 179.0 108.0 188.0 99.0 188.0 88.0 L 188.0 20.0 C 188.0 9.0 179.0 0.0 168.0 0.0 L 20.0 0.0 Z M 20.0 0.0 " fill="none" stroke="#000000" stroke-width="2.00" transform="matrix(1.00, 0.00, 0.00, -1.00, 52.0, 110.0)"></path></g></svg>