<?xml version="1.0" encoding="UTF-8" standalone="no"?><svg xmlns="http://www.w3.org/2000/svg" xmlns:xlink="http://www.w3.org/1999/xlink" clip-rule="evenodd" stroke-miterlimit="10" viewBox="0 0 281 54"><desc>SVG generated by Keynote</desc><defs></defs><g transform="matrix(1.00, 0.00, -0.00, -1.00, 0.0, 54.0)"><text xml:space="preserve" font-family="Helvetica,Helvetica" font-size="41.2" fill="#000000" transform="matrix(1.00, 0.00, -0.00, -1.00, 0.0, 20.8)">-</text><text xml:space="preserve" font-family="Helvetica,Helvetica" font-size="24.1" fill="#000000" transform="matrix(1.00, 0.00, -0.00, -1.00, 38.7, 26.3)">C</text><text xml:space="preserve" font-family="Helvetica,Helvetica" font-size="24.1" fill="#000000" transform="matrix(1.00, 0.00, -0.00, -1.00, 56.1, 26.3)">M</text><text xml:space="preserve" font-family="Helvetica,Helvetica" font-size="24.1" fill="#000000" transform="matrix(1.00, 0.00, -0.00, -1.00, 76.2, 26.3)">L</text><text xml:space="preserve" font-family="Helvetica,Helvetica" font-size="24.1" fill="#000000" transform="matrix(1.00, 0.00, -0.00, -1.00, 89.6, 26.3)">o</text><text xml:space="preserve" font-family="Helvetica,Helvetica" font-size="24.1" fill="#000000" transform="matrix(1.00, 0.00, -0.00, -1.00, 102.9, 26.3)">g</text><text xml:space="preserve" font-family="Helvetica,Helvetica" font-size="24.1" fill="#000000" transform="matrix(1.00, 0.00, -0.00, -1.00, 116.3, 26.3)">I</text><text xml:space="preserve" font-family="Helvetica,Helvetica" font-size="24.1" fill="#000000" transform="matrix(1.00, 0.00, -0.00, -1.00, 123.0, 26.3)">t</text><text xml:space="preserve" font-family="Helvetica,Helvetica" font-size="24.1" fill="#000000" transform="matrix(1.00, 0.00, -0.00, -1.00, 129.7, 26.3)">e</text><text xml:space="preserve" font-family="Helvetica,Helvetica" font-size="24.1" fill="#000000" transform="matrix(1.00, 0.00, -0.00, -1.00, 143.1, 26.3)">m</text><text xml:space="preserve" font-family="Helvetica,Helvetica" font-size="24.1" fill="#000000" transform="matrix(1.00, 0.00, -0.00, -1.00, 163.2, 26.3)"> </text><text xml:space="preserve" font-family="Helvetica,Helvetica" font-size="24.1" fill="#000000" transform="matrix(1.00, 0.00, -0.00, -1.00, 169.8, 26.3)">R</text><text xml:space="preserve" font-family="Helvetica,Helvetica" font-size="24.1" fill="#000000" transform="matrix(1.00, 0.00, -0.00, -1.00, 187.2, 26.3)">e</text><text xml:space="preserve" font-family="Helvetica,Helvetica" font-size="24.1" fill="#000000" transform="matrix(1.00, 0.00, -0.00, -1.00, 200.6, 26.3)">f</text><text xml:space="preserve" font-family="Helvetica,Helvetica" font-size="24.1" fill="#000000" transform="matrix(1.00, 0.00, -0.00, -1.00, 207.3, 26.3)">e</text><text xml:space="preserve" font-family="Helvetica,Helvetica" font-size="24.1" fill="#000000" transform="matrix(1.00, 0.00, -0.00, -1.00, 220.7, 26.3)">r</text><text xml:space="preserve" font-family="Helvetica,Helvetica" font-size="24.1" fill="#000000" transform="matrix(1.00, 0.00, -0.00, -1.00, 228.7, 26.3)">e</text><text xml:space="preserve" font-family="Helvetica,Helvetica" font-size="24.1" fill="#000000" transform="matrix(1.00, 0.00, -0.00, -1.00, 242.1, 26.3)">n</text><text xml:space="preserve" font-family="Helvetica,Helvetica" font-size="24.1" fill="#000000" transform="matrix(1.00, 0.00, -0.00, -1.00, 255.5, 26.3)">c</text><text xml:space="preserve" font-family="Helvetica,Helvetica" font-size="24.1" fill="#000000" transform="matrix(1.00, 0.00, -0.00, -1.00, 267.6, 26.3)">e</text><g><clipPath id="clip0x60000e8af780"><path d="M 37.7 22.9 L 280.9 22.9 L 280.9 26.1 L 37.7 26.1 Z M 37.7 22.9 "></path></clipPath><g clip-path="url(#clip0x60000e8af780)"><path d="M 102.7 284.5 L 344.9 284.5 " fill="none" stroke="#000000" stroke-width="1.19" transform="matrix(1.00, 0.00, 0.00, -1.00, -64.0, 309.0)"></path></g></g></g></svg>