<?xml version="1.0" encoding="UTF-8" standalone="no"?><svg xmlns="http://www.w3.org/2000/svg" xmlns:xlink="http://www.w3.org/1999/xlink" clip-rule="evenodd" stroke-miterlimit="10" viewBox="0 0 348 48"><desc>SVG generated by Keynote</desc><defs></defs><g transform="matrix(1.00, 0.00, -0.00, -1.00, 0.0, 48.0)"><text xml:space="preserve" font-family="Helvetica,Helvetica" font-size="47.9" fill="#000000" transform="matrix(1.00, 0.00, -0.00, -1.00, 0.0, 9.0)">-</text><text xml:space="preserve" font-family="Helvetica,Helvetica" font-size="28.0" fill="#000000" transform="matrix(1.00, 0.00, -0.00, -1.00, 45.0, 16.4)">U</text><text xml:space="preserve" font-family="Helvetica,Helvetica" font-size="28.0" fill="#000000" transform="matrix(1.00, 0.00, -0.00, -1.00, 65.2, 16.4)">s</text><text xml:space="preserve" font-family="Helvetica,Helvetica" font-size="28.0" fill="#000000" transform="matrix(1.00, 0.00, -0.00, -1.00, 79.2, 16.4)">e</text><text xml:space="preserve" font-family="Helvetica,Helvetica" font-size="28.0" fill="#000000" transform="matrix(1.00, 0.00, -0.00, -1.00, 94.8, 16.4)"> </text><text xml:space="preserve" font-family="Helvetica,Helvetica" font-size="28.0" fill="#000000" transform="matrix(1.00, 0.00, -0.00, -1.00, 102.6, 16.4)">D</text><text xml:space="preserve" font-family="Helvetica,Helvetica" font-size="28.0" fill="#000000" transform="matrix(1.00, 0.00, -0.00, -1.00, 122.8, 16.4)">e</text><text xml:space="preserve" font-family="Helvetica,Helvetica" font-size="28.0" fill="#000000" transform="matrix(1.00, 0.00, -0.00, -1.00, 138.4, 16.4)">v</text><text xml:space="preserve" font-family="Helvetica,Helvetica" font-size="28.0" fill="#000000" transform="matrix(1.00, 0.00, -0.00, -1.00, 152.4, 16.4)">i</text><text xml:space="preserve" font-family="Helvetica,Helvetica" font-size="28.0" fill="#000000" transform="matrix(1.00, 0.00, -0.00, -1.00, 158.6, 16.4)">c</text><text xml:space="preserve" font-family="Helvetica,Helvetica" font-size="28.0" fill="#000000" transform="matrix(1.00, 0.00, -0.00, -1.00, 172.6, 16.4)">e</text><text xml:space="preserve" font-family="Helvetica,Helvetica" font-size="28.0" fill="#000000" transform="matrix(1.00, 0.00, -0.00, -1.00, 188.2, 16.4)"> </text><text xml:space="preserve" font-family="Helvetica,Helvetica" font-size="28.0" fill="#000000" transform="matrix(1.00, 0.00, -0.00, -1.00, 196.0, 16.4)">M</text><text xml:space="preserve" font-family="Helvetica,Helvetica" font-size="28.0" fill="#000000" transform="matrix(1.00, 0.00, -0.00, -1.00, 219.3, 16.4)">o</text><text xml:space="preserve" font-family="Helvetica,Helvetica" font-size="28.0" fill="#000000" transform="matrix(1.00, 0.00, -0.00, -1.00, 234.9, 16.4)">t</text><text xml:space="preserve" font-family="Helvetica,Helvetica" font-size="28.0" fill="#000000" transform="matrix(1.00, 0.00, -0.00, -1.00, 242.6, 16.4)">i</text><text xml:space="preserve" font-family="Helvetica,Helvetica" font-size="28.0" fill="#000000" transform="matrix(1.00, 0.00, -0.00, -1.00, 248.9, 16.4)">o</text><text xml:space="preserve" font-family="Helvetica,Helvetica" font-size="28.0" fill="#000000" transform="matrix(1.00, 0.00, -0.00, -1.00, 264.4, 16.4)">n</text><text xml:space="preserve" font-family="Helvetica,Helvetica" font-size="28.0" fill="#000000" transform="matrix(1.00, 0.00, -0.00, -1.00, 280.0, 16.4)"> </text><text xml:space="preserve" font-family="Helvetica,Helvetica" font-size="28.0" fill="#000000" transform="matrix(1.00, 0.00, -0.00, -1.00, 287.8, 16.4)">D</text><text xml:space="preserve" font-family="Helvetica,Helvetica" font-size="28.0" fill="#000000" transform="matrix(1.00, 0.00, -0.00, -1.00, 308.0, 16.4)">a</text><text xml:space="preserve" font-family="Helvetica,Helvetica" font-size="28.0" fill="#000000" transform="matrix(1.00, 0.00, -0.00, -1.00, 323.6, 16.4)">t</text><text xml:space="preserve" font-family="Helvetica,Helvetica" font-size="28.0" fill="#000000" transform="matrix(1.00, 0.00, -0.00, -1.00, 331.4, 16.4)">a</text></g></svg>