<?xml version="1.0" encoding="UTF-8" standalone="no"?><svg xmlns="http://www.w3.org/2000/svg" xmlns:xlink="http://www.w3.org/1999/xlink" clip-rule="evenodd" stroke-miterlimit="10" viewBox="0 0 349 48"><desc>SVG generated by Keynote</desc><defs></defs><g transform="matrix(1.00, 0.00, -0.00, -1.00, 0.0, 48.0)"><text xml:space="preserve" font-family="Helvetica,Helvetica" font-size="47.9" fill="#000000" transform="matrix(1.00, 0.00, -0.00, -1.00, 0.0, 9.0)">-</text><text xml:space="preserve" font-family="Helvetica,Helvetica" font-size="28.0" fill="#000000" transform="matrix(1.00, 0.00, -0.00, -1.00, 45.0, 16.4)">U</text><text xml:space="preserve" font-family="Helvetica,Helvetica" font-size="28.0" fill="#000000" transform="matrix(1.00, 0.00, -0.00, -1.00, 65.2, 16.4)">s</text><text xml:space="preserve" font-family="Helvetica,Helvetica" font-size="28.0" fill="#000000" transform="matrix(1.00, 0.00, -0.00, -1.00, 79.2, 16.4)">e</text><text xml:space="preserve" font-family="Helvetica,Helvetica" font-size="28.0" fill="#000000" transform="matrix(1.00, 0.00, -0.00, -1.00, 94.8, 16.4)"> </text><text xml:space="preserve" font-family="Helvetica,Helvetica" font-size="28.0" fill="#000000" transform="matrix(1.00, 0.00, -0.00, -1.00, 101.0, 16.4)">A</text><text xml:space="preserve" font-family="Helvetica,Helvetica" font-size="28.0" fill="#000000" transform="matrix(1.00, 0.00, -0.00, -1.00, 119.7, 16.4)">c</text><text xml:space="preserve" font-family="Helvetica,Helvetica" font-size="28.0" fill="#000000" transform="matrix(1.00, 0.00, -0.00, -1.00, 133.7, 16.4)">c</text><text xml:space="preserve" font-family="Helvetica,Helvetica" font-size="28.0" fill="#000000" transform="matrix(1.00, 0.00, -0.00, -1.00, 147.7, 16.4)">e</text><text xml:space="preserve" font-family="Helvetica,Helvetica" font-size="28.0" fill="#000000" transform="matrix(1.00, 0.00, -0.00, -1.00, 163.3, 16.4)">l</text><text xml:space="preserve" font-family="Helvetica,Helvetica" font-size="28.0" fill="#000000" transform="matrix(1.00, 0.00, -0.00, -1.00, 169.5, 16.4)">e</text><text xml:space="preserve" font-family="Helvetica,Helvetica" font-size="28.0" fill="#000000" transform="matrix(1.00, 0.00, -0.00, -1.00, 185.1, 16.4)">r</text><text xml:space="preserve" font-family="Helvetica,Helvetica" font-size="28.0" fill="#000000" transform="matrix(1.00, 0.00, -0.00, -1.00, 194.4, 16.4)">o</text><text xml:space="preserve" font-family="Helvetica,Helvetica" font-size="28.0" fill="#000000" transform="matrix(1.00, 0.00, -0.00, -1.00, 210.0, 16.4)">m</text><text xml:space="preserve" font-family="Helvetica,Helvetica" font-size="28.0" fill="#000000" transform="matrix(1.00, 0.00, -0.00, -1.00, 233.3, 16.4)">e</text><text xml:space="preserve" font-family="Helvetica,Helvetica" font-size="28.0" fill="#000000" transform="matrix(1.00, 0.00, -0.00, -1.00, 248.9, 16.4)">t</text><text xml:space="preserve" font-family="Helvetica,Helvetica" font-size="28.0" fill="#000000" transform="matrix(1.00, 0.00, -0.00, -1.00, 256.7, 16.4)">e</text><text xml:space="preserve" font-family="Helvetica,Helvetica" font-size="28.0" fill="#000000" transform="matrix(1.00, 0.00, -0.00, -1.00, 272.3, 16.4)">r</text><text xml:space="preserve" font-family="Helvetica,Helvetica" font-size="28.0" fill="#000000" transform="matrix(1.00, 0.00, -0.00, -1.00, 281.6, 16.4)"> </text><text xml:space="preserve" font-family="Helvetica,Helvetica" font-size="28.0" fill="#000000" transform="matrix(1.00, 0.00, -0.00, -1.00, 289.4, 16.4)">D</text><text xml:space="preserve" font-family="Helvetica,Helvetica" font-size="28.0" fill="#000000" transform="matrix(1.00, 0.00, -0.00, -1.00, 309.6, 16.4)">a</text><text xml:space="preserve" font-family="Helvetica,Helvetica" font-size="28.0" fill="#000000" transform="matrix(1.00, 0.00, -0.00, -1.00, 325.2, 16.4)">t</text><text xml:space="preserve" font-family="Helvetica,Helvetica" font-size="28.0" fill="#000000" transform="matrix(1.00, 0.00, -0.00, -1.00, 332.9, 16.4)">a</text></g></svg>