<?xml version="1.0" encoding="UTF-8" standalone="no"?><svg xmlns="http://www.w3.org/2000/svg" xmlns:xlink="http://www.w3.org/1999/xlink" clip-rule="evenodd" stroke-miterlimit="10" viewBox="0 0 378 57"><desc>SVG generated by Keynote</desc><defs></defs><g transform="matrix(1.00, 0.00, -0.00, -1.00, 0.0, 57.0)"><text xml:space="preserve" font-family="Helvetica,Helvetica" font-size="44.1" fill="#000000" transform="matrix(1.00, 0.00, -0.00, -1.00, 0.0, 20.4)">•</text><text xml:space="preserve" font-family="Helvetica,Helvetica" font-size="25.8" fill="#000000" transform="matrix(1.00, 0.00, -0.00, -1.00, 38.7, 27.2)">E</text><text xml:space="preserve" font-family="Helvetica,Helvetica" font-size="25.8" fill="#000000" transform="matrix(1.00, 0.00, -0.00, -1.00, 55.9, 27.2)">v</text><text xml:space="preserve" font-family="Helvetica,Helvetica" font-size="25.8" fill="#000000" transform="matrix(1.00, 0.00, -0.00, -1.00, 68.8, 27.2)">e</text><text xml:space="preserve" font-family="Helvetica,Helvetica" font-size="25.8" fill="#000000" transform="matrix(1.00, 0.00, -0.00, -1.00, 83.2, 27.2)">n</text><text xml:space="preserve" font-family="Helvetica,Helvetica" font-size="25.8" fill="#000000" transform="matrix(1.00, 0.00, -0.00, -1.00, 97.5, 27.2)">t</text><text xml:space="preserve" font-family="Helvetica,Helvetica" font-size="25.8" fill="#000000" transform="matrix(1.00, 0.00, -0.00, -1.00, 104.7, 27.2)"> </text><text xml:space="preserve" font-family="Helvetica,Helvetica" font-size="25.8" fill="#000000" transform="matrix(1.00, 0.00, -0.00, -1.00, 111.8, 27.2)">H</text><text xml:space="preserve" font-family="Helvetica,Helvetica" font-size="25.8" fill="#000000" transform="matrix(1.00, 0.00, -0.00, -1.00, 130.5, 27.2)">a</text><text xml:space="preserve" font-family="Helvetica,Helvetica" font-size="25.8" fill="#000000" transform="matrix(1.00, 0.00, -0.00, -1.00, 144.8, 27.2)">n</text><text xml:space="preserve" font-family="Helvetica,Helvetica" font-size="25.8" fill="#000000" transform="matrix(1.00, 0.00, -0.00, -1.00, 159.2, 27.2)">d</text><text xml:space="preserve" font-family="Helvetica,Helvetica" font-size="25.8" fill="#000000" transform="matrix(1.00, 0.00, -0.00, -1.00, 173.5, 27.2)">l</text><text xml:space="preserve" font-family="Helvetica,Helvetica" font-size="25.8" fill="#000000" transform="matrix(1.00, 0.00, -0.00, -1.00, 179.3, 27.2)">i</text><text xml:space="preserve" font-family="Helvetica,Helvetica" font-size="25.8" fill="#000000" transform="matrix(1.00, 0.00, -0.00, -1.00, 185.0, 27.2)">n</text><text xml:space="preserve" font-family="Helvetica,Helvetica" font-size="25.8" fill="#000000" transform="matrix(1.00, 0.00, -0.00, -1.00, 199.4, 27.2)">g</text><text xml:space="preserve" font-family="Helvetica,Helvetica" font-size="25.8" fill="#000000" transform="matrix(1.00, 0.00, -0.00, -1.00, 213.7, 27.2)"> </text><text xml:space="preserve" font-family="Helvetica,Helvetica" font-size="25.8" fill="#000000" transform="matrix(1.00, 0.00, -0.00, -1.00, 220.9, 27.2)">G</text><text xml:space="preserve" font-family="Helvetica,Helvetica" font-size="25.8" fill="#000000" transform="matrix(1.00, 0.00, -0.00, -1.00, 240.9, 27.2)">u</text><text xml:space="preserve" font-family="Helvetica,Helvetica" font-size="25.8" fill="#000000" transform="matrix(1.00, 0.00, -0.00, -1.00, 255.3, 27.2)">i</text><text xml:space="preserve" font-family="Helvetica,Helvetica" font-size="25.8" fill="#000000" transform="matrix(1.00, 0.00, -0.00, -1.00, 261.0, 27.2)">d</text><text xml:space="preserve" font-family="Helvetica,Helvetica" font-size="25.8" fill="#000000" transform="matrix(1.00, 0.00, -0.00, -1.00, 275.4, 27.2)">e</text><text xml:space="preserve" font-family="Helvetica,Helvetica" font-size="25.8" fill="#000000" transform="matrix(1.00, 0.00, -0.00, -1.00, 289.7, 27.2)"> </text><text xml:space="preserve" font-family="Helvetica,Helvetica" font-size="25.8" fill="#000000" transform="matrix(1.00, 0.00, -0.00, -1.00, 296.9, 27.2)">f</text><text xml:space="preserve" font-family="Helvetica,Helvetica" font-size="25.8" fill="#000000" transform="matrix(1.00, 0.00, -0.00, -1.00, 304.1, 27.2)">o</text><text xml:space="preserve" font-family="Helvetica,Helvetica" font-size="25.8" fill="#000000" transform="matrix(1.00, 0.00, -0.00, -1.00, 318.4, 27.2)">r</text><text xml:space="preserve" font-family="Helvetica,Helvetica" font-size="25.8" fill="#000000" transform="matrix(1.00, 0.00, -0.00, -1.00, 327.0, 27.2)"> </text><text xml:space="preserve" font-family="Helvetica,Helvetica" font-size="25.8" fill="#000000" transform="matrix(1.00, 0.00, -0.00, -1.00, 334.2, 27.2)">i</text><text xml:space="preserve" font-family="Helvetica,Helvetica" font-size="25.8" fill="#000000" transform="matrix(1.00, 0.00, -0.00, -1.00, 339.9, 27.2)">O</text><text xml:space="preserve" font-family="Helvetica,Helvetica" font-size="25.8" fill="#000000" transform="matrix(1.00, 0.00, -0.00, -1.00, 360.0, 27.2)">S</text><g><clipPath id="clip0x60800fea1920"><path d="M 37.7 23.6 L 377.1 23.6 L 377.1 26.9 L 37.7 26.9 Z M 37.7 23.6 "></path></clipPath><g clip-path="url(#clip0x60800fea1920)"><path d="M 67.7 488.8 L 406.1 488.8 " fill="none" stroke="#000000" stroke-width="1.27" transform="matrix(1.00, 0.00, 0.00, -1.00, -29.0, 514.0)"></path></g></g></g></svg>