<?xml version="1.0" encoding="UTF-8" standalone="no"?><svg xmlns="http://www.w3.org/2000/svg" xmlns:xlink="http://www.w3.org/1999/xlink" clip-rule="evenodd" stroke-miterlimit="10" viewBox="0 0 435 48"><desc>SVG generated by Keynote</desc><defs></defs><g transform="matrix(1.00, 0.00, -0.00, -1.00, 0.0, 48.0)"><text xml:space="preserve" font-family="Helvetica,Helvetica" font-size="47.9" fill="#000000" transform="matrix(1.00, 0.00, -0.00, -1.00, 0.0, 9.0)">-</text><text xml:space="preserve" font-family="Helvetica,Helvetica" font-size="28.0" fill="#000000" transform="matrix(1.00, 0.00, -0.00, -1.00, 45.0, 16.4)">H</text><text xml:space="preserve" font-family="Helvetica,Helvetica" font-size="28.0" fill="#000000" transform="matrix(1.00, 0.00, -0.00, -1.00, 65.2, 16.4)">o</text><text xml:space="preserve" font-family="Helvetica,Helvetica" font-size="28.0" fill="#000000" transform="matrix(1.00, 0.00, -0.00, -1.00, 80.8, 16.4)">w</text><text xml:space="preserve" font-family="Helvetica,Helvetica" font-size="28.0" fill="#000000" transform="matrix(1.00, 0.00, -0.00, -1.00, 101.0, 16.4)"> </text><text xml:space="preserve" font-family="Helvetica,Helvetica" font-size="28.0" fill="#000000" transform="matrix(1.00, 0.00, -0.00, -1.00, 108.8, 16.4)">t</text><text xml:space="preserve" font-family="Helvetica,Helvetica" font-size="28.0" fill="#000000" transform="matrix(1.00, 0.00, -0.00, -1.00, 116.6, 16.4)">o</text><text xml:space="preserve" font-family="Helvetica,Helvetica" font-size="28.0" fill="#000000" transform="matrix(1.00, 0.00, -0.00, -1.00, 132.2, 16.4)"> </text><text xml:space="preserve" font-family="Helvetica,Helvetica" font-size="28.0" fill="#000000" transform="matrix(1.00, 0.00, -0.00, -1.00, 139.9, 16.4)">g</text><text xml:space="preserve" font-family="Helvetica,Helvetica" font-size="28.0" fill="#000000" transform="matrix(1.00, 0.00, -0.00, -1.00, 155.5, 16.4)">e</text><text xml:space="preserve" font-family="Helvetica,Helvetica" font-size="28.0" fill="#000000" transform="matrix(1.00, 0.00, -0.00, -1.00, 171.1, 16.4)">t</text><text xml:space="preserve" font-family="Helvetica,Helvetica" font-size="28.0" fill="#000000" transform="matrix(1.00, 0.00, -0.00, -1.00, 178.9, 16.4)"> </text><text xml:space="preserve" font-family="Helvetica,Helvetica" font-size="28.0" fill="#000000" transform="matrix(1.00, 0.00, -0.00, -1.00, 186.6, 16.4)">M</text><text xml:space="preserve" font-family="Helvetica,Helvetica" font-size="28.0" fill="#000000" transform="matrix(1.00, 0.00, -0.00, -1.00, 210.0, 16.4)">a</text><text xml:space="preserve" font-family="Helvetica,Helvetica" font-size="28.0" fill="#000000" transform="matrix(1.00, 0.00, -0.00, -1.00, 225.5, 16.4)">g</text><text xml:space="preserve" font-family="Helvetica,Helvetica" font-size="28.0" fill="#000000" transform="matrix(1.00, 0.00, -0.00, -1.00, 241.1, 16.4)">n</text><text xml:space="preserve" font-family="Helvetica,Helvetica" font-size="28.0" fill="#000000" transform="matrix(1.00, 0.00, -0.00, -1.00, 256.7, 16.4)">e</text><text xml:space="preserve" font-family="Helvetica,Helvetica" font-size="28.0" fill="#000000" transform="matrix(1.00, 0.00, -0.00, -1.00, 272.3, 16.4)">t</text><text xml:space="preserve" font-family="Helvetica,Helvetica" font-size="28.0" fill="#000000" transform="matrix(1.00, 0.00, -0.00, -1.00, 280.0, 16.4)">o</text><text xml:space="preserve" font-family="Helvetica,Helvetica" font-size="28.0" fill="#000000" transform="matrix(1.00, 0.00, -0.00, -1.00, 295.6, 16.4)">m</text><text xml:space="preserve" font-family="Helvetica,Helvetica" font-size="28.0" fill="#000000" transform="matrix(1.00, 0.00, -0.00, -1.00, 318.9, 16.4)">e</text><text xml:space="preserve" font-family="Helvetica,Helvetica" font-size="28.0" fill="#000000" transform="matrix(1.00, 0.00, -0.00, -1.00, 334.5, 16.4)">t</text><text xml:space="preserve" font-family="Helvetica,Helvetica" font-size="28.0" fill="#000000" transform="matrix(1.00, 0.00, -0.00, -1.00, 342.3, 16.4)">e</text><text xml:space="preserve" font-family="Helvetica,Helvetica" font-size="28.0" fill="#000000" transform="matrix(1.00, 0.00, -0.00, -1.00, 357.9, 16.4)">r</text><text xml:space="preserve" font-family="Helvetica,Helvetica" font-size="28.0" fill="#000000" transform="matrix(1.00, 0.00, -0.00, -1.00, 367.2, 16.4)"> </text><text xml:space="preserve" font-family="Helvetica,Helvetica" font-size="28.0" fill="#000000" transform="matrix(1.00, 0.00, -0.00, -1.00, 375.0, 16.4)">D</text><text xml:space="preserve" font-family="Helvetica,Helvetica" font-size="28.0" fill="#000000" transform="matrix(1.00, 0.00, -0.00, -1.00, 395.2, 16.4)">a</text><text xml:space="preserve" font-family="Helvetica,Helvetica" font-size="28.0" fill="#000000" transform="matrix(1.00, 0.00, -0.00, -1.00, 410.8, 16.4)">t</text><text xml:space="preserve" font-family="Helvetica,Helvetica" font-size="28.0" fill="#000000" transform="matrix(1.00, 0.00, -0.00, -1.00, 418.5, 16.4)">a</text></g></svg>