<?xml version="1.0" encoding="UTF-8" standalone="no"?><svg xmlns="http://www.w3.org/2000/svg" xmlns:xlink="http://www.w3.org/1999/xlink" clip-rule="evenodd" stroke-miterlimit="10" viewBox="0 0 401 54"><desc>SVG generated by Keynote</desc><defs></defs><g transform="matrix(1.00, 0.00, -0.00, -1.00, 0.0, 54.0)"><text xml:space="preserve" font-family="Helvetica,Helvetica" font-size="41.2" fill="#000000" transform="matrix(1.00, 0.00, -0.00, -1.00, 0.0, 21.1)">-</text><text xml:space="preserve" font-family="Helvetica,Helvetica" font-size="24.1" fill="#000000" transform="matrix(1.00, 0.00, -0.00, -1.00, 38.7, 26.7)">C</text><text xml:space="preserve" font-family="Helvetica,Helvetica" font-size="24.1" fill="#000000" transform="matrix(1.00, 0.00, -0.00, -1.00, 56.1, 26.7)">M</text><text xml:space="preserve" font-family="Helvetica,Helvetica" font-size="24.1" fill="#000000" transform="matrix(1.00, 0.00, -0.00, -1.00, 76.2, 26.7)">M</text><text xml:space="preserve" font-family="Helvetica,Helvetica" font-size="24.1" fill="#000000" transform="matrix(1.00, 0.00, -0.00, -1.00, 96.2, 26.7)">a</text><text xml:space="preserve" font-family="Helvetica,Helvetica" font-size="24.1" fill="#000000" transform="matrix(1.00, 0.00, -0.00, -1.00, 109.6, 26.7)">g</text><text xml:space="preserve" font-family="Helvetica,Helvetica" font-size="24.1" fill="#000000" transform="matrix(1.00, 0.00, -0.00, -1.00, 123.0, 26.7)">n</text><text xml:space="preserve" font-family="Helvetica,Helvetica" font-size="24.1" fill="#000000" transform="matrix(1.00, 0.00, -0.00, -1.00, 136.4, 26.7)">e</text><text xml:space="preserve" font-family="Helvetica,Helvetica" font-size="24.1" fill="#000000" transform="matrix(1.00, 0.00, -0.00, -1.00, 149.8, 26.7)">t</text><text xml:space="preserve" font-family="Helvetica,Helvetica" font-size="24.1" fill="#000000" transform="matrix(1.00, 0.00, -0.00, -1.00, 156.5, 26.7)">o</text><text xml:space="preserve" font-family="Helvetica,Helvetica" font-size="24.1" fill="#000000" transform="matrix(1.00, 0.00, -0.00, -1.00, 169.9, 26.7)">m</text><text xml:space="preserve" font-family="Helvetica,Helvetica" font-size="24.1" fill="#000000" transform="matrix(1.00, 0.00, -0.00, -1.00, 189.9, 26.7)">e</text><text xml:space="preserve" font-family="Helvetica,Helvetica" font-size="24.1" fill="#000000" transform="matrix(1.00, 0.00, -0.00, -1.00, 203.3, 26.7)">t</text><text xml:space="preserve" font-family="Helvetica,Helvetica" font-size="24.1" fill="#000000" transform="matrix(1.00, 0.00, -0.00, -1.00, 210.0, 26.7)">e</text><text xml:space="preserve" font-family="Helvetica,Helvetica" font-size="24.1" fill="#000000" transform="matrix(1.00, 0.00, -0.00, -1.00, 223.4, 26.7)">r</text><text xml:space="preserve" font-family="Helvetica,Helvetica" font-size="24.1" fill="#000000" transform="matrix(1.00, 0.00, -0.00, -1.00, 231.4, 26.7)">D</text><text xml:space="preserve" font-family="Helvetica,Helvetica" font-size="24.1" fill="#000000" transform="matrix(1.00, 0.00, -0.00, -1.00, 248.8, 26.7)">a</text><text xml:space="preserve" font-family="Helvetica,Helvetica" font-size="24.1" fill="#000000" transform="matrix(1.00, 0.00, -0.00, -1.00, 262.2, 26.7)">t</text><text xml:space="preserve" font-family="Helvetica,Helvetica" font-size="24.1" fill="#000000" transform="matrix(1.00, 0.00, -0.00, -1.00, 268.9, 26.7)">a</text><text xml:space="preserve" font-family="Helvetica,Helvetica" font-size="24.1" fill="#000000" transform="matrix(1.00, 0.00, -0.00, -1.00, 282.3, 26.7)"> </text><text xml:space="preserve" font-family="Helvetica,Helvetica" font-size="24.1" fill="#000000" transform="matrix(1.00, 0.00, -0.00, -1.00, 289.0, 26.7)">R</text><text xml:space="preserve" font-family="Helvetica,Helvetica" font-size="24.1" fill="#000000" transform="matrix(1.00, 0.00, -0.00, -1.00, 306.4, 26.7)">e</text><text xml:space="preserve" font-family="Helvetica,Helvetica" font-size="24.1" fill="#000000" transform="matrix(1.00, 0.00, -0.00, -1.00, 319.8, 26.7)">f</text><text xml:space="preserve" font-family="Helvetica,Helvetica" font-size="24.1" fill="#000000" transform="matrix(1.00, 0.00, -0.00, -1.00, 326.4, 26.7)">e</text><text xml:space="preserve" font-family="Helvetica,Helvetica" font-size="24.1" fill="#000000" transform="matrix(1.00, 0.00, -0.00, -1.00, 339.8, 26.7)">r</text><text xml:space="preserve" font-family="Helvetica,Helvetica" font-size="24.1" fill="#000000" transform="matrix(1.00, 0.00, -0.00, -1.00, 347.9, 26.7)">e</text><text xml:space="preserve" font-family="Helvetica,Helvetica" font-size="24.1" fill="#000000" transform="matrix(1.00, 0.00, -0.00, -1.00, 361.2, 26.7)">n</text><text xml:space="preserve" font-family="Helvetica,Helvetica" font-size="24.1" fill="#000000" transform="matrix(1.00, 0.00, -0.00, -1.00, 374.6, 26.7)">c</text><text xml:space="preserve" font-family="Helvetica,Helvetica" font-size="24.1" fill="#000000" transform="matrix(1.00, 0.00, -0.00, -1.00, 386.7, 26.7)">e</text><g><clipPath id="clip0x60800fea0840"><path d="M 37.7 23.3 L 400.1 23.3 L 400.1 26.5 L 37.7 26.5 Z M 37.7 23.3 "></path></clipPath><g clip-path="url(#clip0x60800fea0840)"><path d="M 102.7 335.1 L 464.1 335.1 " fill="none" stroke="#000000" stroke-width="1.19" transform="matrix(1.00, 0.00, 0.00, -1.00, -64.0, 360.0)"></path></g></g></g></svg>