<?xml version="1.0" encoding="UTF-8" standalone="no"?><svg xmlns="http://www.w3.org/2000/svg" xmlns:xlink="http://www.w3.org/1999/xlink" clip-rule="evenodd" stroke-miterlimit="10" viewBox="0 0 414 48"><desc>SVG generated by Keynote</desc><defs></defs><g transform="matrix(1.00, 0.00, -0.00, -1.00, 0.0, 48.0)"><text xml:space="preserve" font-family="Helvetica,Helvetica" font-size="47.9" fill="#000000" transform="matrix(1.00, 0.00, -0.00, -1.00, 0.0, 9.0)">-</text><text xml:space="preserve" font-family="Helvetica,Helvetica" font-size="28.0" fill="#000000" transform="matrix(1.00, 0.00, -0.00, -1.00, 45.0, 16.4)">W</text><text xml:space="preserve" font-family="Helvetica,Helvetica" font-size="28.0" fill="#000000" transform="matrix(1.00, 0.00, -0.00, -1.00, 71.4, 16.4)">h</text><text xml:space="preserve" font-family="Helvetica,Helvetica" font-size="28.0" fill="#000000" transform="matrix(1.00, 0.00, -0.00, -1.00, 87.0, 16.4)">a</text><text xml:space="preserve" font-family="Helvetica,Helvetica" font-size="28.0" fill="#000000" transform="matrix(1.00, 0.00, -0.00, -1.00, 102.6, 16.4)">t</text><text xml:space="preserve" font-family="Helvetica,Helvetica" font-size="28.0" fill="#000000" transform="matrix(1.00, 0.00, -0.00, -1.00, 110.4, 16.4)"> </text><text xml:space="preserve" font-family="Helvetica,Helvetica" font-size="28.0" fill="#000000" transform="matrix(1.00, 0.00, -0.00, -1.00, 118.1, 16.4)">C</text><text xml:space="preserve" font-family="Helvetica,Helvetica" font-size="28.0" fill="#000000" transform="matrix(1.00, 0.00, -0.00, -1.00, 138.4, 16.4)">o</text><text xml:space="preserve" font-family="Helvetica,Helvetica" font-size="28.0" fill="#000000" transform="matrix(1.00, 0.00, -0.00, -1.00, 153.9, 16.4)">r</text><text xml:space="preserve" font-family="Helvetica,Helvetica" font-size="28.0" fill="#000000" transform="matrix(1.00, 0.00, -0.00, -1.00, 163.3, 16.4)">e</text><text xml:space="preserve" font-family="Helvetica,Helvetica" font-size="28.0" fill="#000000" transform="matrix(1.00, 0.00, -0.00, -1.00, 178.8, 16.4)">M</text><text xml:space="preserve" font-family="Helvetica,Helvetica" font-size="28.0" fill="#000000" transform="matrix(1.00, 0.00, -0.00, -1.00, 202.2, 16.4)">o</text><text xml:space="preserve" font-family="Helvetica,Helvetica" font-size="28.0" fill="#000000" transform="matrix(1.00, 0.00, -0.00, -1.00, 217.7, 16.4)">t</text><text xml:space="preserve" font-family="Helvetica,Helvetica" font-size="28.0" fill="#000000" transform="matrix(1.00, 0.00, -0.00, -1.00, 225.5, 16.4)">i</text><text xml:space="preserve" font-family="Helvetica,Helvetica" font-size="28.0" fill="#000000" transform="matrix(1.00, 0.00, -0.00, -1.00, 231.7, 16.4)">o</text><text xml:space="preserve" font-family="Helvetica,Helvetica" font-size="28.0" fill="#000000" transform="matrix(1.00, 0.00, -0.00, -1.00, 247.3, 16.4)">n</text><text xml:space="preserve" font-family="Helvetica,Helvetica" font-size="28.0" fill="#000000" transform="matrix(1.00, 0.00, -0.00, -1.00, 262.9, 16.4)"> </text><text xml:space="preserve" font-family="Helvetica,Helvetica" font-size="28.0" fill="#000000" transform="matrix(1.00, 0.00, -0.00, -1.00, 270.7, 16.4)">p</text><text xml:space="preserve" font-family="Helvetica,Helvetica" font-size="28.0" fill="#000000" transform="matrix(1.00, 0.00, -0.00, -1.00, 286.2, 16.4)">r</text><text xml:space="preserve" font-family="Helvetica,Helvetica" font-size="28.0" fill="#000000" transform="matrix(1.00, 0.00, -0.00, -1.00, 295.6, 16.4)">o</text><text xml:space="preserve" font-family="Helvetica,Helvetica" font-size="28.0" fill="#000000" transform="matrix(1.00, 0.00, -0.00, -1.00, 311.1, 16.4)">v</text><text xml:space="preserve" font-family="Helvetica,Helvetica" font-size="28.0" fill="#000000" transform="matrix(1.00, 0.00, -0.00, -1.00, 325.1, 16.4)">i</text><text xml:space="preserve" font-family="Helvetica,Helvetica" font-size="28.0" fill="#000000" transform="matrix(1.00, 0.00, -0.00, -1.00, 331.4, 16.4)">d</text><text xml:space="preserve" font-family="Helvetica,Helvetica" font-size="28.0" fill="#000000" transform="matrix(1.00, 0.00, -0.00, -1.00, 346.9, 16.4)">e</text><text xml:space="preserve" font-family="Helvetica,Helvetica" font-size="28.0" fill="#000000" transform="matrix(1.00, 0.00, -0.00, -1.00, 362.5, 16.4)">s</text><text xml:space="preserve" font-family="Helvetica,Helvetica" font-size="28.0" fill="#000000" transform="matrix(1.00, 0.00, -0.00, -1.00, 376.5, 16.4)"> </text><text xml:space="preserve" font-family="Helvetica,Helvetica" font-size="28.0" fill="#000000" transform="matrix(1.00, 0.00, -0.00, -1.00, 384.3, 16.4)">u</text><text xml:space="preserve" font-family="Helvetica,Helvetica" font-size="28.0" fill="#000000" transform="matrix(1.00, 0.00, -0.00, -1.00, 399.9, 16.4)">s</text></g></svg>