<?xml version="1.0" encoding="UTF-8" standalone="no"?><svg xmlns="http://www.w3.org/2000/svg" xmlns:xlink="http://www.w3.org/1999/xlink" clip-rule="evenodd" stroke-miterlimit="10" viewBox="0 0 345 52"><desc>SVG generated by Keynote</desc><defs></defs><g transform="matrix(1.00, 0.00, -0.00, -1.00, 0.0, 52.0)"><text xml:space="preserve" font-family="Helvetica,Helvetica" font-size="51.3" fill="#000000" transform="matrix(1.00, 0.00, -0.00, -1.00, 0.0, 9.8)">•</text><text xml:space="preserve" font-family="Helvetica,Helvetica" font-size="30.0" fill="#000000" transform="matrix(1.00, 0.00, -0.00, -1.00, 45.0, 17.9)">M</text><text xml:space="preserve" font-family="Helvetica,Helvetica" font-size="30.0" fill="#000000" transform="matrix(1.00, 0.00, -0.00, -1.00, 70.0, 17.9)">e</text><text xml:space="preserve" font-family="Helvetica,Helvetica" font-size="30.0" fill="#000000" transform="matrix(1.00, 0.00, -0.00, -1.00, 86.7, 17.9)">a</text><text xml:space="preserve" font-family="Helvetica,Helvetica" font-size="30.0" fill="#000000" transform="matrix(1.00, 0.00, -0.00, -1.00, 103.4, 17.9)">s</text><text xml:space="preserve" font-family="Helvetica,Helvetica" font-size="30.0" fill="#000000" transform="matrix(1.00, 0.00, -0.00, -1.00, 118.4, 17.9)">u</text><text xml:space="preserve" font-family="Helvetica,Helvetica" font-size="30.0" fill="#000000" transform="matrix(1.00, 0.00, -0.00, -1.00, 135.1, 17.9)">r</text><text xml:space="preserve" font-family="Helvetica,Helvetica" font-size="30.0" fill="#000000" transform="matrix(1.00, 0.00, -0.00, -1.00, 145.1, 17.9)">e</text><text xml:space="preserve" font-family="Helvetica,Helvetica" font-size="30.0" fill="#000000" transform="matrix(1.00, 0.00, -0.00, -1.00, 161.7, 17.9)">s</text><text xml:space="preserve" font-family="Helvetica,Helvetica" font-size="30.0" fill="#000000" transform="matrix(1.00, 0.00, -0.00, -1.00, 176.7, 17.9)"> </text><text xml:space="preserve" font-family="Helvetica,Helvetica" font-size="30.0" fill="#000000" transform="matrix(1.00, 0.00, -0.00, -1.00, 185.1, 17.9)">r</text><text xml:space="preserve" font-family="Helvetica,Helvetica" font-size="30.0" fill="#000000" transform="matrix(1.00, 0.00, -0.00, -1.00, 195.1, 17.9)">o</text><text xml:space="preserve" font-family="Helvetica,Helvetica" font-size="30.0" fill="#000000" transform="matrix(1.00, 0.00, -0.00, -1.00, 211.8, 17.9)">t</text><text xml:space="preserve" font-family="Helvetica,Helvetica" font-size="30.0" fill="#000000" transform="matrix(1.00, 0.00, -0.00, -1.00, 220.1, 17.9)">a</text><text xml:space="preserve" font-family="Helvetica,Helvetica" font-size="30.0" fill="#000000" transform="matrix(1.00, 0.00, -0.00, -1.00, 236.8, 17.9)">t</text><text xml:space="preserve" font-family="Helvetica,Helvetica" font-size="30.0" fill="#000000" transform="matrix(1.00, 0.00, -0.00, -1.00, 245.1, 17.9)">i</text><text xml:space="preserve" font-family="Helvetica,Helvetica" font-size="30.0" fill="#000000" transform="matrix(1.00, 0.00, -0.00, -1.00, 251.8, 17.9)">o</text><text xml:space="preserve" font-family="Helvetica,Helvetica" font-size="30.0" fill="#000000" transform="matrix(1.00, 0.00, -0.00, -1.00, 268.5, 17.9)">n</text><text xml:space="preserve" font-family="Helvetica,Helvetica" font-size="30.0" fill="#000000" transform="matrix(1.00, 0.00, -0.00, -1.00, 285.2, 17.9)"> </text><text xml:space="preserve" font-family="Helvetica,Helvetica" font-size="30.0" fill="#000000" transform="matrix(1.00, 0.00, -0.00, -1.00, 293.5, 17.9)">r</text><text xml:space="preserve" font-family="Helvetica,Helvetica" font-size="30.0" fill="#000000" transform="matrix(1.00, 0.00, -0.00, -1.00, 303.5, 17.9)">a</text><text xml:space="preserve" font-family="Helvetica,Helvetica" font-size="30.0" fill="#000000" transform="matrix(1.00, 0.00, -0.00, -1.00, 320.2, 17.9)">t</text><text xml:space="preserve" font-family="Helvetica,Helvetica" font-size="30.0" fill="#000000" transform="matrix(1.00, 0.00, -0.00, -1.00, 328.5, 17.9)">e</text></g></svg>