<?xml version="1.0" encoding="UTF-8" standalone="no"?><svg xmlns="http://www.w3.org/2000/svg" xmlns:xlink="http://www.w3.org/1999/xlink" clip-rule="evenodd" stroke-miterlimit="10" viewBox="0 0 195 214"><desc>SVG generated by Keynote</desc><defs></defs><g transform="matrix(1.00, 0.00, -0.00, -1.00, 0.0, 214.0)"><text xml:space="preserve" font-family="Menlo-Regular,Menlo" font-size="20.0" fill="#000000" transform="matrix(1.00, 0.00, -0.00, -1.00, 1.0, 195.7)">t</text><text xml:space="preserve" font-family="Menlo-Regular,Menlo" font-size="20.0" fill="#000000" transform="matrix(1.00, 0.00, -0.00, -1.00, 13.0, 195.7)">y</text><text xml:space="preserve" font-family="Menlo-Regular,Menlo" font-size="20.0" fill="#000000" transform="matrix(1.00, 0.00, -0.00, -1.00, 25.1, 195.7)">p</text><text xml:space="preserve" font-family="Menlo-Regular,Menlo" font-size="20.0" fill="#000000" transform="matrix(1.00, 0.00, -0.00, -1.00, 37.1, 195.7)">e</text><text xml:space="preserve" font-family="Menlo-Regular,Menlo" font-size="20.0" fill="#000000" transform="matrix(1.00, 0.00, -0.00, -1.00, 49.2, 195.7)">d</text><text xml:space="preserve" font-family="Menlo-Regular,Menlo" font-size="20.0" fill="#000000" transform="matrix(1.00, 0.00, -0.00, -1.00, 61.2, 195.7)">e</text><text xml:space="preserve" font-family="Menlo-Regular,Menlo" font-size="20.0" fill="#000000" transform="matrix(1.00, 0.00, -0.00, -1.00, 73.3, 195.7)">f</text><text xml:space="preserve" font-family="Menlo-Regular,Menlo" font-size="20.0" fill="#000000" transform="matrix(1.00, 0.00, -0.00, -1.00, 85.3, 195.7)"> </text><text xml:space="preserve" font-family="Menlo-Regular,Menlo" font-size="20.0" fill="#000000" transform="matrix(1.00, 0.00, -0.00, -1.00, 97.3, 195.7)">s</text><text xml:space="preserve" font-family="Menlo-Regular,Menlo" font-size="20.0" fill="#000000" transform="matrix(1.00, 0.00, -0.00, -1.00, 109.4, 195.7)">t</text><text xml:space="preserve" font-family="Menlo-Regular,Menlo" font-size="20.0" fill="#000000" transform="matrix(1.00, 0.00, -0.00, -1.00, 121.4, 195.7)">r</text><text xml:space="preserve" font-family="Menlo-Regular,Menlo" font-size="20.0" fill="#000000" transform="matrix(1.00, 0.00, -0.00, -1.00, 133.5, 195.7)">u</text><text xml:space="preserve" font-family="Menlo-Regular,Menlo" font-size="20.0" fill="#000000" transform="matrix(1.00, 0.00, -0.00, -1.00, 145.5, 195.7)">c</text><text xml:space="preserve" font-family="Menlo-Regular,Menlo" font-size="20.0" fill="#000000" transform="matrix(1.00, 0.00, -0.00, -1.00, 157.6, 195.7)">t</text><text xml:space="preserve" font-family="Menlo-Regular,Menlo" font-size="20.0" fill="#000000" transform="matrix(1.00, 0.00, -0.00, -1.00, 169.6, 195.7)"> </text><text xml:space="preserve" font-family="Menlo-Regular,Menlo" font-size="20.0" fill="#000000" transform="matrix(1.00, 0.00, -0.00, -1.00, 181.6, 195.7)">{</text><text xml:space="preserve" font-family="Menlo-Regular,Menlo" font-size="20.0" fill="#000000" transform="matrix(1.00, 0.00, -0.00, -1.00, 193.7, 195.7)"> </text><text xml:space="preserve" font-family="Menlo-Regular,Menlo" font-size="20.0" fill="#000000" transform="matrix(1.00, 0.00, -0.00, -1.00, 1.0, 147.7)"> </text><text xml:space="preserve" font-family="Menlo-Regular,Menlo" font-size="20.0" fill="#000000" transform="matrix(1.00, 0.00, -0.00, -1.00, 13.0, 147.7)"> </text><text xml:space="preserve" font-family="Menlo-Regular,Menlo" font-size="20.0" fill="#000000" transform="matrix(1.00, 0.00, -0.00, -1.00, 25.1, 147.7)"> </text><text xml:space="preserve" font-family="Menlo-Regular,Menlo" font-size="20.0" fill="#000000" transform="matrix(1.00, 0.00, -0.00, -1.00, 37.1, 147.7)"> </text><text xml:space="preserve" font-family="Menlo-Regular,Menlo" font-size="20.0" fill="#000000" transform="matrix(1.00, 0.00, -0.00, -1.00, 49.2, 147.7)">d</text><text xml:space="preserve" font-family="Menlo-Regular,Menlo" font-size="20.0" fill="#000000" transform="matrix(1.00, 0.00, -0.00, -1.00, 61.2, 147.7)">o</text><text xml:space="preserve" font-family="Menlo-Regular,Menlo" font-size="20.0" fill="#000000" transform="matrix(1.00, 0.00, -0.00, -1.00, 73.3, 147.7)">u</text><text xml:space="preserve" font-family="Menlo-Regular,Menlo" font-size="20.0" fill="#000000" transform="matrix(1.00, 0.00, -0.00, -1.00, 85.3, 147.7)">b</text><text xml:space="preserve" font-family="Menlo-Regular,Menlo" font-size="20.0" fill="#000000" transform="matrix(1.00, 0.00, -0.00, -1.00, 97.3, 147.7)">l</text><text xml:space="preserve" font-family="Menlo-Regular,Menlo" font-size="20.0" fill="#000000" transform="matrix(1.00, 0.00, -0.00, -1.00, 109.4, 147.7)">e</text><text xml:space="preserve" font-family="Menlo-Regular,Menlo" font-size="20.0" fill="#000000" transform="matrix(1.00, 0.00, -0.00, -1.00, 121.4, 147.7)"> </text><text xml:space="preserve" font-family="Menlo-Regular,Menlo" font-size="20.0" fill="#000000" transform="matrix(1.00, 0.00, -0.00, -1.00, 133.5, 147.7)">x</text><text xml:space="preserve" font-family="Menlo-Regular,Menlo" font-size="20.0" fill="#000000" transform="matrix(1.00, 0.00, -0.00, -1.00, 145.5, 147.7)">;</text><text xml:space="preserve" font-family="Menlo-Regular,Menlo" font-size="20.0" fill="#000000" transform="matrix(1.00, 0.00, -0.00, -1.00, 157.6, 147.7)"> </text><text xml:space="preserve" font-family="Menlo-Regular,Menlo" font-size="20.0" fill="#000000" transform="matrix(1.00, 0.00, -0.00, -1.00, 1.0, 99.7)"> </text><text xml:space="preserve" font-family="Menlo-Regular,Menlo" font-size="20.0" fill="#000000" transform="matrix(1.00, 0.00, -0.00, -1.00, 13.0, 99.7)"> </text><text xml:space="preserve" font-family="Menlo-Regular,Menlo" font-size="20.0" fill="#000000" transform="matrix(1.00, 0.00, -0.00, -1.00, 25.1, 99.7)"> </text><text xml:space="preserve" font-family="Menlo-Regular,Menlo" font-size="20.0" fill="#000000" transform="matrix(1.00, 0.00, -0.00, -1.00, 37.1, 99.7)"> </text><text xml:space="preserve" font-family="Menlo-Regular,Menlo" font-size="20.0" fill="#000000" transform="matrix(1.00, 0.00, -0.00, -1.00, 49.2, 99.7)">d</text><text xml:space="preserve" font-family="Menlo-Regular,Menlo" font-size="20.0" fill="#000000" transform="matrix(1.00, 0.00, -0.00, -1.00, 61.2, 99.7)">o</text><text xml:space="preserve" font-family="Menlo-Regular,Menlo" font-size="20.0" fill="#000000" transform="matrix(1.00, 0.00, -0.00, -1.00, 73.3, 99.7)">u</text><text xml:space="preserve" font-family="Menlo-Regular,Menlo" font-size="20.0" fill="#000000" transform="matrix(1.00, 0.00, -0.00, -1.00, 85.3, 99.7)">b</text><text xml:space="preserve" font-family="Menlo-Regular,Menlo" font-size="20.0" fill="#000000" transform="matrix(1.00, 0.00, -0.00, -1.00, 97.3, 99.7)">l</text><text xml:space="preserve" font-family="Menlo-Regular,Menlo" font-size="20.0" fill="#000000" transform="matrix(1.00, 0.00, -0.00, -1.00, 109.4, 99.7)">e</text><text xml:space="preserve" font-family="Menlo-Regular,Menlo" font-size="20.0" fill="#000000" transform="matrix(1.00, 0.00, -0.00, -1.00, 121.4, 99.7)"> </text><text xml:space="preserve" font-family="Menlo-Regular,Menlo" font-size="20.0" fill="#000000" transform="matrix(1.00, 0.00, -0.00, -1.00, 133.5, 99.7)">y</text><text xml:space="preserve" font-family="Menlo-Regular,Menlo" font-size="20.0" fill="#000000" transform="matrix(1.00, 0.00, -0.00, -1.00, 145.5, 99.7)">;</text><text xml:space="preserve" font-family="Menlo-Regular,Menlo" font-size="20.0" fill="#000000" transform="matrix(1.00, 0.00, -0.00, -1.00, 157.6, 99.7)"> </text><text xml:space="preserve" font-family="Menlo-Regular,Menlo" font-size="20.0" fill="#000000" transform="matrix(1.00, 0.00, -0.00, -1.00, 1.0, 51.7)"> </text><text xml:space="preserve" font-family="Menlo-Regular,Menlo" font-size="20.0" fill="#000000" transform="matrix(1.00, 0.00, -0.00, -1.00, 13.0, 51.7)"> </text><text xml:space="preserve" font-family="Menlo-Regular,Menlo" font-size="20.0" fill="#000000" transform="matrix(1.00, 0.00, -0.00, -1.00, 25.1, 51.7)"> </text><text xml:space="preserve" font-family="Menlo-Regular,Menlo" font-size="20.0" fill="#000000" transform="matrix(1.00, 0.00, -0.00, -1.00, 37.1, 51.7)"> </text><text xml:space="preserve" font-family="Menlo-Regular,Menlo" font-size="20.0" fill="#000000" transform="matrix(1.00, 0.00, -0.00, -1.00, 49.2, 51.7)">d</text><text xml:space="preserve" font-family="Menlo-Regular,Menlo" font-size="20.0" fill="#000000" transform="matrix(1.00, 0.00, -0.00, -1.00, 61.2, 51.7)">o</text><text xml:space="preserve" font-family="Menlo-Regular,Menlo" font-size="20.0" fill="#000000" transform="matrix(1.00, 0.00, -0.00, -1.00, 73.3, 51.7)">u</text><text xml:space="preserve" font-family="Menlo-Regular,Menlo" font-size="20.0" fill="#000000" transform="matrix(1.00, 0.00, -0.00, -1.00, 85.3, 51.7)">b</text><text xml:space="preserve" font-family="Menlo-Regular,Menlo" font-size="20.0" fill="#000000" transform="matrix(1.00, 0.00, -0.00, -1.00, 97.3, 51.7)">l</text><text xml:space="preserve" font-family="Menlo-Regular,Menlo" font-size="20.0" fill="#000000" transform="matrix(1.00, 0.00, -0.00, -1.00, 109.4, 51.7)">e</text><text xml:space="preserve" font-family="Menlo-Regular,Menlo" font-size="20.0" fill="#000000" transform="matrix(1.00, 0.00, -0.00, -1.00, 121.4, 51.7)"> </text><text xml:space="preserve" font-family="Menlo-Regular,Menlo" font-size="20.0" fill="#000000" transform="matrix(1.00, 0.00, -0.00, -1.00, 133.5, 51.7)">z</text><text xml:space="preserve" font-family="Menlo-Regular,Menlo" font-size="20.0" fill="#000000" transform="matrix(1.00, 0.00, -0.00, -1.00, 145.5, 51.7)">;</text><text xml:space="preserve" font-family="Menlo-Regular,Menlo" font-size="20.0" fill="#000000" transform="matrix(1.00, 0.00, -0.00, -1.00, 157.6, 51.7)"> </text><text xml:space="preserve" font-family="Menlo-Regular,Menlo" font-size="20.0" fill="#000000" transform="matrix(1.00, 0.00, -0.00, -1.00, 1.0, 3.7)">}</text><text xml:space="preserve" font-family="Menlo-Regular,Menlo" font-size="20.0" fill="#000000" transform="matrix(1.00, 0.00, -0.00, -1.00, 13.0, 3.7)"> </text><text xml:space="preserve" font-family="Menlo-Regular,Menlo" font-size="20.0" fill="#000000" transform="matrix(1.00, 0.00, -0.00, -1.00, 25.1, 3.7)">C</text><text xml:space="preserve" font-family="Menlo-Regular,Menlo" font-size="20.0" fill="#000000" transform="matrix(1.00, 0.00, -0.00, -1.00, 37.1, 3.7)">M</text><text xml:space="preserve" font-family="Menlo-Regular,Menlo" font-size="20.0" fill="#000000" transform="matrix(1.00, 0.00, -0.00, -1.00, 49.2, 3.7)">R</text><text xml:space="preserve" font-family="Menlo-Regular,Menlo" font-size="20.0" fill="#000000" transform="matrix(1.00, 0.00, -0.00, -1.00, 61.2, 3.7)">o</text><text xml:space="preserve" font-family="Menlo-Regular,Menlo" font-size="20.0" fill="#000000" transform="matrix(1.00, 0.00, -0.00, -1.00, 73.3, 3.7)">t</text><text xml:space="preserve" font-family="Menlo-Regular,Menlo" font-size="20.0" fill="#000000" transform="matrix(1.00, 0.00, -0.00, -1.00, 85.3, 3.7)">a</text><text xml:space="preserve" font-family="Menlo-Regular,Menlo" font-size="20.0" fill="#000000" transform="matrix(1.00, 0.00, -0.00, -1.00, 97.3, 3.7)">t</text><text xml:space="preserve" font-family="Menlo-Regular,Menlo" font-size="20.0" fill="#000000" transform="matrix(1.00, 0.00, -0.00, -1.00, 109.4, 3.7)">i</text><text xml:space="preserve" font-family="Menlo-Regular,Menlo" font-size="20.0" fill="#000000" transform="matrix(1.00, 0.00, -0.00, -1.00, 121.4, 3.7)">o</text><text xml:space="preserve" font-family="Menlo-Regular,Menlo" font-size="20.0" fill="#000000" transform="matrix(1.00, 0.00, -0.00, -1.00, 133.5, 3.7)">n</text><text xml:space="preserve" font-family="Menlo-Regular,Menlo" font-size="20.0" fill="#000000" transform="matrix(1.00, 0.00, -0.00, -1.00, 145.5, 3.7)">R</text><text xml:space="preserve" font-family="Menlo-Regular,Menlo" font-size="20.0" fill="#000000" transform="matrix(1.00, 0.00, -0.00, -1.00, 157.6, 3.7)">a</text><text xml:space="preserve" font-family="Menlo-Regular,Menlo" font-size="20.0" fill="#000000" transform="matrix(1.00, 0.00, -0.00, -1.00, 169.6, 3.7)">t</text><text xml:space="preserve" font-family="Menlo-Regular,Menlo" font-size="20.0" fill="#000000" transform="matrix(1.00, 0.00, -0.00, -1.00, 181.6, 3.7)">e</text></g></svg>