<?xml version="1.0" encoding="UTF-8" standalone="no"?><svg xmlns="http://www.w3.org/2000/svg" xmlns:xlink="http://www.w3.org/1999/xlink" clip-rule="evenodd" stroke-miterlimit="10" viewBox="0 0 105 22"><desc>SVG generated by Keynote</desc><defs></defs><g transform="matrix(1.00, 0.00, -0.00, -1.00, 0.0, 22.0)"><text xml:space="preserve" font-family="Menlo-Regular,Menlo" font-size="20.0" fill="#000000" transform="matrix(1.00, 0.00, -0.00, -1.00, 0.2, 5.7)">d</text><text xml:space="preserve" font-family="Menlo-Regular,Menlo" font-size="20.0" fill="#000000" transform="matrix(1.00, 0.00, -0.00, -1.00, 12.2, 5.7)">o</text><text xml:space="preserve" font-family="Menlo-Regular,Menlo" font-size="20.0" fill="#000000" transform="matrix(1.00, 0.00, -0.00, -1.00, 24.3, 5.7)">u</text><text xml:space="preserve" font-family="Menlo-Regular,Menlo" font-size="20.0" fill="#000000" transform="matrix(1.00, 0.00, -0.00, -1.00, 36.3, 5.7)">b</text><text xml:space="preserve" font-family="Menlo-Regular,Menlo" font-size="20.0" fill="#000000" transform="matrix(1.00, 0.00, -0.00, -1.00, 48.3, 5.7)">l</text><text xml:space="preserve" font-family="Menlo-Regular,Menlo" font-size="20.0" fill="#000000" transform="matrix(1.00, 0.00, -0.00, -1.00, 60.4, 5.7)">e</text><text xml:space="preserve" font-family="Menlo-Regular,Menlo" font-size="20.0" fill="#000000" transform="matrix(1.00, 0.00, -0.00, -1.00, 72.4, 5.7)"> </text><text xml:space="preserve" font-family="Menlo-Regular,Menlo" font-size="20.0" fill="#000000" transform="matrix(1.00, 0.00, -0.00, -1.00, 84.5, 5.7)">y</text><text xml:space="preserve" font-family="Menlo-Regular,Menlo" font-size="20.0" fill="#000000" transform="matrix(1.00, 0.00, -0.00, -1.00, 96.5, 5.7)">;</text></g></svg>