<?xml version="1.0" encoding="UTF-8" standalone="no"?><svg xmlns="http://www.w3.org/2000/svg" xmlns:xlink="http://www.w3.org/1999/xlink" clip-rule="evenodd" stroke-miterlimit="10" viewBox="0 0 676 93"><desc>SVG generated by Keynote</desc><defs></defs><g transform="matrix(1.00, 0.00, -0.00, -1.00, 0.0, 93.0)"><text xml:space="preserve" font-family="Menlo-Regular,Menlo" font-size="20.0" fill="#BA2CA2" transform="matrix(1.00, 0.00, -0.00, -1.00, 0.0, 75.7)">i</text><text xml:space="preserve" font-family="Menlo-Regular,Menlo" font-size="20.0" fill="#BA2CA2" transform="matrix(1.00, 0.00, -0.00, -1.00, 12.0, 75.7)">f</text><text xml:space="preserve" font-family="Menlo-Regular,Menlo" font-size="20.0" fill="#000000" transform="matrix(1.00, 0.00, -0.00, -1.00, 24.1, 75.7)"> </text><text xml:space="preserve" font-family="Menlo-Regular,Menlo" font-size="20.0" fill="#000000" transform="matrix(1.00, 0.00, -0.00, -1.00, 36.1, 75.7)">(</text><text xml:space="preserve" font-family="Menlo-Regular,Menlo" font-size="20.0" fill="#000000" transform="matrix(1.00, 0.00, -0.00, -1.00, 48.2, 75.7)">[</text><text xml:space="preserve" font-family="Menlo-Regular,Menlo" font-size="20.0" fill="#703DA9" transform="matrix(1.00, 0.00, -0.00, -1.00, 60.2, 75.7)">C</text><text xml:space="preserve" font-family="Menlo-Regular,Menlo" font-size="20.0" fill="#703DA9" transform="matrix(1.00, 0.00, -0.00, -1.00, 72.2, 75.7)">M</text><text xml:space="preserve" font-family="Menlo-Regular,Menlo" font-size="20.0" fill="#703DA9" transform="matrix(1.00, 0.00, -0.00, -1.00, 84.3, 75.7)">M</text><text xml:space="preserve" font-family="Menlo-Regular,Menlo" font-size="20.0" fill="#703DA9" transform="matrix(1.00, 0.00, -0.00, -1.00, 96.3, 75.7)">o</text><text xml:space="preserve" font-family="Menlo-Regular,Menlo" font-size="20.0" fill="#703DA9" transform="matrix(1.00, 0.00, -0.00, -1.00, 108.4, 75.7)">t</text><text xml:space="preserve" font-family="Menlo-Regular,Menlo" font-size="20.0" fill="#703DA9" transform="matrix(1.00, 0.00, -0.00, -1.00, 120.4, 75.7)">i</text><text xml:space="preserve" font-family="Menlo-Regular,Menlo" font-size="20.0" fill="#703DA9" transform="matrix(1.00, 0.00, -0.00, -1.00, 132.5, 75.7)">o</text><text xml:space="preserve" font-family="Menlo-Regular,Menlo" font-size="20.0" fill="#703DA9" transform="matrix(1.00, 0.00, -0.00, -1.00, 144.5, 75.7)">n</text><text xml:space="preserve" font-family="Menlo-Regular,Menlo" font-size="20.0" fill="#703DA9" transform="matrix(1.00, 0.00, -0.00, -1.00, 156.5, 75.7)">M</text><text xml:space="preserve" font-family="Menlo-Regular,Menlo" font-size="20.0" fill="#703DA9" transform="matrix(1.00, 0.00, -0.00, -1.00, 168.6, 75.7)">a</text><text xml:space="preserve" font-family="Menlo-Regular,Menlo" font-size="20.0" fill="#703DA9" transform="matrix(1.00, 0.00, -0.00, -1.00, 180.6, 75.7)">n</text><text xml:space="preserve" font-family="Menlo-Regular,Menlo" font-size="20.0" fill="#703DA9" transform="matrix(1.00, 0.00, -0.00, -1.00, 192.7, 75.7)">a</text><text xml:space="preserve" font-family="Menlo-Regular,Menlo" font-size="20.0" fill="#703DA9" transform="matrix(1.00, 0.00, -0.00, -1.00, 204.7, 75.7)">g</text><text xml:space="preserve" font-family="Menlo-Regular,Menlo" font-size="20.0" fill="#703DA9" transform="matrix(1.00, 0.00, -0.00, -1.00, 216.8, 75.7)">e</text><text xml:space="preserve" font-family="Menlo-Regular,Menlo" font-size="20.0" fill="#703DA9" transform="matrix(1.00, 0.00, -0.00, -1.00, 228.8, 75.7)">r</text><text xml:space="preserve" font-family="Menlo-Regular,Menlo" font-size="20.0" fill="#000000" transform="matrix(1.00, 0.00, -0.00, -1.00, 240.8, 75.7)"> </text><text xml:space="preserve" font-family="Menlo-Regular,Menlo" font-size="20.0" fill="#3D1D81" transform="matrix(1.00, 0.00, -0.00, -1.00, 252.9, 75.7)">a</text><text xml:space="preserve" font-family="Menlo-Regular,Menlo" font-size="20.0" fill="#3D1D81" transform="matrix(1.00, 0.00, -0.00, -1.00, 264.9, 75.7)">v</text><text xml:space="preserve" font-family="Menlo-Regular,Menlo" font-size="20.0" fill="#3D1D81" transform="matrix(1.00, 0.00, -0.00, -1.00, 276.9, 75.7)">a</text><text xml:space="preserve" font-family="Menlo-Regular,Menlo" font-size="20.0" fill="#3D1D81" transform="matrix(1.00, 0.00, -0.00, -1.00, 289.0, 75.7)">i</text><text xml:space="preserve" font-family="Menlo-Regular,Menlo" font-size="20.0" fill="#3D1D81" transform="matrix(1.00, 0.00, -0.00, -1.00, 301.0, 75.7)">l</text><text xml:space="preserve" font-family="Menlo-Regular,Menlo" font-size="20.0" fill="#3D1D81" transform="matrix(1.00, 0.00, -0.00, -1.00, 313.1, 75.7)">a</text><text xml:space="preserve" font-family="Menlo-Regular,Menlo" font-size="20.0" fill="#3D1D81" transform="matrix(1.00, 0.00, -0.00, -1.00, 325.1, 75.7)">b</text><text xml:space="preserve" font-family="Menlo-Regular,Menlo" font-size="20.0" fill="#3D1D81" transform="matrix(1.00, 0.00, -0.00, -1.00, 337.2, 75.7)">l</text><text xml:space="preserve" font-family="Menlo-Regular,Menlo" font-size="20.0" fill="#3D1D81" transform="matrix(1.00, 0.00, -0.00, -1.00, 349.2, 75.7)">e</text><text xml:space="preserve" font-family="Menlo-Regular,Menlo" font-size="20.0" fill="#3D1D81" transform="matrix(1.00, 0.00, -0.00, -1.00, 361.2, 75.7)">A</text><text xml:space="preserve" font-family="Menlo-Regular,Menlo" font-size="20.0" fill="#3D1D81" transform="matrix(1.00, 0.00, -0.00, -1.00, 373.3, 75.7)">t</text><text xml:space="preserve" font-family="Menlo-Regular,Menlo" font-size="20.0" fill="#3D1D81" transform="matrix(1.00, 0.00, -0.00, -1.00, 385.3, 75.7)">t</text><text xml:space="preserve" font-family="Menlo-Regular,Menlo" font-size="20.0" fill="#3D1D81" transform="matrix(1.00, 0.00, -0.00, -1.00, 397.4, 75.7)">i</text><text xml:space="preserve" font-family="Menlo-Regular,Menlo" font-size="20.0" fill="#3D1D81" transform="matrix(1.00, 0.00, -0.00, -1.00, 409.4, 75.7)">t</text><text xml:space="preserve" font-family="Menlo-Regular,Menlo" font-size="20.0" fill="#3D1D81" transform="matrix(1.00, 0.00, -0.00, -1.00, 421.5, 75.7)">u</text><text xml:space="preserve" font-family="Menlo-Regular,Menlo" font-size="20.0" fill="#3D1D81" transform="matrix(1.00, 0.00, -0.00, -1.00, 433.5, 75.7)">d</text><text xml:space="preserve" font-family="Menlo-Regular,Menlo" font-size="20.0" fill="#3D1D81" transform="matrix(1.00, 0.00, -0.00, -1.00, 445.5, 75.7)">e</text><text xml:space="preserve" font-family="Menlo-Regular,Menlo" font-size="20.0" fill="#3D1D81" transform="matrix(1.00, 0.00, -0.00, -1.00, 457.6, 75.7)">R</text><text xml:space="preserve" font-family="Menlo-Regular,Menlo" font-size="20.0" fill="#3D1D81" transform="matrix(1.00, 0.00, -0.00, -1.00, 469.6, 75.7)">e</text><text xml:space="preserve" font-family="Menlo-Regular,Menlo" font-size="20.0" fill="#3D1D81" transform="matrix(1.00, 0.00, -0.00, -1.00, 481.7, 75.7)">f</text><text xml:space="preserve" font-family="Menlo-Regular,Menlo" font-size="20.0" fill="#3D1D81" transform="matrix(1.00, 0.00, -0.00, -1.00, 493.7, 75.7)">e</text><text xml:space="preserve" font-family="Menlo-Regular,Menlo" font-size="20.0" fill="#3D1D81" transform="matrix(1.00, 0.00, -0.00, -1.00, 505.8, 75.7)">r</text><text xml:space="preserve" font-family="Menlo-Regular,Menlo" font-size="20.0" fill="#3D1D81" transform="matrix(1.00, 0.00, -0.00, -1.00, 517.8, 75.7)">e</text><text xml:space="preserve" font-family="Menlo-Regular,Menlo" font-size="20.0" fill="#3D1D81" transform="matrix(1.00, 0.00, -0.00, -1.00, 529.9, 75.7)">n</text><text xml:space="preserve" font-family="Menlo-Regular,Menlo" font-size="20.0" fill="#3D1D81" transform="matrix(1.00, 0.00, -0.00, -1.00, 541.9, 75.7)">c</text><text xml:space="preserve" font-family="Menlo-Regular,Menlo" font-size="20.0" fill="#3D1D81" transform="matrix(1.00, 0.00, -0.00, -1.00, 553.9, 75.7)">e</text><text xml:space="preserve" font-family="Menlo-Regular,Menlo" font-size="20.0" fill="#3D1D81" transform="matrix(1.00, 0.00, -0.00, -1.00, 566.0, 75.7)">F</text><text xml:space="preserve" font-family="Menlo-Regular,Menlo" font-size="20.0" fill="#3D1D81" transform="matrix(1.00, 0.00, -0.00, -1.00, 578.0, 75.7)">r</text><text xml:space="preserve" font-family="Menlo-Regular,Menlo" font-size="20.0" fill="#3D1D81" transform="matrix(1.00, 0.00, -0.00, -1.00, 590.1, 75.7)">a</text><text xml:space="preserve" font-family="Menlo-Regular,Menlo" font-size="20.0" fill="#3D1D81" transform="matrix(1.00, 0.00, -0.00, -1.00, 602.1, 75.7)">m</text><text xml:space="preserve" font-family="Menlo-Regular,Menlo" font-size="20.0" fill="#3D1D81" transform="matrix(1.00, 0.00, -0.00, -1.00, 614.2, 75.7)">e</text><text xml:space="preserve" font-family="Menlo-Regular,Menlo" font-size="20.0" fill="#3D1D81" transform="matrix(1.00, 0.00, -0.00, -1.00, 626.2, 75.7)">s</text><text xml:space="preserve" font-family="Menlo-Regular,Menlo" font-size="20.0" fill="#000000" transform="matrix(1.00, 0.00, -0.00, -1.00, 638.2, 75.7)">]</text><text xml:space="preserve" font-family="Menlo-Regular,Menlo" font-size="20.0" fill="#000000" transform="matrix(1.00, 0.00, -0.00, -1.00, 650.2, 75.7)"> </text><text xml:space="preserve" font-family="Menlo-Regular,Menlo" font-size="20.0" fill="#000000" transform="matrix(1.00, 0.00, -0.00, -1.00, 662.3, 75.7)">&amp;</text><text xml:space="preserve" font-family="Menlo-Regular,Menlo" font-size="20.0" fill="#000000" transform="matrix(1.00, 0.00, -0.00, -1.00, 674.3, 75.7)"> </text><text xml:space="preserve" font-family="Menlo-Regular,Menlo" font-size="20.0" fill="#3D1D81" transform="matrix(1.00, 0.00, -0.00, -1.00, 0.0, 51.7)">C</text><text xml:space="preserve" font-family="Menlo-Regular,Menlo" font-size="20.0" fill="#3D1D81" transform="matrix(1.00, 0.00, -0.00, -1.00, 12.0, 51.7)">M</text><text xml:space="preserve" font-family="Menlo-Regular,Menlo" font-size="20.0" fill="#3D1D81" transform="matrix(1.00, 0.00, -0.00, -1.00, 24.1, 51.7)">A</text><text xml:space="preserve" font-family="Menlo-Regular,Menlo" font-size="20.0" fill="#3D1D81" transform="matrix(1.00, 0.00, -0.00, -1.00, 36.1, 51.7)">t</text><text xml:space="preserve" font-family="Menlo-Regular,Menlo" font-size="20.0" fill="#3D1D81" transform="matrix(1.00, 0.00, -0.00, -1.00, 48.2, 51.7)">t</text><text xml:space="preserve" font-family="Menlo-Regular,Menlo" font-size="20.0" fill="#3D1D81" transform="matrix(1.00, 0.00, -0.00, -1.00, 60.2, 51.7)">i</text><text xml:space="preserve" font-family="Menlo-Regular,Menlo" font-size="20.0" fill="#3D1D81" transform="matrix(1.00, 0.00, -0.00, -1.00, 72.3, 51.7)">t</text><text xml:space="preserve" font-family="Menlo-Regular,Menlo" font-size="20.0" fill="#3D1D81" transform="matrix(1.00, 0.00, -0.00, -1.00, 84.3, 51.7)">u</text><text xml:space="preserve" font-family="Menlo-Regular,Menlo" font-size="20.0" fill="#3D1D81" transform="matrix(1.00, 0.00, -0.00, -1.00, 96.3, 51.7)">d</text><text xml:space="preserve" font-family="Menlo-Regular,Menlo" font-size="20.0" fill="#3D1D81" transform="matrix(1.00, 0.00, -0.00, -1.00, 108.4, 51.7)">e</text><text xml:space="preserve" font-family="Menlo-Regular,Menlo" font-size="20.0" fill="#3D1D81" transform="matrix(1.00, 0.00, -0.00, -1.00, 120.4, 51.7)">R</text><text xml:space="preserve" font-family="Menlo-Regular,Menlo" font-size="20.0" fill="#3D1D81" transform="matrix(1.00, 0.00, -0.00, -1.00, 132.5, 51.7)">e</text><text xml:space="preserve" font-family="Menlo-Regular,Menlo" font-size="20.0" fill="#3D1D81" transform="matrix(1.00, 0.00, -0.00, -1.00, 144.5, 51.7)">f</text><text xml:space="preserve" font-family="Menlo-Regular,Menlo" font-size="20.0" fill="#3D1D81" transform="matrix(1.00, 0.00, -0.00, -1.00, 156.6, 51.7)">e</text><text xml:space="preserve" font-family="Menlo-Regular,Menlo" font-size="20.0" fill="#3D1D81" transform="matrix(1.00, 0.00, -0.00, -1.00, 168.6, 51.7)">r</text><text xml:space="preserve" font-family="Menlo-Regular,Menlo" font-size="20.0" fill="#3D1D81" transform="matrix(1.00, 0.00, -0.00, -1.00, 180.6, 51.7)">e</text><text xml:space="preserve" font-family="Menlo-Regular,Menlo" font-size="20.0" fill="#3D1D81" transform="matrix(1.00, 0.00, -0.00, -1.00, 192.7, 51.7)">n</text><text xml:space="preserve" font-family="Menlo-Regular,Menlo" font-size="20.0" fill="#3D1D81" transform="matrix(1.00, 0.00, -0.00, -1.00, 204.7, 51.7)">c</text><text xml:space="preserve" font-family="Menlo-Regular,Menlo" font-size="20.0" fill="#3D1D81" transform="matrix(1.00, 0.00, -0.00, -1.00, 216.8, 51.7)">e</text><text xml:space="preserve" font-family="Menlo-Regular,Menlo" font-size="20.0" fill="#3D1D81" transform="matrix(1.00, 0.00, -0.00, -1.00, 228.8, 51.7)">F</text><text xml:space="preserve" font-family="Menlo-Regular,Menlo" font-size="20.0" fill="#3D1D81" transform="matrix(1.00, 0.00, -0.00, -1.00, 240.9, 51.7)">r</text><text xml:space="preserve" font-family="Menlo-Regular,Menlo" font-size="20.0" fill="#3D1D81" transform="matrix(1.00, 0.00, -0.00, -1.00, 252.9, 51.7)">a</text><text xml:space="preserve" font-family="Menlo-Regular,Menlo" font-size="20.0" fill="#3D1D81" transform="matrix(1.00, 0.00, -0.00, -1.00, 264.9, 51.7)">m</text><text xml:space="preserve" font-family="Menlo-Regular,Menlo" font-size="20.0" fill="#3D1D81" transform="matrix(1.00, 0.00, -0.00, -1.00, 277.0, 51.7)">e</text><text xml:space="preserve" font-family="Menlo-Regular,Menlo" font-size="20.0" fill="#3D1D81" transform="matrix(1.00, 0.00, -0.00, -1.00, 289.0, 51.7)">X</text><text xml:space="preserve" font-family="Menlo-Regular,Menlo" font-size="20.0" fill="#3D1D81" transform="matrix(1.00, 0.00, -0.00, -1.00, 301.1, 51.7)">M</text><text xml:space="preserve" font-family="Menlo-Regular,Menlo" font-size="20.0" fill="#3D1D81" transform="matrix(1.00, 0.00, -0.00, -1.00, 313.1, 51.7)">a</text><text xml:space="preserve" font-family="Menlo-Regular,Menlo" font-size="20.0" fill="#3D1D81" transform="matrix(1.00, 0.00, -0.00, -1.00, 325.2, 51.7)">g</text><text xml:space="preserve" font-family="Menlo-Regular,Menlo" font-size="20.0" fill="#3D1D81" transform="matrix(1.00, 0.00, -0.00, -1.00, 337.2, 51.7)">n</text><text xml:space="preserve" font-family="Menlo-Regular,Menlo" font-size="20.0" fill="#3D1D81" transform="matrix(1.00, 0.00, -0.00, -1.00, 349.2, 51.7)">e</text><text xml:space="preserve" font-family="Menlo-Regular,Menlo" font-size="20.0" fill="#3D1D81" transform="matrix(1.00, 0.00, -0.00, -1.00, 361.3, 51.7)">t</text><text xml:space="preserve" font-family="Menlo-Regular,Menlo" font-size="20.0" fill="#3D1D81" transform="matrix(1.00, 0.00, -0.00, -1.00, 373.3, 51.7)">i</text><text xml:space="preserve" font-family="Menlo-Regular,Menlo" font-size="20.0" fill="#3D1D81" transform="matrix(1.00, 0.00, -0.00, -1.00, 385.4, 51.7)">c</text><text xml:space="preserve" font-family="Menlo-Regular,Menlo" font-size="20.0" fill="#3D1D81" transform="matrix(1.00, 0.00, -0.00, -1.00, 397.4, 51.7)">N</text><text xml:space="preserve" font-family="Menlo-Regular,Menlo" font-size="20.0" fill="#3D1D81" transform="matrix(1.00, 0.00, -0.00, -1.00, 409.5, 51.7)">o</text><text xml:space="preserve" font-family="Menlo-Regular,Menlo" font-size="20.0" fill="#3D1D81" transform="matrix(1.00, 0.00, -0.00, -1.00, 421.5, 51.7)">r</text><text xml:space="preserve" font-family="Menlo-Regular,Menlo" font-size="20.0" fill="#3D1D81" transform="matrix(1.00, 0.00, -0.00, -1.00, 433.5, 51.7)">t</text><text xml:space="preserve" font-family="Menlo-Regular,Menlo" font-size="20.0" fill="#3D1D81" transform="matrix(1.00, 0.00, -0.00, -1.00, 445.6, 51.7)">h</text><text xml:space="preserve" font-family="Menlo-Regular,Menlo" font-size="20.0" fill="#3D1D81" transform="matrix(1.00, 0.00, -0.00, -1.00, 457.6, 51.7)">Z</text><text xml:space="preserve" font-family="Menlo-Regular,Menlo" font-size="20.0" fill="#3D1D81" transform="matrix(1.00, 0.00, -0.00, -1.00, 469.7, 51.7)">V</text><text xml:space="preserve" font-family="Menlo-Regular,Menlo" font-size="20.0" fill="#3D1D81" transform="matrix(1.00, 0.00, -0.00, -1.00, 481.7, 51.7)">e</text><text xml:space="preserve" font-family="Menlo-Regular,Menlo" font-size="20.0" fill="#3D1D81" transform="matrix(1.00, 0.00, -0.00, -1.00, 493.8, 51.7)">r</text><text xml:space="preserve" font-family="Menlo-Regular,Menlo" font-size="20.0" fill="#3D1D81" transform="matrix(1.00, 0.00, -0.00, -1.00, 505.8, 51.7)">t</text><text xml:space="preserve" font-family="Menlo-Regular,Menlo" font-size="20.0" fill="#3D1D81" transform="matrix(1.00, 0.00, -0.00, -1.00, 517.8, 51.7)">i</text><text xml:space="preserve" font-family="Menlo-Regular,Menlo" font-size="20.0" fill="#3D1D81" transform="matrix(1.00, 0.00, -0.00, -1.00, 529.9, 51.7)">c</text><text xml:space="preserve" font-family="Menlo-Regular,Menlo" font-size="20.0" fill="#3D1D81" transform="matrix(1.00, 0.00, -0.00, -1.00, 541.9, 51.7)">a</text><text xml:space="preserve" font-family="Menlo-Regular,Menlo" font-size="20.0" fill="#3D1D81" transform="matrix(1.00, 0.00, -0.00, -1.00, 554.0, 51.7)">l</text><text xml:space="preserve" font-family="Menlo-Regular,Menlo" font-size="20.0" fill="#000000" transform="matrix(1.00, 0.00, -0.00, -1.00, 565.9, 51.7)">)</text><text xml:space="preserve" font-family="Menlo-Regular,Menlo" font-size="20.0" fill="#000000" transform="matrix(1.00, 0.00, -0.00, -1.00, 578.0, 51.7)"> </text><text xml:space="preserve" font-family="Menlo-Regular,Menlo" font-size="20.0" fill="#000000" transform="matrix(1.00, 0.00, -0.00, -1.00, 590.0, 51.7)">{</text><text xml:space="preserve" font-family="Menlo-Regular,Menlo" font-size="20.0" fill="#000000" transform="matrix(1.00, 0.00, -0.00, -1.00, 602.1, 51.7)"> </text><text xml:space="preserve" font-family="Menlo-Regular,Menlo" font-size="20.0" fill="#000000" transform="matrix(1.00, 0.00, -0.00, -1.00, 0.0, 27.7)"> </text><text xml:space="preserve" font-family="Menlo-Regular,Menlo" font-size="20.0" fill="#000000" transform="matrix(1.00, 0.00, -0.00, -1.00, 12.0, 27.7)"> </text><text xml:space="preserve" font-family="Menlo-Regular,Menlo" font-size="20.0" fill="#000000" transform="matrix(1.00, 0.00, -0.00, -1.00, 24.1, 27.7)"> </text><text xml:space="preserve" font-family="Menlo-Regular,Menlo" font-size="20.0" fill="#000000" transform="matrix(1.00, 0.00, -0.00, -1.00, 36.1, 27.7)"> </text><text xml:space="preserve" font-family="Menlo-Regular,Menlo" font-size="20.0" fill="#000000" transform="matrix(1.00, 0.00, -0.00, -1.00, 48.2, 27.7)"> </text><text xml:space="preserve" font-family="Menlo-Regular,Menlo" font-size="20.0" fill="#000000" transform="matrix(1.00, 0.00, -0.00, -1.00, 60.2, 27.7)"> </text><text xml:space="preserve" font-family="Menlo-Regular,Menlo" font-size="20.0" fill="#000000" transform="matrix(1.00, 0.00, -0.00, -1.00, 72.3, 27.7)"> </text><text xml:space="preserve" font-family="Menlo-Regular,Menlo" font-size="20.0" fill="#000000" transform="matrix(1.00, 0.00, -0.00, -1.00, 84.3, 27.7)"> </text><text xml:space="preserve" font-family="Menlo-Regular,Menlo" font-size="20.0" fill="#000000" transform="matrix(1.00, 0.00, -0.00, -1.00, 96.3, 27.7)"> </text><text xml:space="preserve" font-family="Menlo-Regular,Menlo" font-size="20.0" fill="#000000" transform="matrix(1.00, 0.00, -0.00, -1.00, 0.0, 3.7)">}</text></g></svg>