<?xml version="1.0" encoding="UTF-8" standalone="no"?><svg xmlns="http://www.w3.org/2000/svg" xmlns:xlink="http://www.w3.org/1999/xlink" clip-rule="evenodd" stroke-miterlimit="10" viewBox="0 0 273 34"><desc>SVG generated by Keynote</desc><defs></defs><g transform="matrix(1.00, 0.00, -0.00, -1.00, 0.0, 34.0)"><text xml:space="preserve" font-family="Helvetica,Helvetica" font-size="42.0" fill="#000000" transform="matrix(1.00, 0.00, -0.00, -1.00, 0.6, 2.7)">A</text><text xml:space="preserve" font-family="Helvetica,Helvetica" font-size="42.0" fill="#000000" transform="matrix(1.00, 0.00, -0.00, -1.00, 28.6, 2.7)">c</text><text xml:space="preserve" font-family="Helvetica,Helvetica" font-size="42.0" fill="#000000" transform="matrix(1.00, 0.00, -0.00, -1.00, 49.6, 2.7)">c</text><text xml:space="preserve" font-family="Helvetica,Helvetica" font-size="42.0" fill="#000000" transform="matrix(1.00, 0.00, -0.00, -1.00, 70.6, 2.7)">e</text><text xml:space="preserve" font-family="Helvetica,Helvetica" font-size="42.0" fill="#000000" transform="matrix(1.00, 0.00, -0.00, -1.00, 94.0, 2.7)">l</text><text xml:space="preserve" font-family="Helvetica,Helvetica" font-size="42.0" fill="#000000" transform="matrix(1.00, 0.00, -0.00, -1.00, 103.4, 2.7)">e</text><text xml:space="preserve" font-family="Helvetica,Helvetica" font-size="42.0" fill="#000000" transform="matrix(1.00, 0.00, -0.00, -1.00, 126.7, 2.7)">r</text><text xml:space="preserve" font-family="Helvetica,Helvetica" font-size="42.0" fill="#000000" transform="matrix(1.00, 0.00, -0.00, -1.00, 140.7, 2.7)">o</text><text xml:space="preserve" font-family="Helvetica,Helvetica" font-size="42.0" fill="#000000" transform="matrix(1.00, 0.00, -0.00, -1.00, 164.1, 2.7)">m</text><text xml:space="preserve" font-family="Helvetica,Helvetica" font-size="42.0" fill="#000000" transform="matrix(1.00, 0.00, -0.00, -1.00, 199.1, 2.7)">e</text><text xml:space="preserve" font-family="Helvetica,Helvetica" font-size="42.0" fill="#000000" transform="matrix(1.00, 0.00, -0.00, -1.00, 222.4, 2.7)">t</text><text xml:space="preserve" font-family="Helvetica,Helvetica" font-size="42.0" fill="#000000" transform="matrix(1.00, 0.00, -0.00, -1.00, 234.1, 2.7)">e</text><text xml:space="preserve" font-family="Helvetica,Helvetica" font-size="42.0" fill="#000000" transform="matrix(1.00, 0.00, -0.00, -1.00, 257.5, 2.7)">r</text></g></svg>