<?xml version="1.0" encoding="UTF-8" standalone="no"?><svg xmlns="http://www.w3.org/2000/svg" xmlns:xlink="http://www.w3.org/1999/xlink" clip-rule="evenodd" stroke-miterlimit="10" viewBox="0 0 117 17"><desc>SVG generated by Keynote</desc><defs></defs><g transform="matrix(1.00, 0.00, -0.00, -1.00, 0.0, 17.0)"><text xml:space="preserve" font-family="Helvetica,Helvetica" font-size="20.0" fill="#000000" transform="matrix(1.00, 0.00, -0.00, -1.00, 1.2, 1.6)">A</text><text xml:space="preserve" font-family="Helvetica,Helvetica" font-size="20.0" fill="#000000" transform="matrix(1.00, 0.00, -0.00, -1.00, 14.6, 1.6)">l</text><text xml:space="preserve" font-family="Helvetica,Helvetica" font-size="20.0" fill="#000000" transform="matrix(1.00, 0.00, -0.00, -1.00, 19.0, 1.6)">l</text><text xml:space="preserve" font-family="Helvetica,Helvetica" font-size="20.0" fill="#000000" transform="matrix(1.00, 0.00, -0.00, -1.00, 23.5, 1.6)"> </text><text xml:space="preserve" font-family="Helvetica,Helvetica" font-size="20.0" fill="#000000" transform="matrix(1.00, 0.00, -0.00, -1.00, 29.0, 1.6)">i</text><text xml:space="preserve" font-family="Helvetica,Helvetica" font-size="20.0" fill="#000000" transform="matrix(1.00, 0.00, -0.00, -1.00, 33.5, 1.6)">n</text><text xml:space="preserve" font-family="Helvetica,Helvetica" font-size="20.0" fill="#000000" transform="matrix(1.00, 0.00, -0.00, -1.00, 44.6, 1.6)"> </text><text xml:space="preserve" font-family="Helvetica,Helvetica" font-size="20.0" fill="#000000" transform="matrix(1.00, 0.00, -0.00, -1.00, 50.2, 1.6)">r</text><text xml:space="preserve" font-family="Helvetica,Helvetica" font-size="20.0" fill="#000000" transform="matrix(1.00, 0.00, -0.00, -1.00, 56.8, 1.6)">a</text><text xml:space="preserve" font-family="Helvetica,Helvetica" font-size="20.0" fill="#000000" transform="matrix(1.00, 0.00, -0.00, -1.00, 68.0, 1.6)">d</text><text xml:space="preserve" font-family="Helvetica,Helvetica" font-size="20.0" fill="#000000" transform="matrix(1.00, 0.00, -0.00, -1.00, 79.1, 1.6)">i</text><text xml:space="preserve" font-family="Helvetica,Helvetica" font-size="20.0" fill="#000000" transform="matrix(1.00, 0.00, -0.00, -1.00, 83.5, 1.6)">a</text><text xml:space="preserve" font-family="Helvetica,Helvetica" font-size="20.0" fill="#000000" transform="matrix(1.00, 0.00, -0.00, -1.00, 94.7, 1.6)">n</text><text xml:space="preserve" font-family="Helvetica,Helvetica" font-size="20.0" fill="#000000" transform="matrix(1.00, 0.00, -0.00, -1.00, 105.8, 1.6)">s</text></g></svg>