<?xml version="1.0" encoding="UTF-8" standalone="no"?><svg xmlns="http://www.w3.org/2000/svg" xmlns:xlink="http://www.w3.org/1999/xlink" clip-rule="evenodd" stroke-miterlimit="10" viewBox="0 0 688 390"><desc>SVG generated by Keynote</desc><defs></defs><g transform="matrix(1.00, 0.00, -0.00, -1.00, 0.0, 390.0)"><text xml:space="preserve" font-family="Menlo-Regular,Menlo" font-size="20.0" fill="#703DA9" transform="matrix(1.00, 0.00, -0.00, -1.00, 1.0, 341.7)">C</text><text xml:space="preserve" font-family="Menlo-Regular,Menlo" font-size="20.0" fill="#703DA9" transform="matrix(1.00, 0.00, -0.00, -1.00, 13.0, 341.7)">M</text><text xml:space="preserve" font-family="Menlo-Regular,Menlo" font-size="20.0" fill="#703DA9" transform="matrix(1.00, 0.00, -0.00, -1.00, 25.1, 341.7)">A</text><text xml:space="preserve" font-family="Menlo-Regular,Menlo" font-size="20.0" fill="#703DA9" transform="matrix(1.00, 0.00, -0.00, -1.00, 37.1, 341.7)">t</text><text xml:space="preserve" font-family="Menlo-Regular,Menlo" font-size="20.0" fill="#703DA9" transform="matrix(1.00, 0.00, -0.00, -1.00, 49.2, 341.7)">t</text><text xml:space="preserve" font-family="Menlo-Regular,Menlo" font-size="20.0" fill="#703DA9" transform="matrix(1.00, 0.00, -0.00, -1.00, 61.2, 341.7)">i</text><text xml:space="preserve" font-family="Menlo-Regular,Menlo" font-size="20.0" fill="#703DA9" transform="matrix(1.00, 0.00, -0.00, -1.00, 73.3, 341.7)">t</text><text xml:space="preserve" font-family="Menlo-Regular,Menlo" font-size="20.0" fill="#703DA9" transform="matrix(1.00, 0.00, -0.00, -1.00, 85.3, 341.7)">u</text><text xml:space="preserve" font-family="Menlo-Regular,Menlo" font-size="20.0" fill="#703DA9" transform="matrix(1.00, 0.00, -0.00, -1.00, 97.3, 341.7)">d</text><text xml:space="preserve" font-family="Menlo-Regular,Menlo" font-size="20.0" fill="#703DA9" transform="matrix(1.00, 0.00, -0.00, -1.00, 109.4, 341.7)">e</text><text xml:space="preserve" font-family="Menlo-Regular,Menlo" font-size="20.0" fill="#000000" transform="matrix(1.00, 0.00, -0.00, -1.00, 121.4, 341.7)"> </text><text xml:space="preserve" font-family="Menlo-Regular,Menlo" font-size="20.0" fill="#000000" transform="matrix(1.00, 0.00, -0.00, -1.00, 133.5, 341.7)">*</text><text xml:space="preserve" font-family="Menlo-Regular,Menlo" font-size="20.0" fill="#000000" transform="matrix(1.00, 0.00, -0.00, -1.00, 145.5, 341.7)">a</text><text xml:space="preserve" font-family="Menlo-Regular,Menlo" font-size="20.0" fill="#000000" transform="matrix(1.00, 0.00, -0.00, -1.00, 157.5, 341.7)">t</text><text xml:space="preserve" font-family="Menlo-Regular,Menlo" font-size="20.0" fill="#000000" transform="matrix(1.00, 0.00, -0.00, -1.00, 169.6, 341.7)">t</text><text xml:space="preserve" font-family="Menlo-Regular,Menlo" font-size="20.0" fill="#000000" transform="matrix(1.00, 0.00, -0.00, -1.00, 181.6, 341.7)">i</text><text xml:space="preserve" font-family="Menlo-Regular,Menlo" font-size="20.0" fill="#000000" transform="matrix(1.00, 0.00, -0.00, -1.00, 193.7, 341.7)">t</text><text xml:space="preserve" font-family="Menlo-Regular,Menlo" font-size="20.0" fill="#000000" transform="matrix(1.00, 0.00, -0.00, -1.00, 205.7, 341.7)">u</text><text xml:space="preserve" font-family="Menlo-Regular,Menlo" font-size="20.0" fill="#000000" transform="matrix(1.00, 0.00, -0.00, -1.00, 217.8, 341.7)">d</text><text xml:space="preserve" font-family="Menlo-Regular,Menlo" font-size="20.0" fill="#000000" transform="matrix(1.00, 0.00, -0.00, -1.00, 229.8, 341.7)">e</text><text xml:space="preserve" font-family="Menlo-Regular,Menlo" font-size="20.0" fill="#000000" transform="matrix(1.00, 0.00, -0.00, -1.00, 241.8, 341.7)"> </text><text xml:space="preserve" font-family="Menlo-Regular,Menlo" font-size="20.0" fill="#000000" transform="matrix(1.00, 0.00, -0.00, -1.00, 253.9, 341.7)">=</text><text xml:space="preserve" font-family="Menlo-Regular,Menlo" font-size="20.0" fill="#000000" transform="matrix(1.00, 0.00, -0.00, -1.00, 265.9, 341.7)"> </text><text xml:space="preserve" font-family="Menlo-Regular,Menlo" font-size="20.0" fill="#000000" transform="matrix(1.00, 0.00, -0.00, -1.00, 278.0, 341.7)">d</text><text xml:space="preserve" font-family="Menlo-Regular,Menlo" font-size="20.0" fill="#000000" transform="matrix(1.00, 0.00, -0.00, -1.00, 290.0, 341.7)">e</text><text xml:space="preserve" font-family="Menlo-Regular,Menlo" font-size="20.0" fill="#000000" transform="matrix(1.00, 0.00, -0.00, -1.00, 302.1, 341.7)">v</text><text xml:space="preserve" font-family="Menlo-Regular,Menlo" font-size="20.0" fill="#000000" transform="matrix(1.00, 0.00, -0.00, -1.00, 314.1, 341.7)">i</text><text xml:space="preserve" font-family="Menlo-Regular,Menlo" font-size="20.0" fill="#000000" transform="matrix(1.00, 0.00, -0.00, -1.00, 326.1, 341.7)">c</text><text xml:space="preserve" font-family="Menlo-Regular,Menlo" font-size="20.0" fill="#000000" transform="matrix(1.00, 0.00, -0.00, -1.00, 338.2, 341.7)">e</text><text xml:space="preserve" font-family="Menlo-Regular,Menlo" font-size="20.0" fill="#000000" transform="matrix(1.00, 0.00, -0.00, -1.00, 350.2, 341.7)">M</text><text xml:space="preserve" font-family="Menlo-Regular,Menlo" font-size="20.0" fill="#000000" transform="matrix(1.00, 0.00, -0.00, -1.00, 362.3, 341.7)">o</text><text xml:space="preserve" font-family="Menlo-Regular,Menlo" font-size="20.0" fill="#000000" transform="matrix(1.00, 0.00, -0.00, -1.00, 374.3, 341.7)">t</text><text xml:space="preserve" font-family="Menlo-Regular,Menlo" font-size="20.0" fill="#000000" transform="matrix(1.00, 0.00, -0.00, -1.00, 386.4, 341.7)">i</text><text xml:space="preserve" font-family="Menlo-Regular,Menlo" font-size="20.0" fill="#000000" transform="matrix(1.00, 0.00, -0.00, -1.00, 398.4, 341.7)">o</text><text xml:space="preserve" font-family="Menlo-Regular,Menlo" font-size="20.0" fill="#000000" transform="matrix(1.00, 0.00, -0.00, -1.00, 410.4, 341.7)">n</text><text xml:space="preserve" font-family="Menlo-Regular,Menlo" font-size="20.0" fill="#000000" transform="matrix(1.00, 0.00, -0.00, -1.00, 422.5, 341.7)">.</text><text xml:space="preserve" font-family="Menlo-Regular,Menlo" font-size="20.0" fill="#703DA9" transform="matrix(1.00, 0.00, -0.00, -1.00, 434.5, 341.7)">a</text><text xml:space="preserve" font-family="Menlo-Regular,Menlo" font-size="20.0" fill="#703DA9" transform="matrix(1.00, 0.00, -0.00, -1.00, 446.5, 341.7)">t</text><text xml:space="preserve" font-family="Menlo-Regular,Menlo" font-size="20.0" fill="#703DA9" transform="matrix(1.00, 0.00, -0.00, -1.00, 458.6, 341.7)">t</text><text xml:space="preserve" font-family="Menlo-Regular,Menlo" font-size="20.0" fill="#703DA9" transform="matrix(1.00, 0.00, -0.00, -1.00, 470.6, 341.7)">i</text><text xml:space="preserve" font-family="Menlo-Regular,Menlo" font-size="20.0" fill="#703DA9" transform="matrix(1.00, 0.00, -0.00, -1.00, 482.6, 341.7)">t</text><text xml:space="preserve" font-family="Menlo-Regular,Menlo" font-size="20.0" fill="#703DA9" transform="matrix(1.00, 0.00, -0.00, -1.00, 494.7, 341.7)">u</text><text xml:space="preserve" font-family="Menlo-Regular,Menlo" font-size="20.0" fill="#703DA9" transform="matrix(1.00, 0.00, -0.00, -1.00, 506.7, 341.7)">d</text><text xml:space="preserve" font-family="Menlo-Regular,Menlo" font-size="20.0" fill="#703DA9" transform="matrix(1.00, 0.00, -0.00, -1.00, 518.8, 341.7)">e</text><text xml:space="preserve" font-family="Menlo-Regular,Menlo" font-size="20.0" fill="#000000" transform="matrix(1.00, 0.00, -0.00, -1.00, 530.8, 341.7)">;</text><text xml:space="preserve" font-family="Menlo-Regular,Menlo" font-size="20.0" fill="#000000" transform="matrix(1.00, 0.00, -0.00, -1.00, 542.8, 341.7)"> </text><text xml:space="preserve" font-family="Menlo-Regular,Menlo" font-size="20.0" fill="#000000" transform="matrix(1.00, 0.00, -0.00, -1.00, 1.0, 293.7)">P</text><text xml:space="preserve" font-family="Menlo-Regular,Menlo" font-size="20.0" fill="#000000" transform="matrix(1.00, 0.00, -0.00, -1.00, 13.0, 293.7)">r</text><text xml:space="preserve" font-family="Menlo-Regular,Menlo" font-size="20.0" fill="#000000" transform="matrix(1.00, 0.00, -0.00, -1.00, 25.1, 293.7)">o</text><text xml:space="preserve" font-family="Menlo-Regular,Menlo" font-size="20.0" fill="#000000" transform="matrix(1.00, 0.00, -0.00, -1.00, 37.1, 293.7)">p</text><text xml:space="preserve" font-family="Menlo-Regular,Menlo" font-size="20.0" fill="#000000" transform="matrix(1.00, 0.00, -0.00, -1.00, 49.2, 293.7)">e</text><text xml:space="preserve" font-family="Menlo-Regular,Menlo" font-size="20.0" fill="#000000" transform="matrix(1.00, 0.00, -0.00, -1.00, 61.2, 293.7)">r</text><text xml:space="preserve" font-family="Menlo-Regular,Menlo" font-size="20.0" fill="#000000" transform="matrix(1.00, 0.00, -0.00, -1.00, 73.3, 293.7)">t</text><text xml:space="preserve" font-family="Menlo-Regular,Menlo" font-size="20.0" fill="#000000" transform="matrix(1.00, 0.00, -0.00, -1.00, 85.3, 293.7)">i</text><text xml:space="preserve" font-family="Menlo-Regular,Menlo" font-size="20.0" fill="#000000" transform="matrix(1.00, 0.00, -0.00, -1.00, 97.3, 293.7)">e</text><text xml:space="preserve" font-family="Menlo-Regular,Menlo" font-size="20.0" fill="#000000" transform="matrix(1.00, 0.00, -0.00, -1.00, 109.4, 293.7)">s</text><text xml:space="preserve" font-family="Menlo-Regular,Menlo" font-size="20.0" fill="#000000" transform="matrix(1.00, 0.00, -0.00, -1.00, 121.4, 293.7)">:</text><text xml:space="preserve" font-family="Menlo-Regular,Menlo" font-size="20.0" fill="#000000" transform="matrix(1.00, 0.00, -0.00, -1.00, 133.5, 293.7)"> </text><text xml:space="preserve" font-family="Menlo-Regular,Menlo" font-size="20.0" fill="#000000" transform="matrix(1.00, 0.00, -0.00, -1.00, 1.0, 245.7)">-</text><text xml:space="preserve" font-family="Menlo-Regular,Menlo" font-size="20.0" fill="#000000" transform="matrix(1.00, 0.00, -0.00, -1.00, 13.0, 245.7)"> </text><text xml:space="preserve" font-family="Menlo-Regular,Menlo" font-size="20.0" fill="#000000" transform="matrix(1.00, 0.00, -0.00, -1.00, 25.1, 245.7)">r</text><text xml:space="preserve" font-family="Menlo-Regular,Menlo" font-size="20.0" fill="#000000" transform="matrix(1.00, 0.00, -0.00, -1.00, 37.1, 245.7)">o</text><text xml:space="preserve" font-family="Menlo-Regular,Menlo" font-size="20.0" fill="#000000" transform="matrix(1.00, 0.00, -0.00, -1.00, 49.2, 245.7)">l</text><text xml:space="preserve" font-family="Menlo-Regular,Menlo" font-size="20.0" fill="#000000" transform="matrix(1.00, 0.00, -0.00, -1.00, 61.2, 245.7)">l</text><text xml:space="preserve" font-family="Menlo-Regular,Menlo" font-size="20.0" fill="#000000" transform="matrix(1.00, 0.00, -0.00, -1.00, 73.3, 245.7)"> </text><text xml:space="preserve" font-family="Menlo-Regular,Menlo" font-size="20.0" fill="#000000" transform="matrix(1.00, 0.00, -0.00, -1.00, 1.0, 221.7)">-</text><text xml:space="preserve" font-family="Menlo-Regular,Menlo" font-size="20.0" fill="#000000" transform="matrix(1.00, 0.00, -0.00, -1.00, 13.0, 221.7)"> </text><text xml:space="preserve" font-family="Menlo-Regular,Menlo" font-size="20.0" fill="#000000" transform="matrix(1.00, 0.00, -0.00, -1.00, 25.1, 221.7)">p</text><text xml:space="preserve" font-family="Menlo-Regular,Menlo" font-size="20.0" fill="#000000" transform="matrix(1.00, 0.00, -0.00, -1.00, 37.1, 221.7)">i</text><text xml:space="preserve" font-family="Menlo-Regular,Menlo" font-size="20.0" fill="#000000" transform="matrix(1.00, 0.00, -0.00, -1.00, 49.2, 221.7)">t</text><text xml:space="preserve" font-family="Menlo-Regular,Menlo" font-size="20.0" fill="#000000" transform="matrix(1.00, 0.00, -0.00, -1.00, 61.2, 221.7)">c</text><text xml:space="preserve" font-family="Menlo-Regular,Menlo" font-size="20.0" fill="#000000" transform="matrix(1.00, 0.00, -0.00, -1.00, 73.3, 221.7)">h</text><text xml:space="preserve" font-family="Menlo-Regular,Menlo" font-size="20.0" fill="#000000" transform="matrix(1.00, 0.00, -0.00, -1.00, 85.3, 221.7)"> </text><text xml:space="preserve" font-family="Menlo-Regular,Menlo" font-size="20.0" fill="#000000" transform="matrix(1.00, 0.00, -0.00, -1.00, 1.0, 197.7)">-</text><text xml:space="preserve" font-family="Menlo-Regular,Menlo" font-size="20.0" fill="#000000" transform="matrix(1.00, 0.00, -0.00, -1.00, 13.0, 197.7)"> </text><text xml:space="preserve" font-family="Menlo-Regular,Menlo" font-size="20.0" fill="#000000" transform="matrix(1.00, 0.00, -0.00, -1.00, 25.1, 197.7)">y</text><text xml:space="preserve" font-family="Menlo-Regular,Menlo" font-size="20.0" fill="#000000" transform="matrix(1.00, 0.00, -0.00, -1.00, 37.1, 197.7)">a</text><text xml:space="preserve" font-family="Menlo-Regular,Menlo" font-size="20.0" fill="#000000" transform="matrix(1.00, 0.00, -0.00, -1.00, 49.2, 197.7)">w</text><text xml:space="preserve" font-family="Menlo-Regular,Menlo" font-size="20.0" fill="#000000" transform="matrix(1.00, 0.00, -0.00, -1.00, 61.2, 197.7)"> </text><text xml:space="preserve" font-family="Menlo-Regular,Menlo" font-size="20.0" fill="#000000" transform="matrix(1.00, 0.00, -0.00, -1.00, 1.0, 149.7)">-</text><text xml:space="preserve" font-family="Menlo-Regular,Menlo" font-size="20.0" fill="#000000" transform="matrix(1.00, 0.00, -0.00, -1.00, 13.0, 149.7)"> </text><text xml:space="preserve" font-family="Menlo-Regular,Menlo" font-size="20.0" fill="#000000" transform="matrix(1.00, 0.00, -0.00, -1.00, 25.1, 149.7)">r</text><text xml:space="preserve" font-family="Menlo-Regular,Menlo" font-size="20.0" fill="#000000" transform="matrix(1.00, 0.00, -0.00, -1.00, 37.1, 149.7)">o</text><text xml:space="preserve" font-family="Menlo-Regular,Menlo" font-size="20.0" fill="#000000" transform="matrix(1.00, 0.00, -0.00, -1.00, 49.2, 149.7)">t</text><text xml:space="preserve" font-family="Menlo-Regular,Menlo" font-size="20.0" fill="#000000" transform="matrix(1.00, 0.00, -0.00, -1.00, 61.2, 149.7)">a</text><text xml:space="preserve" font-family="Menlo-Regular,Menlo" font-size="20.0" fill="#000000" transform="matrix(1.00, 0.00, -0.00, -1.00, 73.3, 149.7)">t</text><text xml:space="preserve" font-family="Menlo-Regular,Menlo" font-size="20.0" fill="#000000" transform="matrix(1.00, 0.00, -0.00, -1.00, 85.3, 149.7)">i</text><text xml:space="preserve" font-family="Menlo-Regular,Menlo" font-size="20.0" fill="#000000" transform="matrix(1.00, 0.00, -0.00, -1.00, 97.3, 149.7)">o</text><text xml:space="preserve" font-family="Menlo-Regular,Menlo" font-size="20.0" fill="#000000" transform="matrix(1.00, 0.00, -0.00, -1.00, 109.4, 149.7)">n</text><text xml:space="preserve" font-family="Menlo-Regular,Menlo" font-size="20.0" fill="#000000" transform="matrix(1.00, 0.00, -0.00, -1.00, 121.4, 149.7)"> </text><text xml:space="preserve" font-family="Menlo-Regular,Menlo" font-size="20.0" fill="#000000" transform="matrix(1.00, 0.00, -0.00, -1.00, 133.5, 149.7)">m</text><text xml:space="preserve" font-family="Menlo-Regular,Menlo" font-size="20.0" fill="#000000" transform="matrix(1.00, 0.00, -0.00, -1.00, 145.5, 149.7)">a</text><text xml:space="preserve" font-family="Menlo-Regular,Menlo" font-size="20.0" fill="#000000" transform="matrix(1.00, 0.00, -0.00, -1.00, 157.6, 149.7)">t</text><text xml:space="preserve" font-family="Menlo-Regular,Menlo" font-size="20.0" fill="#000000" transform="matrix(1.00, 0.00, -0.00, -1.00, 169.6, 149.7)">r</text><text xml:space="preserve" font-family="Menlo-Regular,Menlo" font-size="20.0" fill="#000000" transform="matrix(1.00, 0.00, -0.00, -1.00, 181.6, 149.7)">i</text><text xml:space="preserve" font-family="Menlo-Regular,Menlo" font-size="20.0" fill="#000000" transform="matrix(1.00, 0.00, -0.00, -1.00, 193.7, 149.7)">x</text><text xml:space="preserve" font-family="Menlo-Regular,Menlo" font-size="20.0" fill="#000000" transform="matrix(1.00, 0.00, -0.00, -1.00, 205.7, 149.7)"> </text><text xml:space="preserve" font-family="Menlo-Regular,Menlo" font-size="20.0" fill="#000000" transform="matrix(1.00, 0.00, -0.00, -1.00, 1.0, 101.7)">-</text><text xml:space="preserve" font-family="Menlo-Regular,Menlo" font-size="20.0" fill="#000000" transform="matrix(1.00, 0.00, -0.00, -1.00, 13.0, 101.7)"> </text><text xml:space="preserve" font-family="Menlo-Regular,Menlo" font-size="20.0" fill="#000000" transform="matrix(1.00, 0.00, -0.00, -1.00, 25.1, 101.7)">q</text><text xml:space="preserve" font-family="Menlo-Regular,Menlo" font-size="20.0" fill="#000000" transform="matrix(1.00, 0.00, -0.00, -1.00, 37.1, 101.7)">u</text><text xml:space="preserve" font-family="Menlo-Regular,Menlo" font-size="20.0" fill="#000000" transform="matrix(1.00, 0.00, -0.00, -1.00, 49.2, 101.7)">a</text><text xml:space="preserve" font-family="Menlo-Regular,Menlo" font-size="20.0" fill="#000000" transform="matrix(1.00, 0.00, -0.00, -1.00, 61.2, 101.7)">t</text><text xml:space="preserve" font-family="Menlo-Regular,Menlo" font-size="20.0" fill="#000000" transform="matrix(1.00, 0.00, -0.00, -1.00, 73.3, 101.7)">e</text><text xml:space="preserve" font-family="Menlo-Regular,Menlo" font-size="20.0" fill="#000000" transform="matrix(1.00, 0.00, -0.00, -1.00, 85.3, 101.7)">r</text><text xml:space="preserve" font-family="Menlo-Regular,Menlo" font-size="20.0" fill="#000000" transform="matrix(1.00, 0.00, -0.00, -1.00, 97.3, 101.7)">n</text><text xml:space="preserve" font-family="Menlo-Regular,Menlo" font-size="20.0" fill="#000000" transform="matrix(1.00, 0.00, -0.00, -1.00, 109.4, 101.7)">i</text><text xml:space="preserve" font-family="Menlo-Regular,Menlo" font-size="20.0" fill="#000000" transform="matrix(1.00, 0.00, -0.00, -1.00, 121.4, 101.7)">o</text><text xml:space="preserve" font-family="Menlo-Regular,Menlo" font-size="20.0" fill="#000000" transform="matrix(1.00, 0.00, -0.00, -1.00, 133.5, 101.7)">n</text><text xml:space="preserve" font-family="Menlo-Regular,Menlo" font-size="20.0" fill="#000000" transform="matrix(1.00, 0.00, -0.00, -1.00, 145.5, 101.7)"> </text><text xml:space="preserve" font-family="Menlo-Regular,Menlo" font-size="20.0" fill="#000000" transform="matrix(1.00, 0.00, -0.00, -1.00, 1.0, 53.7)">M</text><text xml:space="preserve" font-family="Menlo-Regular,Menlo" font-size="20.0" fill="#000000" transform="matrix(1.00, 0.00, -0.00, -1.00, 13.0, 53.7)">e</text><text xml:space="preserve" font-family="Menlo-Regular,Menlo" font-size="20.0" fill="#000000" transform="matrix(1.00, 0.00, -0.00, -1.00, 25.1, 53.7)">t</text><text xml:space="preserve" font-family="Menlo-Regular,Menlo" font-size="20.0" fill="#000000" transform="matrix(1.00, 0.00, -0.00, -1.00, 37.1, 53.7)">h</text><text xml:space="preserve" font-family="Menlo-Regular,Menlo" font-size="20.0" fill="#000000" transform="matrix(1.00, 0.00, -0.00, -1.00, 49.2, 53.7)">o</text><text xml:space="preserve" font-family="Menlo-Regular,Menlo" font-size="20.0" fill="#000000" transform="matrix(1.00, 0.00, -0.00, -1.00, 61.2, 53.7)">d</text><text xml:space="preserve" font-family="Menlo-Regular,Menlo" font-size="20.0" fill="#000000" transform="matrix(1.00, 0.00, -0.00, -1.00, 73.3, 53.7)">s</text><text xml:space="preserve" font-family="Menlo-Regular,Menlo" font-size="20.0" fill="#000000" transform="matrix(1.00, 0.00, -0.00, -1.00, 85.3, 53.7)">:</text><text xml:space="preserve" font-family="Menlo-Regular,Menlo" font-size="20.0" fill="#000000" transform="matrix(1.00, 0.00, -0.00, -1.00, 97.3, 53.7)"> </text><text xml:space="preserve" font-family="Menlo-Regular,Menlo" font-size="20.0" fill="#000000" transform="matrix(1.00, 0.00, -0.00, -1.00, 1.0, 5.7)">[</text><text xml:space="preserve" font-family="Menlo-Regular,Menlo" font-size="20.0" fill="#000000" transform="matrix(1.00, 0.00, -0.00, -1.00, 13.0, 5.7)">a</text><text xml:space="preserve" font-family="Menlo-Regular,Menlo" font-size="20.0" fill="#000000" transform="matrix(1.00, 0.00, -0.00, -1.00, 25.1, 5.7)">t</text><text xml:space="preserve" font-family="Menlo-Regular,Menlo" font-size="20.0" fill="#000000" transform="matrix(1.00, 0.00, -0.00, -1.00, 37.1, 5.7)">t</text><text xml:space="preserve" font-family="Menlo-Regular,Menlo" font-size="20.0" fill="#000000" transform="matrix(1.00, 0.00, -0.00, -1.00, 49.2, 5.7)">i</text><text xml:space="preserve" font-family="Menlo-Regular,Menlo" font-size="20.0" fill="#000000" transform="matrix(1.00, 0.00, -0.00, -1.00, 61.2, 5.7)">t</text><text xml:space="preserve" font-family="Menlo-Regular,Menlo" font-size="20.0" fill="#000000" transform="matrix(1.00, 0.00, -0.00, -1.00, 73.3, 5.7)">u</text><text xml:space="preserve" font-family="Menlo-Regular,Menlo" font-size="20.0" fill="#000000" transform="matrix(1.00, 0.00, -0.00, -1.00, 85.3, 5.7)">d</text><text xml:space="preserve" font-family="Menlo-Regular,Menlo" font-size="20.0" fill="#000000" transform="matrix(1.00, 0.00, -0.00, -1.00, 97.3, 5.7)">e</text><text xml:space="preserve" font-family="Menlo-Regular,Menlo" font-size="20.0" fill="#000000" transform="matrix(1.00, 0.00, -0.00, -1.00, 109.4, 5.7)"> </text><text xml:space="preserve" font-family="Menlo-Regular,Menlo" font-size="20.0" fill="#3D1D81" transform="matrix(1.00, 0.00, -0.00, -1.00, 121.4, 5.7)">m</text><text xml:space="preserve" font-family="Menlo-Regular,Menlo" font-size="20.0" fill="#3D1D81" transform="matrix(1.00, 0.00, -0.00, -1.00, 133.5, 5.7)">u</text><text xml:space="preserve" font-family="Menlo-Regular,Menlo" font-size="20.0" fill="#3D1D81" transform="matrix(1.00, 0.00, -0.00, -1.00, 145.5, 5.7)">l</text><text xml:space="preserve" font-family="Menlo-Regular,Menlo" font-size="20.0" fill="#3D1D81" transform="matrix(1.00, 0.00, -0.00, -1.00, 157.5, 5.7)">t</text><text xml:space="preserve" font-family="Menlo-Regular,Menlo" font-size="20.0" fill="#3D1D81" transform="matrix(1.00, 0.00, -0.00, -1.00, 169.6, 5.7)">i</text><text xml:space="preserve" font-family="Menlo-Regular,Menlo" font-size="20.0" fill="#3D1D81" transform="matrix(1.00, 0.00, -0.00, -1.00, 181.6, 5.7)">p</text><text xml:space="preserve" font-family="Menlo-Regular,Menlo" font-size="20.0" fill="#3D1D81" transform="matrix(1.00, 0.00, -0.00, -1.00, 193.7, 5.7)">l</text><text xml:space="preserve" font-family="Menlo-Regular,Menlo" font-size="20.0" fill="#3D1D81" transform="matrix(1.00, 0.00, -0.00, -1.00, 205.7, 5.7)">y</text><text xml:space="preserve" font-family="Menlo-Regular,Menlo" font-size="20.0" fill="#3D1D81" transform="matrix(1.00, 0.00, -0.00, -1.00, 217.8, 5.7)">B</text><text xml:space="preserve" font-family="Menlo-Regular,Menlo" font-size="20.0" fill="#3D1D81" transform="matrix(1.00, 0.00, -0.00, -1.00, 229.8, 5.7)">y</text><text xml:space="preserve" font-family="Menlo-Regular,Menlo" font-size="20.0" fill="#3D1D81" transform="matrix(1.00, 0.00, -0.00, -1.00, 241.8, 5.7)">I</text><text xml:space="preserve" font-family="Menlo-Regular,Menlo" font-size="20.0" fill="#3D1D81" transform="matrix(1.00, 0.00, -0.00, -1.00, 253.9, 5.7)">n</text><text xml:space="preserve" font-family="Menlo-Regular,Menlo" font-size="20.0" fill="#3D1D81" transform="matrix(1.00, 0.00, -0.00, -1.00, 265.9, 5.7)">v</text><text xml:space="preserve" font-family="Menlo-Regular,Menlo" font-size="20.0" fill="#3D1D81" transform="matrix(1.00, 0.00, -0.00, -1.00, 278.0, 5.7)">e</text><text xml:space="preserve" font-family="Menlo-Regular,Menlo" font-size="20.0" fill="#3D1D81" transform="matrix(1.00, 0.00, -0.00, -1.00, 290.0, 5.7)">r</text><text xml:space="preserve" font-family="Menlo-Regular,Menlo" font-size="20.0" fill="#3D1D81" transform="matrix(1.00, 0.00, -0.00, -1.00, 302.1, 5.7)">s</text><text xml:space="preserve" font-family="Menlo-Regular,Menlo" font-size="20.0" fill="#3D1D81" transform="matrix(1.00, 0.00, -0.00, -1.00, 314.1, 5.7)">e</text><text xml:space="preserve" font-family="Menlo-Regular,Menlo" font-size="20.0" fill="#3D1D81" transform="matrix(1.00, 0.00, -0.00, -1.00, 326.1, 5.7)">O</text><text xml:space="preserve" font-family="Menlo-Regular,Menlo" font-size="20.0" fill="#3D1D81" transform="matrix(1.00, 0.00, -0.00, -1.00, 338.2, 5.7)">f</text><text xml:space="preserve" font-family="Menlo-Regular,Menlo" font-size="20.0" fill="#3D1D81" transform="matrix(1.00, 0.00, -0.00, -1.00, 350.2, 5.7)">A</text><text xml:space="preserve" font-family="Menlo-Regular,Menlo" font-size="20.0" fill="#3D1D81" transform="matrix(1.00, 0.00, -0.00, -1.00, 362.3, 5.7)">t</text><text xml:space="preserve" font-family="Menlo-Regular,Menlo" font-size="20.0" fill="#3D1D81" transform="matrix(1.00, 0.00, -0.00, -1.00, 374.3, 5.7)">t</text><text xml:space="preserve" font-family="Menlo-Regular,Menlo" font-size="20.0" fill="#3D1D81" transform="matrix(1.00, 0.00, -0.00, -1.00, 386.4, 5.7)">i</text><text xml:space="preserve" font-family="Menlo-Regular,Menlo" font-size="20.0" fill="#3D1D81" transform="matrix(1.00, 0.00, -0.00, -1.00, 398.4, 5.7)">t</text><text xml:space="preserve" font-family="Menlo-Regular,Menlo" font-size="20.0" fill="#3D1D81" transform="matrix(1.00, 0.00, -0.00, -1.00, 410.4, 5.7)">u</text><text xml:space="preserve" font-family="Menlo-Regular,Menlo" font-size="20.0" fill="#3D1D81" transform="matrix(1.00, 0.00, -0.00, -1.00, 422.5, 5.7)">d</text><text xml:space="preserve" font-family="Menlo-Regular,Menlo" font-size="20.0" fill="#3D1D81" transform="matrix(1.00, 0.00, -0.00, -1.00, 434.5, 5.7)">e</text><text xml:space="preserve" font-family="Menlo-Regular,Menlo" font-size="20.0" fill="#000000" transform="matrix(1.00, 0.00, -0.00, -1.00, 446.5, 5.7)">:</text><text xml:space="preserve" font-family="Menlo-Regular,Menlo" font-size="20.0" fill="#4E8087" transform="matrix(1.00, 0.00, -0.00, -1.00, 458.6, 5.7)">r</text><text xml:space="preserve" font-family="Menlo-Regular,Menlo" font-size="20.0" fill="#4E8087" transform="matrix(1.00, 0.00, -0.00, -1.00, 470.6, 5.7)">e</text><text xml:space="preserve" font-family="Menlo-Regular,Menlo" font-size="20.0" fill="#4E8087" transform="matrix(1.00, 0.00, -0.00, -1.00, 482.6, 5.7)">f</text><text xml:space="preserve" font-family="Menlo-Regular,Menlo" font-size="20.0" fill="#4E8087" transform="matrix(1.00, 0.00, -0.00, -1.00, 494.7, 5.7)">e</text><text xml:space="preserve" font-family="Menlo-Regular,Menlo" font-size="20.0" fill="#4E8087" transform="matrix(1.00, 0.00, -0.00, -1.00, 506.7, 5.7)">r</text><text xml:space="preserve" font-family="Menlo-Regular,Menlo" font-size="20.0" fill="#4E8087" transform="matrix(1.00, 0.00, -0.00, -1.00, 518.8, 5.7)">e</text><text xml:space="preserve" font-family="Menlo-Regular,Menlo" font-size="20.0" fill="#4E8087" transform="matrix(1.00, 0.00, -0.00, -1.00, 530.8, 5.7)">n</text><text xml:space="preserve" font-family="Menlo-Regular,Menlo" font-size="20.0" fill="#4E8087" transform="matrix(1.00, 0.00, -0.00, -1.00, 542.9, 5.7)">c</text><text xml:space="preserve" font-family="Menlo-Regular,Menlo" font-size="20.0" fill="#4E8087" transform="matrix(1.00, 0.00, -0.00, -1.00, 554.9, 5.7)">e</text><text xml:space="preserve" font-family="Menlo-Regular,Menlo" font-size="20.0" fill="#4E8087" transform="matrix(1.00, 0.00, -0.00, -1.00, 566.9, 5.7)">A</text><text xml:space="preserve" font-family="Menlo-Regular,Menlo" font-size="20.0" fill="#4E8087" transform="matrix(1.00, 0.00, -0.00, -1.00, 579.0, 5.7)">t</text><text xml:space="preserve" font-family="Menlo-Regular,Menlo" font-size="20.0" fill="#4E8087" transform="matrix(1.00, 0.00, -0.00, -1.00, 591.0, 5.7)">t</text><text xml:space="preserve" font-family="Menlo-Regular,Menlo" font-size="20.0" fill="#4E8087" transform="matrix(1.00, 0.00, -0.00, -1.00, 603.1, 5.7)">i</text><text xml:space="preserve" font-family="Menlo-Regular,Menlo" font-size="20.0" fill="#4E8087" transform="matrix(1.00, 0.00, -0.00, -1.00, 615.1, 5.7)">t</text><text xml:space="preserve" font-family="Menlo-Regular,Menlo" font-size="20.0" fill="#4E8087" transform="matrix(1.00, 0.00, -0.00, -1.00, 627.2, 5.7)">u</text><text xml:space="preserve" font-family="Menlo-Regular,Menlo" font-size="20.0" fill="#4E8087" transform="matrix(1.00, 0.00, -0.00, -1.00, 639.2, 5.7)">d</text><text xml:space="preserve" font-family="Menlo-Regular,Menlo" font-size="20.0" fill="#4E8087" transform="matrix(1.00, 0.00, -0.00, -1.00, 651.2, 5.7)">e</text><text xml:space="preserve" font-family="Menlo-Regular,Menlo" font-size="20.0" fill="#000000" transform="matrix(1.00, 0.00, -0.00, -1.00, 663.3, 5.7)">]</text><text xml:space="preserve" font-family="Menlo-Regular,Menlo" font-size="20.0" fill="#000000" transform="matrix(1.00, 0.00, -0.00, -1.00, 675.3, 5.7)">;</text><text xml:space="preserve" font-family="Menlo-Regular,Menlo" font-size="20.0" fill="#3D1D81" transform="matrix(1.00, 0.00, -0.00, -1.00, 687.3, 5.7)"> </text></g></svg>