<?xml version="1.0" encoding="UTF-8" standalone="no"?><svg xmlns="http://www.w3.org/2000/svg" xmlns:xlink="http://www.w3.org/1999/xlink" clip-rule="evenodd" stroke-miterlimit="10" viewBox="0 0 312 38"><desc>SVG generated by Keynote</desc><defs></defs><g transform="matrix(1.00, 0.00, -0.00, -1.00, 0.0, 38.0)"><text xml:space="preserve" font-family="Helvetica,Helvetica" font-size="48.0" fill="#000000" transform="matrix(1.00, 0.00, -0.00, -1.00, 1.3, 2.0)">A</text><text xml:space="preserve" font-family="Helvetica,Helvetica" font-size="48.0" fill="#000000" transform="matrix(1.00, 0.00, -0.00, -1.00, 33.3, 2.0)">c</text><text xml:space="preserve" font-family="Helvetica,Helvetica" font-size="48.0" fill="#000000" transform="matrix(1.00, 0.00, -0.00, -1.00, 57.3, 2.0)">c</text><text xml:space="preserve" font-family="Helvetica,Helvetica" font-size="48.0" fill="#000000" transform="matrix(1.00, 0.00, -0.00, -1.00, 81.3, 2.0)">e</text><text xml:space="preserve" font-family="Helvetica,Helvetica" font-size="48.0" fill="#000000" transform="matrix(1.00, 0.00, -0.00, -1.00, 108.0, 2.0)">l</text><text xml:space="preserve" font-family="Helvetica,Helvetica" font-size="48.0" fill="#000000" transform="matrix(1.00, 0.00, -0.00, -1.00, 118.7, 2.0)">e</text><text xml:space="preserve" font-family="Helvetica,Helvetica" font-size="48.0" fill="#000000" transform="matrix(1.00, 0.00, -0.00, -1.00, 145.4, 2.0)">r</text><text xml:space="preserve" font-family="Helvetica,Helvetica" font-size="48.0" fill="#000000" transform="matrix(1.00, 0.00, -0.00, -1.00, 161.4, 2.0)">o</text><text xml:space="preserve" font-family="Helvetica,Helvetica" font-size="48.0" fill="#000000" transform="matrix(1.00, 0.00, -0.00, -1.00, 188.1, 2.0)">m</text><text xml:space="preserve" font-family="Helvetica,Helvetica" font-size="48.0" fill="#000000" transform="matrix(1.00, 0.00, -0.00, -1.00, 228.1, 2.0)">e</text><text xml:space="preserve" font-family="Helvetica,Helvetica" font-size="48.0" fill="#000000" transform="matrix(1.00, 0.00, -0.00, -1.00, 254.8, 2.0)">t</text><text xml:space="preserve" font-family="Helvetica,Helvetica" font-size="48.0" fill="#000000" transform="matrix(1.00, 0.00, -0.00, -1.00, 268.1, 2.0)">e</text><text xml:space="preserve" font-family="Helvetica,Helvetica" font-size="48.0" fill="#000000" transform="matrix(1.00, 0.00, -0.00, -1.00, 294.8, 2.0)">r</text></g></svg>