<?xml version="1.0" encoding="UTF-8" standalone="no"?><svg xmlns="http://www.w3.org/2000/svg" xmlns:xlink="http://www.w3.org/1999/xlink" clip-rule="evenodd" stroke-miterlimit="10" viewBox="0 0 1024 768"><desc>SVG generated by Keynote</desc><defs></defs><g transform="matrix(1.00, 0.00, -0.00, -1.00, 0.0, 768.0)"><path d="M 0.0 768.0 L 1024.0 768.0 L 1024.0 0.0 L 0.0 0.0 Z M 0.0 768.0 " fill="#FEFFFF"></path><image xlink:href="../../76F3C166-6E5F-4043-A649-E72A28741375/assets/B444A7F95AB369A5FFAEF914E63C9788.png" width="221.00" height="118.00" transform="matrix(0.34, 0.00, -0.00, -0.34, 50.0, 53.0)"></image><image xlink:href="../../76F3C166-6E5F-4043-A649-E72A28741375/assets/E6F667F77407A625AF0C89F1C942FCFE.png" width="1197.00" height="566.00" transform="matrix(0.07, 0.00, -0.00, -0.07, 130.0, 53.0)"></image><text xml:space="preserve" font-family="Helvetica,Helvetica" font-size="84.0" fill="#000000" transform="matrix(1.00, 0.00, -0.00, -1.00, 220.2, 352.3)">M</text><text xml:space="preserve" font-family="Helvetica,Helvetica" font-size="84.0" fill="#000000" transform="matrix(1.00, 0.00, -0.00, -1.00, 290.2, 352.3)">o</text><text xml:space="preserve" font-family="Helvetica,Helvetica" font-size="84.0" fill="#000000" transform="matrix(1.00, 0.00, -0.00, -1.00, 336.9, 352.3)">t</text><text xml:space="preserve" font-family="Helvetica,Helvetica" font-size="84.0" fill="#000000" transform="matrix(1.00, 0.00, -0.00, -1.00, 360.2, 352.3)">i</text><text xml:space="preserve" font-family="Helvetica,Helvetica" font-size="84.0" fill="#000000" transform="matrix(1.00, 0.00, -0.00, -1.00, 378.9, 352.3)">o</text><text xml:space="preserve" font-family="Helvetica,Helvetica" font-size="84.0" fill="#000000" transform="matrix(1.00, 0.00, -0.00, -1.00, 425.6, 352.3)">n</text><text xml:space="preserve" font-family="Helvetica,Helvetica" font-size="84.0" fill="#000000" transform="matrix(1.00, 0.00, -0.00, -1.00, 472.4, 352.3)"> </text><text xml:space="preserve" font-family="Helvetica,Helvetica" font-size="84.0" fill="#000000" transform="matrix(1.00, 0.00, -0.00, -1.00, 495.7, 352.3)">S</text><text xml:space="preserve" font-family="Helvetica,Helvetica" font-size="84.0" fill="#000000" transform="matrix(1.00, 0.00, -0.00, -1.00, 551.7, 352.3)">e</text><text xml:space="preserve" font-family="Helvetica,Helvetica" font-size="84.0" fill="#000000" transform="matrix(1.00, 0.00, -0.00, -1.00, 598.4, 352.3)">n</text><text xml:space="preserve" font-family="Helvetica,Helvetica" font-size="84.0" fill="#000000" transform="matrix(1.00, 0.00, -0.00, -1.00, 645.2, 352.3)">s</text><text xml:space="preserve" font-family="Helvetica,Helvetica" font-size="84.0" fill="#000000" transform="matrix(1.00, 0.00, -0.00, -1.00, 687.2, 352.3)">o</text><text xml:space="preserve" font-family="Helvetica,Helvetica" font-size="84.0" fill="#000000" transform="matrix(1.00, 0.00, -0.00, -1.00, 733.9, 352.3)">r</text><text xml:space="preserve" font-family="Helvetica,Helvetica" font-size="84.0" fill="#000000" transform="matrix(1.00, 0.00, -0.00, -1.00, 761.9, 352.3)">s</text></g></svg>