<?xml version="1.0" encoding="UTF-8" standalone="no"?><svg xmlns="http://www.w3.org/2000/svg" xmlns:xlink="http://www.w3.org/1999/xlink" clip-rule="evenodd" stroke-miterlimit="10" viewBox="0 0 1024 768"><desc>SVG generated by Keynote</desc><defs><linearGradient id="gradSh1.8" x1="0.0" y1="0.0" x2="100.0" y2="0.0" gradientUnits="userSpaceOnUse" gradientTransform="matrix(0.00, -0.25, -0.25, 0.00, 965.5, 76.0)"><stop offset="0.00000" stop-color="#F6CDCE"></stop><stop offset="0.00220" stop-color="#F6CCCD"></stop><stop offset="0.51906" stop-color="#C82D25"></stop><stop offset="0.79472" stop-color="#B2403C"></stop><stop offset="0.80205" stop-color="#B1403C"></stop><stop offset="0.84018" stop-color="#AE4240"></stop><stop offset="0.84091" stop-color="#AE4340"></stop><stop offset="1.00000" stop-color="#A24D4D"></stop></linearGradient></defs><g transform="matrix(1.00, 0.00, -0.00, -1.00, 0.0, 768.0)"><path d="M 0.0 768.0 L 1024.0 768.0 L 1024.0 0.0 L 0.0 0.0 Z M 0.0 768.0 " fill="#FEFFFF"></path><g opacity="0.40"><g><clipPath id="clip0x600001ab7820"><path d="M 48.0 62.0 L 976.0 62.0 L 976.0 66.0 L 48.0 66.0 Z M 48.0 62.0 "></path></clipPath><g clip-path="url(#clip0x600001ab7820)"><path d="M 0.0 -0.0 L 924.0 1.0 " fill="none" stroke="#000000" stroke-width="1.00" stroke-linejoin="round" transform="matrix(1.00, 0.00, 0.00, -1.00, 50.0, 64.5)"></path></g></g></g><g><clipPath id="clip0x600001ab7b80"><path d="M 965.0 75.0 L 1022.0 75.0 L 1022.0 4.0 L 965.0 4.0 Z M 965.0 75.0 "></path></clipPath><g clip-path="url(#clip0x600001ab7b80)"><image xlink:href="../../76F3C166-6E5F-4043-A649-E72A28741375/assets/38A6AF2BEEBC03C9DB95790FFAD86B7F.png" width="339.00" height="209.00" transform="matrix(0.35, 0.00, -0.00, -0.35, 899.7, 76.4)"></image></g></g><image xlink:href="../../76F3C166-6E5F-4043-A649-E72A28741375/assets/3873C11E28BE0CF1CE982192E1B160A0.png" width="31.00" height="31.00" transform="matrix(1.00, 0.00, -0.00, -1.00, 950.2, 74.0)" opacity="0.75"></image><g><clipPath id="clip0x600001eb17c0"><path d="M 973.6 71.6 C 978.1 67.1 978.1 59.9 973.6 55.4 C 969.1 50.9 961.9 50.9 957.4 55.4 C 952.9 59.9 952.9 67.1 957.4 71.6 C 961.9 76.1 969.1 76.1 973.6 71.6 "></path></clipPath><g clip-path="url(#clip0x600001eb17c0)"><path d="M 973.6 71.6 C 978.1 67.1 978.1 59.9 973.6 55.4 C 969.1 50.9 961.9 50.9 957.4 55.4 C 952.9 59.9 952.9 67.1 957.4 71.6 C 961.9 76.1 969.1 76.1 973.6 71.6 " fill="url(#gradSh1.8)"></path></g></g><path d="M 19.6 3.4 C 24.1 7.9 24.1 15.1 19.6 19.6 C 15.1 24.1 7.9 24.1 3.4 19.6 C -1.1 15.1 -1.1 7.9 3.4 3.4 C 7.9 -1.1 15.1 -1.1 19.6 3.4 " fill="none" stroke="#FEFFFF" stroke-width="2.00" stroke-linejoin="round" transform="matrix(1.00, 0.00, 0.00, -1.00, 954.0, 75.0)"></path><text xml:space="preserve" font-family="Helvetica-Bold,Helvetica" font-weight="bold" font-size="20.0" fill="#000000" transform="matrix(1.00, 0.00, -0.00, -1.00, 470.6, 26.1)">C</text><text xml:space="preserve" font-family="Helvetica-Bold,Helvetica" font-weight="bold" font-size="20.0" fill="#000000" transform="matrix(1.00, 0.00, -0.00, -1.00, 485.0, 26.1)">o</text><text xml:space="preserve" font-family="Helvetica-Bold,Helvetica" font-weight="bold" font-size="20.0" fill="#000000" transform="matrix(1.00, 0.00, -0.00, -1.00, 497.2, 26.1)">r</text><text xml:space="preserve" font-family="Helvetica-Bold,Helvetica" font-weight="bold" font-size="20.0" fill="#000000" transform="matrix(1.00, 0.00, -0.00, -1.00, 505.0, 26.1)">e</text><text xml:space="preserve" font-family="Helvetica-Bold,Helvetica" font-weight="bold" font-size="20.0" fill="#000000" transform="matrix(1.00, 0.00, -0.00, -1.00, 516.2, 26.1)">M</text><text xml:space="preserve" font-family="Helvetica-Bold,Helvetica" font-weight="bold" font-size="20.0" fill="#000000" transform="matrix(1.00, 0.00, -0.00, -1.00, 532.8, 26.1)">o</text><text xml:space="preserve" font-family="Helvetica-Bold,Helvetica" font-weight="bold" font-size="20.0" fill="#000000" transform="matrix(1.00, 0.00, -0.00, -1.00, 545.0, 26.1)">t</text><text xml:space="preserve" font-family="Helvetica-Bold,Helvetica" font-weight="bold" font-size="20.0" fill="#000000" transform="matrix(1.00, 0.00, -0.00, -1.00, 551.7, 26.1)">i</text><text xml:space="preserve" font-family="Helvetica-Bold,Helvetica" font-weight="bold" font-size="20.0" fill="#000000" transform="matrix(1.00, 0.00, -0.00, -1.00, 557.2, 26.1)">o</text><text xml:space="preserve" font-family="Helvetica-Bold,Helvetica" font-weight="bold" font-size="20.0" fill="#000000" transform="matrix(1.00, 0.00, -0.00, -1.00, 569.5, 26.1)">n</text><text xml:space="preserve" font-family="Helvetica-Bold,Helvetica" font-weight="bold" font-size="20.0" fill="#000000" transform="matrix(1.00, 0.00, -0.00, -1.00, 832.7, 26.1)">L</text><text xml:space="preserve" font-family="Helvetica-Bold,Helvetica" font-weight="bold" font-size="20.0" fill="#000000" transform="matrix(1.00, 0.00, -0.00, -1.00, 844.9, 26.1)">u</text><text xml:space="preserve" font-family="Helvetica-Bold,Helvetica" font-weight="bold" font-size="20.0" fill="#000000" transform="matrix(1.00, 0.00, -0.00, -1.00, 857.1, 26.1)">k</text><text xml:space="preserve" font-family="Helvetica-Bold,Helvetica" font-weight="bold" font-size="20.0" fill="#000000" transform="matrix(1.00, 0.00, -0.00, -1.00, 868.2, 26.1)">a</text><text xml:space="preserve" font-family="Helvetica-Bold,Helvetica" font-weight="bold" font-size="20.0" fill="#000000" transform="matrix(1.00, 0.00, -0.00, -1.00, 879.3, 26.1)">s</text><text xml:space="preserve" font-family="Helvetica-Bold,Helvetica" font-weight="bold" font-size="20.0" fill="#000000" transform="matrix(1.00, 0.00, -0.00, -1.00, 890.5, 26.1)"> </text><text xml:space="preserve" font-family="Helvetica-Bold,Helvetica" font-weight="bold" font-size="20.0" fill="#000000" transform="matrix(1.00, 0.00, -0.00, -1.00, 896.0, 26.1)">W</text><text xml:space="preserve" font-family="Helvetica-Bold,Helvetica" font-weight="bold" font-size="20.0" fill="#000000" transform="matrix(1.00, 0.00, -0.00, -1.00, 914.5, 26.1)">e</text><text xml:space="preserve" font-family="Helvetica-Bold,Helvetica" font-weight="bold" font-size="20.0" fill="#000000" transform="matrix(1.00, 0.00, -0.00, -1.00, 925.7, 26.1)">l</text><text xml:space="preserve" font-family="Helvetica-Bold,Helvetica" font-weight="bold" font-size="20.0" fill="#000000" transform="matrix(1.00, 0.00, -0.00, -1.00, 931.2, 26.1)">t</text><text xml:space="preserve" font-family="Helvetica-Bold,Helvetica" font-weight="bold" font-size="20.0" fill="#000000" transform="matrix(1.00, 0.00, -0.00, -1.00, 937.9, 26.1)">e</text><image xlink:href="../../76F3C166-6E5F-4043-A649-E72A28741375/assets/B444A7F95AB369A5FFAEF914E63C9788.png" width="221.00" height="118.00" transform="matrix(0.34, 0.00, -0.00, -0.34, 50.0, 53.0)"></image><image xlink:href="../../76F3C166-6E5F-4043-A649-E72A28741375/assets/E6F667F77407A625AF0C89F1C942FCFE.png" width="1197.00" height="566.00" transform="matrix(0.07, 0.00, -0.00, -0.07, 130.0, 53.0)"></image><text xml:space="preserve" font-family="Helvetica-Bold,Helvetica" font-weight="bold" font-size="20.0" fill="#000000" transform="matrix(1.00, 0.00, -0.00, -1.00, 220.0, 26.1)">s</text><text xml:space="preserve" font-family="Helvetica-Bold,Helvetica" font-weight="bold" font-size="20.0" fill="#000000" transform="matrix(1.00, 0.00, -0.00, -1.00, 231.1, 26.1)">g</text><text xml:space="preserve" font-family="Helvetica-Bold,Helvetica" font-weight="bold" font-size="20.0" fill="#000000" transform="matrix(1.00, 0.00, -0.00, -1.00, 243.3, 26.1)">d</text><text xml:space="preserve" font-family="Helvetica-Bold,Helvetica" font-weight="bold" font-size="20.0" fill="#000000" transform="matrix(1.00, 0.00, -0.00, -1.00, 255.6, 26.1)">-</text><text xml:space="preserve" font-family="Helvetica-Bold,Helvetica" font-weight="bold" font-size="20.0" fill="#000000" transform="matrix(1.00, 0.00, -0.00, -1.00, 262.2, 26.1)">w</text><text xml:space="preserve" font-family="Helvetica-Bold,Helvetica" font-weight="bold" font-size="20.0" fill="#000000" transform="matrix(1.00, 0.00, -0.00, -1.00, 277.8, 26.1)">s</text><text xml:space="preserve" font-family="Helvetica-Bold,Helvetica" font-weight="bold" font-size="20.0" fill="#000000" transform="matrix(1.00, 0.00, -0.00, -1.00, 288.9, 26.1)">1</text><text xml:space="preserve" font-family="Helvetica-Bold,Helvetica" font-weight="bold" font-size="20.0" fill="#000000" transform="matrix(1.00, 0.00, -0.00, -1.00, 300.0, 26.1)">2</text><text xml:space="preserve" font-family="Helvetica-Bold,Helvetica" font-weight="bold" font-size="15.0" fill="#FEFFFF" transform="matrix(1.00, 0.00, -0.00, -1.00, 961.3, 58.4)">8</text><image xlink:href="../../936AF978-AB26-4131-8A25-ABD1FAE54053/assets/232AFFA5FC136DC0257229DE2DCE47D4.png" width="640.00" height="360.00" transform="matrix(1.60, 0.00, -0.00, -1.60, 0.0, 727.0)"></image><image xlink:href="../../936AF978-AB26-4131-8A25-ABD1FAE54053/assets/D0E0D91377FC56EA8329F06E2F10222F.png" width="4267.00" height="505.00" transform="matrix(0.24, 0.00, -0.00, -0.24, 0.0, 151.0)"></image></g></svg>