<?xml version="1.0" encoding="UTF-8" standalone="no"?><svg xmlns="http://www.w3.org/2000/svg" xmlns:xlink="http://www.w3.org/1999/xlink" clip-rule="evenodd" stroke-miterlimit="10" viewBox="0 0 201 24"><desc>SVG generated by Keynote</desc><defs></defs><g transform="matrix(1.00, 0.00, -0.00, -1.00, 0.0, 24.0)"><text xml:space="preserve" font-family="Monaco,Monaco" font-size="20.0" fill="#000000" transform="matrix(1.00, 0.00, -0.00, -1.00, 0.0, 6.3)">}</text><text xml:space="preserve" font-family="Monaco,Monaco" font-size="20.0" fill="#000000" transform="matrix(1.00, 0.00, -0.00, -1.00, 12.0, 6.3)"> </text><text xml:space="preserve" font-family="Monaco,Monaco" font-size="20.0" fill="#000000" transform="matrix(1.00, 0.00, -0.00, -1.00, 24.0, 6.3)">C</text><text xml:space="preserve" font-family="Monaco,Monaco" font-size="20.0" fill="#000000" transform="matrix(1.00, 0.00, -0.00, -1.00, 36.0, 6.3)">M</text><text xml:space="preserve" font-family="Monaco,Monaco" font-size="20.0" fill="#000000" transform="matrix(1.00, 0.00, -0.00, -1.00, 48.0, 6.3)">A</text><text xml:space="preserve" font-family="Monaco,Monaco" font-size="20.0" fill="#000000" transform="matrix(1.00, 0.00, -0.00, -1.00, 60.0, 6.3)">c</text><text xml:space="preserve" font-family="Monaco,Monaco" font-size="20.0" fill="#000000" transform="matrix(1.00, 0.00, -0.00, -1.00, 72.0, 6.3)">c</text><text xml:space="preserve" font-family="Monaco,Monaco" font-size="20.0" fill="#000000" transform="matrix(1.00, 0.00, -0.00, -1.00, 84.0, 6.3)">e</text><text xml:space="preserve" font-family="Monaco,Monaco" font-size="20.0" fill="#000000" transform="matrix(1.00, 0.00, -0.00, -1.00, 96.0, 6.3)">l</text><text xml:space="preserve" font-family="Monaco,Monaco" font-size="20.0" fill="#000000" transform="matrix(1.00, 0.00, -0.00, -1.00, 108.0, 6.3)">e</text><text xml:space="preserve" font-family="Monaco,Monaco" font-size="20.0" fill="#000000" transform="matrix(1.00, 0.00, -0.00, -1.00, 120.0, 6.3)">r</text><text xml:space="preserve" font-family="Monaco,Monaco" font-size="20.0" fill="#000000" transform="matrix(1.00, 0.00, -0.00, -1.00, 132.0, 6.3)">a</text><text xml:space="preserve" font-family="Monaco,Monaco" font-size="20.0" fill="#000000" transform="matrix(1.00, 0.00, -0.00, -1.00, 144.0, 6.3)">t</text><text xml:space="preserve" font-family="Monaco,Monaco" font-size="20.0" fill="#000000" transform="matrix(1.00, 0.00, -0.00, -1.00, 156.1, 6.3)">i</text><text xml:space="preserve" font-family="Monaco,Monaco" font-size="20.0" fill="#000000" transform="matrix(1.00, 0.00, -0.00, -1.00, 168.1, 6.3)">o</text><text xml:space="preserve" font-family="Monaco,Monaco" font-size="20.0" fill="#000000" transform="matrix(1.00, 0.00, -0.00, -1.00, 180.1, 6.3)">n</text><text xml:space="preserve" font-family="Monaco,Monaco" font-size="20.0" fill="#000000" transform="matrix(1.00, 0.00, -0.00, -1.00, 192.1, 6.3)">;</text></g></svg>