<?xml version="1.0" encoding="UTF-8" standalone="no"?><svg xmlns="http://www.w3.org/2000/svg" xmlns:xlink="http://www.w3.org/1999/xlink" clip-rule="evenodd" stroke-miterlimit="10" viewBox="0 0 850 23"><desc>SVG generated by Keynote</desc><defs></defs><g transform="matrix(1.00, 0.00, -0.00, -1.00, 0.0, 23.0)"><text xml:space="preserve" font-family="Monaco,Monaco" font-size="20.0" fill="#000000" transform="matrix(1.00, 0.00, -0.00, -1.00, 0.0, 5.7)">I</text><text xml:space="preserve" font-family="Monaco,Monaco" font-size="20.0" fill="#000000" transform="matrix(1.00, 0.00, -0.00, -1.00, 12.0, 5.7)">f</text><text xml:space="preserve" font-family="Monaco,Monaco" font-size="20.0" fill="#000000" transform="matrix(1.00, 0.00, -0.00, -1.00, 24.0, 5.7)"> </text><text xml:space="preserve" font-family="Monaco,Monaco" font-size="20.0" fill="#000000" transform="matrix(1.00, 0.00, -0.00, -1.00, 36.0, 5.7)">s</text><text xml:space="preserve" font-family="Monaco,Monaco" font-size="20.0" fill="#000000" transform="matrix(1.00, 0.00, -0.00, -1.00, 48.0, 5.7)">h</text><text xml:space="preserve" font-family="Monaco,Monaco" font-size="20.0" fill="#000000" transform="matrix(1.00, 0.00, -0.00, -1.00, 60.0, 5.7)">a</text><text xml:space="preserve" font-family="Monaco,Monaco" font-size="20.0" fill="#000000" transform="matrix(1.00, 0.00, -0.00, -1.00, 72.0, 5.7)">k</text><text xml:space="preserve" font-family="Monaco,Monaco" font-size="20.0" fill="#000000" transform="matrix(1.00, 0.00, -0.00, -1.00, 84.0, 5.7)">e</text><text xml:space="preserve" font-family="Monaco,Monaco" font-size="20.0" fill="#000000" transform="matrix(1.00, 0.00, -0.00, -1.00, 96.0, 5.7)"> </text><text xml:space="preserve" font-family="Monaco,Monaco" font-size="20.0" fill="#000000" transform="matrix(1.00, 0.00, -0.00, -1.00, 108.0, 5.7)">i</text><text xml:space="preserve" font-family="Monaco,Monaco" font-size="20.0" fill="#000000" transform="matrix(1.00, 0.00, -0.00, -1.00, 120.0, 5.7)">s</text><text xml:space="preserve" font-family="Monaco,Monaco" font-size="20.0" fill="#000000" transform="matrix(1.00, 0.00, -0.00, -1.00, 132.0, 5.7)"> </text><text xml:space="preserve" font-family="Monaco,Monaco" font-size="20.0" fill="#000000" transform="matrix(1.00, 0.00, -0.00, -1.00, 144.0, 5.7)">r</text><text xml:space="preserve" font-family="Monaco,Monaco" font-size="20.0" fill="#000000" transform="matrix(1.00, 0.00, -0.00, -1.00, 156.1, 5.7)">e</text><text xml:space="preserve" font-family="Monaco,Monaco" font-size="20.0" fill="#000000" transform="matrix(1.00, 0.00, -0.00, -1.00, 168.1, 5.7)">c</text><text xml:space="preserve" font-family="Monaco,Monaco" font-size="20.0" fill="#000000" transform="matrix(1.00, 0.00, -0.00, -1.00, 180.1, 5.7)">o</text><text xml:space="preserve" font-family="Monaco,Monaco" font-size="20.0" fill="#000000" transform="matrix(1.00, 0.00, -0.00, -1.00, 192.1, 5.7)">g</text><text xml:space="preserve" font-family="Monaco,Monaco" font-size="20.0" fill="#000000" transform="matrix(1.00, 0.00, -0.00, -1.00, 204.1, 5.7)">n</text><text xml:space="preserve" font-family="Monaco,Monaco" font-size="20.0" fill="#000000" transform="matrix(1.00, 0.00, -0.00, -1.00, 216.1, 5.7)">i</text><text xml:space="preserve" font-family="Monaco,Monaco" font-size="20.0" fill="#000000" transform="matrix(1.00, 0.00, -0.00, -1.00, 228.1, 5.7)">z</text><text xml:space="preserve" font-family="Monaco,Monaco" font-size="20.0" fill="#000000" transform="matrix(1.00, 0.00, -0.00, -1.00, 240.1, 5.7)">e</text><text xml:space="preserve" font-family="Monaco,Monaco" font-size="20.0" fill="#000000" transform="matrix(1.00, 0.00, -0.00, -1.00, 252.1, 5.7)">d</text><text xml:space="preserve" font-family="Monaco,Monaco" font-size="20.0" fill="#000000" transform="matrix(1.00, 0.00, -0.00, -1.00, 264.1, 5.7)"> </text><text xml:space="preserve" font-family="Monaco,Monaco" font-size="20.0" fill="#000000" transform="matrix(1.00, 0.00, -0.00, -1.00, 276.1, 5.7)">v</text><text xml:space="preserve" font-family="Monaco,Monaco" font-size="20.0" fill="#000000" transform="matrix(1.00, 0.00, -0.00, -1.00, 288.1, 5.7)">i</text><text xml:space="preserve" font-family="Monaco,Monaco" font-size="20.0" fill="#000000" transform="matrix(1.00, 0.00, -0.00, -1.00, 300.1, 5.7)">b</text><text xml:space="preserve" font-family="Monaco,Monaco" font-size="20.0" fill="#000000" transform="matrix(1.00, 0.00, -0.00, -1.00, 312.1, 5.7)">r</text><text xml:space="preserve" font-family="Monaco,Monaco" font-size="20.0" fill="#000000" transform="matrix(1.00, 0.00, -0.00, -1.00, 324.1, 5.7)">a</text><text xml:space="preserve" font-family="Monaco,Monaco" font-size="20.0" fill="#000000" transform="matrix(1.00, 0.00, -0.00, -1.00, 336.1, 5.7)">t</text><text xml:space="preserve" font-family="Monaco,Monaco" font-size="20.0" fill="#000000" transform="matrix(1.00, 0.00, -0.00, -1.00, 348.1, 5.7)">e</text><text xml:space="preserve" font-family="Monaco,Monaco" font-size="20.0" fill="#000000" transform="matrix(1.00, 0.00, -0.00, -1.00, 360.1, 5.7)"> </text><text xml:space="preserve" font-family="Monaco,Monaco" font-size="20.0" fill="#000000" transform="matrix(1.00, 0.00, -0.00, -1.00, 372.1, 5.7)">t</text><text xml:space="preserve" font-family="Monaco,Monaco" font-size="20.0" fill="#000000" transform="matrix(1.00, 0.00, -0.00, -1.00, 384.1, 5.7)">h</text><text xml:space="preserve" font-family="Monaco,Monaco" font-size="20.0" fill="#000000" transform="matrix(1.00, 0.00, -0.00, -1.00, 396.1, 5.7)">e</text><text xml:space="preserve" font-family="Monaco,Monaco" font-size="20.0" fill="#000000" transform="matrix(1.00, 0.00, -0.00, -1.00, 408.1, 5.7)"> </text><text xml:space="preserve" font-family="Monaco,Monaco" font-size="20.0" fill="#000000" transform="matrix(1.00, 0.00, -0.00, -1.00, 420.1, 5.7)">d</text><text xml:space="preserve" font-family="Monaco,Monaco" font-size="20.0" fill="#000000" transform="matrix(1.00, 0.00, -0.00, -1.00, 432.1, 5.7)">e</text><text xml:space="preserve" font-family="Monaco,Monaco" font-size="20.0" fill="#000000" transform="matrix(1.00, 0.00, -0.00, -1.00, 444.1, 5.7)">v</text><text xml:space="preserve" font-family="Monaco,Monaco" font-size="20.0" fill="#000000" transform="matrix(1.00, 0.00, -0.00, -1.00, 456.2, 5.7)">i</text><text xml:space="preserve" font-family="Monaco,Monaco" font-size="20.0" fill="#000000" transform="matrix(1.00, 0.00, -0.00, -1.00, 468.2, 5.7)">c</text><text xml:space="preserve" font-family="Monaco,Monaco" font-size="20.0" fill="#000000" transform="matrix(1.00, 0.00, -0.00, -1.00, 480.2, 5.7)">e</text><text xml:space="preserve" font-family="Monaco,Monaco" font-size="20.0" fill="#000000" transform="matrix(1.00, 0.00, -0.00, -1.00, 492.2, 5.7)"> </text><text xml:space="preserve" font-family="Monaco,Monaco" font-size="20.0" fill="#000000" transform="matrix(1.00, 0.00, -0.00, -1.00, 504.2, 5.7)">w</text><text xml:space="preserve" font-family="Monaco,Monaco" font-size="20.0" fill="#000000" transform="matrix(1.00, 0.00, -0.00, -1.00, 516.2, 5.7)">i</text><text xml:space="preserve" font-family="Monaco,Monaco" font-size="20.0" fill="#000000" transform="matrix(1.00, 0.00, -0.00, -1.00, 528.2, 5.7)">t</text><text xml:space="preserve" font-family="Monaco,Monaco" font-size="20.0" fill="#000000" transform="matrix(1.00, 0.00, -0.00, -1.00, 540.2, 5.7)">h</text><text xml:space="preserve" font-family="Monaco,Monaco" font-size="20.0" fill="#000000" transform="matrix(1.00, 0.00, -0.00, -1.00, 552.2, 5.7)"> </text><text xml:space="preserve" font-family="Menlo-Regular,Menlo" font-size="20.0" fill="#000000" transform="matrix(1.00, 0.00, -0.00, -1.00, 564.1, 5.7)">[</text><text xml:space="preserve" font-family="Menlo-Regular,Menlo" font-size="20.0" fill="#8A2062" transform="matrix(1.00, 0.00, -0.00, -1.00, 576.1, 5.7)">s</text><text xml:space="preserve" font-family="Menlo-Regular,Menlo" font-size="20.0" fill="#8A2062" transform="matrix(1.00, 0.00, -0.00, -1.00, 588.2, 5.7)">e</text><text xml:space="preserve" font-family="Menlo-Regular,Menlo" font-size="20.0" fill="#8A2062" transform="matrix(1.00, 0.00, -0.00, -1.00, 600.2, 5.7)">l</text><text xml:space="preserve" font-family="Menlo-Regular,Menlo" font-size="20.0" fill="#8A2062" transform="matrix(1.00, 0.00, -0.00, -1.00, 612.3, 5.7)">f</text><text xml:space="preserve" font-family="Menlo-Regular,Menlo" font-size="20.0" fill="#000000" transform="matrix(1.00, 0.00, -0.00, -1.00, 624.3, 5.7)"> </text><text xml:space="preserve" font-family="Menlo-Regular,Menlo" font-size="20.0" fill="#31585D" transform="matrix(1.00, 0.00, -0.00, -1.00, 636.3, 5.7)">p</text><text xml:space="preserve" font-family="Menlo-Regular,Menlo" font-size="20.0" fill="#31585D" transform="matrix(1.00, 0.00, -0.00, -1.00, 648.4, 5.7)">l</text><text xml:space="preserve" font-family="Menlo-Regular,Menlo" font-size="20.0" fill="#31585D" transform="matrix(1.00, 0.00, -0.00, -1.00, 660.4, 5.7)">a</text><text xml:space="preserve" font-family="Menlo-Regular,Menlo" font-size="20.0" fill="#31585D" transform="matrix(1.00, 0.00, -0.00, -1.00, 672.5, 5.7)">y</text><text xml:space="preserve" font-family="Menlo-Regular,Menlo" font-size="20.0" fill="#31585D" transform="matrix(1.00, 0.00, -0.00, -1.00, 684.5, 5.7)">V</text><text xml:space="preserve" font-family="Menlo-Regular,Menlo" font-size="20.0" fill="#31585D" transform="matrix(1.00, 0.00, -0.00, -1.00, 696.6, 5.7)">i</text><text xml:space="preserve" font-family="Menlo-Regular,Menlo" font-size="20.0" fill="#31585D" transform="matrix(1.00, 0.00, -0.00, -1.00, 708.6, 5.7)">b</text><text xml:space="preserve" font-family="Menlo-Regular,Menlo" font-size="20.0" fill="#31585D" transform="matrix(1.00, 0.00, -0.00, -1.00, 720.6, 5.7)">r</text><text xml:space="preserve" font-family="Menlo-Regular,Menlo" font-size="20.0" fill="#31585D" transform="matrix(1.00, 0.00, -0.00, -1.00, 732.7, 5.7)">a</text><text xml:space="preserve" font-family="Menlo-Regular,Menlo" font-size="20.0" fill="#31585D" transform="matrix(1.00, 0.00, -0.00, -1.00, 744.7, 5.7)">t</text><text xml:space="preserve" font-family="Menlo-Regular,Menlo" font-size="20.0" fill="#31585D" transform="matrix(1.00, 0.00, -0.00, -1.00, 756.8, 5.7)">e</text><text xml:space="preserve" font-family="Menlo-Regular,Menlo" font-size="20.0" fill="#31585D" transform="matrix(1.00, 0.00, -0.00, -1.00, 768.8, 5.7)">S</text><text xml:space="preserve" font-family="Menlo-Regular,Menlo" font-size="20.0" fill="#31585D" transform="matrix(1.00, 0.00, -0.00, -1.00, 780.9, 5.7)">o</text><text xml:space="preserve" font-family="Menlo-Regular,Menlo" font-size="20.0" fill="#31585D" transform="matrix(1.00, 0.00, -0.00, -1.00, 792.9, 5.7)">u</text><text xml:space="preserve" font-family="Menlo-Regular,Menlo" font-size="20.0" fill="#31585D" transform="matrix(1.00, 0.00, -0.00, -1.00, 804.9, 5.7)">n</text><text xml:space="preserve" font-family="Menlo-Regular,Menlo" font-size="20.0" fill="#31585D" transform="matrix(1.00, 0.00, -0.00, -1.00, 817.0, 5.7)">d</text><text xml:space="preserve" font-family="Menlo-Regular,Menlo" font-size="20.0" fill="#000000" transform="matrix(1.00, 0.00, -0.00, -1.00, 829.0, 5.7)">]</text><text xml:space="preserve" font-family="Menlo-Regular,Menlo" font-size="20.0" fill="#000000" transform="matrix(1.00, 0.00, -0.00, -1.00, 841.0, 5.7)">;</text></g></svg>