<?xml version="1.0" encoding="UTF-8" standalone="no"?><svg xmlns="http://www.w3.org/2000/svg" xmlns:xlink="http://www.w3.org/1999/xlink" clip-rule="evenodd" stroke-miterlimit="10" viewBox="0 0 557 707"><desc>SVG generated by Keynote</desc><defs></defs><g transform="matrix(1.00, 0.00, -0.00, -1.00, 0.0, 707.0)"><g><clipPath id="clip0x600005abcfe0"><path d="M 1.0 706.0 L 556.0 706.0 L 556.0 1.0 L 1.0 1.0 Z M 1.0 706.0 "></path></clipPath><g clip-path="url(#clip0x600005abcfe0)"><g><clipPath id="clip0x600005abd160"><path d="M 570.6 -390.8 C 568.9 -392.2 565.1 -394.2 562.2 -395.1 C 557.4 -396.7 556.7 -397.7 556.5 -403.8 C 556.3 -407.7 555.2 -413.2 554.0 -416.0 C 552.8 -418.9 551.7 -421.7 551.6 -422.1 C 550.8 -425.7 546.7 -430.8 544.9 -430.4 C 542.2 -429.9 540.9 -477.6 543.5 -480.3 C 544.7 -481.4 544.6 -483.2 543.4 -485.4 C 540.7 -490.4 542.0 -516.6 545.1 -520.3 C 547.2 -522.7 547.3 -524.2 545.7 -527.8 C 543.0 -533.7 542.8 -635.2 545.5 -637.9 C 546.9 -639.2 546.8 -641.8 545.2 -647.1 C 543.5 -652.7 543.5 -655.2 545.1 -657.7 C 546.5 -660.0 546.6 -662.4 545.4 -665.5 C 544.4 -668.0 543.7 -672.4 543.7 -675.2 C 543.7 -678.1 542.4 -682.4 540.8 -684.8 C 538.2 -688.7 538.1 -694.7 539.1 -742.7 C 540.0 -785.6 540.8 -796.9 542.9 -800.1 C 545.0 -803.4 545.6 -815.1 546.3 -864.7 C 547.8 -969.7 547.4 -1001.5 544.5 -1005.5 C 543.1 -1007.5 540.6 -1010.9 539.0 -1013.2 C 537.0 -1015.9 535.6 -1022.2 535.0 -1030.7 C 534.1 -1043.0 533.7 -1044.1 529.3 -1046.2 C 526.6 -1047.5 524.5 -1049.6 524.5 -1051.0 C 524.5 -1052.3 522.9 -1056.2 521.0 -1059.7 C 519.1 -1063.1 517.5 -1067.0 517.5 -1068.5 C 517.5 -1071.7 509.3 -1075.0 503.9 -1073.9 C 501.4 -1073.5 499.4 -1074.1 498.9 -1075.6 C 498.4 -1076.9 496.4 -1078.0 494.6 -1078.0 C 492.7 -1078.0 490.8 -1079.1 490.3 -1080.5 C 489.7 -1081.9 487.6 -1083.6 485.5 -1084.2 C 480.2 -1085.8 473.9 -1092.0 473.9 -1095.6 C 473.9 -1097.3 473.1 -1099.2 472.1 -1099.8 C 471.0 -1100.5 470.5 -1102.3 470.8 -1103.9 C 471.2 -1105.8 468.8 -1108.0 463.5 -1110.6 C 455.8 -1114.3 455.6 -1114.3 454.3 -1111.0 C 453.5 -1108.7 451.4 -1107.6 447.9 -1107.6 C 444.4 -1107.6 442.0 -1106.4 440.8 -1104.1 C 439.7 -1102.2 437.4 -1100.6 435.7 -1100.6 C 433.9 -1100.6 431.5 -1099.5 430.3 -1098.0 C 429.1 -1096.6 427.4 -1095.4 426.5 -1095.4 C 425.6 -1095.4 422.3 -1093.5 419.1 -1091.1 C 416.0 -1088.7 412.9 -1087.2 412.3 -1087.9 C 411.6 -1088.5 411.1 -1087.7 411.1 -1086.0 C 411.1 -1084.3 409.0 -1082.3 406.0 -1081.2 C 403.2 -1080.3 400.5 -1078.4 400.0 -1077.1 C 399.5 -1075.8 396.4 -1074.2 393.1 -1073.6 C 389.0 -1072.8 387.2 -1071.5 387.3 -1069.5 C 387.5 -1067.8 386.0 -1066.4 383.7 -1066.1 C 381.6 -1065.8 377.3 -1062.4 374.3 -1058.6 C 370.8 -1054.1 367.9 -1052.0 366.2 -1052.6 C 364.7 -1053.2 361.8 -1051.7 359.4 -1049.1 C 356.9 -1046.4 353.7 -1044.7 351.3 -1045.0 C 347.5 -1045.3 343.8 -1044.4 336.9 -1041.1 C 334.9 -1040.1 332.6 -1039.5 331.7 -1039.7 C 330.7 -1039.9 329.6 -1039.9 329.1 -1039.7 C 328.7 -1039.5 322.5 -1039.1 315.5 -1038.8 C 308.5 -1038.5 301.9 -1037.5 300.9 -1036.5 C 299.7 -1035.3 297.9 -1035.2 295.8 -1036.2 C 294.0 -1037.1 291.0 -1038.6 289.1 -1039.6 C 287.2 -1040.5 285.3 -1040.6 284.7 -1039.7 C 283.7 -1038.0 277.0 -1039.2 273.8 -1041.8 C 272.3 -1042.9 270.8 -1042.9 269.2 -1041.6 C 267.9 -1040.5 266.4 -1040.1 265.8 -1040.7 C 265.2 -1041.3 262.3 -1040.8 259.5 -1039.6 C 256.5 -1038.4 252.8 -1038.0 251.1 -1038.8 C 249.4 -1039.5 245.4 -1040.4 242.2 -1040.7 C 239.0 -1040.9 235.4 -1042.0 234.2 -1043.0 C 232.7 -1044.2 231.5 -1044.1 230.1 -1042.8 C 228.7 -1041.3 226.7 -1041.5 222.4 -1043.2 C 219.2 -1044.6 216.1 -1045.5 215.4 -1045.3 C 214.8 -1045.1 211.6 -1046.0 208.4 -1047.4 C 204.2 -1049.1 200.5 -1049.4 196.0 -1048.4 C 192.3 -1047.6 189.2 -1047.6 188.6 -1048.5 C 187.4 -1050.5 178.0 -1050.5 171.0 -1048.5 C 167.9 -1047.6 164.9 -1047.4 164.3 -1048.0 C 163.7 -1048.6 160.7 -1049.2 157.7 -1049.4 C 154.6 -1049.6 151.9 -1049.9 151.7 -1050.1 C 150.4 -1051.3 146.5 -1051.0 143.5 -1049.5 C 141.6 -1048.6 135.4 -1047.9 129.6 -1048.0 C 123.8 -1048.1 118.3 -1047.5 117.3 -1046.7 C 115.1 -1044.9 100.6 -1045.3 97.5 -1047.2 C 96.4 -1047.9 95.4 -1048.1 95.4 -1047.5 C 95.4 -1046.9 93.8 -1047.3 91.8 -1048.4 C 89.3 -1049.7 87.6 -1049.8 86.0 -1048.5 C 84.8 -1047.4 83.3 -1047.1 82.6 -1047.7 C 82.0 -1048.3 80.4 -1047.9 79.0 -1046.7 C 77.4 -1045.4 76.2 -1045.3 75.5 -1046.4 C 74.9 -1047.4 73.3 -1047.8 72.0 -1047.3 C 70.7 -1046.7 69.1 -1047.2 68.4 -1048.2 C 66.8 -1050.9 64.0 -1050.5 64.0 -1047.5 C 64.0 -1046.2 61.7 -1043.6 58.8 -1041.9 C 54.8 -1039.6 53.5 -1037.6 53.5 -1033.5 C 53.5 -1030.5 52.7 -1027.3 51.7 -1026.3 C 50.5 -1025.0 50.7 -1023.8 52.5 -1022.3 C 54.5 -1020.7 54.7 -1019.1 53.4 -1015.7 C 52.5 -1013.2 52.2 -1009.8 52.7 -1008.0 C 53.9 -1004.5 50.8 -994.8 43.8 -979.5 L 39.0 -969.2 L 39.0 -914.7 C 38.8 -879.7 37.8 -859.3 36.6 -857.9 C 34.6 -855.3 34.7 -849.7 36.7 -846.4 C 37.5 -845.2 38.0 -834.6 38.0 -822.9 C 38.0 -811.1 38.0 -799.9 38.1 -798.0 C 38.1 -796.1 38.2 -756.9 38.1 -710.8 C 38.0 -664.8 38.0 -621.2 38.0 -614.0 C 38.0 -606.8 38.0 -577.4 38.0 -548.6 C 38.0 -519.8 38.0 -487.6 38.1 -477.1 C 38.1 -466.5 37.7 -439.1 37.0 -416.0 C 35.9 -377.6 35.3 -363.6 33.6 -344.5 C 33.0 -337.6 31.2 -286.8 29.9 -242.5 C 28.9 -205.5 27.4 -177.7 26.5 -176.1 C 26.0 -175.4 26.4 -174.2 27.4 -173.6 C 28.4 -173.0 28.6 -171.6 27.9 -170.4 C 27.2 -169.3 26.4 -158.9 26.3 -147.4 C 26.1 -135.9 25.9 -126.5 25.7 -126.5 C 25.6 -126.5 25.2 -121.0 24.8 -114.3 C 24.5 -107.6 23.7 -97.0 23.0 -90.8 C 22.3 -84.5 21.8 -78.6 21.9 -77.7 C 22.0 -76.7 22.4 -66.1 22.8 -54.1 C 23.6 -32.7 24.9 -19.4 26.5 -17.8 C 26.9 -17.4 26.5 -15.6 25.6 -13.9 C 24.5 -11.8 24.5 -10.4 25.6 -9.6 C 26.8 -8.9 26.8 -7.5 25.7 -5.5 C 24.0 -2.2 24.7 3.6 27.8 10.0 C 29.2 12.8 29.2 15.0 27.8 17.8 C 26.7 20.0 25.9 29.6 26.0 39.2 C 26.0 48.8 25.2 63.3 24.1 71.5 C 21.8 89.2 23.9 140.6 28.1 168.8 C 28.6 171.9 28.3 176.4 27.4 178.7 C 26.4 181.4 26.4 183.4 27.5 184.0 C 28.4 184.6 29.1 189.2 29.1 194.3 C 29.1 202.8 30.7 210.1 34.4 218.8 C 36.7 224.5 37.9 231.3 36.7 232.5 C 36.0 233.1 35.3 235.8 35.1 238.5 C 34.2 246.9 33.3 251.0 32.1 252.2 C 31.4 252.9 30.9 255.1 30.9 257.1 C 30.9 259.1 29.9 262.7 28.6 265.1 C 27.4 267.5 26.6 271.0 26.9 272.9 C 27.1 274.8 27.7 280.3 28.3 285.1 C 29.5 295.3 34.1 312.1 36.5 315.2 C 38.7 318.0 37.4 333.6 32.9 360.1 C 29.7 378.8 27.5 417.9 27.8 450.8 C 27.8 455.6 27.8 461.1 27.7 463.0 C 27.5 467.7 27.7 482.3 28.1 490.9 C 28.2 494.8 27.4 500.0 26.1 502.5 C 24.6 505.6 24.4 508.5 25.4 511.2 C 26.9 515.4 27.4 537.0 27.2 601.7 C 27.2 633.4 27.3 648.8 27.7 652.1 C 27.7 652.7 27.7 653.5 27.6 654.0 C 27.3 655.4 25.3 699.4 25.3 706.4 C 25.2 709.7 25.3 721.5 25.3 732.5 C 25.3 743.5 25.3 754.9 25.3 757.8 C 25.2 780.7 25.4 806.4 25.7 834.6 C 26.8 925.4 25.2 999.5 21.5 1029.0 C 21.1 1032.4 19.5 1037.5 18.0 1040.3 C 16.3 1043.6 15.9 1046.1 16.9 1047.2 C 18.0 1048.3 17.7 1049.8 16.2 1051.6 C 14.9 1053.1 13.5 1055.8 13.2 1057.7 C 12.8 1059.7 11.0 1061.1 8.5 1061.3 C 6.2 1061.5 3.7 1062.7 2.9 1064.1 C 2.0 1065.4 0.3 1066.6 -0.9 1066.8 C -2.1 1066.9 -3.5 1067.2 -4.0 1067.5 C -4.5 1067.7 -10.8 1068.2 -18.0 1068.5 C -60.3 1070.2 -76.9 1070.8 -81.1 1070.8 C -83.7 1070.8 -86.2 1071.6 -86.8 1072.5 C -87.7 1073.9 -95.9 1073.5 -101.2 1071.8 C -102.4 1071.4 -103.8 1071.8 -104.3 1072.7 C -104.9 1073.6 -107.9 1074.3 -110.9 1074.3 C -114.0 1074.3 -119.9 1074.8 -124.0 1075.4 C -128.1 1076.0 -132.4 1075.7 -133.6 1074.8 C -134.8 1073.8 -145.2 1073.3 -158.4 1073.6 C -190.6 1074.4 -201.0 1075.5 -204.4 1078.6 C -206.1 1080.1 -209.1 1081.0 -211.2 1080.6 C -213.3 1080.2 -215.4 1080.6 -216.0 1081.5 C -217.3 1083.5 -239.3 1083.3 -243.3 1081.1 C -245.0 1080.2 -246.7 1080.3 -247.3 1081.2 C -247.8 1082.1 -250.4 1082.9 -253.0 1083.0 C -263.2 1083.4 -284.4 1083.2 -294.1 1082.6 C -299.7 1082.3 -304.6 1082.6 -305.0 1083.3 C -305.4 1084.0 -311.9 1084.2 -319.3 1083.7 C -326.7 1083.2 -334.8 1082.8 -337.2 1082.9 C -339.6 1082.9 -355.6 1083.3 -372.9 1083.7 C -390.2 1084.1 -406.8 1085.3 -409.8 1086.2 C -412.9 1087.2 -415.8 1087.6 -416.2 1087.2 C -416.7 1086.7 -418.6 1087.1 -420.4 1088.1 C -422.3 1089.1 -427.6 1090.0 -432.4 1090.2 C -437.1 1090.4 -445.1 1091.6 -450.2 1092.9 C -455.2 1094.1 -460.5 1094.7 -461.9 1094.2 C -463.3 1093.6 -465.9 1093.8 -467.5 1094.5 C -469.2 1095.3 -471.1 1095.9 -471.7 1096.0 C -472.4 1096.1 -473.5 1096.8 -474.2 1097.5 C -474.9 1098.2 -478.1 1098.8 -481.3 1098.8 C -484.5 1098.8 -487.2 1099.5 -487.2 1100.4 C -487.2 1101.3 -490.8 1103.9 -495.2 1106.1 C -499.6 1108.3 -503.9 1111.9 -504.8 1114.0 C -505.6 1116.2 -507.0 1118.0 -507.8 1118.0 C -509.5 1118.0 -511.9 1123.8 -512.3 1128.4 C -512.4 1129.9 -513.8 1131.3 -515.5 1131.6 C -517.9 1132.1 -518.6 1134.1 -518.7 1140.4 C -519.2 1164.5 -522.0 1207.1 -523.1 1209.0 C -526.3 1214.2 -530.1 1265.7 -527.6 1270.4 C -527.1 1271.3 -526.5 1274.5 -526.2 1277.6 C -526.0 1280.7 -524.0 1286.3 -522.0 1290.0 C -519.9 1293.7 -516.5 1299.9 -514.5 1303.7 C -512.4 1307.6 -509.6 1311.6 -508.3 1312.6 C -506.7 1313.9 -506.3 1315.4 -507.4 1317.0 C -511.1 1322.8 -509.4 1334.3 -504.8 1334.3 C -500.1 1334.3 -499.1 1336.3 -502.1 1339.7 C -505.9 1343.8 -504.6 1349.0 -499.7 1349.3 C -497.6 1349.4 -494.3 1350.9 -492.4 1352.5 C -490.4 1354.4 -485.6 1355.8 -479.9 1356.1 C -472.1 1356.5 -470.0 1357.4 -465.7 1362.2 C -462.1 1366.2 -460.9 1369.3 -461.2 1373.2 C -461.4 1376.3 -460.9 1380.7 -460.1 1383.1 C -459.3 1385.5 -458.5 1388.6 -458.5 1389.9 C -458.3 1394.4 -454.7 1393.7 -452.4 1388.8 C -450.4 1384.4 -450.0 1384.3 -448.0 1387.0 C -446.8 1388.7 -444.5 1390.1 -443.0 1390.1 C -441.5 1390.1 -439.8 1390.8 -439.3 1391.6 C -436.0 1397.0 -408.5 1386.1 -404.2 1377.7 C -402.8 1374.9 -400.3 1372.6 -398.8 1372.6 C -396.2 1372.6 -396.3 1372.2 -399.1 1369.1 C -401.1 1366.9 -401.7 1365.0 -400.7 1364.0 C -398.7 1361.9 -387.4 1361.1 -384.7 1362.7 C -383.6 1363.4 -379.4 1363.1 -375.2 1362.0 C -366.7 1359.8 -358.1 1362.0 -358.1 1366.4 C -358.1 1367.9 -355.2 1371.0 -351.6 1373.4 C -345.7 1377.4 -344.8 1377.6 -341.3 1375.2 C -337.7 1372.9 -337.1 1373.0 -334.2 1376.7 C -332.3 1379.1 -329.4 1380.7 -327.0 1380.5 C -324.8 1380.3 -322.6 1380.8 -322.1 1381.7 C -321.7 1382.5 -319.8 1382.4 -318.1 1381.4 C -314.9 1379.7 -311.0 1382.0 -311.0 1385.6 C -311.0 1386.7 -308.4 1387.5 -305.3 1387.5 C -301.4 1387.5 -299.7 1388.3 -299.7 1390.1 C -299.7 1391.6 -300.9 1392.5 -302.8 1392.2 C -307.9 1391.3 -302.5 1398.4 -296.4 1400.5 C -293.5 1401.5 -291.7 1402.8 -292.3 1403.4 C -292.9 1404.0 -291.1 1407.8 -288.3 1411.9 C -285.5 1416.0 -283.6 1419.7 -284.1 1420.1 C -285.0 1421.0 -282.2 1426.6 -277.3 1433.9 C -275.6 1436.4 -274.5 1439.2 -274.7 1440.0 C -275.0 1440.9 -273.1 1444.3 -270.6 1447.6 C -268.0 1451.0 -265.4 1455.9 -264.7 1458.6 C -264.0 1461.3 -261.1 1465.9 -258.2 1468.8 C -253.8 1473.2 -252.8 1475.7 -252.5 1483.1 C -252.3 1488.1 -251.9 1492.5 -251.7 1493.0 C -251.5 1493.5 -251.4 1495.2 -251.6 1496.9 C -251.8 1498.8 -250.1 1500.7 -247.3 1501.7 C -244.8 1502.7 -243.3 1504.3 -243.9 1505.3 C -245.2 1507.4 -237.6 1506.0 -229.9 1502.6 C -226.2 1500.9 -222.3 1500.7 -216.8 1501.7 C -212.5 1502.5 -208.3 1502.7 -207.5 1502.2 C -206.7 1501.7 -202.9 1501.3 -199.1 1501.4 C -188.1 1501.5 -185.4 1497.6 -185.4 1481.1 C -185.4 1473.6 -184.9 1466.9 -184.3 1466.3 C -183.7 1465.7 -181.7 1466.0 -179.8 1467.0 C -177.5 1468.2 -175.7 1468.3 -174.6 1467.2 C -173.5 1466.1 -170.5 1467.0 -166.1 1470.0 C -158.8 1474.7 -157.7 1476.8 -161.7 1478.4 C -165.4 1479.7 -164.4 1486.0 -160.6 1486.0 C -156.8 1486.0 -153.0 1494.4 -155.6 1497.0 C -158.0 1499.4 -152.7 1506.9 -148.7 1506.9 C -146.9 1506.9 -145.1 1507.7 -144.5 1508.5 C -144.0 1509.4 -142.0 1509.7 -140.0 1509.2 C -138.1 1508.7 -135.4 1509.2 -134.0 1510.4 C -131.8 1512.2 -131.8 1513.0 -134.2 1516.7 C -135.7 1519.0 -137.8 1520.4 -138.9 1519.9 C -140.0 1519.3 -138.6 1520.9 -135.9 1523.2 C -131.1 1527.3 -130.5 1527.4 -126.7 1524.9 C -123.6 1522.9 -122.0 1522.7 -120.2 1524.2 C -118.4 1525.7 -117.3 1525.5 -115.4 1523.2 C -114.1 1521.6 -113.9 1520.8 -115.0 1521.4 C -116.1 1522.1 -117.9 1521.5 -119.0 1520.2 C -120.5 1518.3 -120.1 1516.7 -116.9 1512.8 C -114.6 1510.1 -112.3 1506.5 -111.7 1504.8 C -110.8 1502.5 -109.1 1502.0 -104.2 1502.7 C -100.7 1503.1 -97.2 1503.9 -96.5 1504.3 C -95.7 1504.8 -94.1 1504.0 -92.9 1502.6 C -91.8 1501.1 -89.7 1500.0 -88.3 1500.0 C -86.9 1500.0 -86.3 1499.2 -86.9 1498.2 C -87.8 1496.6 -81.6 1484.3 -79.8 1484.3 C -79.4 1484.3 -77.9 1486.6 -76.4 1489.5 C -74.5 1493.2 -72.4 1494.7 -69.4 1494.7 C -65.9 1494.7 -64.1 1492.8 -59.7 1484.1 C -56.8 1478.3 -54.6 1471.8 -54.8 1469.7 C -55.0 1467.6 -54.5 1462.0 -53.7 1457.2 C -52.9 1452.4 -52.2 1446.5 -52.1 1444.2 C -52.0 1441.6 -51.1 1440.0 -49.7 1440.3 C -48.0 1440.6 -47.9 1439.9 -49.4 1437.2 C -51.6 1433.0 -50.1 1429.6 -46.6 1430.9 C -45.3 1431.4 -43.8 1431.0 -43.2 1430.1 C -41.6 1427.6 -38.5 1430.1 -39.6 1433.0 C -40.2 1434.7 -39.2 1435.4 -36.2 1435.4 C -33.9 1435.4 -31.4 1435.6 -30.8 1435.9 C -30.1 1436.1 -29.4 1434.9 -29.2 1433.1 C -28.2 1426.4 -26.8 1425.0 -21.9 1425.5 C -19.2 1425.8 -16.0 1426.6 -14.9 1427.3 C -13.8 1428.0 -10.5 1427.4 -7.6 1425.9 C 3.4 1420.2 9.4 1423.5 0.9 1430.5 C -4.4 1434.9 -4.5 1435.3 -1.1 1435.4 C 1.0 1435.4 3.2 1434.6 3.8 1433.7 C 4.4 1432.7 6.7 1431.9 8.8 1431.9 C 11.0 1431.9 13.6 1431.1 14.6 1430.1 C 16.0 1428.7 17.5 1428.8 19.9 1430.3 C 22.2 1431.7 25.5 1432.0 30.2 1431.0 C 33.9 1430.2 37.4 1429.5 37.9 1429.4 C 38.3 1429.3 39.6 1428.7 40.6 1428.1 C 45.9 1424.7 53.5 1431.3 53.5 1439.4 C 53.5 1442.0 54.1 1442.1 57.5 1440.2 C 59.6 1439.0 62.0 1437.0 62.8 1435.8 C 63.6 1434.6 65.1 1434.2 66.3 1434.9 C 69.4 1436.8 88.6 1437.2 87.5 1435.3 C 86.9 1434.4 84.4 1433.7 81.8 1433.7 C 71.1 1433.8 64.9 1432.5 64.7 1430.1 C 64.6 1428.7 64.0 1426.2 63.3 1424.6 C 61.4 1420.3 63.7 1417.3 66.8 1419.9 C 68.5 1421.3 69.2 1421.3 69.2 1420.0 C 69.2 1416.9 77.6 1412.3 84.6 1411.4 C 95.4 1410.1 123.8 1411.0 125.9 1412.8 C 127.2 1413.8 128.6 1413.7 129.9 1412.4 C 131.4 1410.9 132.2 1411.2 133.0 1413.3 C 133.6 1414.9 134.9 1415.8 135.8 1415.2 C 136.7 1414.6 148.6 1413.9 162.2 1413.5 C 223.8 1411.7 234.6 1410.5 236.6 1405.1 C 237.3 1403.1 238.4 1355.7 238.9 1299.7 C 239.7 1207.3 240.0 1197.8 242.7 1195.1 C 244.3 1193.4 247.2 1189.5 249.1 1186.3 C 251.3 1182.6 253.5 1180.8 255.0 1181.4 C 256.5 1182.0 258.4 1180.9 259.5 1178.9 C 260.5 1176.9 262.7 1175.6 264.3 1175.9 C 265.9 1176.3 268.1 1175.3 269.3 1173.9 C 271.0 1171.6 271.6 1171.8 273.1 1175.8 C 275.4 1181.9 278.6 1183.7 280.6 1180.1 C 281.6 1178.5 284.2 1177.3 286.9 1177.5 C 289.5 1177.6 294.6 1177.2 298.1 1176.7 C 301.7 1176.2 305.1 1176.5 305.7 1177.4 C 306.2 1178.3 307.4 1178.7 308.2 1178.1 C 310.3 1176.8 313.9 1183.9 312.7 1187.0 C 312.0 1189.0 312.8 1189.3 316.5 1188.4 C 319.1 1187.8 322.6 1186.1 324.3 1184.7 C 326.9 1182.4 327.8 1182.4 330.4 1184.5 C 333.1 1186.6 333.2 1186.6 331.4 1184.1 C 328.8 1180.9 331.4 1177.3 336.4 1177.3 C 340.0 1177.3 342.1 1180.1 339.6 1181.6 C 338.7 1182.2 337.9 1183.6 337.9 1184.6 C 337.9 1185.8 338.8 1185.6 340.5 1184.3 C 341.9 1183.1 343.1 1181.0 343.1 1179.8 C 343.1 1177.0 349.4 1173.2 351.8 1174.6 C 352.7 1175.2 353.0 1176.8 352.4 1178.2 C 351.3 1181.2 354.5 1181.7 356.3 1178.8 C 357.2 1177.4 358.3 1177.7 359.8 1179.8 C 362.0 1182.7 362.3 1182.7 367.0 1179.4 C 370.6 1176.9 372.9 1176.4 375.9 1177.5 C 380.0 1179.0 386.3 1176.9 388.7 1173.2 C 390.4 1170.7 395.1 1170.3 400.1 1172.2 C 403.5 1173.5 404.1 1174.6 403.1 1177.7 C 401.9 1181.6 402.0 1181.6 405.6 1178.4 C 409.9 1174.5 421.2 1173.0 424.6 1175.9 C 426.3 1177.3 427.5 1177.3 429.0 1175.8 C 430.1 1174.7 432.3 1173.8 433.9 1173.8 C 435.5 1173.8 437.8 1172.6 439.0 1171.2 C 440.7 1169.2 441.9 1169.1 444.7 1170.6 C 448.2 1172.4 448.2 1172.6 445.2 1174.8 C 442.2 1177.0 442.3 1177.3 446.7 1179.0 C 452.4 1181.1 458.7 1178.0 457.3 1173.6 C 454.7 1165.5 455.0 1159.8 458.2 1158.1 C 462.5 1155.8 469.8 1155.9 474.3 1158.3 C 477.3 1159.9 478.4 1159.6 480.9 1156.4 C 483.6 1152.7 484.6 1152.6 502.7 1153.5 C 513.7 1154.1 526.6 1153.7 533.5 1152.6 L 545.0 1150.6 L 545.0 1127.5 C 545.0 1105.1 545.3 1104.4 541.2 1101.7 C 537.3 1099.1 537.2 1098.4 538.9 1091.5 C 541.3 1081.7 541.7 1068.8 539.7 1066.2 C 537.1 1062.7 539.6 1060.9 548.2 1060.0 C 552.7 1059.5 557.0 1058.0 557.8 1056.7 C 559.6 1053.9 559.6 988.3 557.8 982.0 C 557.0 979.0 554.9 977.3 550.6 976.3 C 540.1 973.7 540.2 973.9 542.0 967.8 C 543.1 963.8 542.9 960.7 541.1 956.8 C 539.8 953.8 538.4 949.8 538.1 947.9 C 537.8 946.0 536.3 944.4 534.7 944.4 C 528.5 944.4 525.8 939.8 526.8 931.0 C 527.4 926.1 527.1 922.3 526.0 921.6 C 523.2 919.9 526.0 849.4 529.1 845.1 C 530.4 843.2 531.5 838.6 531.5 834.9 C 531.5 829.6 532.2 827.9 535.0 827.2 C 536.9 826.7 538.8 824.6 539.2 822.6 C 539.6 820.5 540.4 770.9 540.9 712.3 C 541.6 634.2 541.3 605.3 539.9 603.8 C 538.4 602.4 538.5 601.2 540.1 599.2 C 541.7 597.2 542.1 589.7 541.7 570.8 C 541.3 556.6 541.7 517.4 542.6 483.7 C 544.1 425.5 544.0 422.4 541.0 420.7 C 539.2 419.7 537.7 417.8 537.4 416.3 C 537.2 414.9 535.3 408.1 533.1 401.2 L 529.0 388.7 L 530.0 263.9 C 530.9 144.1 531.3 138.8 534.5 134.5 C 537.5 130.4 538.0 125.6 539.0 89.7 C 540.0 55.1 539.7 48.9 537.4 45.6 C 536.0 43.5 532.9 41.8 530.7 41.8 C 524.7 41.8 522.2 37.5 521.7 26.1 C 521.5 20.4 520.7 14.8 519.9 13.5 C 519.1 12.3 518.4 10.5 518.3 9.5 C 518.1 8.6 517.9 6.8 517.8 5.6 C 517.6 4.4 516.5 3.4 515.2 3.4 C 513.9 3.4 511.1 1.5 508.8 -0.9 C 506.6 -3.2 504.2 -4.8 503.4 -4.3 C 502.7 -3.9 501.6 -4.2 501.0 -5.2 C 498.8 -8.7 499.7 -125.2 501.9 -126.6 C 504.1 -127.9 504.0 -161.8 501.8 -163.1 C 500.7 -163.8 500.1 -177.9 500.1 -199.8 C 500.1 -234.8 501.0 -240.5 505.7 -235.8 C 507.1 -234.4 508.2 -234.7 509.7 -236.8 C 511.3 -238.9 514.1 -239.5 520.6 -239.3 C 527.1 -239.0 529.5 -239.5 530.3 -241.5 C 530.9 -243.0 533.1 -244.3 535.3 -244.3 C 537.5 -244.3 540.3 -244.9 541.6 -245.7 C 545.0 -247.9 548.9 -256.2 547.8 -258.9 C 547.3 -260.3 547.7 -261.8 548.7 -262.4 C 549.7 -263.0 550.0 -264.7 549.5 -266.1 C 549.0 -267.5 549.5 -269.9 550.7 -271.3 C 551.9 -272.8 552.4 -274.5 551.8 -275.0 C 549.3 -277.6 554.6 -282.4 561.1 -283.5 C 564.9 -284.1 568.2 -284.8 568.4 -284.9 C 568.5 -285.1 569.2 -304.9 569.9 -328.8 C 570.7 -352.8 571.8 -376.0 572.5 -380.4 C 573.5 -386.8 573.1 -388.8 570.6 -390.8 M 485.6 1176.5 C 483.9 1177.2 482.9 1178.2 483.4 1178.7 C 484.0 1179.2 485.4 1178.7 486.6 1177.5 C 488.3 1175.8 488.1 1175.6 485.6 1176.5 M 481.4 1170.5 C 478.6 1172.2 476.6 1172.3 473.5 1170.9 C 470.2 1169.4 468.6 1169.6 465.6 1172.1 C 460.6 1176.1 460.6 1178.0 465.6 1176.5 C 467.8 1175.9 471.8 1175.1 474.7 1174.6 C 477.5 1174.2 481.0 1172.6 482.5 1171.0 C 485.0 1168.4 484.9 1168.4 481.4 1170.5 M 257.6 1184.3 C 256.7 1184.3 255.9 1185.1 255.9 1186.1 C 255.9 1187.1 256.7 1187.5 257.6 1186.9 C 258.6 1186.3 259.4 1185.5 259.4 1185.0 C 259.4 1184.6 258.6 1184.3 257.6 1184.3 M 195.9 1418.0 C 195.6 1418.0 194.3 1419.2 193.1 1420.6 C 191.2 1422.9 191.3 1423.1 193.7 1422.2 C 196.2 1421.3 197.9 1418.0 195.9 1418.0 M 188.8 1431.9 C 187.3 1431.9 184.1 1433.2 181.8 1434.7 C 177.3 1437.6 173.6 1435.0 177.2 1431.4 C 180.5 1428.2 179.4 1426.4 174.3 1426.9 C 171.7 1427.2 168.6 1426.9 167.5 1426.2 C 166.4 1425.5 163.5 1425.7 161.0 1426.6 C 158.1 1427.7 156.2 1427.7 155.5 1426.6 C 154.9 1425.7 153.7 1425.4 152.8 1425.9 C 151.9 1426.5 151.6 1427.6 152.1 1428.4 C 152.6 1429.2 152.2 1431.9 151.3 1434.4 C 149.8 1438.3 150.0 1438.9 153.0 1438.9 C 155.2 1438.9 156.5 1437.7 156.5 1435.6 C 156.5 1430.6 160.7 1427.8 163.4 1431.0 C 165.1 1433.1 165.1 1434.3 163.6 1436.1 C 160.7 1439.6 164.5 1441.7 168.1 1438.7 C 170.3 1436.8 171.2 1437.0 173.1 1439.6 C 175.3 1442.7 175.6 1442.6 180.7 1439.1 C 183.5 1437.0 186.8 1435.6 188.0 1435.8 C 189.1 1436.1 190.4 1435.3 190.8 1434.1 C 191.3 1432.9 190.4 1431.9 188.8 1431.9 M 140.3 1424.4 C 137.8 1426.0 137.0 1426.2 131.8 1426.5 C 128.7 1426.7 128.5 1427.1 130.4 1429.4 C 131.9 1431.3 133.1 1431.5 134.4 1430.3 C 135.4 1429.3 137.6 1428.5 139.4 1428.5 C 141.1 1428.5 142.5 1427.2 142.5 1425.7 C 142.5 1424.0 141.7 1423.5 140.3 1424.4 M 130.3 1438.0 C 129.3 1438.6 128.5 1439.5 128.5 1439.9 C 128.5 1440.3 129.3 1440.7 130.3 1440.7 C 131.3 1440.7 132.0 1439.8 132.0 1438.8 C 132.0 1437.8 131.3 1437.5 130.3 1438.0 M 116.6 1435.4 C 115.7 1435.4 113.9 1436.7 112.6 1438.3 C 110.5 1441.0 110.6 1441.0 114.2 1439.1 C 118.2 1437.0 119.2 1435.4 116.6 1435.4 M 102.6 1436.4 C 101.4 1435.7 99.9 1435.6 99.4 1436.1 C 97.8 1437.7 100.1 1439.4 102.6 1438.5 C 104.4 1438.0 104.4 1437.5 102.6 1436.4 M -127.8 1533.1 C -128.8 1533.1 -129.6 1533.9 -129.6 1535.0 C -129.6 1536.0 -128.8 1536.3 -127.8 1535.7 C -126.9 1535.1 -126.1 1534.3 -126.1 1533.9 C -126.1 1533.5 -126.9 1533.1 -127.8 1533.1 M -140.1 1534.0 C -141.0 1534.6 -141.8 1535.4 -141.8 1535.8 C -141.8 1536.2 -141.0 1536.6 -140.1 1536.6 C -139.1 1536.6 -138.3 1535.8 -138.3 1534.7 C -138.3 1533.7 -139.1 1533.4 -140.1 1534.0 M -241.1 1512.2 C -242.0 1512.2 -243.2 1512.8 -243.7 1513.6 C -244.2 1514.4 -243.4 1515.1 -242.0 1515.1 C -240.6 1515.1 -239.5 1514.4 -239.5 1513.6 C -239.5 1512.8 -240.2 1512.2 -241.1 1512.2 M -369.2 1376.1 C -369.6 1376.1 -370.9 1377.5 -372.3 1379.2 C -374.4 1381.9 -374.4 1382.0 -371.6 1379.8 C -368.7 1377.6 -367.8 1376.1 -369.2 1376.1 M -390.5 1388.5 C -392.5 1388.6 -392.9 1389.0 -391.6 1389.5 C -390.3 1390.0 -388.8 1390.0 -388.2 1389.4 C -387.6 1388.8 -388.7 1388.4 -390.5 1388.5 M -416.3 1394.8 C -418.6 1396.5 -420.3 1398.2 -420.0 1398.5 C -418.9 1399.6 -412.2 1395.2 -412.2 1393.4 C -412.2 1392.5 -414.0 1393.1 -416.3 1394.8 "></path></clipPath><g clip-path="url(#clip0x600005abd160)"><image xlink:href="../../93D4E5FE-5E46-4DEB-B196-480956707DF2/assets/9C946BA402C5C2412CB3EDF2C882E2FC.jpeg" width="1600.00" height="1199.00" transform="matrix(0.00, 1.74, 1.74, -0.00, -897.0, -1175.6)"></image></g></g></g></g></g></svg>