<?xml version="1.0" encoding="UTF-8" standalone="no"?><svg xmlns="http://www.w3.org/2000/svg" xmlns:xlink="http://www.w3.org/1999/xlink" clip-rule="evenodd" stroke-miterlimit="10" viewBox="0 0 776 45"><desc>SVG generated by Keynote</desc><defs></defs><g transform="matrix(1.00, 0.00, -0.00, -1.00, 0.0, 45.0)"><text xml:space="preserve" font-family="Helvetica,Helvetica" font-size="44.1" fill="#000000" transform="matrix(1.00, 0.00, -0.00, -1.00, 0.0, 8.7)">•</text><text xml:space="preserve" font-family="Helvetica,Helvetica" font-size="25.8" fill="#000000" transform="matrix(1.00, 0.00, -0.00, -1.00, 38.7, 15.5)">R</text><text xml:space="preserve" font-family="Helvetica,Helvetica" font-size="25.8" fill="#000000" transform="matrix(1.00, 0.00, -0.00, -1.00, 57.3, 15.5)">a</text><text xml:space="preserve" font-family="Helvetica,Helvetica" font-size="25.8" fill="#000000" transform="matrix(1.00, 0.00, -0.00, -1.00, 71.7, 15.5)">y</text><text xml:space="preserve" font-family="Helvetica,Helvetica" font-size="25.8" fill="#000000" transform="matrix(1.00, 0.00, -0.00, -1.00, 84.6, 15.5)">w</text><text xml:space="preserve" font-family="Helvetica,Helvetica" font-size="25.8" fill="#000000" transform="matrix(1.00, 0.00, -0.00, -1.00, 103.2, 15.5)">e</text><text xml:space="preserve" font-family="Helvetica,Helvetica" font-size="25.8" fill="#000000" transform="matrix(1.00, 0.00, -0.00, -1.00, 117.6, 15.5)">n</text><text xml:space="preserve" font-family="Helvetica,Helvetica" font-size="25.8" fill="#000000" transform="matrix(1.00, 0.00, -0.00, -1.00, 131.9, 15.5)">d</text><text xml:space="preserve" font-family="Helvetica,Helvetica" font-size="25.8" fill="#000000" transform="matrix(1.00, 0.00, -0.00, -1.00, 146.3, 15.5)">e</text><text xml:space="preserve" font-family="Helvetica,Helvetica" font-size="25.8" fill="#000000" transform="matrix(1.00, 0.00, -0.00, -1.00, 160.6, 15.5)">r</text><text xml:space="preserve" font-family="Helvetica,Helvetica" font-size="25.8" fill="#000000" transform="matrix(1.00, 0.00, -0.00, -1.00, 169.2, 15.5)">l</text><text xml:space="preserve" font-family="Helvetica,Helvetica" font-size="25.8" fill="#000000" transform="matrix(1.00, 0.00, -0.00, -1.00, 175.0, 15.5)">i</text><text xml:space="preserve" font-family="Helvetica,Helvetica" font-size="25.8" fill="#000000" transform="matrix(1.00, 0.00, -0.00, -1.00, 180.7, 15.5)">c</text><text xml:space="preserve" font-family="Helvetica,Helvetica" font-size="25.8" fill="#000000" transform="matrix(1.00, 0.00, -0.00, -1.00, 193.6, 15.5)">h</text><text xml:space="preserve" font-family="Helvetica,Helvetica" font-size="25.8" fill="#000000" transform="matrix(1.00, 0.00, -0.00, -1.00, 208.0, 15.5)">:</text><text xml:space="preserve" font-family="Helvetica,Helvetica" font-size="25.8" fill="#000000" transform="matrix(1.00, 0.00, -0.00, -1.00, 215.1, 15.5)"> </text><text xml:space="preserve" font-family="Helvetica,Helvetica" font-size="25.8" fill="#000000" transform="matrix(1.00, 0.00, -0.00, -1.00, 222.3, 15.5)">I</text><text xml:space="preserve" font-family="Helvetica,Helvetica" font-size="25.8" fill="#000000" transform="matrix(1.00, 0.00, -0.00, -1.00, 229.5, 15.5)">n</text><text xml:space="preserve" font-family="Helvetica,Helvetica" font-size="25.8" fill="#000000" transform="matrix(1.00, 0.00, -0.00, -1.00, 243.8, 15.5)">t</text><text xml:space="preserve" font-family="Helvetica,Helvetica" font-size="25.8" fill="#000000" transform="matrix(1.00, 0.00, -0.00, -1.00, 251.0, 15.5)">r</text><text xml:space="preserve" font-family="Helvetica,Helvetica" font-size="25.8" fill="#000000" transform="matrix(1.00, 0.00, -0.00, -1.00, 259.6, 15.5)">o</text><text xml:space="preserve" font-family="Helvetica,Helvetica" font-size="25.8" fill="#000000" transform="matrix(1.00, 0.00, -0.00, -1.00, 273.9, 15.5)">d</text><text xml:space="preserve" font-family="Helvetica,Helvetica" font-size="25.8" fill="#000000" transform="matrix(1.00, 0.00, -0.00, -1.00, 288.3, 15.5)">u</text><text xml:space="preserve" font-family="Helvetica,Helvetica" font-size="25.8" fill="#000000" transform="matrix(1.00, 0.00, -0.00, -1.00, 302.6, 15.5)">c</text><text xml:space="preserve" font-family="Helvetica,Helvetica" font-size="25.8" fill="#000000" transform="matrix(1.00, 0.00, -0.00, -1.00, 315.5, 15.5)">t</text><text xml:space="preserve" font-family="Helvetica,Helvetica" font-size="25.8" fill="#000000" transform="matrix(1.00, 0.00, -0.00, -1.00, 322.7, 15.5)">i</text><text xml:space="preserve" font-family="Helvetica,Helvetica" font-size="25.8" fill="#000000" transform="matrix(1.00, 0.00, -0.00, -1.00, 328.4, 15.5)">o</text><text xml:space="preserve" font-family="Helvetica,Helvetica" font-size="25.8" fill="#000000" transform="matrix(1.00, 0.00, -0.00, -1.00, 342.8, 15.5)">n</text><text xml:space="preserve" font-family="Helvetica,Helvetica" font-size="25.8" fill="#000000" transform="matrix(1.00, 0.00, -0.00, -1.00, 357.1, 15.5)"> </text><text xml:space="preserve" font-family="Helvetica,Helvetica" font-size="25.8" fill="#000000" transform="matrix(1.00, 0.00, -0.00, -1.00, 364.3, 15.5)">t</text><text xml:space="preserve" font-family="Helvetica,Helvetica" font-size="25.8" fill="#000000" transform="matrix(1.00, 0.00, -0.00, -1.00, 371.5, 15.5)">o</text><text xml:space="preserve" font-family="Helvetica,Helvetica" font-size="25.8" fill="#000000" transform="matrix(1.00, 0.00, -0.00, -1.00, 385.8, 15.5)"> </text><text xml:space="preserve" font-family="Helvetica,Helvetica" font-size="25.8" fill="#000000" transform="matrix(1.00, 0.00, -0.00, -1.00, 391.6, 15.5)">A</text><text xml:space="preserve" font-family="Helvetica,Helvetica" font-size="25.8" fill="#000000" transform="matrix(1.00, 0.00, -0.00, -1.00, 408.8, 15.5)">u</text><text xml:space="preserve" font-family="Helvetica,Helvetica" font-size="25.8" fill="#000000" transform="matrix(1.00, 0.00, -0.00, -1.00, 423.1, 15.5)">g</text><text xml:space="preserve" font-family="Helvetica,Helvetica" font-size="25.8" fill="#000000" transform="matrix(1.00, 0.00, -0.00, -1.00, 437.5, 15.5)">m</text><text xml:space="preserve" font-family="Helvetica,Helvetica" font-size="25.8" fill="#000000" transform="matrix(1.00, 0.00, -0.00, -1.00, 459.0, 15.5)">e</text><text xml:space="preserve" font-family="Helvetica,Helvetica" font-size="25.8" fill="#000000" transform="matrix(1.00, 0.00, -0.00, -1.00, 473.3, 15.5)">n</text><text xml:space="preserve" font-family="Helvetica,Helvetica" font-size="25.8" fill="#000000" transform="matrix(1.00, 0.00, -0.00, -1.00, 487.7, 15.5)">t</text><text xml:space="preserve" font-family="Helvetica,Helvetica" font-size="25.8" fill="#000000" transform="matrix(1.00, 0.00, -0.00, -1.00, 494.8, 15.5)">e</text><text xml:space="preserve" font-family="Helvetica,Helvetica" font-size="25.8" fill="#000000" transform="matrix(1.00, 0.00, -0.00, -1.00, 509.2, 15.5)">d</text><text xml:space="preserve" font-family="Helvetica,Helvetica" font-size="25.8" fill="#000000" transform="matrix(1.00, 0.00, -0.00, -1.00, 523.5, 15.5)"> </text><text xml:space="preserve" font-family="Helvetica,Helvetica" font-size="25.8" fill="#000000" transform="matrix(1.00, 0.00, -0.00, -1.00, 530.7, 15.5)">R</text><text xml:space="preserve" font-family="Helvetica,Helvetica" font-size="25.8" fill="#000000" transform="matrix(1.00, 0.00, -0.00, -1.00, 549.3, 15.5)">e</text><text xml:space="preserve" font-family="Helvetica,Helvetica" font-size="25.8" fill="#000000" transform="matrix(1.00, 0.00, -0.00, -1.00, 563.7, 15.5)">a</text><text xml:space="preserve" font-family="Helvetica,Helvetica" font-size="25.8" fill="#000000" transform="matrix(1.00, 0.00, -0.00, -1.00, 578.1, 15.5)">l</text><text xml:space="preserve" font-family="Helvetica,Helvetica" font-size="25.8" fill="#000000" transform="matrix(1.00, 0.00, -0.00, -1.00, 583.8, 15.5)">i</text><text xml:space="preserve" font-family="Helvetica,Helvetica" font-size="25.8" fill="#000000" transform="matrix(1.00, 0.00, -0.00, -1.00, 589.5, 15.5)">t</text><text xml:space="preserve" font-family="Helvetica,Helvetica" font-size="25.8" fill="#000000" transform="matrix(1.00, 0.00, -0.00, -1.00, 596.7, 15.5)">y</text><text xml:space="preserve" font-family="Helvetica,Helvetica" font-size="25.8" fill="#000000" transform="matrix(1.00, 0.00, -0.00, -1.00, 609.6, 15.5)"> </text><text xml:space="preserve" font-family="Helvetica,Helvetica" font-size="25.8" fill="#000000" transform="matrix(1.00, 0.00, -0.00, -1.00, 616.8, 15.5)">o</text><text xml:space="preserve" font-family="Helvetica,Helvetica" font-size="25.8" fill="#000000" transform="matrix(1.00, 0.00, -0.00, -1.00, 631.1, 15.5)">n</text><text xml:space="preserve" font-family="Helvetica,Helvetica" font-size="25.8" fill="#000000" transform="matrix(1.00, 0.00, -0.00, -1.00, 645.5, 15.5)"> </text><text xml:space="preserve" font-family="Helvetica,Helvetica" font-size="25.8" fill="#000000" transform="matrix(1.00, 0.00, -0.00, -1.00, 652.6, 15.5)">t</text><text xml:space="preserve" font-family="Helvetica,Helvetica" font-size="25.8" fill="#000000" transform="matrix(1.00, 0.00, -0.00, -1.00, 659.8, 15.5)">h</text><text xml:space="preserve" font-family="Helvetica,Helvetica" font-size="25.8" fill="#000000" transform="matrix(1.00, 0.00, -0.00, -1.00, 674.1, 15.5)">e</text><text xml:space="preserve" font-family="Helvetica,Helvetica" font-size="25.8" fill="#000000" transform="matrix(1.00, 0.00, -0.00, -1.00, 688.5, 15.5)"> </text><text xml:space="preserve" font-family="Helvetica,Helvetica" font-size="25.8" fill="#000000" transform="matrix(1.00, 0.00, -0.00, -1.00, 695.7, 15.5)">i</text><text xml:space="preserve" font-family="Helvetica,Helvetica" font-size="25.8" fill="#000000" transform="matrix(1.00, 0.00, -0.00, -1.00, 701.4, 15.5)">P</text><text xml:space="preserve" font-family="Helvetica,Helvetica" font-size="25.8" fill="#000000" transform="matrix(1.00, 0.00, -0.00, -1.00, 718.6, 15.5)">h</text><text xml:space="preserve" font-family="Helvetica,Helvetica" font-size="25.8" fill="#000000" transform="matrix(1.00, 0.00, -0.00, -1.00, 733.0, 15.5)">o</text><text xml:space="preserve" font-family="Helvetica,Helvetica" font-size="25.8" fill="#000000" transform="matrix(1.00, 0.00, -0.00, -1.00, 747.3, 15.5)">n</text><text xml:space="preserve" font-family="Helvetica,Helvetica" font-size="25.8" fill="#000000" transform="matrix(1.00, 0.00, -0.00, -1.00, 761.7, 15.5)">e</text><g><clipPath id="clip0x60000eca7a40"><path d="M 37.7 11.9 L 775.9 11.9 L 775.9 15.2 L 37.7 15.2 Z M 37.7 11.9 "></path></clipPath><g clip-path="url(#clip0x60000eca7a40)"><path d="M 67.7 540.4 L 804.9 540.4 " fill="none" stroke="#000000" stroke-width="1.27" transform="matrix(1.00, 0.00, 0.00, -1.00, -29.0, 554.0)"></path></g></g></g></svg>