<?xml version="1.0" encoding="UTF-8" standalone="no"?><svg xmlns="http://www.w3.org/2000/svg" xmlns:xlink="http://www.w3.org/1999/xlink" clip-rule="evenodd" stroke-miterlimit="10" viewBox="0 0 276 54"><desc>SVG generated by Keynote</desc><defs></defs><g transform="matrix(1.00, 0.00, -0.00, -1.00, 0.0, 54.0)"><text xml:space="preserve" font-family="Helvetica,Helvetica" font-size="41.2" fill="#000000" transform="matrix(1.00, 0.00, -0.00, -1.00, 0.0, 20.7)">-</text><text xml:space="preserve" font-family="Helvetica,Helvetica" font-size="24.1" fill="#000000" transform="matrix(1.00, 0.00, -0.00, -1.00, 38.7, 26.3)">C</text><text xml:space="preserve" font-family="Helvetica,Helvetica" font-size="24.1" fill="#000000" transform="matrix(1.00, 0.00, -0.00, -1.00, 56.1, 26.3)">M</text><text xml:space="preserve" font-family="Helvetica,Helvetica" font-size="24.1" fill="#000000" transform="matrix(1.00, 0.00, -0.00, -1.00, 76.2, 26.3)">A</text><text xml:space="preserve" font-family="Helvetica,Helvetica" font-size="24.1" fill="#000000" transform="matrix(1.00, 0.00, -0.00, -1.00, 92.2, 26.3)">t</text><text xml:space="preserve" font-family="Helvetica,Helvetica" font-size="24.1" fill="#000000" transform="matrix(1.00, 0.00, -0.00, -1.00, 98.9, 26.3)">t</text><text xml:space="preserve" font-family="Helvetica,Helvetica" font-size="24.1" fill="#000000" transform="matrix(1.00, 0.00, -0.00, -1.00, 105.6, 26.3)">i</text><text xml:space="preserve" font-family="Helvetica,Helvetica" font-size="24.1" fill="#000000" transform="matrix(1.00, 0.00, -0.00, -1.00, 110.9, 26.3)">t</text><text xml:space="preserve" font-family="Helvetica,Helvetica" font-size="24.1" fill="#000000" transform="matrix(1.00, 0.00, -0.00, -1.00, 117.6, 26.3)">u</text><text xml:space="preserve" font-family="Helvetica,Helvetica" font-size="24.1" fill="#000000" transform="matrix(1.00, 0.00, -0.00, -1.00, 131.0, 26.3)">d</text><text xml:space="preserve" font-family="Helvetica,Helvetica" font-size="24.1" fill="#000000" transform="matrix(1.00, 0.00, -0.00, -1.00, 144.4, 26.3)">e</text><text xml:space="preserve" font-family="Helvetica,Helvetica" font-size="24.1" fill="#000000" transform="matrix(1.00, 0.00, -0.00, -1.00, 157.8, 26.3)"> </text><text xml:space="preserve" font-family="Helvetica,Helvetica" font-size="24.1" fill="#000000" transform="matrix(1.00, 0.00, -0.00, -1.00, 164.5, 26.3)">R</text><text xml:space="preserve" font-family="Helvetica,Helvetica" font-size="24.1" fill="#000000" transform="matrix(1.00, 0.00, -0.00, -1.00, 181.9, 26.3)">e</text><text xml:space="preserve" font-family="Helvetica,Helvetica" font-size="24.1" fill="#000000" transform="matrix(1.00, 0.00, -0.00, -1.00, 195.3, 26.3)">f</text><text xml:space="preserve" font-family="Helvetica,Helvetica" font-size="24.1" fill="#000000" transform="matrix(1.00, 0.00, -0.00, -1.00, 202.0, 26.3)">e</text><text xml:space="preserve" font-family="Helvetica,Helvetica" font-size="24.1" fill="#000000" transform="matrix(1.00, 0.00, -0.00, -1.00, 215.4, 26.3)">r</text><text xml:space="preserve" font-family="Helvetica,Helvetica" font-size="24.1" fill="#000000" transform="matrix(1.00, 0.00, -0.00, -1.00, 223.4, 26.3)">e</text><text xml:space="preserve" font-family="Helvetica,Helvetica" font-size="24.1" fill="#000000" transform="matrix(1.00, 0.00, -0.00, -1.00, 236.8, 26.3)">n</text><text xml:space="preserve" font-family="Helvetica,Helvetica" font-size="24.1" fill="#000000" transform="matrix(1.00, 0.00, -0.00, -1.00, 250.2, 26.3)">c</text><text xml:space="preserve" font-family="Helvetica,Helvetica" font-size="24.1" fill="#000000" transform="matrix(1.00, 0.00, -0.00, -1.00, 262.2, 26.3)">e</text><g><clipPath id="clip0x6080100b8840"><path d="M 37.7 22.8 L 275.6 22.8 L 275.6 26.0 L 37.7 26.0 Z M 37.7 22.8 "></path></clipPath><g clip-path="url(#clip0x6080100b8840)"><path d="M 102.7 132.6 L 339.6 132.6 " fill="none" stroke="#000000" stroke-width="1.19" transform="matrix(1.00, 0.00, 0.00, -1.00, -64.0, 157.0)"></path></g></g></g></svg>