<?xml version="1.0" encoding="UTF-8" standalone="no"?><svg xmlns="http://www.w3.org/2000/svg" xmlns:xlink="http://www.w3.org/1999/xlink" clip-rule="evenodd" stroke-miterlimit="10" viewBox="0 0 508 56"><desc>SVG generated by Keynote</desc><defs></defs><g transform="matrix(1.00, 0.00, -0.00, -1.00, 0.0, 56.0)"><text xml:space="preserve" font-family="Helvetica,Helvetica" font-size="44.1" fill="#000000" transform="matrix(1.00, 0.00, -0.00, -1.00, 0.0, 20.1)">•</text><text xml:space="preserve" font-family="Helvetica,Helvetica" font-size="25.8" fill="#000000" transform="matrix(1.00, 0.00, -0.00, -1.00, 38.7, 26.9)">A</text><text xml:space="preserve" font-family="Helvetica,Helvetica" font-size="25.8" fill="#000000" transform="matrix(1.00, 0.00, -0.00, -1.00, 55.9, 26.9)">p</text><text xml:space="preserve" font-family="Helvetica,Helvetica" font-size="25.8" fill="#000000" transform="matrix(1.00, 0.00, -0.00, -1.00, 70.3, 26.9)">p</text><text xml:space="preserve" font-family="Helvetica,Helvetica" font-size="25.8" fill="#000000" transform="matrix(1.00, 0.00, -0.00, -1.00, 84.6, 26.9)">l</text><text xml:space="preserve" font-family="Helvetica,Helvetica" font-size="25.8" fill="#000000" transform="matrix(1.00, 0.00, -0.00, -1.00, 90.4, 26.9)">e</text><text xml:space="preserve" font-family="Helvetica,Helvetica" font-size="25.8" fill="#000000" transform="matrix(1.00, 0.00, -0.00, -1.00, 104.7, 26.9)"> </text><text xml:space="preserve" font-family="Helvetica,Helvetica" font-size="25.8" fill="#000000" transform="matrix(1.00, 0.00, -0.00, -1.00, 111.9, 26.9)">C</text><text xml:space="preserve" font-family="Helvetica,Helvetica" font-size="25.8" fill="#000000" transform="matrix(1.00, 0.00, -0.00, -1.00, 130.5, 26.9)">o</text><text xml:space="preserve" font-family="Helvetica,Helvetica" font-size="25.8" fill="#000000" transform="matrix(1.00, 0.00, -0.00, -1.00, 144.9, 26.9)">r</text><text xml:space="preserve" font-family="Helvetica,Helvetica" font-size="25.8" fill="#000000" transform="matrix(1.00, 0.00, -0.00, -1.00, 153.5, 26.9)">e</text><text xml:space="preserve" font-family="Helvetica,Helvetica" font-size="25.8" fill="#000000" transform="matrix(1.00, 0.00, -0.00, -1.00, 167.8, 26.9)">M</text><text xml:space="preserve" font-family="Helvetica,Helvetica" font-size="25.8" fill="#000000" transform="matrix(1.00, 0.00, -0.00, -1.00, 189.3, 26.9)">o</text><text xml:space="preserve" font-family="Helvetica,Helvetica" font-size="25.8" fill="#000000" transform="matrix(1.00, 0.00, -0.00, -1.00, 203.7, 26.9)">t</text><text xml:space="preserve" font-family="Helvetica,Helvetica" font-size="25.8" fill="#000000" transform="matrix(1.00, 0.00, -0.00, -1.00, 210.8, 26.9)">i</text><text xml:space="preserve" font-family="Helvetica,Helvetica" font-size="25.8" fill="#000000" transform="matrix(1.00, 0.00, -0.00, -1.00, 216.6, 26.9)">o</text><text xml:space="preserve" font-family="Helvetica,Helvetica" font-size="25.8" fill="#000000" transform="matrix(1.00, 0.00, -0.00, -1.00, 230.9, 26.9)">n</text><text xml:space="preserve" font-family="Helvetica,Helvetica" font-size="25.8" fill="#000000" transform="matrix(1.00, 0.00, -0.00, -1.00, 245.3, 26.9)"> </text><text xml:space="preserve" font-family="Helvetica,Helvetica" font-size="25.8" fill="#000000" transform="matrix(1.00, 0.00, -0.00, -1.00, 252.4, 26.9)">F</text><text xml:space="preserve" font-family="Helvetica,Helvetica" font-size="25.8" fill="#000000" transform="matrix(1.00, 0.00, -0.00, -1.00, 268.2, 26.9)">r</text><text xml:space="preserve" font-family="Helvetica,Helvetica" font-size="25.8" fill="#000000" transform="matrix(1.00, 0.00, -0.00, -1.00, 276.8, 26.9)">a</text><text xml:space="preserve" font-family="Helvetica,Helvetica" font-size="25.8" fill="#000000" transform="matrix(1.00, 0.00, -0.00, -1.00, 291.1, 26.9)">m</text><text xml:space="preserve" font-family="Helvetica,Helvetica" font-size="25.8" fill="#000000" transform="matrix(1.00, 0.00, -0.00, -1.00, 312.6, 26.9)">e</text><text xml:space="preserve" font-family="Helvetica,Helvetica" font-size="25.8" fill="#000000" transform="matrix(1.00, 0.00, -0.00, -1.00, 327.0, 26.9)">w</text><text xml:space="preserve" font-family="Helvetica,Helvetica" font-size="25.8" fill="#000000" transform="matrix(1.00, 0.00, -0.00, -1.00, 345.6, 26.9)">o</text><text xml:space="preserve" font-family="Helvetica,Helvetica" font-size="25.8" fill="#000000" transform="matrix(1.00, 0.00, -0.00, -1.00, 360.0, 26.9)">r</text><text xml:space="preserve" font-family="Helvetica,Helvetica" font-size="25.8" fill="#000000" transform="matrix(1.00, 0.00, -0.00, -1.00, 368.6, 26.9)">k</text><text xml:space="preserve" font-family="Helvetica,Helvetica" font-size="25.8" fill="#000000" transform="matrix(1.00, 0.00, -0.00, -1.00, 381.5, 26.9)"> </text><text xml:space="preserve" font-family="Helvetica,Helvetica" font-size="25.8" fill="#000000" transform="matrix(1.00, 0.00, -0.00, -1.00, 388.6, 26.9)">R</text><text xml:space="preserve" font-family="Helvetica,Helvetica" font-size="25.8" fill="#000000" transform="matrix(1.00, 0.00, -0.00, -1.00, 407.3, 26.9)">e</text><text xml:space="preserve" font-family="Helvetica,Helvetica" font-size="25.8" fill="#000000" transform="matrix(1.00, 0.00, -0.00, -1.00, 421.6, 26.9)">f</text><text xml:space="preserve" font-family="Helvetica,Helvetica" font-size="25.8" fill="#000000" transform="matrix(1.00, 0.00, -0.00, -1.00, 428.8, 26.9)">e</text><text xml:space="preserve" font-family="Helvetica,Helvetica" font-size="25.8" fill="#000000" transform="matrix(1.00, 0.00, -0.00, -1.00, 443.1, 26.9)">r</text><text xml:space="preserve" font-family="Helvetica,Helvetica" font-size="25.8" fill="#000000" transform="matrix(1.00, 0.00, -0.00, -1.00, 451.7, 26.9)">e</text><text xml:space="preserve" font-family="Helvetica,Helvetica" font-size="25.8" fill="#000000" transform="matrix(1.00, 0.00, -0.00, -1.00, 466.1, 26.9)">n</text><text xml:space="preserve" font-family="Helvetica,Helvetica" font-size="25.8" fill="#000000" transform="matrix(1.00, 0.00, -0.00, -1.00, 480.4, 26.9)">c</text><text xml:space="preserve" font-family="Helvetica,Helvetica" font-size="25.8" fill="#000000" transform="matrix(1.00, 0.00, -0.00, -1.00, 493.3, 26.9)">e</text><g><clipPath id="clip0x60000eca3b40"><path d="M 37.7 23.3 L 507.6 23.3 L 507.6 26.6 L 37.7 26.6 Z M 37.7 23.3 "></path></clipPath><g clip-path="url(#clip0x60000eca3b40)"><path d="M 67.7 31.0 L 536.6 31.0 " fill="none" stroke="#000000" stroke-width="1.27" transform="matrix(1.00, 0.00, 0.00, -1.00, -29.0, 56.0)"></path></g></g></g></svg>