<?xml version="1.0" encoding="UTF-8" standalone="no"?><svg xmlns="http://www.w3.org/2000/svg" xmlns:xlink="http://www.w3.org/1999/xlink" clip-rule="evenodd" stroke-miterlimit="10" viewBox="0 0 297 55"><desc>SVG generated by Keynote</desc><defs></defs><g transform="matrix(1.00, 0.00, -0.00, -1.00, 0.0, 55.0)"><text xml:space="preserve" font-family="Helvetica,Helvetica" font-size="41.2" fill="#000000" transform="matrix(1.00, 0.00, -0.00, -1.00, 0.0, 21.4)">-</text><text xml:space="preserve" font-family="Helvetica,Helvetica" font-size="24.1" fill="#000000" transform="matrix(1.00, 0.00, -0.00, -1.00, 38.7, 27.0)">C</text><text xml:space="preserve" font-family="Helvetica,Helvetica" font-size="24.1" fill="#000000" transform="matrix(1.00, 0.00, -0.00, -1.00, 56.1, 27.0)">M</text><text xml:space="preserve" font-family="Helvetica,Helvetica" font-size="24.1" fill="#000000" transform="matrix(1.00, 0.00, -0.00, -1.00, 76.2, 27.0)">G</text><text xml:space="preserve" font-family="Helvetica,Helvetica" font-size="24.1" fill="#000000" transform="matrix(1.00, 0.00, -0.00, -1.00, 94.9, 27.0)">y</text><text xml:space="preserve" font-family="Helvetica,Helvetica" font-size="24.1" fill="#000000" transform="matrix(1.00, 0.00, -0.00, -1.00, 106.9, 27.0)">r</text><text xml:space="preserve" font-family="Helvetica,Helvetica" font-size="24.1" fill="#000000" transform="matrix(1.00, 0.00, -0.00, -1.00, 114.9, 27.0)">o</text><text xml:space="preserve" font-family="Helvetica,Helvetica" font-size="24.1" fill="#000000" transform="matrix(1.00, 0.00, -0.00, -1.00, 128.3, 27.0)">D</text><text xml:space="preserve" font-family="Helvetica,Helvetica" font-size="24.1" fill="#000000" transform="matrix(1.00, 0.00, -0.00, -1.00, 145.7, 27.0)">a</text><text xml:space="preserve" font-family="Helvetica,Helvetica" font-size="24.1" fill="#000000" transform="matrix(1.00, 0.00, -0.00, -1.00, 159.1, 27.0)">t</text><text xml:space="preserve" font-family="Helvetica,Helvetica" font-size="24.1" fill="#000000" transform="matrix(1.00, 0.00, -0.00, -1.00, 165.8, 27.0)">a</text><text xml:space="preserve" font-family="Helvetica,Helvetica" font-size="24.1" fill="#000000" transform="matrix(1.00, 0.00, -0.00, -1.00, 179.2, 27.0)"> </text><text xml:space="preserve" font-family="Helvetica,Helvetica" font-size="24.1" fill="#000000" transform="matrix(1.00, 0.00, -0.00, -1.00, 185.9, 27.0)">R</text><text xml:space="preserve" font-family="Helvetica,Helvetica" font-size="24.1" fill="#000000" transform="matrix(1.00, 0.00, -0.00, -1.00, 203.3, 27.0)">e</text><text xml:space="preserve" font-family="Helvetica,Helvetica" font-size="24.1" fill="#000000" transform="matrix(1.00, 0.00, -0.00, -1.00, 216.7, 27.0)">f</text><text xml:space="preserve" font-family="Helvetica,Helvetica" font-size="24.1" fill="#000000" transform="matrix(1.00, 0.00, -0.00, -1.00, 223.4, 27.0)">e</text><text xml:space="preserve" font-family="Helvetica,Helvetica" font-size="24.1" fill="#000000" transform="matrix(1.00, 0.00, -0.00, -1.00, 236.8, 27.0)">r</text><text xml:space="preserve" font-family="Helvetica,Helvetica" font-size="24.1" fill="#000000" transform="matrix(1.00, 0.00, -0.00, -1.00, 244.8, 27.0)">e</text><text xml:space="preserve" font-family="Helvetica,Helvetica" font-size="24.1" fill="#000000" transform="matrix(1.00, 0.00, -0.00, -1.00, 258.2, 27.0)">n</text><text xml:space="preserve" font-family="Helvetica,Helvetica" font-size="24.1" fill="#000000" transform="matrix(1.00, 0.00, -0.00, -1.00, 271.6, 27.0)">c</text><text xml:space="preserve" font-family="Helvetica,Helvetica" font-size="24.1" fill="#000000" transform="matrix(1.00, 0.00, -0.00, -1.00, 283.6, 27.0)">e</text><g><clipPath id="clip0x6080100ba760"><path d="M 37.7 23.6 L 297.0 23.6 L 297.0 26.7 L 37.7 26.7 Z M 37.7 23.6 "></path></clipPath><g clip-path="url(#clip0x6080100ba760)"><path d="M 102.7 233.8 L 361.0 233.8 " fill="none" stroke="#000000" stroke-width="1.19" transform="matrix(1.00, 0.00, 0.00, -1.00, -64.0, 259.0)"></path></g></g></g></svg>