<?xml version="1.0" encoding="UTF-8" standalone="no"?><svg xmlns="http://www.w3.org/2000/svg" xmlns:xlink="http://www.w3.org/1999/xlink" clip-rule="evenodd" stroke-miterlimit="10" viewBox="0 0 422 45"><desc>SVG generated by Keynote</desc><defs></defs><g transform="matrix(1.00, 0.00, -0.00, -1.00, 0.0, 45.0)"><text xml:space="preserve" font-family="Helvetica,Helvetica" font-size="44.1" fill="#000000" transform="matrix(1.00, 0.00, -0.00, -1.00, 0.0, 9.0)">•</text><text xml:space="preserve" font-family="Helvetica,Helvetica" font-size="25.8" fill="#000000" transform="matrix(1.00, 0.00, -0.00, -1.00, 38.7, 15.8)">W</text><text xml:space="preserve" font-family="Helvetica,Helvetica" font-size="25.8" fill="#000000" transform="matrix(1.00, 0.00, -0.00, -1.00, 63.0, 15.8)">W</text><text xml:space="preserve" font-family="Helvetica,Helvetica" font-size="25.8" fill="#000000" transform="matrix(1.00, 0.00, -0.00, -1.00, 87.4, 15.8)">D</text><text xml:space="preserve" font-family="Helvetica,Helvetica" font-size="25.8" fill="#000000" transform="matrix(1.00, 0.00, -0.00, -1.00, 106.0, 15.8)">C</text><text xml:space="preserve" font-family="Helvetica,Helvetica" font-size="25.8" fill="#000000" transform="matrix(1.00, 0.00, -0.00, -1.00, 124.7, 15.8)"> </text><text xml:space="preserve" font-family="Helvetica,Helvetica" font-size="25.8" fill="#000000" transform="matrix(1.00, 0.00, -0.00, -1.00, 131.8, 15.8)">V</text><text xml:space="preserve" font-family="Helvetica,Helvetica" font-size="25.8" fill="#000000" transform="matrix(1.00, 0.00, -0.00, -1.00, 148.6, 15.8)">i</text><text xml:space="preserve" font-family="Helvetica,Helvetica" font-size="25.8" fill="#000000" transform="matrix(1.00, 0.00, -0.00, -1.00, 154.3, 15.8)">d</text><text xml:space="preserve" font-family="Helvetica,Helvetica" font-size="25.8" fill="#000000" transform="matrix(1.00, 0.00, -0.00, -1.00, 168.7, 15.8)">e</text><text xml:space="preserve" font-family="Helvetica,Helvetica" font-size="25.8" fill="#000000" transform="matrix(1.00, 0.00, -0.00, -1.00, 183.0, 15.8)">o</text><text xml:space="preserve" font-family="Helvetica,Helvetica" font-size="25.8" fill="#000000" transform="matrix(1.00, 0.00, -0.00, -1.00, 197.4, 15.8)">s</text><text xml:space="preserve" font-family="Helvetica,Helvetica" font-size="25.8" fill="#000000" transform="matrix(1.00, 0.00, -0.00, -1.00, 210.3, 15.8)"> </text><text xml:space="preserve" font-family="Helvetica,Helvetica" font-size="25.8" fill="#000000" transform="matrix(1.00, 0.00, -0.00, -1.00, 217.4, 15.8)">a</text><text xml:space="preserve" font-family="Helvetica,Helvetica" font-size="25.8" fill="#000000" transform="matrix(1.00, 0.00, -0.00, -1.00, 231.8, 15.8)">b</text><text xml:space="preserve" font-family="Helvetica,Helvetica" font-size="25.8" fill="#000000" transform="matrix(1.00, 0.00, -0.00, -1.00, 246.2, 15.8)">o</text><text xml:space="preserve" font-family="Helvetica,Helvetica" font-size="25.8" fill="#000000" transform="matrix(1.00, 0.00, -0.00, -1.00, 260.5, 15.8)">u</text><text xml:space="preserve" font-family="Helvetica,Helvetica" font-size="25.8" fill="#000000" transform="matrix(1.00, 0.00, -0.00, -1.00, 274.9, 15.8)">t</text><text xml:space="preserve" font-family="Helvetica,Helvetica" font-size="25.8" fill="#000000" transform="matrix(1.00, 0.00, -0.00, -1.00, 282.0, 15.8)"> </text><text xml:space="preserve" font-family="Helvetica,Helvetica" font-size="25.8" fill="#000000" transform="matrix(1.00, 0.00, -0.00, -1.00, 289.2, 15.8)">C</text><text xml:space="preserve" font-family="Helvetica,Helvetica" font-size="25.8" fill="#000000" transform="matrix(1.00, 0.00, -0.00, -1.00, 307.8, 15.8)">o</text><text xml:space="preserve" font-family="Helvetica,Helvetica" font-size="25.8" fill="#000000" transform="matrix(1.00, 0.00, -0.00, -1.00, 322.2, 15.8)">r</text><text xml:space="preserve" font-family="Helvetica,Helvetica" font-size="25.8" fill="#000000" transform="matrix(1.00, 0.00, -0.00, -1.00, 330.8, 15.8)">e</text><text xml:space="preserve" font-family="Helvetica,Helvetica" font-size="25.8" fill="#000000" transform="matrix(1.00, 0.00, -0.00, -1.00, 345.1, 15.8)">M</text><text xml:space="preserve" font-family="Helvetica,Helvetica" font-size="25.8" fill="#000000" transform="matrix(1.00, 0.00, -0.00, -1.00, 366.6, 15.8)">o</text><text xml:space="preserve" font-family="Helvetica,Helvetica" font-size="25.8" fill="#000000" transform="matrix(1.00, 0.00, -0.00, -1.00, 381.0, 15.8)">t</text><text xml:space="preserve" font-family="Helvetica,Helvetica" font-size="25.8" fill="#000000" transform="matrix(1.00, 0.00, -0.00, -1.00, 388.1, 15.8)">i</text><text xml:space="preserve" font-family="Helvetica,Helvetica" font-size="25.8" fill="#000000" transform="matrix(1.00, 0.00, -0.00, -1.00, 393.9, 15.8)">o</text><text xml:space="preserve" font-family="Helvetica,Helvetica" font-size="25.8" fill="#000000" transform="matrix(1.00, 0.00, -0.00, -1.00, 408.2, 15.8)">n</text></g></svg>