<?xml version="1.0" encoding="UTF-8" standalone="no"?><svg xmlns="http://www.w3.org/2000/svg" xmlns:xlink="http://www.w3.org/1999/xlink" clip-rule="evenodd" stroke-miterlimit="10" viewBox="0 0 193 22"><desc>SVG generated by Keynote</desc><defs></defs><g transform="matrix(1.00, 0.00, -0.00, -1.00, 0.0, 22.0)"><text xml:space="preserve" font-family="Helvetica-Bold,Helvetica" font-weight="bold" font-size="20.0" fill="#000000" transform="matrix(1.00, 0.00, -0.00, -1.00, 0.6, 5.6)">O</text><text xml:space="preserve" font-family="Helvetica-Bold,Helvetica" font-weight="bold" font-size="20.0" fill="#000000" transform="matrix(1.00, 0.00, -0.00, -1.00, 16.2, 5.6)">p</text><text xml:space="preserve" font-family="Helvetica-Bold,Helvetica" font-weight="bold" font-size="20.0" fill="#000000" transform="matrix(1.00, 0.00, -0.00, -1.00, 28.4, 5.6)">e</text><text xml:space="preserve" font-family="Helvetica-Bold,Helvetica" font-weight="bold" font-size="20.0" fill="#000000" transform="matrix(1.00, 0.00, -0.00, -1.00, 39.5, 5.6)">n</text><text xml:space="preserve" font-family="Helvetica-Bold,Helvetica" font-weight="bold" font-size="20.0" fill="#000000" transform="matrix(1.00, 0.00, -0.00, -1.00, 51.7, 5.6)"> </text><text xml:space="preserve" font-family="Helvetica-Bold,Helvetica" font-weight="bold" font-size="20.0" fill="#000000" transform="matrix(1.00, 0.00, -0.00, -1.00, 57.3, 5.6)">T</text><text xml:space="preserve" font-family="Helvetica-Bold,Helvetica" font-weight="bold" font-size="20.0" fill="#000000" transform="matrix(1.00, 0.00, -0.00, -1.00, 68.4, 5.6)">r</text><text xml:space="preserve" font-family="Helvetica-Bold,Helvetica" font-weight="bold" font-size="20.0" fill="#000000" transform="matrix(1.00, 0.00, -0.00, -1.00, 76.2, 5.6)">i</text><text xml:space="preserve" font-family="Helvetica-Bold,Helvetica" font-weight="bold" font-size="20.0" fill="#000000" transform="matrix(1.00, 0.00, -0.00, -1.00, 81.7, 5.6)">a</text><text xml:space="preserve" font-family="Helvetica-Bold,Helvetica" font-weight="bold" font-size="20.0" fill="#000000" transform="matrix(1.00, 0.00, -0.00, -1.00, 92.8, 5.6)">n</text><text xml:space="preserve" font-family="Helvetica-Bold,Helvetica" font-weight="bold" font-size="20.0" fill="#000000" transform="matrix(1.00, 0.00, -0.00, -1.00, 105.0, 5.6)">g</text><text xml:space="preserve" font-family="Helvetica-Bold,Helvetica" font-weight="bold" font-size="20.0" fill="#000000" transform="matrix(1.00, 0.00, -0.00, -1.00, 117.2, 5.6)">l</text><text xml:space="preserve" font-family="Helvetica-Bold,Helvetica" font-weight="bold" font-size="20.0" fill="#000000" transform="matrix(1.00, 0.00, -0.00, -1.00, 122.8, 5.6)">e</text><text xml:space="preserve" font-family="Helvetica-Bold,Helvetica" font-weight="bold" font-size="20.0" fill="#000000" transform="matrix(1.00, 0.00, -0.00, -1.00, 133.9, 5.6)"> </text><text xml:space="preserve" font-family="Helvetica-Bold,Helvetica" font-weight="bold" font-size="20.0" fill="#000000" transform="matrix(1.00, 0.00, -0.00, -1.00, 139.5, 5.6)">a</text><text xml:space="preserve" font-family="Helvetica-Bold,Helvetica" font-weight="bold" font-size="20.0" fill="#000000" transform="matrix(1.00, 0.00, -0.00, -1.00, 150.6, 5.6)">g</text><text xml:space="preserve" font-family="Helvetica-Bold,Helvetica" font-weight="bold" font-size="20.0" fill="#000000" transform="matrix(1.00, 0.00, -0.00, -1.00, 162.8, 5.6)">a</text><text xml:space="preserve" font-family="Helvetica-Bold,Helvetica" font-weight="bold" font-size="20.0" fill="#000000" transform="matrix(1.00, 0.00, -0.00, -1.00, 173.9, 5.6)">i</text><text xml:space="preserve" font-family="Helvetica-Bold,Helvetica" font-weight="bold" font-size="20.0" fill="#000000" transform="matrix(1.00, 0.00, -0.00, -1.00, 179.5, 5.6)">n</text></g></svg>