<?xml version="1.0" encoding="UTF-8" standalone="no"?><svg xmlns="http://www.w3.org/2000/svg" xmlns:xlink="http://www.w3.org/1999/xlink" clip-rule="evenodd" stroke-miterlimit="10" viewBox="0 0 679 23"><desc>SVG generated by Keynote</desc><defs></defs><g transform="matrix(1.00, 0.00, -0.00, -1.00, 0.0, 23.0)"><text xml:space="preserve" font-family="Menlo-Regular,Menlo" font-size="20.0" fill="#000000" transform="matrix(1.00, 0.00, -0.00, -1.00, -4.0, 5.7)">[</text><text xml:space="preserve" font-family="Menlo-Regular,Menlo" font-size="20.0" fill="#000000" transform="matrix(1.00, 0.00, -0.00, -1.00, 8.0, 5.7)">a</text><text xml:space="preserve" font-family="Menlo-Regular,Menlo" font-size="20.0" fill="#000000" transform="matrix(1.00, 0.00, -0.00, -1.00, 20.1, 5.7)">t</text><text xml:space="preserve" font-family="Menlo-Regular,Menlo" font-size="20.0" fill="#000000" transform="matrix(1.00, 0.00, -0.00, -1.00, 32.1, 5.7)">t</text><text xml:space="preserve" font-family="Menlo-Regular,Menlo" font-size="20.0" fill="#000000" transform="matrix(1.00, 0.00, -0.00, -1.00, 44.2, 5.7)">i</text><text xml:space="preserve" font-family="Menlo-Regular,Menlo" font-size="20.0" fill="#000000" transform="matrix(1.00, 0.00, -0.00, -1.00, 56.2, 5.7)">t</text><text xml:space="preserve" font-family="Menlo-Regular,Menlo" font-size="20.0" fill="#000000" transform="matrix(1.00, 0.00, -0.00, -1.00, 68.3, 5.7)">u</text><text xml:space="preserve" font-family="Menlo-Regular,Menlo" font-size="20.0" fill="#000000" transform="matrix(1.00, 0.00, -0.00, -1.00, 80.3, 5.7)">d</text><text xml:space="preserve" font-family="Menlo-Regular,Menlo" font-size="20.0" fill="#000000" transform="matrix(1.00, 0.00, -0.00, -1.00, 92.3, 5.7)">e</text><text xml:space="preserve" font-family="Menlo-Regular,Menlo" font-size="20.0" fill="#000000" transform="matrix(1.00, 0.00, -0.00, -1.00, 104.4, 5.7)"> </text><text xml:space="preserve" font-family="Menlo-Regular,Menlo" font-size="20.0" fill="#3D1D81" transform="matrix(1.00, 0.00, -0.00, -1.00, 116.4, 5.7)">m</text><text xml:space="preserve" font-family="Menlo-Regular,Menlo" font-size="20.0" fill="#3D1D81" transform="matrix(1.00, 0.00, -0.00, -1.00, 128.5, 5.7)">u</text><text xml:space="preserve" font-family="Menlo-Regular,Menlo" font-size="20.0" fill="#3D1D81" transform="matrix(1.00, 0.00, -0.00, -1.00, 140.5, 5.7)">l</text><text xml:space="preserve" font-family="Menlo-Regular,Menlo" font-size="20.0" fill="#3D1D81" transform="matrix(1.00, 0.00, -0.00, -1.00, 152.5, 5.7)">t</text><text xml:space="preserve" font-family="Menlo-Regular,Menlo" font-size="20.0" fill="#3D1D81" transform="matrix(1.00, 0.00, -0.00, -1.00, 164.6, 5.7)">i</text><text xml:space="preserve" font-family="Menlo-Regular,Menlo" font-size="20.0" fill="#3D1D81" transform="matrix(1.00, 0.00, -0.00, -1.00, 176.6, 5.7)">p</text><text xml:space="preserve" font-family="Menlo-Regular,Menlo" font-size="20.0" fill="#3D1D81" transform="matrix(1.00, 0.00, -0.00, -1.00, 188.7, 5.7)">l</text><text xml:space="preserve" font-family="Menlo-Regular,Menlo" font-size="20.0" fill="#3D1D81" transform="matrix(1.00, 0.00, -0.00, -1.00, 200.7, 5.7)">y</text><text xml:space="preserve" font-family="Menlo-Regular,Menlo" font-size="20.0" fill="#3D1D81" transform="matrix(1.00, 0.00, -0.00, -1.00, 212.8, 5.7)">B</text><text xml:space="preserve" font-family="Menlo-Regular,Menlo" font-size="20.0" fill="#3D1D81" transform="matrix(1.00, 0.00, -0.00, -1.00, 224.8, 5.7)">y</text><text xml:space="preserve" font-family="Menlo-Regular,Menlo" font-size="20.0" fill="#3D1D81" transform="matrix(1.00, 0.00, -0.00, -1.00, 236.8, 5.7)">I</text><text xml:space="preserve" font-family="Menlo-Regular,Menlo" font-size="20.0" fill="#3D1D81" transform="matrix(1.00, 0.00, -0.00, -1.00, 248.9, 5.7)">n</text><text xml:space="preserve" font-family="Menlo-Regular,Menlo" font-size="20.0" fill="#3D1D81" transform="matrix(1.00, 0.00, -0.00, -1.00, 260.9, 5.7)">v</text><text xml:space="preserve" font-family="Menlo-Regular,Menlo" font-size="20.0" fill="#3D1D81" transform="matrix(1.00, 0.00, -0.00, -1.00, 273.0, 5.7)">e</text><text xml:space="preserve" font-family="Menlo-Regular,Menlo" font-size="20.0" fill="#3D1D81" transform="matrix(1.00, 0.00, -0.00, -1.00, 285.0, 5.7)">r</text><text xml:space="preserve" font-family="Menlo-Regular,Menlo" font-size="20.0" fill="#3D1D81" transform="matrix(1.00, 0.00, -0.00, -1.00, 297.1, 5.7)">s</text><text xml:space="preserve" font-family="Menlo-Regular,Menlo" font-size="20.0" fill="#3D1D81" transform="matrix(1.00, 0.00, -0.00, -1.00, 309.1, 5.7)">e</text><text xml:space="preserve" font-family="Menlo-Regular,Menlo" font-size="20.0" fill="#3D1D81" transform="matrix(1.00, 0.00, -0.00, -1.00, 321.1, 5.7)">O</text><text xml:space="preserve" font-family="Menlo-Regular,Menlo" font-size="20.0" fill="#3D1D81" transform="matrix(1.00, 0.00, -0.00, -1.00, 333.2, 5.7)">f</text><text xml:space="preserve" font-family="Menlo-Regular,Menlo" font-size="20.0" fill="#3D1D81" transform="matrix(1.00, 0.00, -0.00, -1.00, 345.2, 5.7)">A</text><text xml:space="preserve" font-family="Menlo-Regular,Menlo" font-size="20.0" fill="#3D1D81" transform="matrix(1.00, 0.00, -0.00, -1.00, 357.3, 5.7)">t</text><text xml:space="preserve" font-family="Menlo-Regular,Menlo" font-size="20.0" fill="#3D1D81" transform="matrix(1.00, 0.00, -0.00, -1.00, 369.3, 5.7)">t</text><text xml:space="preserve" font-family="Menlo-Regular,Menlo" font-size="20.0" fill="#3D1D81" transform="matrix(1.00, 0.00, -0.00, -1.00, 381.4, 5.7)">i</text><text xml:space="preserve" font-family="Menlo-Regular,Menlo" font-size="20.0" fill="#3D1D81" transform="matrix(1.00, 0.00, -0.00, -1.00, 393.4, 5.7)">t</text><text xml:space="preserve" font-family="Menlo-Regular,Menlo" font-size="20.0" fill="#3D1D81" transform="matrix(1.00, 0.00, -0.00, -1.00, 405.4, 5.7)">u</text><text xml:space="preserve" font-family="Menlo-Regular,Menlo" font-size="20.0" fill="#3D1D81" transform="matrix(1.00, 0.00, -0.00, -1.00, 417.5, 5.7)">d</text><text xml:space="preserve" font-family="Menlo-Regular,Menlo" font-size="20.0" fill="#3D1D81" transform="matrix(1.00, 0.00, -0.00, -1.00, 429.5, 5.7)">e</text><text xml:space="preserve" font-family="Menlo-Regular,Menlo" font-size="20.0" fill="#000000" transform="matrix(1.00, 0.00, -0.00, -1.00, 441.5, 5.7)">:</text><text xml:space="preserve" font-family="Menlo-Regular,Menlo" font-size="20.0" fill="#4E8087" transform="matrix(1.00, 0.00, -0.00, -1.00, 453.6, 5.7)">r</text><text xml:space="preserve" font-family="Menlo-Regular,Menlo" font-size="20.0" fill="#4E8087" transform="matrix(1.00, 0.00, -0.00, -1.00, 465.6, 5.7)">e</text><text xml:space="preserve" font-family="Menlo-Regular,Menlo" font-size="20.0" fill="#4E8087" transform="matrix(1.00, 0.00, -0.00, -1.00, 477.6, 5.7)">f</text><text xml:space="preserve" font-family="Menlo-Regular,Menlo" font-size="20.0" fill="#4E8087" transform="matrix(1.00, 0.00, -0.00, -1.00, 489.7, 5.7)">e</text><text xml:space="preserve" font-family="Menlo-Regular,Menlo" font-size="20.0" fill="#4E8087" transform="matrix(1.00, 0.00, -0.00, -1.00, 501.7, 5.7)">r</text><text xml:space="preserve" font-family="Menlo-Regular,Menlo" font-size="20.0" fill="#4E8087" transform="matrix(1.00, 0.00, -0.00, -1.00, 513.8, 5.7)">e</text><text xml:space="preserve" font-family="Menlo-Regular,Menlo" font-size="20.0" fill="#4E8087" transform="matrix(1.00, 0.00, -0.00, -1.00, 525.8, 5.7)">n</text><text xml:space="preserve" font-family="Menlo-Regular,Menlo" font-size="20.0" fill="#4E8087" transform="matrix(1.00, 0.00, -0.00, -1.00, 537.9, 5.7)">c</text><text xml:space="preserve" font-family="Menlo-Regular,Menlo" font-size="20.0" fill="#4E8087" transform="matrix(1.00, 0.00, -0.00, -1.00, 549.9, 5.7)">e</text><text xml:space="preserve" font-family="Menlo-Regular,Menlo" font-size="20.0" fill="#4E8087" transform="matrix(1.00, 0.00, -0.00, -1.00, 561.9, 5.7)">A</text><text xml:space="preserve" font-family="Menlo-Regular,Menlo" font-size="20.0" fill="#4E8087" transform="matrix(1.00, 0.00, -0.00, -1.00, 574.0, 5.7)">t</text><text xml:space="preserve" font-family="Menlo-Regular,Menlo" font-size="20.0" fill="#4E8087" transform="matrix(1.00, 0.00, -0.00, -1.00, 586.0, 5.7)">t</text><text xml:space="preserve" font-family="Menlo-Regular,Menlo" font-size="20.0" fill="#4E8087" transform="matrix(1.00, 0.00, -0.00, -1.00, 598.1, 5.7)">i</text><text xml:space="preserve" font-family="Menlo-Regular,Menlo" font-size="20.0" fill="#4E8087" transform="matrix(1.00, 0.00, -0.00, -1.00, 610.1, 5.7)">t</text><text xml:space="preserve" font-family="Menlo-Regular,Menlo" font-size="20.0" fill="#4E8087" transform="matrix(1.00, 0.00, -0.00, -1.00, 622.2, 5.7)">u</text><text xml:space="preserve" font-family="Menlo-Regular,Menlo" font-size="20.0" fill="#4E8087" transform="matrix(1.00, 0.00, -0.00, -1.00, 634.2, 5.7)">d</text><text xml:space="preserve" font-family="Menlo-Regular,Menlo" font-size="20.0" fill="#4E8087" transform="matrix(1.00, 0.00, -0.00, -1.00, 646.2, 5.7)">e</text><text xml:space="preserve" font-family="Menlo-Regular,Menlo" font-size="20.0" fill="#000000" transform="matrix(1.00, 0.00, -0.00, -1.00, 658.3, 5.7)">]</text><text xml:space="preserve" font-family="Menlo-Regular,Menlo" font-size="20.0" fill="#000000" transform="matrix(1.00, 0.00, -0.00, -1.00, 670.3, 5.7)">;</text></g></svg>