<?xml version="1.0" encoding="UTF-8" standalone="no"?><svg xmlns="http://www.w3.org/2000/svg" xmlns:xlink="http://www.w3.org/1999/xlink" clip-rule="evenodd" stroke-miterlimit="10" viewBox="0 0 368 496"><desc>SVG generated by Keynote</desc><defs></defs><g transform="matrix(1.00, 0.00, -0.00, -1.00, 0.0, 496.0)"><g><clipPath id="clip0x6000044ba4c0"><path d="M 31.1 11.7 C 29.3 12.2 27.8 16.3 24.3 30.6 C 23.3 34.7 22.1 38.5 21.7 39.0 C 20.3 40.5 18.6 34.8 18.6 29.0 C 18.6 26.2 18.2 23.6 17.7 23.3 C 16.9 22.8 10.0 50.8 10.1 54.2 C 10.1 54.9 12.5 57.2 15.4 59.4 C 18.3 61.6 20.7 63.7 20.7 64.1 C 20.7 64.5 19.1 65.9 17.0 67.1 C 11.1 70.8 9.1 74.0 10.2 78.0 C 10.8 79.9 13.6 92.4 16.6 105.8 C 25.3 145.8 25.7 147.3 30.8 169.9 C 33.5 181.9 37.3 198.8 39.2 207.5 C 41.2 216.3 45.7 236.3 49.2 252.0 C 52.8 267.8 57.4 288.0 59.4 297.1 C 61.4 306.1 66.2 327.3 70.0 344.2 C 73.8 361.1 78.1 380.2 79.5 386.6 C 83.2 403.1 93.0 446.4 97.0 464.1 C 100.9 480.9 101.0 481.0 110.9 482.2 C 120.4 483.3 128.1 476.5 131.9 463.6 C 132.9 460.3 134.1 457.6 134.6 457.6 C 135.1 457.6 136.1 460.0 136.7 463.0 C 138.2 469.7 142.5 477.1 146.9 480.9 C 150.7 484.0 160.0 489.0 163.2 489.6 C 168.2 490.6 323.3 491.8 325.0 490.9 C 326.0 490.4 328.2 489.9 329.8 489.9 C 331.5 489.9 335.9 488.9 339.7 487.6 C 344.8 485.9 347.8 484.0 351.9 479.9 C 359.2 472.6 361.8 465.5 363.0 449.7 C 364.2 434.0 364.2 126.1 363.0 108.3 C 362.0 93.0 360.2 86.8 355.0 79.6 C 351.0 74.2 342.5 68.7 336.5 67.6 C 332.4 66.8 329.8 65.3 330.6 64.0 C 330.9 63.5 333.2 62.9 335.7 62.5 C 346.6 60.8 357.0 51.2 360.2 39.5 C 362.2 32.4 362.3 31.1 360.6 31.4 C 359.9 31.5 358.2 34.7 356.9 38.5 C 352.6 51.0 343.3 57.7 327.2 59.8 C 314.3 61.5 168.9 60.6 162.7 58.7 C 152.7 55.7 144.7 48.5 141.6 39.6 C 140.4 36.3 138.9 33.8 137.9 33.7 C 135.7 33.4 135.8 34.1 138.4 41.0 C 142.7 52.7 149.8 59.2 161.2 62.1 C 164.1 62.8 166.7 63.9 166.8 64.5 C 167.0 65.1 164.2 66.6 160.5 67.8 C 143.5 73.7 137.0 83.6 135.2 106.2 C 134.6 113.0 134.1 183.9 134.0 263.7 C 133.8 345.8 133.3 409.7 132.8 410.7 C 131.4 413.6 130.2 412.1 129.5 406.5 C 129.0 401.5 123.0 373.7 115.6 341.9 C 113.6 333.3 111.3 322.6 110.3 318.3 C 109.4 313.9 107.1 303.2 105.1 294.4 C 101.2 277.5 87.4 216.4 76.3 167.2 C 64.6 114.9 56.6 91.5 45.7 77.0 C 42.6 72.8 40.3 69.1 40.7 68.8 C 41.0 68.4 40.6 68.4 39.8 68.7 C 38.9 69.0 36.8 68.1 35.0 66.6 L 31.8 63.9 L 34.5 62.2 C 39.7 58.7 47.0 50.4 50.7 43.7 C 55.0 36.1 61.0 19.1 61.0 14.7 L 61.0 12.0 L 52.4 12.0 C 45.0 12.5 43.4 13.3 40.9 15.7 C 37.8 18.7 36.6 18.4 36.6 14.6 C 36.6 12.8 34.2 10.4 33.1 11.1 C 33.0 11.2 32.1 11.5 31.1 11.7 M 234.5 12.4 C 231.7 13.4 146.6 13.7 144.9 12.7 C 143.1 11.6 142.2 18.7 143.0 27.2 C 144.5 41.5 150.4 50.1 161.8 54.0 C 167.1 55.9 172.0 56.0 249.0 56.0 C 326.1 56.0 330.9 55.9 336.3 54.0 C 350.4 49.2 355.6 39.2 355.0 16.3 L 354.0 12.0 L 330.4 12.0 C 317.1 12.1 296.8 12.2 285.3 12.6 C 270.8 13.1 263.5 13.0 261.5 12.2 C 259.6 11.4 256.4 11.3 252.4 11.9 C 249.1 12.4 246.1 12.4 245.8 11.9 C 245.1 10.9 237.7 11.2 234.5 12.4 "></path></clipPath><g clip-path="url(#clip0x6000044ba4c0)"><image xlink:href="../../598E160D-A143-4303-8668-E071A13DCA1F/assets/85B7B6ED0E82EBD253B72E63E56A13D0.jpeg" width="344.00" height="465.00" transform="matrix(1.06, 0.00, -0.00, -1.06, 1.6, 494.2)"></image></g></g></g></svg>