<?xml version="1.0" encoding="UTF-8" standalone="no"?><svg xmlns="http://www.w3.org/2000/svg" xmlns:xlink="http://www.w3.org/1999/xlink" clip-rule="evenodd" stroke-miterlimit="10" viewBox="0 0 238 22"><desc>SVG generated by Keynote</desc><defs></defs><g transform="matrix(1.00, 0.00, -0.00, -1.00, 0.0, 22.0)"><text xml:space="preserve" font-family="Menlo-Regular,Menlo" font-size="20.0" fill="#4E8087" transform="matrix(1.00, 0.00, -0.00, -1.00, 0.0, 5.7)">m</text><text xml:space="preserve" font-family="Menlo-Regular,Menlo" font-size="20.0" fill="#4E8087" transform="matrix(1.00, 0.00, -0.00, -1.00, 12.0, 5.7)">o</text><text xml:space="preserve" font-family="Menlo-Regular,Menlo" font-size="20.0" fill="#4E8087" transform="matrix(1.00, 0.00, -0.00, -1.00, 24.1, 5.7)">t</text><text xml:space="preserve" font-family="Menlo-Regular,Menlo" font-size="20.0" fill="#4E8087" transform="matrix(1.00, 0.00, -0.00, -1.00, 36.1, 5.7)">i</text><text xml:space="preserve" font-family="Menlo-Regular,Menlo" font-size="20.0" fill="#4E8087" transform="matrix(1.00, 0.00, -0.00, -1.00, 48.2, 5.7)">o</text><text xml:space="preserve" font-family="Menlo-Regular,Menlo" font-size="20.0" fill="#4E8087" transform="matrix(1.00, 0.00, -0.00, -1.00, 60.2, 5.7)">n</text><text xml:space="preserve" font-family="Menlo-Regular,Menlo" font-size="20.0" fill="#4E8087" transform="matrix(1.00, 0.00, -0.00, -1.00, 72.3, 5.7)">M</text><text xml:space="preserve" font-family="Menlo-Regular,Menlo" font-size="20.0" fill="#4E8087" transform="matrix(1.00, 0.00, -0.00, -1.00, 84.3, 5.7)">a</text><text xml:space="preserve" font-family="Menlo-Regular,Menlo" font-size="20.0" fill="#4E8087" transform="matrix(1.00, 0.00, -0.00, -1.00, 96.3, 5.7)">n</text><text xml:space="preserve" font-family="Menlo-Regular,Menlo" font-size="20.0" fill="#4E8087" transform="matrix(1.00, 0.00, -0.00, -1.00, 108.4, 5.7)">a</text><text xml:space="preserve" font-family="Menlo-Regular,Menlo" font-size="20.0" fill="#4E8087" transform="matrix(1.00, 0.00, -0.00, -1.00, 120.4, 5.7)">g</text><text xml:space="preserve" font-family="Menlo-Regular,Menlo" font-size="20.0" fill="#4E8087" transform="matrix(1.00, 0.00, -0.00, -1.00, 132.5, 5.7)">e</text><text xml:space="preserve" font-family="Menlo-Regular,Menlo" font-size="20.0" fill="#4E8087" transform="matrix(1.00, 0.00, -0.00, -1.00, 144.5, 5.7)">r</text><text xml:space="preserve" font-family="Menlo-Regular,Menlo" font-size="20.0" fill="#000000" transform="matrix(1.00, 0.00, -0.00, -1.00, 156.5, 5.7)"> </text><text xml:space="preserve" font-family="Menlo-Regular,Menlo" font-size="20.0" fill="#000000" transform="matrix(1.00, 0.00, -0.00, -1.00, 168.6, 5.7)">=</text><text xml:space="preserve" font-family="Menlo-Regular,Menlo" font-size="20.0" fill="#000000" transform="matrix(1.00, 0.00, -0.00, -1.00, 180.6, 5.7)"> </text><text xml:space="preserve" font-family="Menlo-Regular,Menlo" font-size="20.0" fill="#BA2CA2" transform="matrix(1.00, 0.00, -0.00, -1.00, 192.7, 5.7)">n</text><text xml:space="preserve" font-family="Menlo-Regular,Menlo" font-size="20.0" fill="#BA2CA2" transform="matrix(1.00, 0.00, -0.00, -1.00, 204.7, 5.7)">i</text><text xml:space="preserve" font-family="Menlo-Regular,Menlo" font-size="20.0" fill="#BA2CA2" transform="matrix(1.00, 0.00, -0.00, -1.00, 216.7, 5.7)">l</text><text xml:space="preserve" font-family="Menlo-Regular,Menlo" font-size="20.0" fill="#000000" transform="matrix(1.00, 0.00, -0.00, -1.00, 228.8, 5.7)">;</text></g></svg>