<?xml version="1.0" encoding="UTF-8" standalone="no"?><svg xmlns="http://www.w3.org/2000/svg" xmlns:xlink="http://www.w3.org/1999/xlink" clip-rule="evenodd" stroke-miterlimit="10" viewBox="0 0 190 22"><desc>SVG generated by Keynote</desc><defs></defs><g transform="matrix(1.00, 0.00, -0.00, -1.00, 0.0, 22.0)"><text xml:space="preserve" font-family="Helvetica,Helvetica" font-size="24.0" fill="#000000" transform="matrix(1.00, 0.00, -0.00, -1.00, 0.3, 2.0)">C</text><text xml:space="preserve" font-family="Helvetica,Helvetica" font-size="24.0" fill="#000000" transform="matrix(1.00, 0.00, -0.00, -1.00, 17.6, 2.0)">l</text><text xml:space="preserve" font-family="Helvetica,Helvetica" font-size="24.0" fill="#000000" transform="matrix(1.00, 0.00, -0.00, -1.00, 23.0, 2.0)">o</text><text xml:space="preserve" font-family="Helvetica,Helvetica" font-size="24.0" fill="#000000" transform="matrix(1.00, 0.00, -0.00, -1.00, 36.3, 2.0)">s</text><text xml:space="preserve" font-family="Helvetica,Helvetica" font-size="24.0" fill="#000000" transform="matrix(1.00, 0.00, -0.00, -1.00, 48.3, 2.0)">e</text><text xml:space="preserve" font-family="Helvetica,Helvetica" font-size="24.0" fill="#000000" transform="matrix(1.00, 0.00, -0.00, -1.00, 61.7, 2.0)"> </text><text xml:space="preserve" font-family="Helvetica,Helvetica" font-size="24.0" fill="#000000" transform="matrix(1.00, 0.00, -0.00, -1.00, 68.3, 2.0)">C</text><text xml:space="preserve" font-family="Helvetica,Helvetica" font-size="24.0" fill="#000000" transform="matrix(1.00, 0.00, -0.00, -1.00, 85.7, 2.0)">o</text><text xml:space="preserve" font-family="Helvetica,Helvetica" font-size="24.0" fill="#000000" transform="matrix(1.00, 0.00, -0.00, -1.00, 99.0, 2.0)">n</text><text xml:space="preserve" font-family="Helvetica,Helvetica" font-size="24.0" fill="#000000" transform="matrix(1.00, 0.00, -0.00, -1.00, 112.4, 2.0)">n</text><text xml:space="preserve" font-family="Helvetica,Helvetica" font-size="24.0" fill="#000000" transform="matrix(1.00, 0.00, -0.00, -1.00, 125.7, 2.0)">e</text><text xml:space="preserve" font-family="Helvetica,Helvetica" font-size="24.0" fill="#000000" transform="matrix(1.00, 0.00, -0.00, -1.00, 139.1, 2.0)">c</text><text xml:space="preserve" font-family="Helvetica,Helvetica" font-size="24.0" fill="#000000" transform="matrix(1.00, 0.00, -0.00, -1.00, 151.1, 2.0)">t</text><text xml:space="preserve" font-family="Helvetica,Helvetica" font-size="24.0" fill="#000000" transform="matrix(1.00, 0.00, -0.00, -1.00, 157.7, 2.0)">i</text><text xml:space="preserve" font-family="Helvetica,Helvetica" font-size="24.0" fill="#000000" transform="matrix(1.00, 0.00, -0.00, -1.00, 163.1, 2.0)">o</text><text xml:space="preserve" font-family="Helvetica,Helvetica" font-size="24.0" fill="#000000" transform="matrix(1.00, 0.00, -0.00, -1.00, 176.4, 2.0)">n</text></g></svg>