<?xml version="1.0" encoding="UTF-8" standalone="no"?><svg xmlns="http://www.w3.org/2000/svg" xmlns:xlink="http://www.w3.org/1999/xlink" clip-rule="evenodd" stroke-miterlimit="10" viewBox="0 0 249 112"><desc>SVG generated by Keynote</desc><defs></defs><g transform="matrix(1.00, 0.00, -0.00, -1.00, 0.0, 112.0)"><path d="M 79.0 110.0 C 68.0 110.0 59.0 101.0 59.0 90.0 L 59.0 78.5 L 1.8 68.5 L 59.0 58.5 L 59.0 22.0 C 59.0 11.0 68.0 2.0 79.0 2.0 L 227.0 2.0 C 238.0 2.0 247.0 11.0 247.0 22.0 L 247.0 90.0 C 247.0 101.0 238.0 110.0 227.0 110.0 L 79.0 110.0 Z M 79.0 110.0 " fill="#F9ED9B"></path><path d="M 20.0 0.0 C 9.0 0.0 0.0 9.0 0.0 20.0 L 0.0 31.5 L -57.2 41.5 L 0.0 51.5 L 0.0 88.0 C 0.0 99.0 9.0 108.0 20.0 108.0 L 168.0 108.0 C 179.0 108.0 188.0 99.0 188.0 88.0 L 188.0 20.0 C 188.0 9.0 179.0 0.0 168.0 0.0 L 20.0 0.0 Z M 20.0 0.0 " fill="none" stroke="#000000" stroke-width="2.00" transform="matrix(1.00, 0.00, 0.00, -1.00, 59.0, 110.0)"></path></g></svg>