<?xml version="1.0" encoding="UTF-8" standalone="no"?><svg xmlns="http://www.w3.org/2000/svg" xmlns:xlink="http://www.w3.org/1999/xlink" clip-rule="evenodd" stroke-miterlimit="10" viewBox="0 0 212 23"><desc>SVG generated by Keynote</desc><defs></defs><g transform="matrix(1.00, 0.00, -0.00, -1.00, 0.0, 23.0)"><text xml:space="preserve" font-family="Monaco,Monaco" font-size="20.0" fill="#000000" transform="matrix(1.00, 0.00, -0.00, -1.00, -1.0, 5.7)">F</text><text xml:space="preserve" font-family="Monaco,Monaco" font-size="20.0" fill="#000000" transform="matrix(1.00, 0.00, -0.00, -1.00, 11.0, 5.7)">l</text><text xml:space="preserve" font-family="Monaco,Monaco" font-size="20.0" fill="#000000" transform="matrix(1.00, 0.00, -0.00, -1.00, 23.0, 5.7)">i</text><text xml:space="preserve" font-family="Monaco,Monaco" font-size="20.0" fill="#000000" transform="matrix(1.00, 0.00, -0.00, -1.00, 35.0, 5.7)">g</text><text xml:space="preserve" font-family="Monaco,Monaco" font-size="20.0" fill="#000000" transform="matrix(1.00, 0.00, -0.00, -1.00, 47.0, 5.7)">h</text><text xml:space="preserve" font-family="Monaco,Monaco" font-size="20.0" fill="#000000" transform="matrix(1.00, 0.00, -0.00, -1.00, 59.0, 5.7)">t</text><text xml:space="preserve" font-family="Monaco,Monaco" font-size="20.0" fill="#000000" transform="matrix(1.00, 0.00, -0.00, -1.00, 71.0, 5.7)">P</text><text xml:space="preserve" font-family="Monaco,Monaco" font-size="20.0" fill="#000000" transform="matrix(1.00, 0.00, -0.00, -1.00, 83.0, 5.7)">l</text><text xml:space="preserve" font-family="Monaco,Monaco" font-size="20.0" fill="#000000" transform="matrix(1.00, 0.00, -0.00, -1.00, 95.0, 5.7)">a</text><text xml:space="preserve" font-family="Monaco,Monaco" font-size="20.0" fill="#000000" transform="matrix(1.00, 0.00, -0.00, -1.00, 107.0, 5.7)">n</text><text xml:space="preserve" font-family="Monaco,Monaco" font-size="20.0" fill="#000000" transform="matrix(1.00, 0.00, -0.00, -1.00, 119.0, 5.7)">e</text><text xml:space="preserve" font-family="Monaco,Monaco" font-size="20.0" fill="#000000" transform="matrix(1.00, 0.00, -0.00, -1.00, 131.0, 5.7)"> </text><text xml:space="preserve" font-family="Monaco,Monaco" font-size="20.0" fill="#000000" transform="matrix(1.00, 0.00, -0.00, -1.00, 143.0, 5.7)">i</text><text xml:space="preserve" font-family="Monaco,Monaco" font-size="20.0" fill="#000000" transform="matrix(1.00, 0.00, -0.00, -1.00, 155.1, 5.7)">m</text><text xml:space="preserve" font-family="Monaco,Monaco" font-size="20.0" fill="#000000" transform="matrix(1.00, 0.00, -0.00, -1.00, 167.1, 5.7)">a</text><text xml:space="preserve" font-family="Monaco,Monaco" font-size="20.0" fill="#000000" transform="matrix(1.00, 0.00, -0.00, -1.00, 179.1, 5.7)">g</text><text xml:space="preserve" font-family="Monaco,Monaco" font-size="20.0" fill="#000000" transform="matrix(1.00, 0.00, -0.00, -1.00, 191.1, 5.7)">e</text><text xml:space="preserve" font-family="Monaco,Monaco" font-size="20.0" fill="#000000" transform="matrix(1.00, 0.00, -0.00, -1.00, 203.1, 5.7)">.</text></g></svg>