<?xml version="1.0" encoding="UTF-8" standalone="no"?><svg xmlns="http://www.w3.org/2000/svg" xmlns:xlink="http://www.w3.org/1999/xlink" clip-rule="evenodd" stroke-miterlimit="10" viewBox="0 0 91 22"><desc>SVG generated by Keynote</desc><defs></defs><g transform="matrix(1.00, 0.00, -0.00, -1.00, 0.0, 22.0)"><text xml:space="preserve" font-family="Helvetica,Helvetica" font-size="20.0" fill="#000000" transform="matrix(1.00, 0.00, -0.00, -1.00, 0.5, 5.8)">n</text><text xml:space="preserve" font-family="Helvetica,Helvetica" font-size="20.0" fill="#000000" transform="matrix(1.00, 0.00, -0.00, -1.00, 11.6, 5.8)">o</text><text xml:space="preserve" font-family="Helvetica,Helvetica" font-size="20.0" fill="#000000" transform="matrix(1.00, 0.00, -0.00, -1.00, 22.8, 5.8)">t</text><text xml:space="preserve" font-family="Helvetica,Helvetica" font-size="20.0" fill="#000000" transform="matrix(1.00, 0.00, -0.00, -1.00, 28.3, 5.8)"> </text><text xml:space="preserve" font-family="Helvetica,Helvetica" font-size="20.0" fill="#000000" transform="matrix(1.00, 0.00, -0.00, -1.00, 33.9, 5.8)">l</text><text xml:space="preserve" font-family="Helvetica,Helvetica" font-size="20.0" fill="#000000" transform="matrix(1.00, 0.00, -0.00, -1.00, 38.3, 5.8)">o</text><text xml:space="preserve" font-family="Helvetica,Helvetica" font-size="20.0" fill="#000000" transform="matrix(1.00, 0.00, -0.00, -1.00, 49.5, 5.8)">n</text><text xml:space="preserve" font-family="Helvetica,Helvetica" font-size="20.0" fill="#000000" transform="matrix(1.00, 0.00, -0.00, -1.00, 60.6, 5.8)">g</text><text xml:space="preserve" font-family="Helvetica,Helvetica" font-size="20.0" fill="#000000" transform="matrix(1.00, 0.00, -0.00, -1.00, 71.7, 5.8)">e</text><text xml:space="preserve" font-family="Helvetica,Helvetica" font-size="20.0" fill="#000000" transform="matrix(1.00, 0.00, -0.00, -1.00, 82.9, 5.8)">r</text></g></svg>