<?xml version="1.0" encoding="UTF-8" standalone="no"?><svg xmlns="http://www.w3.org/2000/svg" xmlns:xlink="http://www.w3.org/1999/xlink" clip-rule="evenodd" stroke-miterlimit="10" viewBox="0 0 219 111"><desc>SVG generated by Keynote</desc><defs></defs><g transform="matrix(1.00, 0.00, -0.00, -1.00, 0.0, 111.0)"><path d="M 2.2 108.4 L 58.0 77.9 L 58.0 22.0 C 58.0 11.0 67.0 2.0 78.0 2.0 L 197.0 2.0 C 208.0 2.0 217.0 11.0 217.0 22.0 L 217.0 82.0 C 217.0 93.0 208.0 102.0 197.0 102.0 L 78.0 102.0 C 73.2 102.0 68.9 100.3 65.5 97.5 L 2.2 108.4 Z M 2.2 108.4 " fill="#F9ED9B"></path><path d="M -55.8 -6.4 L 0.0 24.1 L 0.0 80.0 C 0.0 91.0 9.0 100.0 20.0 100.0 L 139.0 100.0 C 150.0 100.0 159.0 91.0 159.0 80.0 L 159.0 20.0 C 159.0 9.0 150.0 0.0 139.0 0.0 L 20.0 0.0 C 15.2 0.0 10.9 1.7 7.5 4.5 L -55.8 -6.4 Z M -55.8 -6.4 " fill="none" stroke="#000000" stroke-width="2.00" transform="matrix(1.00, 0.00, 0.00, -1.00, 58.0, 102.0)"></path></g></svg>