<?xml version="1.0" encoding="UTF-8" standalone="no"?><svg xmlns="http://www.w3.org/2000/svg" xmlns:xlink="http://www.w3.org/1999/xlink" clip-rule="evenodd" stroke-miterlimit="10" viewBox="0 0 230 125"><desc>SVG generated by Keynote</desc><defs></defs><g transform="matrix(1.00, 0.00, -0.00, -1.00, 0.0, 125.0)"><path d="M 22.0 123.0 C 11.0 123.0 2.0 114.0 2.0 103.0 L 2.0 43.0 C 2.0 32.0 11.0 23.0 22.0 23.0 L 170.0 23.0 C 172.8 23.0 175.4 23.6 177.8 24.6 L 227.8 2.7 L 189.9 42.1 C 189.9 42.4 190.0 42.7 190.0 43.0 L 190.0 103.0 C 190.0 114.0 181.0 123.0 170.0 123.0 L 22.0 123.0 Z M 22.0 123.0 " fill="#F9ED9B"></path><path d="M 20.0 0.0 C 9.0 0.0 0.0 9.0 0.0 20.0 L 0.0 80.0 C 0.0 91.0 9.0 100.0 20.0 100.0 L 168.0 100.0 C 170.8 100.0 173.4 99.4 175.8 98.4 L 225.8 120.3 L 187.9 80.9 C 187.9 80.6 188.0 80.3 188.0 80.0 L 188.0 20.0 C 188.0 9.0 179.0 0.0 168.0 0.0 L 20.0 0.0 Z M 20.0 0.0 " fill="none" stroke="#000000" stroke-width="2.00" transform="matrix(1.00, 0.00, 0.00, -1.00, 2.0, 123.0)"></path><g><clipPath id="clip0x6080092aedc0"><path d="M 2.0 23.0 L 190.0 23.0 L 190.0 123.0 L 2.0 123.0 Z M 2.0 23.0 "></path></clipPath><g clip-path="url(#clip0x6080092aedc0)"><text xml:space="preserve" font-family="Helvetica,Helvetica" font-size="20.0" fill="#000000" transform="matrix(1.00, 0.00, -0.00, -1.00, 44.9, 77.3)">C</text><text xml:space="preserve" font-family="Helvetica,Helvetica" font-size="20.0" fill="#000000" transform="matrix(1.00, 0.00, -0.00, -1.00, 59.3, 77.3)">r</text><text xml:space="preserve" font-family="Helvetica,Helvetica" font-size="20.0" fill="#000000" transform="matrix(1.00, 0.00, -0.00, -1.00, 66.0, 77.3)">e</text><text xml:space="preserve" font-family="Helvetica,Helvetica" font-size="20.0" fill="#000000" transform="matrix(1.00, 0.00, -0.00, -1.00, 77.1, 77.3)">a</text><text xml:space="preserve" font-family="Helvetica,Helvetica" font-size="20.0" fill="#000000" transform="matrix(1.00, 0.00, -0.00, -1.00, 88.2, 77.3)">t</text><text xml:space="preserve" font-family="Helvetica,Helvetica" font-size="20.0" fill="#000000" transform="matrix(1.00, 0.00, -0.00, -1.00, 93.8, 77.3)">e</text><text xml:space="preserve" font-family="Helvetica,Helvetica" font-size="20.0" fill="#000000" transform="matrix(1.00, 0.00, -0.00, -1.00, 104.9, 77.3)"> </text><text xml:space="preserve" font-family="Helvetica,Helvetica" font-size="20.0" fill="#000000" transform="matrix(1.00, 0.00, -0.00, -1.00, 110.5, 77.3)">n</text><text xml:space="preserve" font-family="Helvetica,Helvetica" font-size="20.0" fill="#000000" transform="matrix(1.00, 0.00, -0.00, -1.00, 121.6, 77.3)">e</text><text xml:space="preserve" font-family="Helvetica,Helvetica" font-size="20.0" fill="#000000" transform="matrix(1.00, 0.00, -0.00, -1.00, 132.7, 77.3)">w</text><text xml:space="preserve" font-family="Helvetica,Helvetica" font-size="20.0" fill="#000000" transform="matrix(1.00, 0.00, -0.00, -1.00, 147.2, 77.3)"> </text><text xml:space="preserve" font-family="Helvetica,Helvetica" font-size="20.0" fill="#000000" transform="matrix(1.00, 0.00, -0.00, -1.00, 58.8, 53.3)">i</text><text xml:space="preserve" font-family="Helvetica,Helvetica" font-size="20.0" fill="#000000" transform="matrix(1.00, 0.00, -0.00, -1.00, 63.2, 53.3)">n</text><text xml:space="preserve" font-family="Helvetica,Helvetica" font-size="20.0" fill="#000000" transform="matrix(1.00, 0.00, -0.00, -1.00, 74.3, 53.3)">s</text><text xml:space="preserve" font-family="Helvetica,Helvetica" font-size="20.0" fill="#000000" transform="matrix(1.00, 0.00, -0.00, -1.00, 84.3, 53.3)">t</text><text xml:space="preserve" font-family="Helvetica,Helvetica" font-size="20.0" fill="#000000" transform="matrix(1.00, 0.00, -0.00, -1.00, 89.9, 53.3)">a</text><text xml:space="preserve" font-family="Helvetica,Helvetica" font-size="20.0" fill="#000000" transform="matrix(1.00, 0.00, -0.00, -1.00, 101.0, 53.3)">n</text><text xml:space="preserve" font-family="Helvetica,Helvetica" font-size="20.0" fill="#000000" transform="matrix(1.00, 0.00, -0.00, -1.00, 112.1, 53.3)">c</text><text xml:space="preserve" font-family="Helvetica,Helvetica" font-size="20.0" fill="#000000" transform="matrix(1.00, 0.00, -0.00, -1.00, 122.1, 53.3)">e</text></g></g></g></svg>