<?xml version="1.0" encoding="UTF-8" standalone="no"?><svg xmlns="http://www.w3.org/2000/svg" xmlns:xlink="http://www.w3.org/1999/xlink" clip-rule="evenodd" stroke-miterlimit="10" viewBox="0 0 273 121"><desc>SVG generated by Keynote</desc><defs></defs><g transform="matrix(1.00, 0.00, -0.00, -1.00, 0.0, 121.0)"><path d="M 103.0 119.0 C 92.0 119.0 83.0 110.0 83.0 99.0 L 83.0 42.8 L 2.3 2.8 L 90.5 23.5 C 93.9 20.7 98.2 19.0 103.0 19.0 L 251.0 19.0 C 262.0 19.0 271.0 28.0 271.0 39.0 L 271.0 99.0 C 271.0 110.0 262.0 119.0 251.0 119.0 L 103.0 119.0 Z M 103.0 119.0 " fill="#F9ED9B"></path><path d="M 20.0 0.0 C 9.0 0.0 0.0 9.0 0.0 20.0 L 0.0 76.2 L -80.7 116.2 L 7.5 95.5 C 10.9 98.3 15.2 100.0 20.0 100.0 L 168.0 100.0 C 179.0 100.0 188.0 91.0 188.0 80.0 L 188.0 20.0 C 188.0 9.0 179.0 0.0 168.0 0.0 L 20.0 0.0 Z M 20.0 0.0 " fill="none" stroke="#000000" stroke-width="2.00" transform="matrix(1.00, 0.00, 0.00, -1.00, 83.0, 119.0)"></path></g></svg>