<?xml version="1.0" encoding="UTF-8" standalone="no"?><svg xmlns="http://www.w3.org/2000/svg" xmlns:xlink="http://www.w3.org/1999/xlink" clip-rule="evenodd" stroke-miterlimit="10" viewBox="0 0 1026 770"><desc>SVG generated by Keynote</desc><defs></defs><g transform="matrix(1.00, 0.00, -0.00, -1.00, 0.0, 770.0)"><g><clipPath id="clip0x6080054a5e80"><path d="M 289.0 230.5 C 288.5 231.1 287.8 232.5 287.4 233.6 C 286.8 235.3 286.5 235.6 284.2 235.7 C 282.8 235.7 280.8 236.1 279.7 236.6 C 278.7 237.0 277.7 237.4 277.5 237.4 C 276.2 237.8 274.3 239.3 274.4 239.9 C 274.6 240.9 257.1 241.4 256.2 240.4 C 255.7 240.0 255.1 240.0 254.3 240.4 C 252.4 241.4 242.8 241.0 241.5 239.8 C 240.6 239.1 240.0 239.0 238.7 239.6 C 236.5 240.6 199.3 240.7 198.3 239.7 C 197.8 239.2 196.9 239.2 194.9 239.8 C 192.9 240.4 192.0 240.4 191.0 239.8 C 190.2 239.3 189.3 239.3 188.2 239.7 C 187.3 240.1 185.7 240.4 184.6 240.4 C 183.6 240.4 182.0 240.8 181.1 241.4 C 179.7 242.4 177.5 242.4 159.9 242.0 C 144.1 241.7 140.0 241.4 138.8 240.7 C 137.6 239.9 133.3 239.6 115.1 239.4 C 76.6 238.8 64.9 239.0 63.4 240.1 C 62.7 240.6 61.4 241.5 60.6 242.1 C 59.6 242.8 57.3 243.3 54.2 243.5 C 49.7 243.9 49.3 244.0 48.5 245.6 C 48.0 246.6 47.2 247.4 46.7 247.4 C 46.2 247.4 44.8 248.0 43.6 248.7 C 42.3 249.4 40.9 250.0 40.3 250.0 C 39.1 250.0 37.9 253.0 38.3 255.0 C 38.5 255.9 38.2 256.6 37.7 256.8 C 37.2 257.0 36.8 257.7 36.8 258.4 C 36.8 259.0 36.4 259.8 35.9 260.0 C 35.4 260.2 34.8 260.9 34.6 261.7 C 34.0 263.7 31.7 266.0 30.4 266.0 C 29.7 266.0 29.0 266.3 28.8 266.6 C 28.6 267.0 27.9 267.2 27.3 267.1 C 26.6 267.0 25.8 267.8 24.9 269.8 C 23.5 272.6 23.5 272.7 24.7 273.1 C 25.6 273.5 26.0 274.2 26.0 275.5 C 26.0 276.8 26.4 277.7 27.2 278.1 C 27.9 278.5 28.5 279.3 28.5 280.0 C 28.5 280.6 29.0 281.5 29.5 282.0 C 30.0 282.4 30.4 283.0 30.4 283.4 C 30.4 283.7 31.2 284.9 32.0 286.1 C 32.9 287.2 33.4 288.3 33.2 288.6 C 33.0 288.8 33.3 289.0 33.9 289.0 C 34.5 289.0 35.3 289.8 35.6 290.9 C 36.0 291.9 36.7 292.9 37.2 293.1 C 37.7 293.3 38.2 294.4 38.5 295.6 C 38.7 297.1 39.2 297.8 39.9 297.7 C 40.6 297.7 41.1 298.2 41.2 299.1 C 41.3 299.8 42.6 301.4 44.0 302.5 C 45.6 303.8 46.4 304.9 46.1 305.5 C 45.9 306.0 46.5 307.1 47.4 308.0 C 48.4 308.9 49.0 310.1 48.9 310.9 C 48.8 312.3 49.2 313.7 50.4 316.2 C 50.7 317.0 51.0 317.8 50.9 318.2 C 50.8 318.5 50.8 318.9 50.9 319.1 C 51.0 319.3 51.1 321.5 51.2 324.1 C 51.3 326.7 51.7 329.1 52.1 329.4 C 52.5 329.9 52.5 330.5 52.2 331.3 C 51.8 332.0 51.3 333.1 50.9 333.8 C 50.6 334.5 50.5 335.2 50.9 335.4 C 51.5 335.8 51.1 338.2 50.1 339.4 C 49.7 339.9 49.7 340.5 50.2 341.1 C 50.6 341.5 50.7 342.1 50.5 342.3 C 50.3 342.5 50.5 343.6 50.9 344.6 C 51.4 345.7 51.5 347.1 51.2 347.7 C 50.9 348.3 50.6 349.8 50.5 351.0 C 50.4 352.1 50.0 353.5 49.7 353.9 C 49.2 354.4 49.3 354.9 49.7 355.4 C 50.3 355.9 50.2 356.7 49.6 358.2 C 49.1 359.4 48.8 360.6 48.8 360.8 C 48.9 361.0 48.6 362.2 48.1 363.4 C 47.4 364.9 47.3 366.3 47.7 367.9 C 48.0 369.3 48.0 370.4 47.7 370.6 C 46.9 371.1 46.9 374.5 47.7 377.1 C 48.0 378.2 48.1 379.3 47.8 379.5 C 47.6 379.8 47.4 380.9 47.3 382.0 C 47.3 383.1 47.2 384.1 47.1 384.2 C 46.6 384.7 46.7 386.1 47.3 387.2 C 47.6 387.9 47.9 390.2 47.8 392.3 C 47.8 394.4 48.0 396.5 48.3 396.8 C 49.0 397.6 48.8 402.9 48.1 404.1 C 47.9 404.5 47.8 404.8 48.0 404.8 C 48.2 404.8 48.1 405.4 47.7 406.2 C 47.2 407.1 47.2 407.7 47.7 408.3 C 48.0 408.7 48.2 409.3 47.9 409.5 C 47.7 409.7 47.9 410.3 48.3 410.8 C 48.8 411.4 48.8 411.9 48.4 412.2 C 48.1 412.4 47.9 413.0 48.1 413.4 C 48.3 413.9 48.1 414.5 47.8 414.7 C 46.8 415.3 46.9 416.4 48.0 416.4 C 48.5 416.4 49.4 417.2 50.1 418.3 C 50.9 419.8 51.7 420.2 53.2 420.2 C 54.3 420.2 55.4 420.5 55.8 420.9 C 56.3 421.3 56.7 421.2 57.3 420.6 C 57.9 419.9 58.5 419.8 59.7 420.3 C 60.6 420.6 61.9 420.7 62.5 420.5 C 63.8 420.1 67.4 421.2 73.0 423.8 L 76.7 426.0 L 96.8 426.0 C 109.6 426.1 117.1 426.0 117.6 426.4 C 118.5 427.1 120.6 427.1 121.8 426.4 C 122.3 426.1 126.1 425.9 130.4 425.9 C 134.8 425.9 138.9 425.9 139.6 425.9 C 140.3 425.9 154.7 425.8 171.6 425.9 C 188.5 425.9 204.4 425.9 207.1 425.9 C 209.7 425.9 220.5 425.9 231.1 425.9 C 241.6 425.9 253.4 425.9 257.3 425.9 C 261.2 425.9 271.3 426.0 279.7 426.3 C 293.8 426.7 299.0 426.9 306.0 427.5 C 308.5 427.7 327.1 428.4 343.4 428.9 C 357.0 429.3 367.2 429.8 367.8 430.1 C 368.0 430.3 368.5 430.2 368.7 429.8 C 368.9 429.4 369.4 429.4 369.8 429.6 C 370.3 429.9 374.1 430.1 378.3 430.2 C 382.5 430.3 386.0 430.3 386.0 430.4 C 386.0 430.5 388.0 430.6 390.4 430.7 C 392.9 430.8 396.8 431.2 399.1 431.4 C 401.4 431.7 403.5 431.8 403.9 431.8 C 404.2 431.8 408.1 431.6 412.5 431.5 C 420.4 431.2 425.3 430.7 425.8 430.1 C 426.0 430.0 426.6 430.1 427.3 430.5 C 428.0 430.9 428.6 430.9 428.8 430.4 C 429.1 430.0 429.6 430.0 430.4 430.4 C 431.6 431.1 433.7 430.8 436.0 429.6 C 437.1 429.1 437.9 429.1 438.9 429.7 C 439.7 430.0 443.2 430.3 446.8 430.3 C 450.3 430.3 455.6 430.6 458.6 431.0 C 465.1 431.9 484.0 431.1 494.3 429.5 C 495.5 429.4 497.1 429.5 498.0 429.8 C 498.9 430.2 499.7 430.2 499.9 429.8 C 500.1 429.4 501.8 429.2 503.7 429.2 C 506.8 429.2 509.5 428.6 512.7 427.2 C 514.7 426.4 517.3 426.0 517.7 426.4 C 517.9 426.6 518.9 426.9 519.9 427.0 C 523.0 427.3 524.5 427.6 524.9 428.1 C 525.2 428.3 526.0 428.5 526.7 428.5 C 527.4 428.5 528.8 428.9 529.6 429.3 C 530.5 429.8 531.8 430.1 532.5 430.0 C 533.2 429.9 535.2 429.7 537.0 429.5 C 540.7 429.0 546.9 427.3 548.0 426.4 C 549.0 425.6 554.8 426.1 564.5 427.8 C 571.4 429.0 585.7 429.8 597.8 429.7 C 599.6 429.6 601.6 429.7 602.3 429.7 C 604.0 429.8 609.3 429.7 612.5 429.5 C 613.9 429.5 615.8 429.8 616.8 430.3 C 617.9 430.8 619.0 430.9 620.0 430.5 C 621.5 430.0 629.4 429.8 653.2 429.9 C 664.8 429.9 670.4 429.8 671.7 429.7 C 671.9 429.7 672.2 429.7 672.4 429.7 C 672.8 429.8 689.0 430.6 691.6 430.6 C 692.8 430.6 697.1 430.6 701.2 430.6 C 705.2 430.6 709.4 430.5 710.4 430.6 C 718.8 430.6 728.3 430.5 738.6 430.4 C 771.9 430.0 799.1 430.6 810.0 432.0 C 811.2 432.1 813.1 432.7 814.1 433.2 C 815.3 433.9 816.2 434.0 816.6 433.6 C 817.0 433.2 817.6 433.3 818.2 433.9 C 818.8 434.4 819.8 434.9 820.5 435.0 C 821.2 435.2 821.7 435.8 821.8 436.7 C 821.9 437.6 822.3 438.5 822.8 438.8 C 823.3 439.1 823.8 439.7 823.8 440.2 C 823.9 440.6 824.0 441.1 824.1 441.3 C 824.2 441.5 824.3 443.8 824.4 446.4 C 825.1 462.0 825.3 468.1 825.3 469.6 C 825.3 470.5 825.6 471.5 825.9 471.7 C 826.4 472.0 826.3 475.1 825.6 477.0 C 825.5 477.4 825.6 477.9 826.0 478.1 C 826.3 478.3 826.6 479.4 826.6 480.6 C 826.6 481.7 826.7 483.8 827.0 485.3 C 827.2 486.8 827.1 488.4 826.7 488.9 C 826.4 489.3 826.2 493.1 826.3 498.0 C 826.6 509.8 827.0 513.6 828.1 514.9 C 828.7 515.5 829.0 516.6 828.9 517.3 C 828.7 518.1 828.9 518.9 829.2 519.1 C 830.0 519.6 829.9 527.6 829.1 529.1 C 828.7 529.8 828.8 530.4 829.1 530.6 C 829.4 530.8 829.7 531.7 829.8 532.7 C 829.9 536.4 829.8 544.2 829.6 547.8 C 829.5 549.8 829.6 551.6 829.9 551.8 C 830.1 551.9 830.2 554.3 830.0 557.0 C 829.8 559.7 829.7 562.7 829.7 563.6 C 829.7 564.4 829.9 570.3 830.0 576.7 C 830.2 583.0 830.6 589.1 831.0 590.2 C 831.3 591.3 831.5 592.4 831.3 592.6 C 831.1 592.7 831.3 593.4 831.6 594.1 C 832.0 594.8 832.3 596.8 832.4 598.5 C 832.5 600.2 832.9 603.2 833.4 605.0 C 833.8 606.9 834.1 608.8 833.9 609.3 C 833.7 609.9 833.7 610.8 834.0 611.4 C 834.3 612.0 834.5 612.7 834.5 612.9 C 834.6 613.2 834.8 613.6 835.1 613.9 C 835.3 614.1 835.6 615.3 835.6 616.5 C 835.6 617.6 835.8 618.6 836.2 618.6 C 836.5 618.6 837.4 619.9 838.2 621.6 C 839.0 623.2 840.4 624.8 841.1 625.1 C 841.9 625.4 842.6 625.9 842.6 626.2 C 842.6 626.8 844.7 627.7 846.4 627.8 C 847.0 627.9 847.5 628.4 847.6 629.0 C 847.8 629.9 848.5 630.1 850.8 630.2 C 859.7 630.4 875.3 631.4 876.0 631.8 C 877.9 633.0 896.8 634.3 898.5 633.4 C 898.9 633.3 900.0 633.0 901.2 632.9 C 902.3 632.8 904.3 632.1 905.7 631.4 C 907.1 630.6 909.4 629.4 910.8 628.6 C 912.2 627.9 913.6 626.8 914.0 626.3 C 914.5 625.8 915.0 625.6 915.6 626.0 C 917.8 627.4 922.0 626.8 922.0 625.1 C 922.0 623.3 922.7 623.0 923.9 624.1 C 925.5 625.5 927.4 625.0 927.5 623.2 C 927.5 622.4 928.0 621.2 928.7 620.5 C 929.4 619.8 929.9 618.0 930.0 615.9 C 930.1 613.1 930.5 612.3 932.2 610.7 C 933.7 609.4 934.8 609.0 936.3 609.1 C 937.4 609.2 939.0 609.0 939.9 608.7 C 940.8 608.4 941.9 608.1 942.4 608.1 C 944.0 608.0 943.8 606.7 942.0 605.9 C 940.4 605.1 940.3 605.0 941.3 604.2 C 941.9 603.8 942.4 603.0 942.4 602.4 C 942.4 601.9 942.7 601.2 943.0 601.0 C 945.0 599.8 941.0 589.8 937.9 588.2 C 936.9 587.6 936.0 586.7 936.0 586.2 C 936.0 585.2 935.9 585.3 934.7 586.3 C 933.9 587.0 933.2 587.2 932.9 586.9 C 932.1 586.1 931.8 582.0 932.4 581.0 C 932.7 580.6 932.5 579.0 932.1 577.5 C 931.3 574.4 932.1 571.2 933.8 571.2 C 934.3 571.2 935.4 570.2 936.3 568.9 C 937.8 566.7 937.9 566.4 937.0 565.1 C 936.1 563.8 936.2 563.5 937.5 562.5 C 938.4 561.8 939.0 560.7 938.9 559.8 C 938.9 559.0 939.1 558.2 939.3 558.1 C 939.6 557.9 939.6 557.2 939.3 556.6 C 938.6 555.4 939.5 554.0 940.8 554.0 C 941.2 554.0 941.5 553.0 941.5 551.9 C 941.5 550.5 941.8 549.8 942.4 549.8 C 943.0 549.8 943.3 550.3 943.2 550.9 C 942.9 552.8 945.5 550.8 946.3 548.6 C 946.6 547.6 947.1 546.9 947.3 547.1 C 947.5 547.3 948.9 546.7 950.4 545.6 C 951.9 544.6 953.3 543.9 953.5 544.1 C 953.8 544.4 955.8 543.4 958.5 541.6 C 959.5 541.0 960.5 540.6 960.8 540.7 C 961.1 540.8 962.3 540.1 963.6 539.1 C 964.8 538.2 966.6 537.2 967.6 537.0 C 968.6 536.7 970.2 535.7 971.3 534.6 C 972.9 533.0 973.8 532.6 976.6 532.5 C 978.4 532.4 980.0 532.3 980.2 532.2 C 980.4 532.1 981.0 532.1 981.6 532.2 C 982.3 532.2 983.0 531.6 983.4 530.6 C 983.8 529.7 984.3 529.1 984.7 529.3 C 985.5 529.8 985.0 527.0 983.7 524.2 C 983.1 522.9 983.0 521.4 983.4 519.4 C 983.7 517.8 983.8 516.3 983.6 516.0 C 983.4 515.7 983.3 514.3 983.3 512.9 C 983.3 508.9 981.9 507.9 975.8 507.9 C 973.1 507.9 970.6 507.7 970.4 507.5 C 970.2 507.3 970.3 506.5 970.7 505.8 C 971.1 505.0 971.1 504.3 970.7 503.9 C 970.3 503.5 970.7 502.4 971.7 500.8 C 973.5 498.1 974.3 497.7 974.8 499.2 C 975.3 500.5 977.6 500.2 977.6 498.8 C 977.6 497.4 980.7 496.0 981.7 496.9 C 982.5 497.8 985.3 495.9 985.3 494.4 C 985.3 493.8 985.6 493.1 985.9 492.9 C 986.2 492.7 986.3 491.9 986.1 491.2 C 986.0 490.5 986.2 489.5 986.6 489.0 C 987.3 488.2 987.6 488.2 988.9 489.1 C 989.7 489.6 990.3 490.4 990.1 490.8 C 989.9 491.2 990.4 490.7 991.3 489.7 C 992.8 488.0 992.8 487.7 991.9 486.3 C 991.2 485.2 991.1 484.6 991.7 484.0 C 992.2 483.3 992.1 482.9 991.3 482.2 C 990.7 481.7 990.4 481.6 990.6 482.0 C 990.9 482.4 990.7 483.1 990.2 483.5 C 989.5 484.1 988.9 483.9 987.5 482.7 C 986.5 481.9 985.1 481.0 984.5 480.8 C 983.7 480.5 983.5 479.9 983.8 478.1 C 983.9 476.8 984.2 475.5 984.4 475.2 C 984.5 475.0 984.2 474.4 983.7 474.0 C 983.2 473.5 982.8 472.7 982.8 472.2 C 982.8 471.7 982.5 471.5 982.1 471.7 C 981.5 472.1 977.0 469.8 977.0 469.1 C 977.0 469.0 977.9 468.4 978.9 467.9 C 980.3 467.2 980.8 466.4 980.8 465.3 C 980.8 464.0 980.1 463.4 976.9 461.8 C 974.8 460.7 972.4 459.9 971.7 459.9 C 970.9 460.0 968.8 459.8 967.1 459.6 C 965.3 459.3 963.2 459.0 962.3 459.0 C 961.3 458.9 960.7 458.6 960.8 458.1 C 961.0 457.5 960.7 457.4 959.7 458.0 C 958.2 458.8 956.9 458.2 957.4 457.0 C 957.6 456.5 957.5 455.9 957.1 455.7 C 956.2 455.1 957.1 454.0 958.2 454.4 C 958.8 454.6 959.1 454.2 959.1 453.1 C 959.1 452.3 959.2 451.4 959.2 451.1 C 959.3 450.9 958.9 450.6 958.2 450.6 C 955.8 450.2 955.2 449.7 955.4 447.9 C 955.6 446.9 955.9 445.7 956.1 445.3 C 956.4 444.9 956.1 443.7 955.6 442.7 C 953.5 438.6 954.7 436.4 957.3 439.5 C 958.9 441.4 959.0 441.5 959.1 440.2 C 959.1 439.5 958.8 438.7 958.4 438.4 C 958.1 438.2 957.8 437.4 957.8 436.6 C 957.8 435.8 957.5 434.9 957.1 434.5 C 956.6 434.0 956.6 433.4 957.2 432.5 C 957.7 431.7 957.8 430.5 957.5 428.8 C 957.2 427.4 956.9 426.1 956.9 426.0 C 956.8 425.8 956.6 425.3 956.4 425.0 C 955.1 423.0 957.6 420.2 960.5 420.2 C 961.5 420.2 961.5 420.0 960.8 418.8 C 960.4 418.0 959.7 417.1 959.2 416.8 C 958.8 416.5 958.6 415.9 958.9 415.5 C 959.6 414.4 959.7 407.3 959.0 407.8 C 958.7 408.0 958.4 408.9 958.4 409.8 C 958.5 413.7 958.0 416.0 957.1 416.1 C 956.6 416.1 955.7 416.4 955.1 416.6 C 953.5 417.3 952.4 416.5 953.4 415.3 C 953.9 414.7 953.9 414.4 953.4 414.4 C 952.3 414.4 950.6 411.4 950.3 408.8 C 949.8 404.8 950.1 394.4 950.8 393.6 C 951.2 393.2 951.1 392.6 950.6 392.2 C 950.1 391.6 950.2 391.3 951.0 391.0 C 951.6 390.8 951.9 390.4 951.7 390.0 C 951.5 389.7 951.2 385.3 951.0 380.3 C 950.4 357.7 949.9 353.8 948.0 353.0 C 947.2 352.8 929.8 352.4 909.3 352.2 C 875.4 351.9 871.9 351.8 870.9 350.8 C 870.3 350.2 868.8 349.1 867.7 348.4 C 866.3 347.6 865.7 346.9 865.9 346.3 C 866.1 345.7 865.7 345.0 864.9 344.6 C 864.2 344.3 863.7 343.5 863.9 342.9 C 864.0 342.3 863.6 341.5 863.1 341.0 C 862.3 340.4 862.4 340.2 863.8 339.6 C 866.1 338.8 866.7 337.6 865.4 336.9 C 864.8 336.5 864.4 335.6 864.4 334.6 C 864.5 333.6 864.3 331.8 864.1 330.5 C 863.9 329.1 864.1 327.9 864.4 327.7 C 864.7 327.5 864.9 327.1 864.7 326.7 C 864.2 326.0 866.8 324.7 867.9 325.1 C 868.7 325.4 868.8 325.1 868.4 323.7 C 868.2 322.7 867.6 321.5 867.1 320.9 C 866.2 319.9 866.2 319.6 867.0 318.6 C 867.8 317.6 867.8 317.6 866.9 318.3 C 865.7 319.2 864.4 318.2 864.4 316.4 C 864.4 315.1 865.4 314.3 866.0 315.2 C 866.2 315.6 866.7 315.9 867.0 315.9 C 867.5 315.9 867.4 315.5 866.9 314.9 C 866.5 314.4 865.7 314.0 865.3 314.0 C 864.2 314.0 862.9 311.6 863.4 310.8 C 863.6 310.4 864.2 310.3 864.7 310.5 C 865.8 311.0 866.0 309.8 864.9 309.1 C 864.4 308.8 864.5 308.4 865.3 307.8 C 866.4 307.0 866.4 306.9 865.2 305.2 C 864.2 303.9 864.0 303.0 864.4 301.9 C 865.0 300.4 864.2 298.1 862.9 297.2 C 861.9 296.6 861.8 294.9 862.5 293.0 C 863.0 291.8 863.4 291.6 864.5 291.9 C 865.9 292.4 865.9 292.4 864.8 291.0 C 863.3 289.4 862.8 285.3 863.8 284.1 C 864.4 283.4 864.4 283.0 863.8 282.4 C 863.4 282.0 863.1 281.2 863.1 280.6 C 863.1 280.0 862.7 279.2 862.1 278.8 C 861.4 278.2 861.3 277.7 861.9 276.7 C 862.6 275.4 862.6 275.4 863.5 276.5 C 864.3 277.6 864.4 277.6 865.0 276.0 C 865.8 273.8 864.6 271.6 863.0 272.1 C 860.0 273.0 857.9 272.9 857.3 271.7 C 856.5 270.1 856.5 267.5 857.4 265.8 C 858.0 264.7 857.9 264.3 856.7 263.4 C 855.3 262.4 855.3 262.0 855.6 255.4 C 855.9 251.4 855.4 246.6 855.0 244.1 L 855.0 240.0 L 846.1 240.0 C 837.9 240.0 837.6 239.8 836.6 241.3 C 835.7 242.7 835.4 242.7 832.9 242.1 C 829.3 241.2 824.6 241.1 823.6 241.8 C 822.3 242.8 821.7 241.9 821.3 238.7 C 821.1 237.1 820.6 235.5 820.1 235.2 C 819.1 234.5 795.0 234.5 792.7 235.2 C 791.6 235.5 791.0 236.3 790.6 237.8 C 789.7 241.7 789.7 241.6 787.5 241.0 C 786.0 240.6 784.9 240.6 783.5 241.3 C 782.4 241.8 780.9 242.3 780.2 242.4 C 779.5 242.5 778.9 243.1 778.9 243.6 C 778.9 245.9 777.2 246.9 774.0 246.5 C 772.2 246.3 770.8 246.5 770.5 246.8 C 769.9 247.9 744.1 246.8 742.5 245.7 C 741.8 245.2 740.1 244.8 738.7 244.8 C 736.8 244.8 736.2 244.6 735.9 243.6 C 735.7 242.8 735.0 242.1 734.2 242.0 C 733.5 241.8 715.3 241.6 693.8 241.4 C 665.1 241.1 654.5 241.2 653.9 241.8 C 653.4 242.3 653.0 242.3 652.2 241.7 C 651.5 241.1 648.8 240.9 641.8 241.1 C 636.6 241.2 622.2 241.1 609.9 240.8 C 588.5 240.2 587.4 240.2 586.8 241.3 C 586.4 242.0 585.7 242.6 585.1 242.6 C 584.6 242.7 582.1 243.4 579.6 244.2 L 575.0 246.0 L 529.2 245.0 C 485.3 244.7 483.3 244.9 481.7 243.7 C 480.2 242.6 478.5 242.4 465.3 242.1 C 452.6 241.7 450.3 241.8 449.1 242.6 C 448.4 243.2 447.7 244.3 447.7 245.1 C 447.7 247.3 446.2 248.2 442.0 248.4 C 439.9 248.5 437.8 248.8 437.4 249.1 C 436.9 249.4 436.2 249.6 435.9 249.7 C 435.5 249.7 434.9 249.8 434.4 249.9 C 434.0 249.9 433.6 250.3 433.6 250.8 C 433.6 251.3 432.9 252.3 432.1 253.1 C 431.2 254.0 430.6 254.9 430.8 255.1 C 431.0 255.4 430.8 255.8 430.5 256.0 C 429.2 256.8 386.4 256.5 385.9 255.7 C 385.4 254.9 373.0 254.9 372.5 255.7 C 372.3 256.1 367.1 256.4 359.1 256.4 C 346.2 256.4 344.1 256.0 345.9 254.3 C 346.4 253.8 346.3 253.4 345.5 252.8 C 344.7 252.2 344.5 251.2 344.6 248.8 C 344.7 246.4 344.5 245.5 343.7 245.3 C 343.2 245.1 342.8 244.2 342.8 243.4 C 342.7 242.6 342.5 241.6 342.2 241.1 C 341.4 239.9 338.4 238.4 337.4 238.8 C 336.9 239.0 336.3 238.9 336.1 238.5 C 335.9 238.2 335.3 238.0 334.7 238.2 C 334.2 238.4 333.3 238.2 332.8 237.8 C 332.3 237.3 331.7 237.2 331.5 237.4 C 330.5 238.3 328.8 236.4 328.4 234.0 C 328.1 232.6 327.9 231.4 327.8 231.3 C 327.8 231.2 320.5 231.0 311.7 230.7 C 302.9 230.5 294.4 230.0 292.8 229.8 C 290.5 229.4 289.7 229.6 289.0 230.5 M 864.1 261.7 C 864.3 262.3 864.7 262.7 864.9 262.5 C 865.1 262.3 864.9 261.7 864.4 261.3 C 863.8 260.7 863.7 260.8 864.1 261.7 M 861.9 263.2 C 862.5 264.2 862.5 265.0 862.0 266.1 C 861.4 267.3 861.5 267.9 862.5 269.0 C 863.9 270.8 864.6 270.8 864.1 269.0 C 863.9 268.2 863.5 266.7 863.4 265.7 C 863.2 264.6 862.6 263.3 862.1 262.8 C 861.1 261.9 861.1 261.9 861.9 263.2 M 866.9 345.3 C 866.9 345.7 867.2 346.0 867.6 346.0 C 868.0 346.0 868.1 345.7 867.9 345.3 C 867.7 345.0 867.4 344.7 867.2 344.7 C 867.0 344.7 866.9 345.0 866.9 345.3 M 952.7 368.0 C 952.7 368.1 953.1 368.6 953.7 369.0 C 954.5 369.7 954.6 369.6 954.2 368.8 C 953.9 367.9 952.7 367.2 952.7 368.0 M 957.8 370.6 C 957.8 371.1 958.2 372.3 958.8 373.1 C 959.9 374.8 958.9 376.2 957.6 374.8 C 956.4 373.6 955.8 374.0 956.0 375.9 C 956.1 376.8 955.9 378.0 955.7 378.4 C 955.4 378.8 955.5 379.9 955.9 380.8 C 956.3 381.8 956.3 382.5 955.8 382.8 C 955.5 383.0 955.4 383.4 955.6 383.8 C 955.8 384.1 956.2 384.2 956.5 384.0 C 956.8 383.9 957.8 384.0 958.7 384.3 C 960.1 384.9 960.4 384.8 960.4 383.7 C 960.4 382.9 959.9 382.4 959.2 382.4 C 957.3 382.4 956.3 380.9 957.5 379.9 C 958.2 379.3 958.7 379.3 959.3 379.8 C 960.6 380.9 961.4 379.5 960.3 378.2 C 959.6 377.3 959.6 377.0 960.6 376.3 C 961.7 375.5 961.7 375.4 960.4 373.6 C 959.7 372.5 959.1 371.3 959.2 370.9 C 959.3 370.5 959.0 370.0 958.6 369.8 C 958.2 369.7 957.8 370.0 957.8 370.6 M 955.0 388.4 C 955.6 389.3 955.7 389.6 955.8 391.5 C 955.9 392.6 956.0 392.7 956.9 392.0 C 957.6 391.4 957.6 391.0 957.2 390.5 C 956.8 390.2 956.5 389.3 956.5 388.7 C 956.5 388.1 956.1 387.6 955.5 387.6 C 954.9 387.6 954.7 387.8 955.0 388.4 M 960.0 392.0 C 960.3 392.4 960.6 392.7 960.7 392.7 C 960.9 392.7 961.0 392.4 961.0 392.0 C 961.0 391.7 960.7 391.4 960.3 391.4 C 959.9 391.4 959.8 391.7 960.0 392.0 M 959.1 397.1 C 959.1 397.4 959.6 398.0 960.1 398.5 C 961.1 399.3 961.1 399.3 960.4 398.0 C 959.6 396.5 959.1 396.1 959.1 397.1 M 959.5 402.2 C 959.2 402.6 959.1 403.2 959.3 403.4 C 959.9 404.0 960.5 403.1 960.2 402.2 C 960.0 401.5 959.9 401.5 959.5 402.2 M 994.9 486.8 C 994.9 487.1 995.2 487.4 995.6 487.4 C 996.0 487.4 996.1 487.1 995.9 486.8 C 995.7 486.4 995.4 486.1 995.2 486.1 C 995.0 486.1 994.9 486.4 994.9 486.8 M 995.2 491.2 C 995.5 491.6 995.8 491.9 995.9 491.9 C 996.1 491.9 996.2 491.6 996.2 491.2 C 996.2 490.9 995.9 490.6 995.5 490.6 C 995.1 490.6 995.0 490.9 995.2 491.2 M 987.2 528.3 C 987.2 528.7 987.5 529.1 987.8 529.3 C 988.1 529.4 988.3 529.2 988.3 528.7 C 988.3 528.1 988.1 527.7 987.8 527.7 C 987.5 527.7 987.2 528.0 987.2 528.3 M 937.3 575.3 C 937.3 575.5 937.8 576.0 938.4 576.4 C 939.5 577.2 939.5 577.2 938.7 576.2 C 937.8 575.1 937.3 574.8 937.3 575.3 M 941.9 583.1 C 941.9 583.9 942.0 584.0 942.2 583.5 C 942.4 583.1 942.4 582.5 942.2 582.3 C 942.0 582.1 941.8 582.5 941.9 583.1 M 944.2 592.6 C 944.8 593.5 945.4 594.1 945.5 594.0 C 945.9 593.6 944.3 591.1 943.7 591.1 C 943.3 591.1 943.5 591.8 944.2 592.6 "></path></clipPath><g clip-path="url(#clip0x6080054a5e80)"><image xlink:href="9C946BA402C5C2412CB3EDF2C882E2FC.jpeg" width="1600.00" height="1199.00" transform="matrix(0.64, 0.00, -0.00, -0.64, 1.0, 769.0)"></image></g></g></g></svg>