<?xml version="1.0" encoding="UTF-8" standalone="no"?><svg xmlns="http://www.w3.org/2000/svg" xmlns:xlink="http://www.w3.org/1999/xlink" clip-rule="evenodd" stroke-miterlimit="10" viewBox="0 0 240 38"><desc>SVG generated by Keynote</desc><defs></defs><g transform="matrix(1.00, 0.00, -0.00, -1.00, 0.0, 38.0)"><text xml:space="preserve" font-family="Chalkduster,Chalkduster" font-size="42.0" fill="#FF2600" transform="matrix(1.00, 0.00, -0.00, -1.00, 1.3, 4.7)">S</text><text xml:space="preserve" font-family="Chalkduster,Chalkduster" font-size="42.0" fill="#FF2600" transform="matrix(1.00, 0.00, -0.00, -1.00, 22.2, 4.7)">e</text><text xml:space="preserve" font-family="Chalkduster,Chalkduster" font-size="42.0" fill="#FF2600" transform="matrix(1.00, 0.00, -0.00, -1.00, 49.2, 4.7)">s</text><text xml:space="preserve" font-family="Chalkduster,Chalkduster" font-size="42.0" fill="#FF2600" transform="matrix(1.00, 0.00, -0.00, -1.00, 70.4, 4.7)">s</text><text xml:space="preserve" font-family="Chalkduster,Chalkduster" font-size="42.0" fill="#FF2600" transform="matrix(1.00, 0.00, -0.00, -1.00, 91.6, 4.7)">i</text><text xml:space="preserve" font-family="Chalkduster,Chalkduster" font-size="42.0" fill="#FF2600" transform="matrix(1.00, 0.00, -0.00, -1.00, 108.2, 4.7)">o</text><text xml:space="preserve" font-family="Chalkduster,Chalkduster" font-size="42.0" fill="#FF2600" transform="matrix(1.00, 0.00, -0.00, -1.00, 139.4, 4.7)">n</text><text xml:space="preserve" font-family="Chalkduster,Chalkduster" font-size="42.0" fill="#FF2600" transform="matrix(1.00, 0.00, -0.00, -1.00, 170.2, 4.7)"> </text><text xml:space="preserve" font-family="Chalkduster,Chalkduster" font-size="42.0" fill="#FF2600" transform="matrix(1.00, 0.00, -0.00, -1.00, 191.1, 4.7)">1</text><text xml:space="preserve" font-family="Chalkduster,Chalkduster" font-size="42.0" fill="#FF2600" transform="matrix(1.00, 0.00, -0.00, -1.00, 216.5, 4.7)">1</text></g></svg>