<?xml version="1.0" encoding="UTF-8" standalone="no"?><svg xmlns="http://www.w3.org/2000/svg" xmlns:xlink="http://www.w3.org/1999/xlink" clip-rule="evenodd" stroke-miterlimit="10" viewBox="0 0 426 48"><desc>SVG generated by Keynote</desc><defs></defs><g transform="matrix(1.00, 0.00, -0.00, -1.00, 0.0, 48.0)"><text xml:space="preserve" font-family="Helvetica,Helvetica" font-size="47.9" fill="#000000" transform="matrix(1.00, 0.00, -0.00, -1.00, 0.0, 9.0)">•</text><text xml:space="preserve" font-family="Helvetica,Helvetica" font-size="28.0" fill="#000000" transform="matrix(1.00, 0.00, -0.00, -1.00, 45.0, 16.4)">F</text><text xml:space="preserve" font-family="Helvetica,Helvetica" font-size="28.0" fill="#000000" transform="matrix(1.00, 0.00, -0.00, -1.00, 62.1, 16.4)">l</text><text xml:space="preserve" font-family="Helvetica,Helvetica" font-size="28.0" fill="#000000" transform="matrix(1.00, 0.00, -0.00, -1.00, 68.3, 16.4)">i</text><text xml:space="preserve" font-family="Helvetica,Helvetica" font-size="28.0" fill="#000000" transform="matrix(1.00, 0.00, -0.00, -1.00, 74.6, 16.4)">g</text><text xml:space="preserve" font-family="Helvetica,Helvetica" font-size="28.0" fill="#000000" transform="matrix(1.00, 0.00, -0.00, -1.00, 90.1, 16.4)">h</text><text xml:space="preserve" font-family="Helvetica,Helvetica" font-size="28.0" fill="#000000" transform="matrix(1.00, 0.00, -0.00, -1.00, 105.7, 16.4)">t</text><text xml:space="preserve" font-family="Helvetica,Helvetica" font-size="28.0" fill="#000000" transform="matrix(1.00, 0.00, -0.00, -1.00, 113.5, 16.4)"> </text><text xml:space="preserve" font-family="Helvetica,Helvetica" font-size="28.0" fill="#000000" transform="matrix(1.00, 0.00, -0.00, -1.00, 121.3, 16.4)">P</text><text xml:space="preserve" font-family="Helvetica,Helvetica" font-size="28.0" fill="#000000" transform="matrix(1.00, 0.00, -0.00, -1.00, 139.9, 16.4)">l</text><text xml:space="preserve" font-family="Helvetica,Helvetica" font-size="28.0" fill="#000000" transform="matrix(1.00, 0.00, -0.00, -1.00, 146.2, 16.4)">a</text><text xml:space="preserve" font-family="Helvetica,Helvetica" font-size="28.0" fill="#000000" transform="matrix(1.00, 0.00, -0.00, -1.00, 161.7, 16.4)">n</text><text xml:space="preserve" font-family="Helvetica,Helvetica" font-size="28.0" fill="#000000" transform="matrix(1.00, 0.00, -0.00, -1.00, 177.3, 16.4)">e</text><text xml:space="preserve" font-family="Helvetica,Helvetica" font-size="28.0" fill="#000000" transform="matrix(1.00, 0.00, -0.00, -1.00, 192.9, 16.4)"> </text><text xml:space="preserve" font-family="Helvetica,Helvetica" font-size="28.0" fill="#000000" transform="matrix(1.00, 0.00, -0.00, -1.00, 200.7, 16.4)">E</text><text xml:space="preserve" font-family="Helvetica,Helvetica" font-size="28.0" fill="#000000" transform="matrix(1.00, 0.00, -0.00, -1.00, 219.3, 16.4)">x</text><text xml:space="preserve" font-family="Helvetica,Helvetica" font-size="28.0" fill="#000000" transform="matrix(1.00, 0.00, -0.00, -1.00, 233.3, 16.4)">e</text><text xml:space="preserve" font-family="Helvetica,Helvetica" font-size="28.0" fill="#000000" transform="matrix(1.00, 0.00, -0.00, -1.00, 248.9, 16.4)">r</text><text xml:space="preserve" font-family="Helvetica,Helvetica" font-size="28.0" fill="#000000" transform="matrix(1.00, 0.00, -0.00, -1.00, 258.2, 16.4)">c</text><text xml:space="preserve" font-family="Helvetica,Helvetica" font-size="28.0" fill="#000000" transform="matrix(1.00, 0.00, -0.00, -1.00, 272.2, 16.4)">i</text><text xml:space="preserve" font-family="Helvetica,Helvetica" font-size="28.0" fill="#000000" transform="matrix(1.00, 0.00, -0.00, -1.00, 278.5, 16.4)">s</text><text xml:space="preserve" font-family="Helvetica,Helvetica" font-size="28.0" fill="#000000" transform="matrix(1.00, 0.00, -0.00, -1.00, 292.5, 16.4)">e</text><text xml:space="preserve" font-family="Helvetica,Helvetica" font-size="28.0" fill="#000000" transform="matrix(1.00, 0.00, -0.00, -1.00, 308.0, 16.4)"> </text><text xml:space="preserve" font-family="Helvetica,Helvetica" font-size="28.0" fill="#000000" transform="matrix(1.00, 0.00, -0.00, -1.00, 315.8, 16.4)">(</text><text xml:space="preserve" font-family="Helvetica,Helvetica" font-size="28.0" fill="#000000" transform="matrix(1.00, 0.00, -0.00, -1.00, 325.1, 16.4)">2</text><text xml:space="preserve" font-family="Helvetica,Helvetica" font-size="28.0" fill="#000000" transform="matrix(1.00, 0.00, -0.00, -1.00, 340.7, 16.4)">0</text><text xml:space="preserve" font-family="Helvetica,Helvetica" font-size="28.0" fill="#000000" transform="matrix(1.00, 0.00, -0.00, -1.00, 356.3, 16.4)"> </text><text xml:space="preserve" font-family="Helvetica,Helvetica" font-size="28.0" fill="#000000" transform="matrix(1.00, 0.00, -0.00, -1.00, 364.1, 16.4)">m</text><text xml:space="preserve" font-family="Helvetica,Helvetica" font-size="28.0" fill="#000000" transform="matrix(1.00, 0.00, -0.00, -1.00, 387.4, 16.4)">i</text><text xml:space="preserve" font-family="Helvetica,Helvetica" font-size="28.0" fill="#000000" transform="matrix(1.00, 0.00, -0.00, -1.00, 393.6, 16.4)">n</text><text xml:space="preserve" font-family="Helvetica,Helvetica" font-size="28.0" fill="#000000" transform="matrix(1.00, 0.00, -0.00, -1.00, 409.2, 16.4)">.</text><text xml:space="preserve" font-family="Helvetica,Helvetica" font-size="28.0" fill="#000000" transform="matrix(1.00, 0.00, -0.00, -1.00, 417.0, 16.4)">)</text></g></svg>