<?xml version="1.0" encoding="UTF-8" standalone="no"?><svg xmlns="http://www.w3.org/2000/svg" xmlns:xlink="http://www.w3.org/1999/xlink" clip-rule="evenodd" stroke-miterlimit="10" viewBox="0 0 309 48"><desc>SVG generated by Keynote</desc><defs></defs><g transform="matrix(1.00, 0.00, -0.00, -1.00, 0.0, 48.0)"><text xml:space="preserve" font-family="Helvetica,Helvetica" font-size="48.0" fill="#000000" transform="matrix(1.00, 0.00, -0.00, -1.00, -1.7, 12.0)">M</text><text xml:space="preserve" font-family="Helvetica,Helvetica" font-size="48.0" fill="#000000" transform="matrix(1.00, 0.00, -0.00, -1.00, 38.2, 12.0)">a</text><text xml:space="preserve" font-family="Helvetica,Helvetica" font-size="48.0" fill="#000000" transform="matrix(1.00, 0.00, -0.00, -1.00, 64.9, 12.0)">g</text><text xml:space="preserve" font-family="Helvetica,Helvetica" font-size="48.0" fill="#000000" transform="matrix(1.00, 0.00, -0.00, -1.00, 91.6, 12.0)">n</text><text xml:space="preserve" font-family="Helvetica,Helvetica" font-size="48.0" fill="#000000" transform="matrix(1.00, 0.00, -0.00, -1.00, 118.4, 12.0)">e</text><text xml:space="preserve" font-family="Helvetica,Helvetica" font-size="48.0" fill="#000000" transform="matrix(1.00, 0.00, -0.00, -1.00, 145.1, 12.0)">t</text><text xml:space="preserve" font-family="Helvetica,Helvetica" font-size="48.0" fill="#000000" transform="matrix(1.00, 0.00, -0.00, -1.00, 158.4, 12.0)">o</text><text xml:space="preserve" font-family="Helvetica,Helvetica" font-size="48.0" fill="#000000" transform="matrix(1.00, 0.00, -0.00, -1.00, 185.1, 12.0)">m</text><text xml:space="preserve" font-family="Helvetica,Helvetica" font-size="48.0" fill="#000000" transform="matrix(1.00, 0.00, -0.00, -1.00, 225.1, 12.0)">e</text><text xml:space="preserve" font-family="Helvetica,Helvetica" font-size="48.0" fill="#000000" transform="matrix(1.00, 0.00, -0.00, -1.00, 251.8, 12.0)">t</text><text xml:space="preserve" font-family="Helvetica,Helvetica" font-size="48.0" fill="#000000" transform="matrix(1.00, 0.00, -0.00, -1.00, 265.1, 12.0)">e</text><text xml:space="preserve" font-family="Helvetica,Helvetica" font-size="48.0" fill="#000000" transform="matrix(1.00, 0.00, -0.00, -1.00, 291.8, 12.0)">r</text></g></svg>