<?xml version="1.0" encoding="UTF-8" standalone="no"?><svg xmlns="http://www.w3.org/2000/svg" xmlns:xlink="http://www.w3.org/1999/xlink" clip-rule="evenodd" stroke-miterlimit="10" viewBox="0 0 480 52"><desc>SVG generated by Keynote</desc><defs></defs><g transform="matrix(1.00, 0.00, -0.00, -1.00, 0.0, 52.0)"><text xml:space="preserve" font-family="Helvetica,Helvetica" font-size="51.3" fill="#000000" transform="matrix(1.00, 0.00, -0.00, -1.00, 0.0, 9.8)">•</text><text xml:space="preserve" font-family="Helvetica,Helvetica" font-size="30.0" fill="#000000" transform="matrix(1.00, 0.00, -0.00, -1.00, 45.0, 17.9)">A</text><text xml:space="preserve" font-family="Helvetica,Helvetica" font-size="30.0" fill="#000000" transform="matrix(1.00, 0.00, -0.00, -1.00, 64.5, 17.9)">v</text><text xml:space="preserve" font-family="Helvetica,Helvetica" font-size="30.0" fill="#000000" transform="matrix(1.00, 0.00, -0.00, -1.00, 79.5, 17.9)">a</text><text xml:space="preserve" font-family="Helvetica,Helvetica" font-size="30.0" fill="#000000" transform="matrix(1.00, 0.00, -0.00, -1.00, 96.2, 17.9)">i</text><text xml:space="preserve" font-family="Helvetica,Helvetica" font-size="30.0" fill="#000000" transform="matrix(1.00, 0.00, -0.00, -1.00, 102.8, 17.9)">l</text><text xml:space="preserve" font-family="Helvetica,Helvetica" font-size="30.0" fill="#000000" transform="matrix(1.00, 0.00, -0.00, -1.00, 109.5, 17.9)">a</text><text xml:space="preserve" font-family="Helvetica,Helvetica" font-size="30.0" fill="#000000" transform="matrix(1.00, 0.00, -0.00, -1.00, 126.2, 17.9)">b</text><text xml:space="preserve" font-family="Helvetica,Helvetica" font-size="30.0" fill="#000000" transform="matrix(1.00, 0.00, -0.00, -1.00, 142.9, 17.9)">l</text><text xml:space="preserve" font-family="Helvetica,Helvetica" font-size="30.0" fill="#000000" transform="matrix(1.00, 0.00, -0.00, -1.00, 149.6, 17.9)">e</text><text xml:space="preserve" font-family="Helvetica,Helvetica" font-size="30.0" fill="#000000" transform="matrix(1.00, 0.00, -0.00, -1.00, 166.3, 17.9)"> </text><text xml:space="preserve" font-family="Helvetica,Helvetica" font-size="30.0" fill="#000000" transform="matrix(1.00, 0.00, -0.00, -1.00, 174.6, 17.9)">i</text><text xml:space="preserve" font-family="Helvetica,Helvetica" font-size="30.0" fill="#000000" transform="matrix(1.00, 0.00, -0.00, -1.00, 181.3, 17.9)">n</text><text xml:space="preserve" font-family="Helvetica,Helvetica" font-size="30.0" fill="#000000" transform="matrix(1.00, 0.00, -0.00, -1.00, 197.9, 17.9)"> </text><text xml:space="preserve" font-family="Helvetica,Helvetica" font-size="30.0" fill="#000000" transform="matrix(1.00, 0.00, -0.00, -1.00, 206.3, 17.9)">i</text><text xml:space="preserve" font-family="Helvetica,Helvetica" font-size="30.0" fill="#000000" transform="matrix(1.00, 0.00, -0.00, -1.00, 212.9, 17.9)">P</text><text xml:space="preserve" font-family="Helvetica,Helvetica" font-size="30.0" fill="#000000" transform="matrix(1.00, 0.00, -0.00, -1.00, 233.0, 17.9)">h</text><text xml:space="preserve" font-family="Helvetica,Helvetica" font-size="30.0" fill="#000000" transform="matrix(1.00, 0.00, -0.00, -1.00, 249.6, 17.9)">o</text><text xml:space="preserve" font-family="Helvetica,Helvetica" font-size="30.0" fill="#000000" transform="matrix(1.00, 0.00, -0.00, -1.00, 266.3, 17.9)">n</text><text xml:space="preserve" font-family="Helvetica,Helvetica" font-size="30.0" fill="#000000" transform="matrix(1.00, 0.00, -0.00, -1.00, 283.0, 17.9)">e</text><text xml:space="preserve" font-family="Helvetica,Helvetica" font-size="30.0" fill="#000000" transform="matrix(1.00, 0.00, -0.00, -1.00, 299.7, 17.9)"> </text><text xml:space="preserve" font-family="Helvetica,Helvetica" font-size="30.0" fill="#000000" transform="matrix(1.00, 0.00, -0.00, -1.00, 308.0, 17.9)">3</text><text xml:space="preserve" font-family="Helvetica,Helvetica" font-size="30.0" fill="#000000" transform="matrix(1.00, 0.00, -0.00, -1.00, 324.7, 17.9)">G</text><text xml:space="preserve" font-family="Helvetica,Helvetica" font-size="30.0" fill="#000000" transform="matrix(1.00, 0.00, -0.00, -1.00, 348.1, 17.9)">S</text><text xml:space="preserve" font-family="Helvetica,Helvetica" font-size="30.0" fill="#000000" transform="matrix(1.00, 0.00, -0.00, -1.00, 368.1, 17.9)">+</text><text xml:space="preserve" font-family="Helvetica,Helvetica" font-size="30.0" fill="#000000" transform="matrix(1.00, 0.00, -0.00, -1.00, 385.6, 17.9)">,</text><text xml:space="preserve" font-family="Helvetica,Helvetica" font-size="30.0" fill="#000000" transform="matrix(1.00, 0.00, -0.00, -1.00, 393.9, 17.9)"> </text><text xml:space="preserve" font-family="Helvetica,Helvetica" font-size="30.0" fill="#000000" transform="matrix(1.00, 0.00, -0.00, -1.00, 402.3, 17.9)">i</text><text xml:space="preserve" font-family="Helvetica,Helvetica" font-size="30.0" fill="#000000" transform="matrix(1.00, 0.00, -0.00, -1.00, 408.9, 17.9)">P</text><text xml:space="preserve" font-family="Helvetica,Helvetica" font-size="30.0" fill="#000000" transform="matrix(1.00, 0.00, -0.00, -1.00, 428.9, 17.9)">a</text><text xml:space="preserve" font-family="Helvetica,Helvetica" font-size="30.0" fill="#000000" transform="matrix(1.00, 0.00, -0.00, -1.00, 445.6, 17.9)">d</text><text xml:space="preserve" font-family="Helvetica,Helvetica" font-size="30.0" fill="#000000" transform="matrix(1.00, 0.00, -0.00, -1.00, 462.3, 17.9)">+</text></g></svg>