<?xml version="1.0" encoding="UTF-8" standalone="no"?><svg xmlns="http://www.w3.org/2000/svg" xmlns:xlink="http://www.w3.org/1999/xlink" clip-rule="evenodd" stroke-miterlimit="10" viewBox="0 0 149 27"><desc>SVG generated by Keynote</desc><defs></defs><g transform="matrix(1.00, 0.00, -0.00, -1.00, 0.0, 27.0)"><path d="M 75.8 10.6 C 75.7 10.6 75.6 10.6 75.4 10.6 C 75.5 10.7 75.6 10.7 75.6 10.8 C 75.7 10.7 75.9 10.7 76.2 10.7 C 76.2 10.7 76.0 10.7 75.9 10.7 C 75.8 10.7 75.8 10.6 75.8 10.6 C 75.8 10.6 75.8 10.6 75.8 10.6 Z M 41.3 11.1 C 41.5 11.1 41.2 10.9 41.1 10.9 C 41.1 10.9 41.1 11.0 41.0 11.0 C 41.0 10.8 41.2 10.8 41.4 10.7 C 42.1 10.8 41.6 11.1 41.3 11.1 C 41.3 11.1 41.3 11.1 41.3 11.1 Z M 8.7 11.3 C 8.1 11.3 8.7 11.5 8.8 11.5 C 8.6 11.6 8.8 11.9 8.4 11.9 C 8.4 11.8 8.3 11.8 8.2 11.7 C 8.3 11.7 8.5 11.7 8.6 11.6 C 8.4 11.6 8.1 11.6 8.1 11.5 C 8.5 11.5 8.1 11.4 8.1 11.2 C 8.4 11.3 8.6 11.1 8.7 11.3 C 8.7 11.3 8.7 11.3 8.7 11.3 Z M 114.5 11.3 C 114.6 11.3 114.8 11.4 114.7 11.5 C 114.6 11.5 114.4 11.4 114.4 11.4 C 114.3 11.5 114.4 11.6 114.2 11.6 C 114.1 11.4 114.1 11.2 114.2 11.1 C 114.2 11.3 114.8 11.2 114.5 11.3 C 114.5 11.3 114.5 11.3 114.5 11.3 Z M 100.7 11.7 C 100.3 11.6 100.7 11.9 100.2 11.9 C 100.3 11.7 100.2 11.5 100.5 11.5 C 100.5 11.6 100.7 11.6 100.7 11.7 C 100.7 11.7 100.7 11.7 100.7 11.7 Z M 22.4 12.6 C 22.4 12.5 22.1 12.6 22.2 12.4 C 22.3 12.4 22.5 12.4 22.7 12.4 C 22.7 12.5 22.6 12.6 22.4 12.6 C 22.4 12.6 22.4 12.6 22.4 12.6 Z M 5.0 13.1 C 4.5 12.9 3.9 13.1 4.1 13.0 C 3.8 12.8 4.5 12.4 4.4 12.6 C 4.5 12.8 5.5 13.0 5.0 13.1 C 5.0 13.1 5.0 13.1 5.0 13.1 Z M 38.5 14.2 C 37.9 14.1 38.0 14.6 37.6 14.3 C 37.8 14.3 37.8 14.3 37.9 14.2 C 37.8 14.2 37.6 14.2 37.6 14.2 C 37.9 14.1 38.2 14.1 38.5 14.2 C 38.5 14.2 38.5 14.2 38.5 14.2 Z M 84.1 11.0 C 84.2 10.9 84.2 10.9 84.2 10.8 C 84.6 10.9 84.6 10.7 84.8 10.8 C 84.8 11.1 84.5 11.0 84.2 11.0 C 84.2 11.0 84.1 11.0 84.1 11.0 C 84.1 11.0 84.1 11.0 84.1 11.0 Z M 94.8 11.6 C 94.8 11.4 94.5 11.4 94.9 11.3 C 95.3 11.5 94.9 11.7 94.5 11.8 C 94.5 11.9 94.5 12.0 94.5 12.1 C 94.7 12.1 94.8 12.1 94.9 12.1 C 95.0 11.8 95.2 12.3 95.9 12.2 C 95.6 12.3 95.9 12.5 95.5 12.4 C 95.6 12.6 95.3 12.6 95.4 12.7 C 95.5 12.6 96.0 12.6 95.9 12.4 C 96.1 12.4 96.2 12.4 96.4 12.5 C 96.5 12.7 96.0 12.5 96.1 12.7 C 96.2 12.7 96.3 12.8 96.4 12.8 C 96.4 12.7 96.3 12.6 96.5 12.6 C 96.9 12.7 96.4 12.8 97.0 12.8 C 97.0 12.7 96.8 12.7 96.8 12.6 C 97.1 12.5 97.1 12.6 97.3 12.5 C 97.4 12.6 97.2 12.7 97.3 12.7 C 97.5 12.4 97.8 12.9 98.2 12.6 C 97.9 12.3 98.2 12.7 98.5 12.3 C 98.6 12.5 98.4 12.7 98.7 12.7 C 98.6 12.2 99.7 12.4 98.8 12.0 C 99.2 12.0 99.4 11.6 99.0 11.6 C 99.8 11.7 99.6 11.4 99.9 11.4 C 100.2 11.4 99.7 11.5 99.9 11.6 C 99.6 11.6 99.6 11.7 99.4 11.6 C 99.4 11.7 99.3 11.8 99.3 11.8 C 99.6 11.7 100.0 11.9 99.8 12.2 C 99.6 12.1 99.7 11.9 99.5 11.9 C 99.6 12.2 99.3 11.9 99.3 12.0 C 99.4 12.3 99.0 12.5 99.4 12.5 C 99.4 12.4 99.4 12.3 99.4 12.2 C 99.5 12.2 99.6 12.2 99.8 12.2 C 99.9 12.4 99.8 12.5 99.9 12.6 C 100.1 12.6 100.2 12.5 100.3 12.5 C 100.0 12.4 99.7 12.3 100.1 12.2 C 100.0 12.6 100.7 12.3 100.4 12.5 C 100.8 12.6 101.1 12.3 101.1 12.6 C 101.3 12.6 101.2 12.4 101.5 12.4 C 101.9 12.6 101.8 12.3 102.4 12.5 C 102.5 12.2 102.5 12.5 102.7 12.5 C 102.7 12.4 102.7 12.3 102.7 12.2 C 102.9 12.4 103.4 12.5 103.9 12.3 C 104.0 12.3 103.9 12.5 104.3 12.4 C 104.6 12.2 105.0 12.5 105.5 12.2 C 105.5 12.3 105.8 12.3 106.0 12.3 C 106.0 12.4 105.8 12.6 106.1 12.6 C 106.3 12.4 105.9 12.3 106.3 12.3 C 106.3 12.4 106.7 12.1 106.7 12.3 C 106.6 12.4 106.4 12.4 106.3 12.5 C 106.5 12.5 106.4 12.6 106.6 12.6 C 106.6 12.4 106.8 12.6 106.9 12.6 C 106.9 12.5 107.0 12.4 107.1 12.4 C 107.3 12.4 107.4 12.4 107.5 12.3 C 107.8 12.4 107.4 12.5 107.7 12.5 C 107.8 12.0 108.1 12.6 108.6 12.3 C 108.8 12.4 109.0 12.5 109.4 12.5 C 109.4 12.4 109.0 12.4 109.0 12.3 C 109.5 12.4 108.9 12.2 109.3 12.2 C 110.0 12.3 110.5 12.3 111.3 12.4 C 111.3 12.3 111.9 12.2 111.9 12.2 C 111.8 12.3 112.3 12.5 112.5 12.5 C 112.6 12.2 113.0 11.9 113.0 11.8 C 113.1 11.9 113.1 11.9 113.1 12.2 C 113.6 12.3 113.8 12.0 114.1 12.3 C 114.1 12.2 114.3 12.1 114.5 12.1 C 114.4 12.2 114.3 12.3 114.2 12.4 C 114.5 12.4 114.5 12.5 114.7 12.5 C 114.9 12.0 115.3 12.6 115.5 12.1 C 115.8 12.1 115.7 12.3 116.1 12.3 C 116.0 12.2 116.1 12.1 116.2 12.1 C 116.0 12.1 115.8 12.3 115.7 12.1 C 116.2 12.0 114.8 11.6 115.6 11.3 C 115.6 11.4 115.5 11.6 115.7 11.6 C 116.1 11.5 115.9 11.3 115.7 11.3 C 116.0 11.2 116.3 11.3 116.1 11.1 C 116.7 11.0 116.3 11.2 116.5 11.3 C 117.8 11.1 119.3 11.1 120.9 11.3 C 121.0 11.0 121.9 11.2 122.1 11.4 C 122.6 11.2 123.1 11.1 123.2 11.4 C 123.3 11.2 123.8 11.5 123.8 11.3 C 123.6 11.3 123.5 11.2 123.7 11.2 C 124.4 11.3 125.4 11.3 125.8 11.2 C 126.0 11.4 126.5 11.4 126.8 11.2 C 126.8 11.3 126.6 11.4 126.8 11.4 C 126.8 11.3 127.5 11.2 127.6 11.3 C 127.4 11.3 127.2 11.5 127.5 11.5 C 127.5 11.4 127.8 11.5 127.7 11.3 C 128.1 11.4 128.4 11.3 128.7 11.4 C 128.4 11.4 128.3 11.5 128.2 11.6 C 128.5 11.5 128.6 11.4 128.8 11.6 C 128.8 11.3 129.2 11.5 129.6 11.4 C 129.7 11.4 129.7 11.5 130.1 11.5 C 130.2 11.4 129.6 11.3 129.9 11.3 C 129.9 11.4 130.3 11.5 130.2 11.3 C 130.6 11.4 130.8 11.2 131.1 11.4 C 130.7 11.3 131.0 11.6 131.1 11.6 C 131.2 11.6 131.4 11.6 131.4 11.6 C 131.4 11.5 131.2 11.5 131.1 11.5 C 131.4 11.5 131.5 11.2 131.6 11.4 C 131.5 11.4 131.5 11.5 131.6 11.5 C 131.7 11.2 132.5 11.4 132.2 11.6 C 132.2 11.5 131.9 11.5 131.9 11.6 C 132.0 11.7 132.5 11.6 132.4 11.8 C 132.1 11.8 132.1 11.7 131.7 11.7 C 131.7 11.8 131.5 11.9 131.4 12.0 C 131.9 11.9 132.0 11.7 132.1 11.9 C 132.4 11.9 132.2 11.7 132.6 11.8 C 133.2 11.8 132.7 12.0 132.8 12.1 C 133.3 12.0 133.2 11.7 133.0 11.5 C 133.4 11.5 133.5 11.4 133.9 11.5 C 133.9 11.6 133.9 11.7 133.7 11.7 C 133.7 11.7 133.3 11.5 133.3 11.6 C 133.4 11.9 133.7 12.0 134.2 12.1 C 134.1 11.8 134.0 12.0 134.5 11.9 C 134.5 11.7 134.8 12.0 134.8 11.8 C 134.8 11.7 134.6 11.8 134.4 11.8 C 134.4 11.6 134.5 11.6 134.7 11.5 C 134.8 11.6 134.9 11.5 135.1 11.6 C 135.2 11.7 135.0 11.8 134.9 11.9 C 135.1 11.9 135.1 11.8 135.3 11.8 C 135.4 11.9 135.4 12.2 135.4 12.4 C 135.2 12.5 134.9 12.5 135.2 12.6 C 134.4 12.6 135.2 12.3 134.9 12.3 C 134.6 12.5 134.8 12.2 134.3 12.2 C 134.2 12.3 134.1 12.3 134.1 12.4 C 134.1 12.4 134.4 12.6 134.1 12.6 C 134.0 12.5 133.8 12.4 133.6 12.4 C 133.6 12.5 134.1 12.5 133.6 12.5 C 133.3 12.5 133.6 12.3 133.2 12.3 C 133.2 12.4 133.1 12.4 133.1 12.4 C 133.6 12.4 133.0 12.6 133.3 12.7 C 132.9 12.8 133.3 12.5 133.0 12.5 C 133.0 12.6 132.5 12.4 132.5 12.6 C 132.7 12.5 133.0 12.5 133.0 12.7 C 132.7 12.7 131.2 12.8 131.7 12.5 C 131.5 12.7 130.5 12.9 130.5 12.8 C 130.9 12.8 130.8 12.7 130.9 12.6 C 130.3 12.8 130.0 12.6 129.3 12.9 C 130.0 12.9 129.5 13.2 129.9 13.3 C 130.1 13.3 130.4 13.4 130.4 13.3 C 130.3 13.1 130.0 13.2 129.9 13.3 C 129.9 13.1 129.9 13.0 129.9 12.8 C 130.7 13.0 131.1 12.8 131.5 12.8 C 131.2 12.9 132.1 13.1 131.8 13.1 C 131.6 13.0 131.2 13.0 130.9 13.0 C 130.9 13.0 130.9 13.1 130.9 13.2 C 130.8 13.2 130.6 13.1 130.5 13.2 C 131.0 13.2 131.2 13.4 131.5 13.2 C 131.5 13.2 131.5 13.3 131.5 13.3 C 131.6 13.3 131.7 13.3 131.6 13.4 C 131.5 13.4 131.3 13.4 131.3 13.4 C 131.6 13.5 131.6 13.7 132.0 13.7 C 131.9 13.9 132.4 14.2 131.9 14.2 C 131.8 14.0 131.5 14.0 131.5 13.9 C 131.4 13.8 131.1 13.8 130.9 13.9 C 131.1 14.1 131.4 14.1 131.4 14.3 C 131.1 14.3 130.9 14.4 130.8 14.2 C 131.3 14.1 130.5 14.1 130.3 13.9 C 130.4 14.0 130.5 14.0 130.5 14.1 C 130.1 14.1 130.0 14.0 129.9 14.2 C 129.4 14.3 129.5 14.1 129.2 14.1 C 129.4 14.4 129.0 14.2 129.2 14.5 C 128.6 14.5 129.0 14.2 128.8 14.2 C 128.7 14.3 128.6 14.3 128.5 14.4 C 128.2 14.2 127.7 14.2 127.6 14.0 C 127.4 14.0 127.4 13.9 127.1 13.9 C 127.1 14.0 127.0 14.1 126.9 14.1 C 126.9 14.1 126.7 14.0 126.6 14.1 C 127.3 14.3 127.1 14.4 127.7 14.5 C 127.8 14.5 127.9 14.4 127.7 14.4 C 128.2 14.3 128.3 14.4 128.7 14.4 C 128.8 14.6 128.9 14.8 129.2 14.7 C 129.1 14.8 129.2 14.9 129.1 15.0 C 128.9 14.8 128.6 14.8 128.4 14.7 C 128.3 14.8 128.4 14.9 128.2 14.9 C 128.1 14.8 127.9 14.8 127.7 14.8 C 127.7 14.8 127.8 14.7 127.9 14.7 C 127.3 14.6 127.5 14.9 127.0 14.7 C 127.1 14.8 127.4 14.8 127.1 15.0 C 126.7 15.0 126.6 14.9 126.4 14.8 C 126.4 14.9 126.4 15.0 126.3 15.0 C 126.0 14.8 126.9 14.6 126.4 14.4 C 126.4 14.6 125.9 14.5 125.8 14.4 C 126.0 14.2 126.3 14.4 126.3 14.3 C 125.4 14.3 126.3 14.0 125.3 13.9 C 125.3 14.0 125.3 14.1 125.3 14.2 C 125.7 14.2 125.7 14.3 125.7 14.5 C 126.0 14.5 126.1 14.7 126.4 14.6 C 126.3 15.0 126.1 14.6 125.8 14.6 C 125.8 14.8 126.1 14.8 126.2 15.0 C 125.4 14.8 125.2 15.1 124.5 14.8 C 124.6 15.0 124.0 14.8 124.1 15.0 C 124.7 14.9 124.5 15.4 124.6 15.5 C 125.0 15.5 124.8 15.1 125.1 15.0 C 125.2 15.2 125.1 15.3 125.1 15.6 C 124.7 15.5 124.8 15.5 124.5 15.6 C 124.2 15.5 124.0 15.1 124.3 15.0 C 124.3 15.1 123.8 15.2 123.7 15.0 C 124.2 15.0 123.7 14.9 124.0 14.8 C 123.6 14.7 122.9 15.0 122.5 14.8 C 122.5 14.9 122.4 14.9 122.4 15.0 C 122.8 14.9 122.9 15.3 123.4 15.3 C 123.2 15.3 123.3 15.4 123.4 15.5 C 122.9 15.4 122.7 15.5 122.4 15.3 C 122.4 15.4 122.4 15.5 122.4 15.5 C 121.9 15.4 121.9 15.4 121.5 15.6 C 121.4 15.5 121.6 15.2 121.7 15.0 C 121.5 15.1 120.8 15.0 121.2 15.2 C 120.8 15.2 120.9 15.0 120.4 15.0 C 120.4 15.2 120.8 15.1 120.7 15.4 C 120.3 15.4 120.5 15.2 120.2 15.3 C 120.2 15.2 120.2 15.0 119.8 15.0 C 120.1 15.2 119.8 15.1 119.7 15.2 C 119.9 15.2 120.0 15.3 120.1 15.3 C 119.5 15.3 119.4 15.3 118.9 15.3 C 119.0 15.1 118.8 15.1 119.1 15.0 C 118.8 15.1 118.4 14.9 118.3 15.0 C 118.4 15.1 118.7 15.1 118.9 15.2 C 117.9 15.2 117.4 15.4 116.6 15.2 C 116.7 15.2 116.9 15.2 116.9 15.1 C 116.8 15.1 116.7 15.1 116.7 15.1 C 117.0 15.1 117.3 15.1 117.4 15.0 C 117.7 15.1 117.3 15.1 117.5 15.2 C 117.6 15.1 118.1 15.2 117.9 14.9 C 117.4 15.1 117.0 14.9 116.8 14.6 C 116.4 15.0 116.8 14.9 116.3 15.3 C 116.3 15.2 116.2 15.1 116.1 15.1 C 116.2 15.4 115.6 15.2 115.6 15.2 C 115.8 15.1 116.6 15.0 116.2 14.8 C 116.4 15.2 115.3 14.6 115.5 15.0 C 114.9 15.0 115.1 14.8 114.8 15.0 C 114.8 14.9 114.9 14.8 114.7 14.8 C 114.6 14.8 114.5 14.9 114.5 14.9 C 115.2 15.0 115.0 15.3 115.5 15.3 C 115.4 15.3 115.3 15.3 115.3 15.4 C 115.3 15.4 115.3 15.4 115.2 15.4 C 115.2 15.2 114.8 15.5 114.7 15.3 C 114.9 15.3 115.0 15.3 115.0 15.2 C 114.4 15.2 114.5 15.0 113.6 14.9 C 113.9 15.0 113.6 15.0 113.3 15.1 C 112.9 15.0 113.0 14.7 112.5 14.8 C 112.6 15.2 112.0 14.7 111.4 15.0 C 111.5 14.8 110.7 14.7 110.6 14.9 C 110.6 14.8 110.3 14.8 110.1 14.8 C 110.1 14.7 110.3 14.7 110.1 14.7 C 109.9 14.7 110.1 14.9 109.9 14.9 C 109.6 14.8 109.7 14.6 109.3 14.7 C 109.3 14.8 109.5 14.8 109.3 14.9 C 108.9 14.8 108.6 14.8 108.9 15.0 C 108.4 15.1 108.6 14.7 108.2 14.7 C 108.3 14.8 108.3 14.9 108.0 14.9 C 107.9 14.8 107.9 14.7 107.8 14.6 C 107.7 14.8 107.7 14.8 107.3 14.7 C 107.3 14.8 107.3 14.9 107.3 15.0 C 107.1 15.0 106.9 15.0 106.8 14.9 C 107.2 14.9 107.1 14.8 107.2 14.7 C 106.9 14.7 106.2 14.5 106.7 14.7 C 106.2 14.8 106.5 14.6 106.1 14.6 C 106.3 14.8 106.1 14.6 105.7 14.7 C 105.8 14.9 105.5 14.7 105.2 14.7 C 105.3 14.9 105.2 15.0 105.0 15.0 C 105.0 14.9 104.9 14.8 104.6 14.9 C 104.6 14.9 105.1 15.0 104.6 15.0 C 104.4 14.9 104.4 14.7 104.0 14.7 C 103.9 14.6 104.4 14.6 104.3 14.4 C 104.0 14.6 103.9 14.5 103.4 14.4 C 103.6 14.8 102.5 14.9 103.1 15.0 C 102.9 15.0 102.7 15.3 102.6 15.1 C 102.7 15.1 102.4 14.9 102.4 14.9 C 102.2 14.9 101.7 14.8 101.7 14.9 C 102.2 14.9 102.2 15.0 102.3 15.2 C 101.7 15.3 101.1 15.2 101.1 15.0 C 101.1 15.0 101.0 15.1 101.0 15.1 C 101.2 15.1 101.4 15.4 101.1 15.4 C 101.2 15.2 101.0 15.2 100.8 15.1 C 100.7 15.3 99.8 15.0 100.0 15.3 C 100.4 15.1 100.7 15.4 100.4 15.5 C 100.2 15.4 99.7 15.3 99.8 15.1 C 99.6 15.2 99.5 15.2 99.4 15.3 C 99.3 15.5 99.6 15.4 99.5 15.6 C 99.4 15.6 99.1 15.6 99.0 15.5 C 99.5 15.5 98.8 15.4 99.3 15.3 C 99.0 15.3 98.9 15.2 98.7 15.2 C 98.7 15.2 98.6 15.2 98.6 15.3 C 98.8 15.2 99.0 15.3 98.9 15.5 C 98.5 15.5 98.6 15.3 98.2 15.3 C 98.1 15.4 97.6 15.7 97.3 15.5 C 97.8 15.5 97.3 15.4 97.6 15.4 C 98.0 15.5 98.1 15.3 98.3 15.1 C 98.1 15.0 97.8 14.9 97.7 15.2 C 97.9 15.2 97.9 15.1 98.1 15.1 C 98.1 15.2 98.0 15.3 97.8 15.3 C 97.6 15.2 97.2 15.3 97.5 15.1 C 97.2 15.2 96.8 15.0 96.5 15.1 C 96.8 15.1 97.1 15.2 97.2 15.4 C 96.9 15.4 96.6 15.2 96.6 15.4 C 96.6 15.5 97.1 15.5 97.2 15.6 C 96.8 15.8 96.3 15.3 96.7 15.7 C 96.5 15.6 96.2 15.6 96.1 15.5 C 96.4 15.5 96.1 15.3 96.0 15.2 C 95.8 15.2 95.6 15.3 95.5 15.4 C 95.9 15.3 96.1 15.5 95.9 15.5 C 95.8 15.4 95.7 15.6 95.6 15.6 C 95.6 15.5 95.2 15.6 95.2 15.5 C 95.2 15.6 95.4 15.6 95.4 15.7 C 95.2 15.7 94.8 16.0 94.7 15.7 C 94.8 15.7 95.0 15.7 95.0 15.7 C 94.4 15.4 94.2 15.2 93.4 15.1 C 93.5 15.1 93.6 15.0 93.6 14.9 C 93.1 14.9 92.8 14.8 92.8 14.7 C 92.5 14.7 92.4 14.9 92.2 15.0 C 92.5 15.1 92.7 14.9 92.8 15.0 C 92.7 15.0 93.1 15.4 93.2 15.5 C 93.7 15.3 93.8 15.6 94.3 15.5 C 94.1 15.7 94.7 15.5 94.5 15.7 C 94.0 15.4 93.6 15.7 92.8 15.5 C 92.9 15.4 93.0 15.3 92.7 15.2 C 92.3 15.1 92.5 15.4 92.1 15.3 C 92.0 15.2 92.2 15.1 92.0 15.1 C 91.9 15.1 91.5 15.1 91.4 15.0 C 91.9 15.0 91.3 14.8 91.6 14.7 C 91.5 14.7 91.4 14.7 91.3 14.7 C 91.7 14.9 90.8 14.9 91.1 15.1 C 90.5 15.2 91.1 14.6 90.5 14.7 C 90.8 14.8 90.4 14.9 90.0 14.8 C 89.9 14.6 89.5 14.6 89.2 14.5 C 89.4 14.7 89.5 14.7 89.2 14.8 C 89.4 14.9 89.6 14.9 89.8 14.8 C 89.8 14.9 89.9 14.9 89.9 15.0 C 89.5 15.0 89.7 15.1 89.6 15.1 C 89.4 15.1 89.1 15.1 89.1 15.0 C 89.1 15.0 89.0 15.0 89.0 15.1 C 89.5 15.1 88.9 15.3 89.2 15.4 C 89.4 15.4 89.3 15.2 89.6 15.2 C 89.8 15.4 89.3 15.4 89.2 15.6 C 89.4 15.8 89.7 15.5 89.8 15.7 C 89.5 16.0 89.0 15.8 88.6 15.7 C 88.6 16.0 87.9 15.7 87.9 16.0 C 87.8 15.9 87.7 15.8 87.6 15.8 C 87.5 16.0 87.4 15.7 87.2 15.7 C 87.2 15.9 87.3 15.9 87.4 16.0 C 86.9 15.9 86.7 15.9 86.2 16.0 C 86.1 15.9 86.0 15.8 85.9 15.6 C 86.0 15.6 86.2 15.6 86.3 15.5 C 85.5 15.5 86.0 16.0 85.4 15.7 C 85.4 15.8 85.8 16.0 85.5 16.1 C 85.0 15.8 84.3 16.0 84.3 15.5 C 83.9 15.4 83.6 15.7 83.4 15.5 C 83.2 15.5 83.2 15.5 83.1 15.6 C 83.3 15.7 83.4 15.8 83.6 15.9 C 83.9 15.8 84.0 16.0 83.7 15.7 C 84.1 15.7 84.2 15.8 84.4 15.9 C 83.9 16.0 83.4 15.8 83.4 16.1 C 83.2 16.0 83.0 15.9 82.9 15.8 C 82.8 15.9 82.2 16.0 82.1 15.8 C 82.6 15.8 83.0 15.6 82.6 15.5 C 81.6 15.6 81.0 15.3 80.1 15.5 C 80.0 15.4 80.1 15.2 80.0 15.2 C 80.0 15.3 79.9 15.4 79.8 15.5 C 79.5 15.5 79.4 15.4 79.0 15.4 C 79.0 15.2 78.9 15.1 78.7 15.1 C 78.6 15.2 78.2 15.6 78.0 15.5 C 78.2 15.5 77.9 15.3 77.8 15.3 C 77.9 15.6 76.7 15.1 77.0 15.4 C 76.5 15.4 76.3 15.3 76.3 15.2 C 76.1 15.2 76.0 15.3 75.8 15.3 C 75.7 15.0 74.8 15.2 74.7 15.1 C 75.0 15.2 75.1 14.9 74.8 14.9 C 74.7 15.1 73.9 15.2 73.8 15.2 C 73.8 15.1 73.9 14.9 74.2 14.9 C 73.6 14.9 73.6 15.1 73.4 15.3 C 73.4 15.1 73.1 15.3 73.0 15.3 C 72.8 15.2 73.0 15.2 73.0 15.1 C 72.8 15.0 72.7 14.9 72.4 15.0 C 72.5 15.2 72.2 15.0 72.0 15.0 C 72.0 15.1 71.8 15.2 71.6 15.3 C 71.9 14.9 70.0 14.9 70.5 15.1 C 70.1 15.3 70.1 14.9 69.6 15.0 C 69.5 15.1 69.2 15.0 69.5 15.1 C 69.1 15.2 69.3 14.9 68.9 15.0 C 69.1 15.2 68.4 15.0 68.5 15.3 C 68.3 14.9 67.9 15.4 67.6 15.1 C 67.6 15.1 67.4 15.2 67.4 15.2 C 67.4 15.3 67.9 15.4 67.6 15.4 C 67.1 15.2 67.4 15.2 67.3 15.1 C 66.2 15.2 64.8 15.1 63.6 15.0 C 63.8 15.1 63.8 15.2 63.5 15.2 C 63.2 14.9 61.8 15.0 61.6 15.2 C 61.5 14.9 60.7 15.2 60.6 15.0 C 60.8 15.1 61.0 14.9 60.7 14.9 C 60.5 15.1 60.3 14.9 60.0 15.1 C 59.9 14.9 59.0 15.1 59.4 14.8 C 59.2 14.8 59.1 14.7 59.0 14.7 C 59.0 14.9 58.8 14.9 59.2 15.0 C 58.4 14.8 58.2 15.0 57.6 14.9 C 57.5 15.0 57.9 15.1 57.6 15.1 C 57.6 15.1 57.6 15.0 57.6 15.0 C 57.4 15.0 57.4 15.1 57.3 15.0 C 57.4 14.9 57.6 14.9 57.6 14.7 C 57.3 14.8 57.1 14.5 57.0 14.7 C 57.4 14.7 57.1 15.1 56.8 14.9 C 57.1 14.8 55.9 14.9 55.5 15.0 C 55.3 14.8 55.9 15.0 55.9 14.8 C 55.2 14.9 55.2 14.8 55.1 15.0 C 54.8 14.9 54.6 14.8 54.2 14.9 C 53.9 14.9 54.3 14.8 54.0 14.8 C 53.9 14.8 53.8 14.9 53.6 14.9 C 52.9 14.6 51.4 15.2 50.6 14.6 C 50.9 14.7 50.5 14.9 50.2 14.8 C 50.1 14.8 50.2 14.7 50.0 14.7 C 50.1 14.8 49.9 14.8 49.7 14.8 C 49.6 14.8 49.7 14.7 49.6 14.7 C 49.4 14.9 49.1 14.7 48.9 14.8 C 48.9 14.6 49.4 14.7 49.4 14.5 C 48.8 14.4 48.7 14.6 48.2 14.5 C 48.5 14.5 48.0 14.4 48.0 14.3 C 48.1 14.5 47.7 14.6 48.0 14.7 C 47.8 14.7 47.5 14.7 47.5 14.7 C 47.6 14.7 47.7 14.7 47.7 14.6 C 47.5 14.6 47.2 14.4 47.1 14.6 C 47.3 14.6 47.4 14.7 47.4 14.8 C 47.3 14.9 47.2 14.9 47.1 15.0 C 47.5 14.5 46.4 14.7 46.4 14.8 C 46.3 14.6 46.2 14.6 46.3 14.4 C 45.8 14.4 45.9 14.6 45.6 14.7 C 45.7 14.5 45.8 14.3 45.4 14.2 C 45.5 14.4 45.0 14.4 45.2 14.7 C 44.2 14.8 43.9 14.5 43.3 14.5 C 43.3 14.6 43.5 14.6 43.3 14.6 C 43.1 14.6 42.8 14.5 42.6 14.4 C 42.5 14.5 42.7 14.6 42.5 14.6 C 42.0 14.4 42.2 14.2 41.8 14.1 C 41.3 14.2 41.5 14.1 41.2 14.3 C 41.3 14.3 41.5 14.4 41.3 14.4 C 41.0 14.3 40.9 14.1 40.8 14.0 C 41.0 14.0 41.2 14.0 41.3 14.1 C 41.3 14.0 41.6 14.0 41.4 13.8 C 41.7 13.9 42.0 13.9 42.5 13.9 C 42.3 13.7 42.9 13.9 42.7 13.7 C 42.2 13.7 42.1 13.6 41.6 13.6 C 41.7 13.8 41.2 13.7 41.2 13.7 C 41.2 13.8 40.8 13.7 40.9 13.9 C 40.5 13.9 40.5 13.8 40.2 13.9 C 40.2 13.8 40.2 13.7 40.1 13.7 C 39.9 13.9 39.8 13.6 39.7 13.6 C 39.8 13.8 39.2 13.7 39.2 13.9 C 39.4 13.9 39.6 13.8 39.6 13.9 C 39.0 13.9 39.5 14.1 39.6 14.2 C 39.6 14.1 39.8 13.9 39.8 14.0 C 39.3 14.2 40.5 14.3 40.1 14.3 C 39.7 14.2 39.7 14.4 39.3 14.3 C 38.9 14.0 39.4 13.8 39.0 13.6 C 38.7 13.7 38.5 13.7 38.5 13.9 C 38.4 13.8 38.3 13.7 38.2 13.7 C 38.1 13.8 38.6 13.9 38.2 13.9 C 38.0 13.9 38.3 13.6 37.9 13.7 C 37.7 13.8 38.3 13.9 38.0 13.9 C 37.6 13.6 38.1 14.0 37.6 14.0 C 37.6 14.0 37.5 14.0 37.4 14.0 C 37.4 13.9 37.4 13.8 37.3 13.7 C 37.2 14.0 37.1 13.6 36.8 13.7 C 36.6 13.9 37.1 13.8 37.0 14.0 C 36.6 13.8 36.4 14.0 36.3 14.0 C 36.6 13.8 35.8 13.9 35.8 13.7 C 35.9 13.9 35.7 13.8 35.3 14.0 C 35.3 13.6 34.8 13.9 34.7 13.6 C 34.6 13.7 34.5 13.8 34.5 13.9 C 34.6 13.9 34.8 13.9 34.7 14.0 C 34.6 14.0 34.5 14.0 34.3 14.0 C 34.1 13.8 34.7 13.5 33.8 13.5 C 33.9 13.7 33.6 13.8 33.4 13.9 C 33.4 14.1 33.7 13.9 33.7 14.0 C 33.5 14.1 33.2 14.0 33.0 13.9 C 32.5 14.0 32.0 13.8 31.3 13.9 C 31.1 13.8 31.9 13.8 31.4 13.7 C 31.2 13.7 31.3 13.8 31.1 13.8 C 31.3 13.0 29.2 13.7 29.1 13.3 C 29.0 13.5 28.4 13.4 28.5 13.6 C 28.9 13.5 29.2 13.7 29.4 13.8 C 29.7 13.7 29.0 13.6 29.4 13.6 C 29.4 13.7 29.9 13.6 29.8 13.8 C 29.3 13.8 30.1 13.9 29.7 14.1 C 29.2 14.1 28.3 14.3 28.5 14.1 C 28.5 14.1 28.7 14.1 28.7 14.1 C 28.2 14.0 27.9 14.1 27.6 14.2 C 27.4 14.1 26.4 14.4 26.7 14.3 C 26.6 14.1 27.3 14.3 27.2 14.1 C 26.2 14.1 26.1 14.2 25.5 14.1 C 25.7 14.3 24.8 14.4 24.9 14.3 C 24.9 14.1 24.6 14.0 24.2 14.2 C 24.3 14.0 24.1 14.0 23.9 13.9 C 23.8 14.1 24.1 14.1 24.0 14.2 C 23.8 14.2 23.6 14.2 23.4 14.2 C 23.4 14.1 23.4 14.0 23.3 14.0 C 23.0 14.1 22.2 14.3 22.3 14.2 C 22.6 14.0 21.7 14.0 22.3 13.8 C 22.1 13.8 22.1 13.8 21.9 13.8 C 21.9 13.9 21.9 13.9 21.9 14.0 C 21.5 14.0 21.7 13.7 21.3 13.7 C 21.3 13.8 21.1 13.8 21.1 13.9 C 21.2 13.9 21.2 13.8 21.4 13.8 C 21.2 14.1 21.8 14.0 21.8 14.2 C 21.4 14.2 21.4 14.1 21.2 14.0 C 20.7 14.1 20.9 14.0 20.4 14.0 C 20.4 14.0 20.5 14.1 20.5 14.2 C 19.8 14.1 19.9 13.7 19.4 13.9 C 19.5 13.8 19.9 13.7 19.6 13.7 C 19.3 13.8 19.2 13.9 18.8 14.0 C 18.8 13.9 18.8 13.8 18.6 13.8 C 18.5 13.9 18.5 14.0 18.3 14.1 C 18.3 14.0 18.0 14.1 17.9 14.1 C 17.8 13.9 18.0 13.9 17.8 13.9 C 17.4 13.9 17.3 14.3 17.0 14.2 C 17.0 14.0 16.6 14.1 16.3 14.1 C 16.3 13.9 15.7 13.9 15.2 13.9 C 15.3 14.1 14.9 14.0 15.0 14.2 C 15.2 14.2 15.3 14.2 15.4 14.3 C 14.9 14.3 14.7 13.9 14.4 14.2 C 14.2 14.1 14.0 14.0 13.7 13.9 C 13.6 14.0 14.2 14.1 13.9 14.2 C 13.9 14.1 13.8 14.1 13.7 14.2 C 13.7 14.0 13.5 13.9 13.3 13.8 C 13.0 14.0 12.4 13.7 12.7 13.9 C 12.2 14.0 12.5 13.6 12.2 13.6 C 12.4 13.9 11.8 13.9 12.1 14.1 C 11.6 14.1 11.7 13.8 11.8 13.7 C 11.4 13.6 11.3 13.8 11.1 13.7 C 11.3 13.9 10.7 14.0 11.0 13.9 C 11.1 13.7 10.6 13.8 10.5 13.7 C 10.7 13.8 10.4 13.8 10.7 13.9 C 10.4 14.0 9.9 14.0 9.6 13.8 C 9.2 13.9 8.9 14.0 9.0 13.8 C 8.7 13.8 8.8 13.8 8.4 13.8 C 8.4 13.8 8.5 13.8 8.6 13.9 C 8.0 13.9 8.1 13.8 7.5 13.8 C 7.5 13.5 7.1 13.5 7.0 13.4 C 7.3 13.4 7.5 13.5 7.7 13.5 C 7.7 13.4 7.5 13.4 7.7 13.4 C 7.7 13.4 7.8 13.4 7.9 13.5 C 7.5 13.3 8.5 13.2 8.2 13.3 C 8.2 13.3 8.2 13.3 8.1 13.3 C 8.2 13.5 8.2 13.4 8.1 13.6 C 8.3 13.5 8.5 13.8 8.6 13.6 C 8.5 13.5 8.3 13.5 8.3 13.5 C 8.9 13.4 8.5 13.7 8.9 13.6 C 9.0 13.4 8.8 13.4 8.7 13.3 C 9.1 13.3 9.4 13.3 9.5 13.4 C 9.9 13.3 9.5 13.3 9.8 13.2 C 9.9 13.2 9.9 13.4 10.1 13.4 C 10.4 13.3 10.0 13.3 10.3 13.2 C 10.5 13.3 10.1 13.5 10.5 13.5 C 10.4 13.2 10.9 13.6 10.9 13.4 C 10.6 13.4 10.6 13.2 10.7 13.3 C 11.3 13.6 11.7 12.9 12.3 13.3 C 12.3 13.3 12.4 13.3 12.4 13.2 C 12.0 13.1 11.4 13.1 11.2 12.8 C 10.9 12.9 10.9 13.0 10.9 13.1 C 10.5 12.9 10.5 12.8 10.7 12.6 C 11.4 12.5 11.7 12.7 12.2 12.7 C 12.4 12.6 12.2 12.7 12.1 12.6 C 13.5 12.8 12.4 12.2 12.9 12.3 C 12.9 12.4 13.0 12.4 13.2 12.4 C 13.2 12.3 13.4 12.4 13.4 12.3 C 13.3 12.3 13.3 12.3 13.3 12.2 C 13.7 12.1 13.5 12.3 13.5 12.4 C 13.3 12.4 13.1 12.4 13.0 12.5 C 13.4 12.5 13.7 12.6 13.9 12.4 C 14.2 12.7 13.7 12.9 13.9 13.1 C 13.8 13.3 14.1 12.7 14.4 12.6 C 14.8 12.6 14.8 12.4 15.2 12.4 C 15.3 12.6 14.8 12.5 14.9 12.7 C 15.0 12.7 15.0 12.7 15.1 12.7 C 15.4 12.7 15.4 12.5 15.6 12.5 C 15.7 12.7 15.8 12.6 16.0 12.5 C 16.2 12.6 15.8 12.6 16.1 12.7 C 16.4 12.7 16.6 12.5 16.7 12.5 C 16.7 12.5 16.7 12.6 16.8 12.7 C 17.2 12.5 17.2 12.5 16.8 12.4 C 17.2 12.4 17.4 12.4 17.3 12.2 C 16.7 12.1 16.6 12.2 16.3 11.9 C 16.2 12.1 16.1 12.0 15.8 11.9 C 16.0 12.3 15.6 12.0 15.5 12.1 C 15.6 12.1 15.8 12.2 15.8 12.2 C 15.2 12.2 15.3 12.2 14.8 12.5 C 14.8 12.4 14.7 12.3 14.6 12.3 C 14.8 12.2 15.2 12.3 15.2 12.1 C 14.9 11.9 14.8 12.2 14.4 12.0 C 14.2 12.1 14.7 12.2 14.4 12.2 C 14.2 12.1 14.0 12.0 13.8 11.9 C 13.5 12.0 13.4 12.1 13.2 12.1 C 13.2 12.1 13.1 12.0 12.9 12.0 C 12.9 12.1 13.1 12.1 12.9 12.2 C 12.3 12.0 11.9 11.8 11.2 11.9 C 11.4 11.9 12.0 12.1 11.7 12.1 C 11.4 12.0 11.0 12.2 10.7 12.1 C 10.6 12.0 11.1 12.1 11.0 11.8 C 10.7 11.9 10.5 11.8 10.4 11.8 C 10.4 11.9 10.0 11.9 10.1 12.0 C 10.4 12.0 10.4 11.8 10.5 11.9 C 10.3 12.4 9.6 11.7 9.2 11.7 C 8.9 11.8 9.4 11.9 9.0 12.0 C 8.8 12.0 8.7 11.6 9.0 11.5 C 9.3 11.6 9.4 11.4 9.4 11.6 C 9.5 11.6 9.6 11.6 9.6 11.5 C 9.5 11.5 9.5 11.4 9.4 11.4 C 9.6 11.4 9.7 11.0 9.9 11.2 C 9.7 11.3 9.7 11.3 9.6 11.4 C 10.3 11.3 10.5 11.5 10.9 11.5 C 10.7 11.4 10.9 11.5 10.9 11.3 C 10.6 11.3 10.0 11.2 10.4 11.2 C 10.6 11.4 10.8 10.8 11.0 11.1 C 10.8 11.1 10.8 11.2 10.7 11.2 C 11.0 11.3 11.0 11.4 11.2 11.4 C 12.0 11.1 12.6 11.6 13.9 11.2 C 14.3 11.2 13.5 11.3 13.5 11.5 C 13.7 11.5 13.7 11.5 13.8 11.5 C 13.8 11.3 14.0 11.5 14.1 11.3 C 14.1 11.5 14.7 11.4 15.0 11.5 C 15.0 11.5 15.0 11.3 15.1 11.3 C 16.0 11.6 17.6 11.2 18.3 11.5 C 18.3 11.3 18.6 11.3 18.6 11.2 C 19.1 11.2 18.9 11.4 19.5 11.2 C 19.8 11.2 19.4 11.3 19.4 11.4 C 20.3 11.3 21.1 11.5 21.7 11.3 C 22.0 11.2 21.7 11.4 22.3 11.4 C 22.3 11.2 23.3 11.6 23.4 11.3 C 23.8 11.2 24.4 11.6 24.1 11.3 C 24.6 11.3 24.3 11.5 24.5 11.5 C 24.8 11.5 24.4 11.1 24.7 11.1 C 24.7 11.3 25.0 11.2 25.2 11.4 C 24.9 11.4 24.8 11.4 24.7 11.5 C 25.0 11.4 24.9 11.5 25.3 11.5 C 25.6 11.4 26.4 11.2 26.7 11.5 C 26.7 11.4 26.6 11.4 26.5 11.3 C 26.8 11.3 27.1 11.5 27.0 11.2 C 27.6 11.2 27.8 11.4 28.1 11.2 C 28.4 11.2 28.0 11.4 28.7 11.4 C 28.8 11.2 30.0 11.3 30.3 11.4 C 30.3 11.2 30.4 11.4 30.6 11.4 C 30.6 11.3 30.5 11.2 30.7 11.2 C 30.7 11.3 30.8 11.3 30.9 11.2 C 30.8 11.5 31.4 11.1 31.4 11.3 C 31.3 11.4 31.3 11.5 31.4 11.5 C 31.4 11.3 32.0 11.6 31.9 11.5 C 31.8 11.4 31.4 11.5 31.5 11.3 C 32.0 11.2 31.8 11.5 32.1 11.5 C 32.1 11.4 31.9 11.3 32.1 11.3 C 32.5 11.3 32.2 11.3 32.4 11.5 C 32.6 11.4 32.9 11.3 33.0 11.3 C 33.0 11.3 33.1 11.4 33.1 11.4 C 33.7 11.5 35.2 11.3 35.8 11.5 C 35.8 11.4 36.0 11.4 35.9 11.3 C 36.3 11.4 36.3 11.3 36.6 11.4 C 36.6 11.3 36.6 11.2 36.6 11.2 C 37.1 11.1 36.7 11.4 37.0 11.4 C 37.0 11.0 37.2 11.5 37.5 11.5 C 37.5 11.4 37.7 11.4 37.6 11.3 C 38.1 11.3 38.1 11.6 38.5 11.5 C 38.4 11.4 38.3 10.9 38.3 10.7 C 38.4 10.8 38.5 10.8 38.7 10.9 C 38.5 11.0 38.6 11.7 39.2 11.5 C 38.9 11.5 38.8 11.5 38.8 11.3 C 39.3 11.3 39.4 11.4 39.8 11.4 C 39.9 11.3 39.6 11.2 39.7 11.0 C 39.8 11.0 39.8 11.0 39.8 10.9 C 40.2 10.9 40.2 11.1 40.7 11.0 C 40.7 11.1 40.6 11.1 40.4 11.0 C 40.4 11.2 40.4 11.3 40.2 11.3 C 40.1 11.2 40.3 11.0 39.9 11.1 C 39.9 11.2 39.9 11.3 39.9 11.4 C 40.2 11.4 40.8 11.5 40.9 11.4 C 40.8 11.4 40.6 11.3 40.7 11.1 C 41.1 11.2 41.3 11.4 41.6 11.5 C 42.3 11.4 43.5 11.5 43.3 11.2 C 43.7 11.3 43.6 11.3 43.9 11.3 C 43.8 11.1 44.3 11.2 44.3 11.1 C 43.9 11.1 44.0 11.1 43.6 11.1 C 43.6 11.0 43.7 10.9 43.8 10.9 C 43.8 11.0 44.0 11.0 44.3 11.0 C 44.3 11.0 44.0 10.8 44.3 10.8 C 44.3 10.8 44.4 10.8 44.5 10.8 C 44.5 10.9 44.5 11.0 44.5 11.1 C 44.4 11.2 44.2 11.2 44.1 11.3 C 44.2 11.3 44.2 11.4 44.3 11.4 C 44.4 11.3 44.9 11.4 44.9 11.2 C 44.7 11.3 44.6 11.2 44.8 11.1 C 44.8 11.2 45.2 11.2 45.3 11.1 C 44.9 11.0 45.0 11.0 44.8 10.8 C 45.3 10.8 45.2 11.0 45.8 10.9 C 45.8 11.1 45.8 11.2 45.6 11.3 C 46.0 11.7 46.8 11.3 47.1 11.4 C 46.9 11.3 46.7 11.6 47.0 11.6 C 47.0 11.5 47.2 11.5 47.2 11.5 C 47.3 11.1 47.1 11.0 46.9 10.8 C 47.1 10.8 47.1 10.7 47.3 10.7 C 47.4 10.8 47.2 11.1 47.5 11.1 C 47.5 10.8 48.0 11.1 48.1 10.9 C 47.9 10.9 47.7 10.8 47.9 10.8 C 47.9 10.9 48.3 10.8 48.3 10.9 C 48.0 11.0 47.9 11.2 47.7 11.2 C 48.0 11.2 47.5 11.3 48.0 11.4 C 48.1 11.2 48.2 11.1 48.7 11.1 C 48.9 11.1 48.7 11.3 48.9 11.3 C 48.9 11.1 49.3 11.1 49.1 11.2 C 49.2 11.2 49.3 11.3 49.4 11.3 C 49.2 11.1 50.3 10.9 50.1 10.8 C 50.1 11.0 50.2 11.2 50.3 11.3 C 50.5 11.1 50.7 11.3 51.4 11.2 C 51.3 11.0 51.5 11.2 51.7 11.2 C 51.8 11.1 51.5 11.0 51.7 11.0 C 52.0 11.1 52.0 11.1 52.1 11.2 C 52.3 11.2 52.5 11.2 52.6 11.2 C 52.6 11.1 52.5 11.1 52.5 11.1 C 53.3 11.3 53.7 11.0 54.4 11.0 C 54.1 11.0 54.0 11.2 54.3 11.2 C 54.4 11.2 54.6 11.2 54.6 11.1 C 54.5 10.9 54.5 11.0 54.9 11.0 C 55.2 11.0 54.8 10.8 55.0 10.7 C 55.3 10.8 55.1 10.9 55.3 11.0 C 55.4 11.0 55.5 11.0 55.6 11.0 C 55.4 10.9 55.6 10.8 55.9 10.7 C 55.7 11.0 55.8 11.0 56.2 10.9 C 56.3 11.0 56.0 11.1 56.2 11.1 C 56.3 11.1 56.7 10.9 56.9 11.0 C 56.9 11.1 56.8 11.1 56.8 11.2 C 57.2 11.0 57.4 11.3 57.7 11.3 C 57.4 11.2 57.6 11.0 57.4 10.9 C 57.7 11.1 58.1 10.9 58.3 11.1 C 57.9 11.0 58.3 11.5 58.5 11.5 C 58.6 11.3 58.2 11.3 58.3 11.1 C 58.4 10.9 58.8 11.2 58.9 11.0 C 58.9 10.9 58.7 11.1 58.7 11.0 C 58.9 11.0 58.6 10.9 58.8 10.9 C 58.9 11.1 59.0 10.8 59.1 10.8 C 59.3 10.8 59.6 11.1 59.7 11.0 C 59.7 10.9 59.5 10.9 59.5 10.9 C 60.2 10.7 60.4 11.0 61.0 10.8 C 61.0 10.9 61.2 10.9 61.3 11.0 C 61.3 10.9 61.4 10.8 61.6 10.8 C 61.8 10.9 62.1 11.0 62.4 11.0 C 62.4 11.2 62.2 11.3 62.7 11.3 C 62.7 11.2 62.5 11.2 62.7 11.1 C 62.7 11.2 62.8 11.2 62.8 11.1 C 62.8 11.1 62.8 11.1 62.8 11.0 C 62.7 11.0 62.5 11.0 62.4 11.0 C 62.4 10.9 62.4 10.8 62.3 10.8 C 62.8 10.7 62.8 11.1 63.2 10.9 C 63.2 11.2 63.3 11.3 63.0 11.4 C 63.3 11.4 63.6 11.3 63.6 11.1 C 63.3 11.2 63.4 10.9 63.3 10.8 C 63.5 10.9 63.5 10.8 63.6 10.7 C 63.9 10.9 63.4 11.1 63.9 11.1 C 63.5 10.9 64.2 10.9 64.5 11.0 C 64.4 10.9 64.3 10.9 64.5 10.8 C 65.2 10.7 65.2 11.3 65.6 11.0 C 65.5 11.1 65.7 11.1 65.8 11.1 C 65.5 11.2 65.4 11.2 65.2 11.3 C 65.3 11.3 65.4 11.4 65.5 11.4 C 65.5 11.3 65.6 11.3 65.7 11.3 C 65.8 11.2 65.8 10.9 66.1 10.8 C 66.1 10.9 66.1 10.9 66.2 11.0 C 66.3 10.8 66.1 11.3 66.7 11.2 C 66.6 11.1 66.5 11.0 66.6 10.9 C 66.8 10.8 66.8 10.9 67.2 10.8 C 67.3 11.1 66.9 11.2 66.8 11.4 C 67.1 11.3 67.3 11.1 67.5 11.3 C 67.3 11.2 67.5 11.0 67.8 11.0 C 68.0 11.0 67.8 11.2 68.0 11.3 C 68.2 11.2 68.3 11.0 68.1 11.0 C 68.6 11.0 68.5 10.8 68.9 10.8 C 68.9 10.9 68.8 11.0 68.6 10.9 C 68.7 11.0 68.6 11.1 68.7 11.1 C 69.0 10.9 69.5 10.9 69.8 10.8 C 70.4 11.1 71.0 10.7 71.5 10.8 C 71.3 11.0 72.3 10.9 72.5 11.1 C 72.7 11.0 73.2 10.6 73.0 10.8 C 73.1 11.0 73.4 10.9 73.6 11.0 C 73.6 10.9 73.6 10.9 73.6 10.8 C 74.2 10.8 74.3 11.0 74.5 11.1 C 75.1 11.0 75.9 11.3 76.7 11.0 C 76.9 11.3 77.0 11.2 77.5 11.3 C 77.5 11.2 77.9 11.2 78.2 11.2 C 78.2 11.0 78.5 11.0 78.5 10.9 C 78.2 10.9 78.3 10.7 78.1 10.6 C 78.5 10.8 78.8 10.4 79.1 10.6 C 78.7 10.7 78.5 11.0 78.5 11.2 C 79.0 11.2 79.2 11.2 79.3 11.4 C 79.4 11.3 79.3 11.2 79.2 11.1 C 79.4 11.1 79.5 11.1 79.7 11.1 C 79.7 11.2 79.5 11.3 79.7 11.3 C 79.8 11.2 79.9 11.2 80.1 11.1 C 80.2 11.3 79.9 11.2 79.8 11.3 C 80.5 11.4 80.2 11.0 80.5 11.0 C 80.6 11.1 80.6 11.3 80.9 11.3 C 81.0 11.2 81.1 11.0 81.4 11.0 C 81.6 11.1 81.4 11.3 81.6 11.3 C 81.7 11.3 81.8 11.3 81.9 11.3 C 81.9 11.2 82.0 11.2 82.1 11.2 C 82.2 11.2 82.4 11.2 82.5 11.1 C 82.5 11.2 82.9 11.5 83.0 11.3 C 83.0 11.3 82.8 11.3 82.7 11.2 C 83.0 11.2 83.2 11.2 83.3 11.1 C 83.4 11.6 83.9 11.2 84.4 11.4 C 84.8 11.3 84.4 11.1 84.8 11.0 C 85.1 11.1 84.7 11.2 84.8 11.4 C 84.9 11.4 85.3 11.5 85.3 11.4 C 85.3 11.3 85.1 11.3 85.1 11.3 C 85.4 11.1 85.4 11.3 85.5 11.4 C 85.5 11.2 85.7 11.2 85.8 11.1 C 86.7 11.0 86.6 11.3 87.0 11.4 C 87.0 11.4 87.2 11.4 87.2 11.3 C 87.0 11.4 86.7 11.2 87.0 11.2 C 86.9 11.3 87.4 11.2 87.5 11.1 C 87.4 11.0 87.1 11.1 87.2 10.9 C 87.7 10.8 87.5 11.2 87.8 11.0 C 87.9 11.1 87.7 11.1 87.6 11.2 C 87.7 11.2 87.9 11.2 88.0 11.3 C 87.8 11.3 87.8 11.5 87.7 11.6 C 88.0 11.4 88.4 11.5 88.1 11.3 C 88.6 11.4 89.0 11.2 88.7 11.1 C 89.1 11.0 88.9 11.3 89.2 11.1 C 89.1 11.3 89.0 11.5 89.3 11.6 C 89.4 11.5 89.6 11.5 89.5 11.3 C 90.1 11.3 90.3 11.5 90.5 11.7 C 90.3 11.4 90.6 11.6 90.9 11.4 C 91.1 11.5 90.9 11.7 91.4 11.7 C 90.9 11.4 92.0 11.6 91.7 11.3 C 92.3 11.4 92.3 11.4 93.0 11.5 C 92.9 11.6 92.7 11.7 92.5 11.7 C 92.7 11.6 91.9 11.6 92.0 11.7 C 92.0 11.7 92.0 11.7 92.0 11.8 C 92.5 11.8 92.8 11.8 93.0 11.9 C 93.1 11.8 93.3 11.7 93.2 11.5 C 93.6 11.7 94.1 11.4 94.3 11.6 C 94.1 11.6 94.0 11.6 94.1 11.7 C 94.2 11.7 94.4 11.6 94.4 11.5 C 94.1 11.4 94.0 11.4 93.8 11.5 C 94.0 11.4 93.5 11.3 93.8 11.2 C 93.8 11.5 94.5 11.1 94.3 11.3 C 93.9 11.4 94.7 11.4 94.8 11.6 C 94.8 11.6 94.8 11.6 94.8 11.6 Z M 11.1 11.4 C 10.7 11.5 11.2 11.7 11.5 11.7 C 11.4 11.6 11.3 11.5 11.3 11.4 C 11.2 11.5 11.1 11.5 11.1 11.4 C 11.1 11.4 11.1 11.4 11.1 11.4 Z M 15.0 14.0 C 15.1 13.8 14.5 14.0 14.3 13.9 C 14.3 14.0 14.4 14.0 14.3 14.0 C 14.5 14.2 14.6 13.9 15.0 14.0 C 15.0 14.0 15.0 14.0 15.0 14.0 Z M 28.5 13.3 C 28.4 13.4 28.2 13.4 28.1 13.3 C 28.0 13.4 28.0 13.5 28.0 13.5 C 27.7 13.6 28.1 13.3 27.6 13.3 C 27.5 13.7 28.4 13.8 28.5 13.3 C 28.5 13.3 28.5 13.3 28.5 13.3 Z M 90.2 14.3 C 90.3 14.4 89.9 14.5 90.0 14.7 C 90.7 14.6 90.2 14.4 91.1 14.4 C 91.1 14.4 91.0 14.3 91.0 14.2 C 90.6 14.3 90.5 14.4 90.6 14.1 C 90.4 14.1 90.4 14.5 90.2 14.3 C 90.2 14.3 90.2 14.3 90.2 14.3 Z M 98.9 15.0 C 98.9 15.0 98.8 15.0 98.8 14.9 C 98.5 15.0 98.6 15.0 98.2 14.9 C 98.2 15.2 98.6 15.2 98.9 15.0 C 98.9 15.0 98.9 15.0 98.9 15.0 Z M 122.0 15.4 C 122.1 15.4 122.2 15.4 122.3 15.4 C 122.2 15.3 122.4 15.0 122.0 15.1 C 122.0 15.1 122.1 15.2 122.1 15.2 C 122.1 15.2 121.9 15.2 121.9 15.3 C 122.0 15.3 122.0 15.4 122.0 15.4 C 122.0 15.4 122.0 15.4 122.0 15.4 Z M 131.8 13.7 C 131.3 13.9 132.4 14.3 131.8 13.7 C 131.8 13.7 131.8 13.7 131.8 13.7 C 131.8 13.7 131.8 13.7 131.8 13.7 Z M 130.8 11.6 C 130.8 11.5 130.6 11.6 130.6 11.6 C 130.2 11.5 130.6 11.4 130.4 11.3 C 130.1 11.5 130.6 11.7 130.2 11.8 C 130.2 11.9 130.5 11.6 130.8 11.6 C 130.8 11.6 130.8 11.6 130.8 11.6 Z M 65.1 11.1 C 64.8 11.1 64.7 11.3 64.6 11.5 C 64.8 11.5 65.0 11.5 65.1 11.6 C 65.5 11.5 64.8 11.5 64.7 11.4 C 64.8 11.3 65.1 11.2 65.1 11.1 C 65.1 11.1 65.1 11.1 65.1 11.1 Z M 64.0 11.1 C 63.9 11.2 63.6 11.3 63.6 11.4 C 63.9 11.4 63.9 11.5 63.9 11.6 C 64.1 11.4 63.8 11.3 64.0 11.1 C 64.0 11.1 64.0 11.1 64.0 11.1 Z M 66.1 11.3 C 65.9 11.3 66.0 11.5 66.0 11.5 C 66.2 11.5 66.2 11.6 66.4 11.6 C 66.4 11.5 66.4 11.5 66.4 11.4 C 66.2 11.4 66.2 11.5 66.1 11.5 C 66.1 11.4 66.1 11.4 66.1 11.3 C 66.1 11.3 66.1 11.3 66.1 11.3 Z M 62.9 11.4 C 62.3 11.4 62.0 11.7 61.6 11.9 C 62.0 11.9 62.5 11.5 62.8 11.6 C 63.2 11.6 62.7 11.5 62.7 11.4 C 62.7 11.4 62.8 11.4 62.9 11.4 C 62.9 11.4 62.9 11.4 62.9 11.4 Z M 57.3 11.4 C 57.2 11.3 57.0 11.6 56.6 11.5 C 56.7 11.6 56.7 11.6 56.7 11.7 C 57.2 11.8 56.9 11.4 57.3 11.4 C 57.3 11.4 57.3 11.4 57.3 11.4 Z M 54.3 11.5 C 54.0 11.5 54.4 11.6 54.3 11.8 C 54.6 11.8 55.0 11.8 55.0 11.6 C 54.6 11.7 54.5 11.7 54.3 11.5 C 54.3 11.5 54.3 11.5 54.3 11.5 Z M 52.1 11.5 C 51.7 11.6 52.2 11.8 52.1 12.0 C 52.2 11.9 52.2 11.8 52.2 11.8 C 52.3 11.8 52.4 11.8 52.6 11.8 C 52.5 11.7 52.0 11.7 52.1 11.5 C 52.1 11.5 52.1 11.5 52.1 11.5 Z M 74.0 11.6 C 73.8 11.6 73.8 11.8 73.4 11.8 C 74.1 11.8 73.7 12.3 74.6 12.2 C 74.4 12.2 74.5 12.1 74.6 12.2 C 74.9 12.1 74.3 12.1 74.6 11.9 C 74.3 11.9 74.5 12.1 74.2 12.1 C 74.0 11.9 73.8 11.8 74.0 11.6 C 74.0 11.6 74.0 11.6 74.0 11.6 Z M 74.6 12.4 C 74.8 12.5 74.8 12.1 75.0 12.3 C 75.1 12.3 75.0 12.2 75.1 12.2 C 75.0 12.2 75.0 12.2 75.0 12.1 C 74.7 12.2 74.5 12.2 74.6 12.4 C 74.6 12.4 74.6 12.4 74.6 12.4 Z M 72.3 12.4 C 72.7 12.3 72.8 12.5 73.0 12.3 C 73.2 12.6 73.3 12.2 73.5 12.4 C 73.9 12.4 73.6 12.3 73.5 12.2 C 73.9 12.1 73.6 12.4 74.0 12.3 C 74.1 12.1 73.6 12.2 73.6 11.9 C 73.3 11.9 73.3 12.1 73.1 12.1 C 73.0 12.1 73.0 12.0 73.0 11.9 C 72.7 12.0 72.7 11.9 72.4 11.9 C 72.3 12.0 72.5 12.1 72.8 12.1 C 72.4 12.1 72.3 12.3 71.9 12.2 C 72.2 12.0 71.0 11.9 71.1 12.3 C 71.4 12.3 71.3 12.1 71.4 12.1 C 71.9 12.2 72.1 12.2 72.3 12.4 C 72.3 12.4 72.3 12.4 72.3 12.4 Z M 66.2 11.9 C 66.1 11.9 66.0 11.8 65.8 11.8 C 65.8 11.7 66.0 11.7 65.8 11.6 C 65.6 11.6 65.5 11.7 65.3 11.7 C 65.4 11.8 66.0 11.9 65.7 12.0 C 65.8 12.1 66.0 12.1 66.2 12.1 C 65.9 11.9 66.6 12.1 66.8 12.1 C 66.8 11.9 67.2 12.2 67.4 12.0 C 67.3 11.9 66.8 12.0 66.6 12.0 C 66.7 12.0 66.0 11.6 66.2 11.9 C 66.2 11.9 66.2 11.9 66.2 11.9 Z M 75.6 12.3 C 75.6 12.2 75.9 12.2 75.7 12.2 C 75.8 12.1 76.0 12.2 75.9 11.9 C 76.1 11.9 76.2 11.9 76.3 11.9 C 76.2 12.0 75.9 12.0 76.0 12.2 C 76.3 12.1 76.2 12.2 76.5 12.2 C 76.4 12.3 76.5 12.4 76.4 12.6 C 76.5 12.5 76.8 12.5 76.8 12.4 C 77.2 12.4 76.6 12.6 77.3 12.6 C 77.3 12.7 76.8 12.7 76.7 12.7 C 76.6 12.8 77.4 12.7 77.9 12.8 C 77.5 12.6 77.8 12.5 78.0 12.3 C 78.1 12.3 78.0 12.4 78.2 12.5 C 78.4 12.5 78.5 12.4 78.6 12.5 C 78.8 12.5 78.7 12.4 78.7 12.3 C 79.0 12.3 78.8 12.6 79.2 12.5 C 78.9 12.3 79.3 12.2 79.8 12.3 C 79.8 12.2 79.6 12.2 79.6 12.1 C 79.7 12.0 80.0 12.2 80.1 12.3 C 80.3 12.2 80.1 12.1 79.9 12.2 C 80.1 12.1 80.2 12.0 80.3 12.0 C 79.7 12.0 78.7 12.0 77.6 11.8 C 77.8 11.9 77.6 11.9 77.3 11.9 C 77.2 11.8 77.4 11.8 77.5 11.8 C 77.1 11.5 77.1 12.0 76.5 11.9 C 76.2 11.8 76.9 11.7 76.5 11.6 C 76.3 11.7 76.2 11.8 76.1 11.6 C 75.7 11.7 75.6 12.0 75.0 11.9 C 75.3 12.0 75.5 12.5 75.8 12.4 C 75.8 12.3 75.7 12.3 75.6 12.3 C 75.6 12.3 75.6 12.3 75.6 12.3 Z M 63.9 11.7 C 63.7 11.7 63.6 11.8 63.5 11.7 C 63.2 11.7 63.6 11.9 63.6 11.9 C 63.8 11.9 63.9 11.8 63.9 11.7 C 63.9 11.7 63.9 11.7 63.9 11.7 Z M 26.9 11.8 C 26.5 11.7 26.6 12.0 26.2 12.0 C 26.5 12.0 26.6 12.2 27.0 12.1 C 27.1 12.0 27.1 11.9 26.9 11.8 C 26.9 11.8 26.9 11.8 26.9 11.8 Z M 65.1 11.8 C 65.4 11.6 64.7 12.0 64.7 11.9 C 64.4 12.0 65.1 12.0 64.7 12.1 C 65.0 12.0 65.2 12.2 65.6 12.1 C 65.6 12.0 65.3 12.0 65.0 12.0 C 64.9 11.9 65.1 11.9 65.1 11.8 C 65.1 11.8 65.1 11.8 65.1 11.8 Z M 31.7 12.3 C 32.0 12.1 31.4 11.9 31.2 11.8 C 31.2 12.1 31.3 12.1 31.7 12.3 C 31.7 12.3 31.7 12.3 31.7 12.3 Z M 23.8 12.1 C 23.6 12.3 24.3 12.1 24.1 12.3 C 24.3 12.4 24.4 12.3 24.4 12.2 C 24.5 12.3 24.8 12.2 24.7 12.4 C 24.8 12.5 24.2 12.4 24.4 12.6 C 24.2 12.6 24.2 12.5 24.0 12.5 C 24.4 12.5 24.2 12.3 23.8 12.3 C 23.8 12.4 24.0 12.4 23.8 12.5 C 23.7 12.4 23.5 12.3 23.5 12.0 C 23.1 12.1 23.4 12.4 22.9 12.3 C 22.9 12.5 23.2 12.5 23.4 12.5 C 23.4 12.7 22.9 12.4 23.0 12.6 C 22.9 12.5 22.7 12.4 22.7 12.2 C 23.0 12.1 23.2 12.0 23.5 11.9 C 23.3 11.8 22.9 12.2 22.4 12.0 C 22.5 12.2 22.2 12.2 22.3 12.3 C 21.9 12.3 22.1 12.1 22.2 12.0 C 22.1 11.9 21.4 12.0 21.4 12.2 C 21.4 12.0 20.6 12.1 20.6 12.3 C 20.4 12.1 20.0 12.4 19.9 12.2 C 19.7 12.2 19.4 12.2 19.1 12.2 C 19.0 12.4 19.6 12.3 19.6 12.5 C 19.7 12.6 19.0 12.4 19.1 12.6 C 19.1 12.6 19.1 12.7 19.1 12.7 C 19.4 12.7 19.6 12.6 19.9 12.5 C 20.0 12.6 19.8 12.6 19.9 12.7 C 20.0 12.6 20.8 12.4 20.8 12.7 C 21.4 12.6 21.7 12.7 21.9 12.5 C 22.2 12.5 21.8 12.6 21.9 12.8 C 22.9 12.5 24.0 12.8 24.7 12.5 C 24.9 12.5 24.8 12.7 24.9 12.8 C 25.9 12.6 25.0 12.4 25.8 12.5 C 25.8 12.6 25.4 12.6 25.5 12.8 C 25.7 12.8 25.8 12.7 26.2 12.7 C 26.2 12.6 26.2 12.5 26.2 12.5 C 26.5 12.5 26.4 12.7 26.6 12.8 C 26.9 12.7 26.8 12.6 27.0 12.8 C 27.4 12.7 27.8 12.7 28.1 12.7 C 28.4 12.6 27.9 12.3 27.5 12.3 C 27.5 12.3 27.7 12.3 27.7 12.2 C 28.1 12.4 28.2 12.7 28.9 12.7 C 28.3 12.5 29.1 12.7 29.2 12.8 C 29.5 12.8 29.3 12.5 29.1 12.6 C 29.1 12.5 29.3 12.6 29.4 12.6 C 29.4 12.3 28.7 12.2 28.0 12.3 C 28.3 12.0 27.5 12.4 27.9 12.0 C 27.3 12.0 27.8 12.3 27.2 12.2 C 27.2 12.3 27.3 12.4 27.4 12.4 C 26.9 12.5 27.1 12.2 26.6 12.3 C 26.5 12.4 26.8 12.4 26.8 12.5 C 26.2 12.3 26.1 12.3 25.7 12.1 C 25.6 12.2 25.7 12.4 25.1 12.3 C 25.1 12.2 25.1 12.2 25.1 12.2 C 25.4 12.2 25.5 11.8 24.7 11.9 C 24.7 12.0 24.9 12.0 25.1 12.0 C 25.0 12.1 24.8 12.1 24.5 12.2 C 24.3 12.1 24.2 12.1 24.4 12.0 C 24.3 11.9 24.1 12.2 23.8 12.1 C 23.8 12.1 23.8 12.1 23.8 12.1 Z M 57.9 11.8 C 57.8 11.8 57.7 11.9 57.6 11.9 C 57.5 12.0 57.8 12.0 57.8 12.1 C 58.1 12.1 57.9 11.9 57.9 11.8 C 57.9 11.8 57.9 11.8 57.9 11.8 Z M 61.3 11.9 C 61.3 11.8 61.1 12.0 60.8 11.9 C 60.8 12.1 61.1 12.0 61.1 12.2 C 61.4 12.2 61.0 11.9 61.3 11.9 C 61.3 11.9 61.3 11.9 61.3 11.9 Z M 59.9 11.9 C 59.7 11.8 59.7 12.0 60.0 12.0 C 60.0 12.1 59.9 12.2 59.8 12.2 C 59.9 12.4 60.0 12.1 60.4 12.2 C 60.2 12.1 60.1 12.0 59.9 11.9 C 59.9 11.9 59.9 11.9 59.9 11.9 Z M 59.4 11.9 C 59.2 12.1 59.1 11.9 58.8 12.0 C 58.9 12.1 59.5 12.0 59.6 12.0 C 59.7 11.8 59.0 11.8 59.4 11.9 C 59.4 11.9 59.4 11.9 59.4 11.9 Z M 36.5 12.5 C 36.4 12.5 36.4 12.6 36.4 12.6 C 36.0 12.3 35.5 12.4 35.9 12.1 C 35.5 12.3 35.2 12.1 34.8 12.0 C 34.5 12.0 34.7 12.2 34.5 12.2 C 34.1 12.2 34.6 12.1 34.6 12.0 C 34.5 11.9 34.4 12.2 34.0 12.1 C 34.1 12.4 33.6 12.0 33.7 12.4 C 33.5 12.3 33.4 12.4 33.1 12.4 C 33.2 12.5 33.5 12.5 33.5 12.6 C 33.6 12.8 33.7 12.4 33.4 12.5 C 33.5 12.3 34.0 12.6 34.1 12.4 C 34.2 12.6 33.7 12.5 33.9 12.7 C 34.0 12.6 34.1 12.6 34.1 12.5 C 34.3 12.6 34.4 12.6 34.5 12.7 C 34.4 12.7 34.3 12.7 34.3 12.7 C 34.1 12.7 34.6 13.0 34.1 13.0 C 34.2 13.0 34.4 13.0 34.3 13.1 C 34.5 13.3 34.3 12.6 34.8 12.8 C 35.1 12.7 34.1 12.7 34.3 12.3 C 35.0 12.4 34.6 12.6 35.2 12.7 C 35.2 12.6 35.2 12.5 35.3 12.5 C 35.3 12.4 35.1 12.4 34.9 12.4 C 35.0 12.4 35.2 12.4 35.3 12.4 C 35.3 12.3 35.2 12.3 35.2 12.2 C 35.6 12.3 35.6 12.7 35.2 12.8 C 35.2 12.9 35.8 12.9 35.9 12.8 C 35.8 12.7 35.9 12.7 35.8 12.5 C 35.7 12.5 35.7 12.6 35.7 12.7 C 35.5 12.6 35.7 12.6 35.7 12.5 C 35.9 12.5 35.9 12.7 36.2 12.5 C 36.1 12.6 36.0 12.6 36.0 12.7 C 36.2 12.7 36.3 12.7 36.4 12.7 C 36.4 12.6 36.5 12.6 36.5 12.5 C 36.5 12.5 36.5 12.5 36.5 12.5 Z M 30.2 12.0 C 29.8 12.0 30.0 12.1 30.2 12.1 C 30.1 12.2 30.0 12.2 29.8 12.3 C 30.0 12.3 30.1 12.3 30.4 12.3 C 30.1 12.6 30.5 12.9 31.1 12.9 C 31.2 12.5 30.7 12.5 30.9 12.3 C 30.5 12.4 30.3 12.2 30.2 12.0 C 30.2 12.0 30.2 12.0 30.2 12.0 Z M 63.6 12.0 C 63.4 12.0 63.2 12.0 62.9 12.0 C 62.9 12.2 63.7 12.3 63.6 12.0 C 63.6 12.0 63.6 12.0 63.6 12.0 Z M 80.8 12.2 C 80.9 12.2 80.9 12.2 80.9 12.3 C 81.3 12.2 80.8 12.1 80.9 12.0 C 80.8 12.0 80.7 12.0 80.5 12.0 C 80.5 12.1 81.0 12.2 80.7 12.2 C 80.7 12.3 80.8 12.3 80.8 12.2 C 80.8 12.2 80.8 12.2 80.8 12.2 Z M 58.2 12.1 C 57.9 12.1 58.1 12.4 57.6 12.3 C 57.7 12.4 57.9 12.4 58.2 12.4 C 58.2 12.3 58.2 12.1 58.2 12.1 C 58.2 12.1 58.2 12.1 58.2 12.1 Z M 38.3 12.2 C 38.0 12.0 38.0 12.4 37.4 12.3 C 37.7 12.5 38.0 12.2 38.3 12.2 C 38.3 12.2 38.3 12.2 38.3 12.2 Z M 18.2 12.5 C 18.3 12.6 18.1 12.6 18.4 12.7 C 18.6 12.7 18.6 12.6 18.9 12.5 C 18.5 12.3 17.9 12.5 17.7 12.2 C 17.4 12.3 17.4 12.5 17.3 12.6 C 17.5 12.6 17.5 12.6 17.6 12.7 C 17.7 12.4 17.9 12.8 18.2 12.5 C 18.2 12.5 18.2 12.5 18.2 12.5 Z M 31.8 12.3 C 32.0 12.4 31.6 12.5 31.5 12.6 C 31.4 12.6 31.4 12.5 31.4 12.4 C 31.2 12.4 31.1 12.5 31.2 12.6 C 31.6 12.7 32.1 12.7 31.8 12.9 C 32.2 13.0 32.0 12.7 32.1 12.7 C 32.4 12.8 32.2 12.8 32.2 13.0 C 32.2 13.0 32.5 12.8 32.5 13.0 C 33.1 12.8 32.8 12.5 32.4 12.2 C 32.0 12.4 32.5 12.5 31.8 12.3 C 31.8 12.3 31.8 12.3 31.8 12.3 Z M 47.2 12.4 C 47.2 12.4 47.0 12.4 47.0 12.3 C 46.7 12.5 46.5 12.7 46.3 12.9 C 46.3 13.0 46.6 12.9 46.5 12.7 C 46.6 12.9 46.8 12.9 47.0 13.0 C 47.2 13.1 47.3 12.7 47.4 13.0 C 47.6 12.9 47.4 12.9 47.8 12.9 C 47.2 12.7 48.1 12.8 48.1 12.6 C 47.7 12.6 47.4 12.6 47.5 12.8 C 47.2 12.7 46.9 12.7 46.9 12.5 C 46.9 12.4 47.1 12.5 47.2 12.4 C 47.2 12.4 47.2 12.4 47.2 12.4 Z M 45.8 13.0 C 45.9 13.0 46.0 12.9 46.1 12.9 C 46.0 12.9 46.0 12.8 46.0 12.7 C 45.7 12.7 45.6 12.8 45.5 12.6 C 45.2 12.6 45.6 12.9 45.2 12.8 C 45.2 12.9 45.4 12.9 45.4 12.9 C 45.4 12.8 45.6 12.8 45.8 13.0 C 45.8 13.0 45.8 13.0 45.8 13.0 Z M 42.0 12.6 C 41.7 12.7 42.2 12.7 42.0 12.9 C 42.1 12.9 42.7 12.9 42.6 13.1 C 42.8 13.3 43.4 12.8 43.3 13.1 C 43.5 13.1 43.4 13.0 43.5 12.9 C 43.0 13.0 43.0 12.8 43.3 12.8 C 43.3 12.7 43.0 12.8 42.9 12.8 C 42.8 12.9 43.0 12.9 43.0 13.0 C 42.6 12.9 42.3 12.8 42.0 12.6 C 42.0 12.6 42.0 12.6 42.0 12.6 Z M 94.0 12.5 C 93.8 12.5 93.6 12.6 93.4 12.6 C 93.5 12.7 93.7 12.6 93.8 12.6 C 93.8 12.7 93.7 12.7 93.6 12.7 C 93.7 12.9 94.2 12.7 94.0 12.5 C 94.0 12.5 94.0 12.5 94.0 12.5 Z M 91.6 12.5 C 91.3 12.5 91.2 12.6 91.1 12.7 C 91.2 12.8 91.2 12.6 91.4 12.6 C 91.5 12.7 91.6 12.7 91.6 12.8 C 91.7 12.8 91.7 12.7 91.7 12.7 C 91.8 12.7 91.9 12.7 91.9 12.7 C 92.2 12.6 91.5 12.8 91.6 12.5 C 91.6 12.5 91.6 12.5 91.6 12.5 Z M 44.1 12.8 C 44.2 12.8 44.3 12.9 44.6 12.9 C 44.5 12.8 44.7 12.8 44.9 12.8 C 44.6 12.7 44.5 12.7 44.1 12.8 C 44.1 12.8 44.1 12.8 44.1 12.8 Z M 76.4 12.7 C 76.0 12.6 76.1 12.9 75.6 12.7 C 75.6 12.8 75.6 12.8 75.6 12.9 C 75.9 12.7 76.0 12.9 76.4 12.7 C 76.4 12.7 76.4 12.7 76.4 12.7 Z M 126.6 12.6 C 126.6 12.7 127.0 12.6 127.0 12.7 C 127.1 12.4 127.3 12.9 128.0 12.9 C 128.0 12.9 127.9 13.0 127.8 13.0 C 128.4 13.0 127.7 12.8 127.6 12.6 C 127.2 12.7 127.1 12.5 126.6 12.6 C 126.6 12.6 126.6 12.6 126.6 12.6 Z M 21.8 13.1 C 21.8 13.0 21.8 13.0 21.7 13.0 C 21.6 13.0 21.5 13.0 21.5 13.0 C 21.5 13.2 21.9 13.4 21.6 13.6 C 21.7 13.6 21.7 13.6 21.7 13.5 C 22.3 13.0 22.8 13.9 23.5 13.5 C 23.6 13.5 23.6 13.5 23.6 13.4 C 23.5 13.4 23.5 13.4 23.5 13.4 C 23.4 13.6 22.7 13.3 23.0 13.2 C 23.0 13.2 22.9 13.2 22.9 13.2 C 22.8 13.2 22.7 13.2 22.7 13.2 C 22.7 13.3 22.9 13.3 22.9 13.4 C 22.5 13.4 22.0 13.3 22.3 13.1 C 22.1 13.1 22.0 13.2 21.8 13.2 C 21.7 13.2 21.7 13.1 21.8 13.1 C 21.8 13.1 21.8 13.1 21.8 13.1 Z M 18.7 13.1 C 18.3 13.1 18.4 13.3 18.0 13.3 C 18.3 13.4 18.6 13.2 18.9 13.3 C 18.8 13.2 18.7 13.2 18.7 13.1 C 18.7 13.1 18.7 13.1 18.7 13.1 Z M 25.7 13.4 C 25.6 13.6 26.0 13.6 26.3 13.6 C 26.4 13.4 26.1 13.4 25.7 13.4 C 25.7 13.4 25.7 13.4 25.7 13.4 Z M 24.1 13.4 C 23.8 13.4 24.6 13.4 24.4 13.6 C 24.5 13.6 24.7 13.6 24.7 13.7 C 24.9 13.6 24.9 13.5 25.1 13.5 C 25.1 13.4 24.7 13.5 24.7 13.4 C 24.5 13.5 24.4 13.5 24.1 13.4 C 24.1 13.4 24.1 13.4 24.1 13.4 Z M 23.9 13.4 C 23.7 13.4 23.9 13.7 24.2 13.7 C 24.1 13.6 24.1 13.5 23.9 13.4 C 23.9 13.4 23.9 13.4 23.9 13.4 Z M 52.3 13.3 C 52.2 13.3 52.3 13.5 52.1 13.5 C 52.1 13.6 52.8 13.6 52.2 13.6 C 52.4 13.8 52.6 13.5 52.8 13.6 C 52.7 13.5 52.7 13.5 52.8 13.4 C 52.9 13.3 52.3 13.5 52.3 13.3 C 52.3 13.3 52.3 13.3 52.3 13.3 Z M 51.6 13.3 C 51.5 13.3 51.5 13.4 51.6 13.4 C 51.6 13.5 51.4 13.4 51.2 13.5 C 51.2 13.4 51.5 13.7 51.5 13.9 C 52.1 13.7 51.6 13.5 51.6 13.3 C 51.6 13.3 51.6 13.3 51.6 13.3 Z M 51.0 13.5 C 50.6 13.3 50.0 13.3 49.8 13.5 C 50.1 13.8 50.8 13.7 51.0 13.5 C 51.0 13.5 51.0 13.5 51.0 13.5 Z M 55.0 13.5 C 54.3 13.3 52.9 13.6 54.2 13.7 C 54.1 13.6 55.0 13.5 55.4 13.6 C 55.4 13.5 55.9 13.4 55.9 13.5 C 56.2 13.3 54.8 13.3 55.0 13.5 C 55.0 13.5 55.0 13.5 55.0 13.5 Z M 49.3 13.9 C 49.5 13.8 49.2 13.5 49.5 13.6 C 49.7 13.6 49.5 13.5 49.5 13.4 C 49.2 13.4 48.4 13.6 48.3 13.4 C 48.1 13.5 48.1 13.6 47.7 13.6 C 47.7 13.7 49.0 13.4 49.3 13.8 C 49.3 13.8 48.8 13.9 49.3 13.9 C 49.3 13.9 49.3 13.9 49.3 13.9 Z M 76.4 13.8 C 76.5 13.6 75.9 13.8 76.0 13.6 C 75.8 13.8 75.5 13.6 75.2 13.8 C 75.1 13.7 75.1 13.5 74.7 13.4 C 74.7 13.6 74.9 13.6 74.7 13.7 C 74.3 13.7 74.4 13.5 74.0 13.6 C 74.1 13.9 73.0 13.6 73.1 13.9 C 73.4 13.9 73.4 13.8 73.7 13.8 C 73.9 13.8 73.8 13.9 74.0 13.9 C 73.9 14.1 73.7 13.8 73.5 14.0 C 73.5 14.1 73.8 14.1 73.9 14.2 C 74.0 14.2 73.8 14.1 73.9 14.0 C 74.3 14.0 73.8 14.5 74.4 14.4 C 74.2 14.2 74.2 14.2 74.4 14.0 C 74.6 14.1 75.2 14.0 74.8 14.2 C 74.9 14.3 75.3 14.2 75.2 14.0 C 75.4 14.0 75.4 14.1 75.4 14.2 C 76.0 14.1 76.0 13.9 75.9 13.7 C 76.0 13.6 76.1 13.9 76.4 13.8 C 76.4 13.8 76.4 13.8 76.4 13.8 Z M 58.9 13.5 C 59.2 13.4 58.6 13.6 58.3 13.6 C 58.6 13.6 58.5 13.8 58.9 13.8 C 58.8 13.8 58.8 13.7 59.0 13.7 C 59.1 13.6 58.6 13.6 58.9 13.5 C 58.9 13.5 58.9 13.5 58.9 13.5 Z M 47.0 13.6 C 46.9 13.5 46.2 13.6 45.9 13.5 C 46.0 13.8 46.8 13.4 46.9 13.7 C 47.1 13.7 46.8 13.6 47.0 13.6 C 47.0 13.6 47.0 13.6 47.0 13.6 Z M 71.8 13.6 C 71.7 13.6 71.7 13.6 71.8 13.6 C 71.8 13.7 71.5 13.7 71.3 13.7 C 71.6 13.8 71.2 13.9 71.3 14.1 C 71.2 14.0 71.1 14.1 71.1 14.1 C 71.1 13.8 70.3 14.3 71.1 14.4 C 70.9 14.2 71.0 14.2 71.3 14.1 C 71.7 14.3 71.9 14.1 72.0 14.3 C 72.3 14.3 72.4 14.2 72.6 14.2 C 72.7 14.3 73.0 14.4 72.8 14.6 C 73.3 14.6 72.9 14.2 73.4 14.2 C 73.8 14.3 73.2 14.4 73.3 14.5 C 73.4 14.5 73.3 14.6 73.4 14.6 C 73.5 14.6 73.5 14.5 73.4 14.5 C 73.4 14.4 73.9 14.3 73.7 14.5 C 74.0 14.4 73.4 13.9 73.0 14.1 C 72.8 14.1 72.8 13.8 73.0 13.8 C 72.9 13.6 72.5 14.1 72.6 13.7 C 72.5 13.7 72.3 13.7 72.2 13.7 C 72.2 13.7 72.3 13.7 72.3 13.8 C 72.1 13.8 72.0 13.8 71.8 13.8 C 71.9 13.7 71.9 13.7 71.8 13.6 C 71.8 13.6 71.8 13.6 71.8 13.6 Z M 48.6 13.6 C 48.3 13.6 48.2 13.7 48.0 13.8 C 48.1 13.9 48.7 13.8 48.6 13.6 C 48.6 13.6 48.6 13.6 48.6 13.6 Z M 78.5 14.3 C 78.5 14.3 78.2 14.3 78.2 14.2 C 78.6 14.1 78.2 14.1 78.5 13.7 C 78.0 13.9 77.8 14.3 78.5 14.4 C 79.0 14.4 78.0 14.4 78.5 14.3 C 78.5 14.3 78.5 14.3 78.5 14.3 Z M 77.0 14.2 C 76.7 14.3 77.5 14.4 77.6 14.5 C 77.6 14.5 77.6 14.6 77.6 14.6 C 78.1 14.4 77.5 14.3 77.9 13.9 C 77.4 13.8 77.2 13.8 76.8 13.9 C 76.8 13.9 76.9 13.9 76.9 13.9 C 77.2 13.9 77.0 14.1 76.7 14.0 C 76.8 14.1 77.1 14.1 77.3 14.2 C 77.2 14.1 77.1 14.1 77.2 14.0 C 77.4 13.9 77.3 14.1 77.5 14.1 C 77.5 14.2 77.0 14.3 77.0 14.2 C 77.0 14.2 77.0 14.2 77.0 14.2 Z M 101.0 13.8 C 100.7 13.9 101.2 14.1 101.2 14.4 C 101.5 14.4 101.5 14.3 101.7 14.3 C 101.6 14.2 101.3 14.2 101.2 14.1 C 101.3 13.8 101.6 14.1 101.7 14.0 C 101.9 13.7 101.1 14.1 101.0 13.8 C 101.0 13.8 101.0 13.8 101.0 13.8 Z M 66.1 13.9 C 65.9 13.9 66.0 13.9 66.1 13.9 C 66.1 14.0 65.8 14.0 65.8 13.9 C 65.7 14.0 65.9 14.1 65.7 14.1 C 65.7 14.2 66.1 14.1 66.1 14.0 C 66.3 14.0 66.1 14.2 66.2 14.3 C 66.4 14.3 66.4 14.1 66.7 14.2 C 66.5 14.1 66.3 14.0 66.1 13.9 C 66.1 13.9 66.1 13.9 66.1 13.9 Z M 79.3 14.0 C 79.4 13.9 79.0 14.3 78.7 14.1 C 78.3 14.1 79.0 14.3 78.6 14.3 C 78.9 14.3 79.3 14.2 79.8 14.1 C 79.9 14.0 79.1 14.1 79.6 14.0 C 79.6 14.0 79.5 14.0 79.5 14.0 C 79.4 14.0 79.3 14.0 79.3 14.0 C 79.3 14.0 79.3 14.0 79.3 14.0 Z M 78.8 14.4 C 78.9 14.5 79.0 14.4 79.0 14.4 C 79.1 14.4 79.1 14.6 79.0 14.6 C 79.2 14.8 79.2 14.4 79.6 14.5 C 79.4 14.4 79.3 14.3 79.7 14.4 C 80.0 14.2 79.0 14.3 78.8 14.4 C 78.8 14.4 78.8 14.4 78.8 14.4 Z M 97.1 14.0 C 97.1 14.1 97.4 14.0 97.6 14.0 C 97.3 14.2 96.4 14.1 96.2 14.0 C 96.1 14.0 96.0 14.0 96.0 14.0 C 96.0 14.0 95.7 14.1 95.9 14.2 C 95.9 14.2 95.6 14.2 95.6 14.3 C 95.3 14.2 95.7 14.2 95.6 14.0 C 95.2 14.2 95.3 14.1 94.8 14.0 C 94.9 14.2 95.4 14.2 95.4 14.4 C 95.8 14.2 96.2 14.3 96.5 14.5 C 96.1 14.2 97.5 14.1 98.2 14.2 C 98.2 14.3 98.4 14.2 98.7 14.3 C 98.9 14.5 98.8 14.1 98.4 14.2 C 98.4 14.1 98.9 14.2 99.2 14.1 C 98.9 14.0 99.1 14.0 98.9 13.9 C 98.4 13.9 98.9 14.0 98.8 14.1 C 98.7 14.1 98.6 14.1 98.4 14.1 C 99.1 13.8 97.5 14.1 98.1 14.0 C 97.6 14.1 97.6 13.9 97.1 14.0 C 97.1 14.0 97.1 14.0 97.1 14.0 Z M 85.7 13.9 C 85.6 14.0 85.2 14.1 85.2 13.9 C 84.7 14.1 85.1 14.2 84.6 14.3 C 84.6 14.3 84.8 14.3 84.8 14.4 C 85.0 14.3 85.2 14.3 85.2 14.1 C 85.4 14.1 85.5 14.0 85.7 14.0 C 85.6 14.1 85.5 14.1 85.3 14.1 C 85.3 14.3 85.3 14.4 85.7 14.4 C 85.8 14.2 85.7 14.1 85.7 13.9 C 85.7 13.9 85.7 13.9 85.7 13.9 Z M 84.4 14.2 C 84.4 14.1 84.3 14.1 84.3 14.0 C 84.1 13.8 84.3 14.2 84.1 14.3 C 83.9 14.2 84.0 14.1 84.0 14.1 C 83.7 14.1 83.6 14.1 83.5 14.1 C 83.1 14.2 83.9 14.2 84.0 14.3 C 84.2 14.3 84.1 14.1 84.4 14.2 C 84.4 14.2 84.4 14.2 84.4 14.2 Z M 80.8 14.0 C 80.7 13.8 80.6 14.1 80.4 14.1 C 80.6 14.3 80.9 14.2 80.7 14.4 C 81.0 14.4 81.1 14.4 81.4 14.4 C 81.6 14.5 81.4 14.2 81.0 14.3 C 81.1 14.2 81.3 14.2 81.3 14.1 C 81.5 14.5 82.1 13.9 81.8 14.2 C 81.7 14.2 81.6 14.1 81.5 14.0 C 81.4 14.2 80.6 14.1 80.8 14.0 C 80.8 14.0 80.8 14.0 80.8 14.0 Z M 68.6 14.2 C 69.1 14.2 69.1 14.2 69.6 14.2 C 69.6 14.3 69.6 14.3 69.5 14.4 C 69.6 14.4 69.8 14.4 70.0 14.4 C 70.0 14.3 69.8 14.3 69.8 14.4 C 69.5 14.2 69.8 14.2 69.8 14.1 C 69.4 13.9 69.0 14.2 68.8 14.0 C 68.6 14.1 68.8 14.1 68.6 14.2 C 68.6 14.2 68.6 14.2 68.6 14.2 Z M 126.2 14.1 C 126.2 14.0 126.4 14.0 126.4 13.9 C 126.2 13.9 126.1 14.0 125.9 14.0 C 126.3 14.1 126.2 14.3 126.6 14.3 C 126.5 14.2 126.5 14.0 126.2 14.1 C 126.2 14.1 126.2 14.1 126.2 14.1 Z M 82.0 14.1 C 82.0 14.2 82.0 14.2 81.9 14.3 C 81.8 14.4 82.2 14.3 82.3 14.4 C 82.4 14.4 82.3 14.3 82.5 14.3 C 82.4 14.2 82.1 14.3 82.3 14.1 C 82.4 14.1 82.4 14.1 82.4 14.1 C 82.6 14.0 82.3 14.0 82.0 14.1 C 82.0 14.1 82.0 14.1 82.0 14.1 Z M 102.2 14.0 C 102.0 14.0 102.2 14.1 102.3 14.1 C 102.0 14.3 102.5 14.4 102.6 14.6 C 102.4 14.5 101.9 14.6 101.8 14.5 C 101.7 14.5 101.9 14.7 101.5 14.7 C 101.5 14.9 101.9 14.7 101.8 14.6 C 101.9 14.8 102.4 14.6 102.3 14.8 C 102.9 14.8 103.0 14.7 103.0 14.5 C 102.5 14.6 102.8 14.3 102.3 14.3 C 102.3 14.3 102.5 14.3 102.6 14.3 C 102.5 14.1 102.3 14.1 102.2 14.0 C 102.2 14.0 102.2 14.0 102.2 14.0 Z M 89.6 14.1 C 89.3 14.1 89.3 14.2 89.3 14.4 C 89.4 14.3 89.6 14.3 89.8 14.3 C 89.7 14.2 89.4 14.2 89.6 14.1 C 89.6 14.1 89.6 14.1 89.6 14.1 Z M 100.3 14.3 C 100.2 14.2 100.1 14.2 100.1 14.3 C 99.8 14.3 99.8 14.2 99.6 14.1 C 99.5 14.1 99.5 14.2 99.5 14.3 C 99.8 14.2 99.8 14.4 100.1 14.4 C 100.1 14.3 100.2 14.3 100.3 14.3 C 100.3 14.3 100.3 14.3 100.3 14.3 Z M 92.1 14.2 C 92.0 14.2 92.0 14.2 92.1 14.2 C 91.9 14.4 91.4 14.3 91.3 14.4 C 91.2 14.5 91.8 14.5 91.1 14.5 C 91.3 14.7 91.9 14.6 92.2 14.6 C 92.2 14.8 91.7 14.7 91.7 14.9 C 92.1 14.8 92.5 14.7 92.6 14.5 C 92.0 14.4 92.2 14.3 92.1 14.2 C 92.1 14.2 92.1 14.2 92.1 14.2 Z M 92.7 14.3 C 92.7 14.2 92.6 14.3 92.4 14.3 C 92.7 14.5 92.8 14.4 93.4 14.5 C 93.4 14.4 93.4 14.4 93.4 14.3 C 93.6 14.3 93.7 14.3 93.8 14.3 C 93.3 14.1 93.1 14.3 92.6 14.3 C 92.6 14.3 92.6 14.3 92.7 14.3 C 92.7 14.3 92.7 14.3 92.7 14.3 Z M 76.4 14.3 C 76.6 14.4 76.7 14.5 77.0 14.6 C 77.0 14.4 76.8 14.3 76.4 14.3 C 76.4 14.3 76.4 14.3 76.4 14.3 Z M 100.7 14.4 C 101.1 14.3 100.4 14.4 100.6 14.6 C 100.9 14.6 101.2 14.7 101.2 14.9 C 101.7 14.6 100.7 14.6 100.7 14.4 C 100.7 14.4 100.7 14.4 100.7 14.4 Z M 98.6 14.8 C 98.4 14.8 98.4 14.5 98.6 14.7 C 98.9 14.7 98.3 14.5 98.8 14.6 C 98.6 14.5 98.1 14.4 97.8 14.5 C 97.8 14.7 98.3 14.6 98.3 14.8 C 98.3 14.8 98.3 14.8 98.2 14.8 C 98.2 14.9 98.3 14.8 98.6 14.8 C 98.6 14.8 98.6 14.8 98.6 14.8 Z M 96.7 14.5 C 96.9 14.6 97.2 14.7 97.6 14.7 C 97.3 14.6 97.2 14.4 96.7 14.5 C 96.7 14.5 96.7 14.5 96.7 14.5 Z M 119.7 14.7 C 119.4 14.7 119.7 14.9 119.7 14.9 C 120.0 14.9 120.0 14.8 120.3 14.9 C 120.2 14.6 119.9 14.9 119.7 14.7 C 119.7 14.7 119.7 14.7 119.7 14.7 Z M 120.8 14.8 C 120.8 14.9 121.3 14.9 121.3 15.0 C 121.5 14.6 121.9 15.2 121.9 14.9 C 122.0 14.9 122.1 15.0 122.3 15.0 C 121.9 14.7 121.2 14.8 120.8 14.8 C 120.8 14.8 120.8 14.8 120.8 14.8 Z M 94.7 14.9 C 94.3 14.8 94.8 15.2 94.4 15.1 C 94.4 15.2 95.0 15.2 94.7 15.3 C 95.2 15.4 94.6 14.9 94.7 14.9 C 94.7 14.9 94.7 14.9 94.7 14.9 Z M 88.7 15.1 C 88.7 14.9 88.3 15.1 88.1 15.0 C 88.1 15.1 88.2 15.1 88.3 15.1 C 88.3 15.1 88.2 15.2 88.1 15.2 C 88.2 15.3 88.5 15.1 88.7 15.1 C 88.7 15.1 88.7 15.1 88.7 15.1 Z M 95.3 11.8 C 95.5 11.9 95.7 12.1 95.9 11.8 C 96.1 12.0 95.7 12.0 96.0 12.1 C 96.3 12.0 96.2 12.2 96.7 12.1 C 96.6 12.3 97.0 12.3 97.1 12.5 C 96.9 12.5 96.6 12.3 96.5 12.5 C 96.7 12.5 96.6 12.6 96.5 12.5 C 96.1 12.4 96.9 12.3 96.5 12.2 C 96.3 12.4 95.7 12.0 95.3 12.0 C 95.4 11.9 94.9 11.8 95.3 11.8 C 95.3 11.8 95.3 11.8 95.3 11.8 Z M 97.4 12.1 C 97.7 12.1 97.9 12.5 97.8 12.5 C 97.8 12.4 97.5 12.4 97.4 12.5 C 97.5 12.5 97.6 12.5 97.6 12.5 C 97.0 12.5 97.2 12.4 97.1 12.2 C 97.4 12.2 97.5 12.3 97.6 12.2 C 97.5 12.2 97.4 12.2 97.4 12.1 C 97.4 12.1 97.4 12.1 97.4 12.1 Z M 103.9 15.1 C 103.8 15.0 103.8 15.1 103.7 15.2 C 103.6 14.9 103.0 15.2 102.9 15.1 C 103.1 15.0 103.4 15.0 103.5 14.9 C 103.4 14.9 103.3 14.8 103.2 14.9 C 103.2 14.7 103.6 14.7 103.7 14.6 C 103.7 14.7 103.9 14.6 103.9 14.7 C 103.4 14.8 104.2 15.1 103.9 15.1 C 103.9 15.1 103.9 15.1 103.9 15.1 Z M 91.9 15.1 C 91.8 15.3 92.3 15.7 91.9 16.0 C 91.8 15.8 91.7 15.6 91.7 15.4 C 91.4 15.5 91.3 15.4 91.1 15.6 C 90.6 15.0 91.6 15.6 91.9 15.1 C 91.9 15.1 91.9 15.1 91.9 15.1 Z M 89.9 15.3 C 90.0 15.1 89.7 15.2 89.8 15.0 C 90.0 15.1 90.8 15.0 90.5 15.1 C 90.3 15.1 90.3 15.3 89.9 15.3 C 89.9 15.3 89.9 15.3 89.9 15.3 Z M 39.8 13.8 C 40.2 13.7 40.4 14.0 40.2 14.1 C 40.3 13.9 39.7 14.1 39.8 13.8 C 39.8 13.8 39.8 13.8 39.8 13.8 Z M 53.9 10.9 C 53.6 10.8 53.4 10.9 53.3 10.7 C 53.7 10.7 53.6 10.8 53.9 10.8 C 53.9 10.7 54.1 10.7 54.2 10.7 C 54.0 10.8 54.0 10.9 53.9 10.9 C 53.9 10.9 53.9 10.9 53.9 10.9 Z M 82.5 11.1 C 82.5 11.0 82.3 11.0 82.4 10.8 C 82.7 10.9 83.2 10.8 83.5 10.7 C 83.5 10.7 83.5 10.8 83.5 10.9 C 82.9 10.8 82.7 11.0 82.5 11.1 C 82.5 11.1 82.5 11.1 82.5 11.1 Z M 81.8 10.7 C 81.7 10.8 81.9 11.0 81.6 11.0 C 81.6 10.9 81.2 10.7 81.4 10.7 C 81.5 10.8 81.6 10.8 81.8 10.7 C 81.8 10.7 81.8 10.7 81.8 10.7 Z M 102.2 11.6 C 102.5 11.6 102.1 11.5 102.1 11.4 C 102.3 11.4 102.6 11.4 102.7 11.5 C 102.5 11.5 102.3 11.8 102.2 11.6 C 102.2 11.6 102.2 11.6 102.2 11.6 Z M 97.7 12.1 C 97.1 12.1 97.3 11.8 96.7 11.7 C 97.0 11.6 97.5 11.6 97.7 11.5 C 97.7 11.6 97.8 11.6 97.8 11.7 C 97.6 11.7 97.6 11.6 97.3 11.6 C 97.4 11.8 97.4 11.7 97.3 11.9 C 97.5 11.9 97.6 11.9 97.7 11.9 C 97.6 12.0 97.9 12.0 97.7 12.1 C 97.7 12.1 97.7 12.1 97.7 12.1 Z M 102.1 12.1 C 102.3 12.0 102.5 12.3 102.3 12.3 C 102.3 12.2 102.1 12.3 102.1 12.2 C 102.4 12.2 101.8 12.1 102.0 12.0 C 102.2 12.0 102.2 11.9 102.2 11.8 C 102.3 11.8 102.5 11.8 102.6 11.9 C 102.5 11.9 102.3 11.9 102.3 11.9 C 102.4 11.9 102.5 11.9 102.4 12.0 C 102.2 12.0 102.1 12.0 102.1 12.1 C 102.1 12.1 102.1 12.1 102.1 12.1 Z M 100.4 12.1 C 100.7 12.1 100.7 12.3 100.9 12.4 C 100.4 12.3 100.3 12.1 100.0 12.0 C 100.4 12.0 100.7 11.8 100.9 11.9 C 100.7 12.0 100.4 12.0 100.4 12.1 C 100.4 12.1 100.4 12.1 100.4 12.1 Z M 8.2 12.7 C 8.5 12.8 8.7 13.0 9.0 13.0 C 9.1 12.9 8.6 12.5 8.8 12.6 C 9.1 12.6 8.9 12.8 9.2 12.9 C 8.9 12.6 10.3 12.6 10.4 12.9 C 10.2 12.9 10.1 12.9 10.1 13.0 C 9.6 13.0 9.3 13.2 8.9 13.2 C 8.6 13.0 7.7 12.9 7.2 13.2 C 6.9 12.8 6.3 13.2 5.9 12.9 C 5.8 13.0 6.3 13.1 5.9 13.2 C 5.6 13.0 5.8 12.9 5.5 12.8 C 5.5 12.9 5.6 13.0 5.4 13.1 C 5.4 12.9 5.2 12.9 5.2 12.9 C 5.8 12.9 5.1 12.6 5.6 12.6 C 5.9 12.7 5.4 12.9 6.0 12.9 C 6.2 12.8 6.4 12.8 6.4 12.6 C 6.5 12.6 6.6 12.5 6.7 12.5 C 6.5 12.7 7.6 12.4 7.1 12.7 C 7.1 12.7 6.7 12.7 6.5 12.8 C 6.7 12.9 7.0 12.8 7.3 12.7 C 7.5 12.9 7.3 12.9 7.5 13.0 C 7.8 12.9 7.4 12.7 7.6 12.6 C 7.5 12.6 7.3 12.6 7.3 12.6 C 7.9 12.8 8.1 12.5 8.3 12.6 C 8.1 12.7 8.6 12.7 8.2 12.7 C 8.2 12.7 8.2 12.7 8.2 12.7 Z M 3.8 13.0 C 3.7 13.0 3.6 13.0 3.4 13.0 C 3.4 12.8 3.9 12.8 3.6 12.6 C 4.1 12.7 3.6 12.9 3.8 13.0 C 3.8 13.0 3.8 13.0 3.8 13.0 Z M 6.2 13.7 C 6.4 13.8 6.3 13.4 6.5 13.4 C 6.2 13.4 5.9 13.5 5.9 13.3 C 6.2 13.4 6.4 13.4 6.7 13.3 C 6.4 13.6 7.1 13.5 7.2 13.7 C 7.0 13.8 6.7 13.8 6.4 13.8 C 6.4 13.7 5.9 13.7 6.2 13.7 C 6.2 13.7 6.2 13.7 6.2 13.7 Z M 5.3 13.9 C 5.2 13.8 4.7 13.9 4.8 13.7 C 5.1 13.7 5.2 13.6 5.2 13.5 C 5.4 13.5 5.4 13.5 5.6 13.5 C 5.8 13.8 5.4 13.7 5.3 13.8 C 5.3 13.8 5.4 13.9 5.3 13.9 C 5.3 13.9 5.3 13.9 5.3 13.9 Z M 129.0 14.7 C 128.9 14.4 129.3 14.5 129.4 14.6 C 129.3 14.4 129.4 14.4 129.7 14.3 C 129.6 14.5 130.0 14.5 130.3 14.7 C 130.4 14.5 130.0 14.5 130.4 14.4 C 130.7 14.5 131.0 14.4 131.5 14.3 C 131.6 14.5 131.4 14.6 131.3 14.6 C 131.6 14.6 131.5 14.8 131.8 14.8 C 131.7 14.7 131.9 14.6 132.0 14.7 C 131.6 14.8 132.6 14.9 132.1 15.0 C 132.1 14.9 132.0 15.0 131.9 15.0 C 132.0 14.8 131.4 14.8 131.3 14.7 C 131.0 15.1 130.4 15.0 129.7 14.8 C 129.6 14.7 129.9 14.7 129.7 14.7 C 129.7 14.7 129.4 14.7 129.3 14.8 C 129.3 14.7 129.2 14.6 129.1 14.6 C 129.1 14.6 129.1 14.7 129.0 14.7 C 129.0 14.7 129.0 14.7 129.0 14.7 Z M 28.1 14.7 C 28.1 15.0 28.9 14.8 29.1 14.7 C 29.1 15.1 27.7 15.0 28.1 14.7 C 28.1 14.7 28.1 14.7 28.1 14.7 Z M 23.4 14.9 C 23.6 14.9 23.5 14.8 23.6 14.7 C 23.7 14.9 24.1 14.6 24.1 14.7 C 23.9 14.9 23.8 14.9 23.4 14.9 C 23.4 14.9 23.4 14.9 23.4 14.9 Z M 19.0 14.9 C 19.4 14.8 18.8 14.8 18.9 14.7 C 19.2 14.7 19.5 14.7 19.5 14.9 C 19.2 14.8 19.1 15.0 19.0 14.9 C 19.0 14.9 19.0 14.9 19.0 14.9 Z M 25.6 15.1 C 25.9 15.2 25.4 15.4 25.4 15.3 C 25.7 15.2 25.1 15.1 24.9 15.2 C 24.9 14.9 25.0 15.0 24.9 14.8 C 25.3 14.7 24.9 15.0 25.2 15.0 C 25.4 14.9 25.2 14.9 25.2 14.7 C 25.4 14.7 25.5 14.7 25.6 14.7 C 25.6 14.8 25.6 14.9 25.6 15.0 C 25.4 15.0 25.3 15.0 25.4 15.2 C 25.5 15.2 25.5 15.1 25.6 15.1 C 25.6 15.1 25.6 15.1 25.6 15.1 Z M 135.3 15.0 C 135.5 15.0 135.3 14.9 135.2 14.9 C 135.1 15.0 135.0 15.3 134.8 15.1 C 135.3 15.0 134.6 14.9 134.9 14.8 C 135.0 14.9 135.3 14.7 135.5 14.8 C 135.6 14.9 135.4 15.2 135.3 15.0 C 135.3 15.0 135.3 15.0 135.3 15.0 Z M 134.4 14.9 C 134.4 14.9 134.5 14.9 134.7 14.9 C 134.5 15.1 134.7 15.1 134.5 15.2 C 134.6 15.1 133.9 15.1 134.3 15.0 C 134.6 15.1 134.2 14.9 134.1 14.9 C 134.2 14.9 134.5 14.7 134.6 14.8 C 134.5 14.8 134.4 14.8 134.4 14.9 C 134.4 14.9 134.4 14.9 134.4 14.9 Z M 126.5 15.1 C 126.5 15.3 126.7 15.3 126.8 15.3 C 126.1 15.3 125.6 15.3 125.3 15.3 C 125.6 15.3 125.6 15.1 125.4 15.0 C 125.7 15.1 125.8 15.0 125.9 15.1 C 125.7 15.2 126.1 15.1 126.5 15.1 C 126.5 15.1 126.5 15.1 126.5 15.1 Z M 126.5 15.1 " fill="#EE851F"></path><path d="M 129.9 0.6 C 129.8 0.7 129.8 0.9 129.7 0.8 C 129.6 0.9 129.7 0.9 129.8 1.0 C 129.7 1.0 129.7 0.9 129.6 0.9 C 129.6 1.0 129.6 1.1 129.5 1.1 C 129.6 1.2 129.8 1.0 129.9 1.0 C 129.9 1.0 129.9 0.7 130.0 0.8 C 130.1 0.7 130.0 0.8 129.9 0.6 Z M 127.8 0.6 C 127.8 0.3 127.4 0.3 127.6 0.2 C 127.6 0.1 128.0 0.0 127.9 0.2 C 127.8 0.3 127.9 0.7 127.8 0.6 Z M 130.6 1.1 C 130.6 1.2 130.5 1.3 130.5 1.3 C 130.4 1.3 130.4 1.0 130.6 1.1 C 130.5 1.1 130.6 1.1 130.6 1.1 Z M 131.4 5.6 C 131.4 5.7 131.5 5.7 131.6 5.7 C 131.6 5.5 131.6 5.4 131.4 5.4 C 131.5 5.4 131.6 5.5 131.4 5.6 Z M 135.8 9.5 C 135.9 9.6 135.9 9.6 135.9 9.6 C 135.9 9.6 135.9 9.6 135.9 9.6 C 136.1 9.7 136.4 9.5 136.4 9.2 C 136.3 9.3 136.3 9.3 136.3 9.4 C 136.2 9.3 136.2 9.2 136.1 9.3 C 136.2 9.3 136.3 9.4 136.2 9.5 C 136.2 9.4 136.1 9.5 136.0 9.5 C 135.9 9.3 136.2 9.3 136.1 9.0 C 135.7 9.1 136.0 9.5 135.8 9.5 Z M 133.1 7.5 C 133.1 7.5 133.1 7.5 133.1 7.5 C 133.0 7.5 133.0 7.6 133.1 7.6 C 133.1 7.6 133.1 7.5 133.1 7.5 Z M 131.5 3.9 C 131.5 3.8 131.5 3.8 131.5 3.7 C 131.4 3.8 131.3 3.8 131.3 3.8 C 131.4 3.9 131.4 4.0 131.5 3.9 Z M 128.9 2.0 C 129.1 2.2 129.0 2.2 129.1 2.4 C 129.2 2.4 129.2 2.3 129.2 2.3 C 129.3 2.5 129.2 2.4 129.4 2.5 C 129.2 2.6 129.3 2.7 129.5 2.8 C 129.5 3.0 129.6 3.2 129.8 3.2 C 129.8 3.1 129.8 3.1 129.9 3.0 C 129.8 3.1 130.1 3.2 129.9 3.3 C 129.7 3.2 130.0 3.4 130.1 3.2 C 130.0 3.4 130.2 3.3 130.3 3.5 C 130.2 3.5 129.9 3.7 130.1 3.8 C 130.1 3.6 130.3 3.8 130.4 3.5 C 130.5 3.7 130.2 3.8 130.4 3.9 C 130.4 3.8 130.4 3.9 130.5 4.0 C 130.6 3.9 130.6 3.9 130.7 4.0 C 130.6 4.0 130.6 4.1 130.6 4.1 C 130.6 4.2 130.6 4.3 130.5 4.4 C 130.5 4.5 130.6 4.5 130.6 4.5 C 130.7 4.6 130.6 4.3 130.7 4.3 C 130.7 4.4 130.7 4.6 130.7 4.7 C 131.0 4.6 130.7 5.0 130.9 5.1 C 130.9 5.1 130.9 5.0 130.9 4.9 C 131.0 4.8 131.1 4.9 131.2 4.8 C 131.3 5.0 131.5 5.1 131.4 5.3 C 131.5 5.2 131.5 5.1 131.6 4.9 C 131.6 4.9 131.7 5.0 131.7 5.0 C 131.7 5.0 131.7 5.1 131.7 5.1 C 131.6 5.0 131.5 5.2 131.5 5.2 C 131.6 5.2 131.7 5.2 131.8 5.3 C 131.6 5.3 131.6 5.5 131.7 5.7 C 131.7 5.7 131.7 5.7 131.8 5.7 C 131.8 5.6 131.8 5.6 131.8 5.5 C 131.8 5.6 131.8 5.6 131.9 5.6 C 131.9 5.6 132.0 5.6 131.9 5.6 C 131.9 5.6 131.9 5.7 131.9 5.7 C 131.9 5.7 132.0 5.7 132.0 5.7 C 132.0 5.8 131.9 5.7 131.8 5.9 C 131.8 5.9 131.8 5.9 131.8 5.9 C 131.8 5.9 131.9 5.9 131.9 5.9 C 131.9 5.9 131.9 5.9 132.0 5.9 C 131.9 5.9 131.9 5.9 131.9 6.0 C 131.9 6.0 131.9 6.0 131.9 6.0 C 131.9 6.0 131.9 6.0 131.9 6.0 C 131.9 6.0 131.9 6.0 131.9 6.0 C 131.9 6.0 131.9 6.0 131.9 6.0 C 132.0 6.0 132.2 5.9 132.3 5.9 C 132.3 6.0 132.2 6.1 132.2 6.1 C 132.3 6.2 132.5 6.1 132.7 6.2 C 132.7 6.3 132.5 6.3 132.4 6.2 C 132.7 6.3 132.5 6.5 132.5 6.8 C 132.5 6.7 132.6 6.7 132.6 6.7 C 132.6 6.7 132.6 6.7 132.6 6.7 C 132.6 6.7 132.6 6.7 132.6 6.7 C 132.7 6.7 132.7 6.7 132.7 6.8 C 132.7 6.8 132.7 6.8 132.7 6.8 C 132.7 6.8 132.7 6.8 132.7 6.8 C 132.7 6.8 132.7 6.9 132.7 6.9 C 132.8 6.9 132.8 6.9 132.9 7.0 C 132.9 7.1 132.8 7.2 132.9 7.4 C 133.1 7.2 132.8 7.1 133.1 7.0 C 133.0 6.9 133.0 6.9 132.9 6.9 C 133.0 6.8 133.1 6.9 133.1 6.8 C 133.2 7.0 132.9 7.1 133.1 7.3 C 133.2 7.2 133.2 7.2 133.3 7.1 C 133.3 7.2 133.3 7.2 133.3 7.3 C 133.2 7.2 133.2 7.3 133.2 7.4 C 133.2 7.4 133.2 7.4 133.2 7.4 C 133.4 7.4 133.1 7.5 133.2 7.6 C 133.2 7.6 133.3 7.5 133.4 7.5 C 133.3 7.6 133.4 7.7 133.5 7.7 C 133.4 7.7 133.4 7.7 133.4 7.7 C 133.4 7.7 133.5 7.7 133.5 7.7 C 133.5 7.8 133.4 7.9 133.4 7.9 C 133.5 8.0 133.5 8.1 133.6 8.1 C 133.7 8.0 133.6 8.0 133.8 7.9 C 133.8 8.0 133.8 8.1 133.7 8.2 C 133.9 8.2 133.9 8.4 133.7 8.5 C 133.7 8.5 134.0 8.8 134.1 8.6 C 134.2 8.9 134.3 8.8 134.6 9.2 C 134.5 9.3 134.4 9.0 134.3 9.1 C 134.2 9.1 134.7 9.3 134.6 9.5 C 134.8 9.5 135.0 9.5 135.1 9.7 C 135.0 9.8 135.0 9.7 135.0 9.6 C 134.8 9.7 135.2 9.9 135.4 10.1 C 135.6 10.1 135.5 9.7 135.7 9.9 C 135.8 9.8 135.6 9.7 135.7 9.6 C 135.5 9.5 135.7 9.8 135.5 9.8 C 135.5 9.7 135.5 9.6 135.5 9.5 C 135.4 9.6 135.4 9.6 135.4 9.6 C 135.5 9.5 135.4 9.4 135.5 9.4 C 135.5 9.4 135.5 9.4 135.5 9.4 C 135.5 9.4 135.4 9.3 135.4 9.3 C 135.5 9.2 135.6 9.3 135.7 9.3 C 135.7 9.3 135.7 9.2 135.8 9.2 C 135.7 9.3 135.7 9.3 135.8 9.3 C 135.8 9.3 135.8 9.3 135.8 9.3 C 135.8 9.2 135.8 9.2 135.8 9.1 C 135.7 9.1 135.7 9.1 135.6 9.1 C 135.7 8.9 135.8 9.2 135.9 9.0 C 135.7 9.0 135.8 8.7 135.6 8.8 C 135.7 8.8 135.5 9.1 135.6 8.9 C 135.6 8.8 135.5 8.7 135.6 8.6 C 135.7 8.7 135.8 8.7 135.8 8.8 C 136.0 8.5 135.9 9.0 136.1 8.7 C 136.2 8.9 136.4 8.7 136.4 8.9 C 136.3 8.9 136.1 8.8 136.2 8.9 C 136.3 9.0 136.4 8.8 136.4 8.9 C 136.5 9.1 136.4 9.4 136.7 9.4 L 136.2 9.9 C 136.3 10.0 136.3 10.2 136.0 10.4 C 136.1 10.5 136.1 10.3 136.2 10.4 C 136.3 10.6 136.1 10.4 136.0 10.5 C 136.3 10.7 136.3 11.0 136.5 11.1 C 136.5 11.2 136.5 11.4 136.7 11.4 C 136.8 11.3 136.5 11.4 136.7 11.2 C 136.8 11.2 136.9 11.3 137.1 11.1 C 137.4 11.4 136.9 11.5 136.9 11.6 C 136.9 11.7 136.9 11.7 137.0 11.8 C 137.1 11.7 137.0 11.7 137.0 11.6 C 137.1 11.6 137.2 11.6 137.3 11.5 C 137.1 11.7 137.4 11.7 137.2 12.0 C 138.9 12.9 138.6 10.9 138.7 10.7 L 139.9 11.2 C 139.9 10.8 138.6 9.6 138.5 9.4 C 138.5 9.4 138.5 9.2 138.6 9.2 C 138.5 9.2 138.3 9.2 138.2 9.2 C 138.3 9.0 138.4 9.1 138.3 8.9 C 138.2 8.9 138.2 9.0 138.2 9.1 C 138.1 9.0 138.3 8.8 138.1 8.7 C 138.0 8.8 138.1 8.9 138.1 9.0 C 138.0 9.1 138.1 8.7 137.9 8.9 C 137.9 8.8 138.0 8.7 138.0 8.7 C 138.2 8.6 137.7 8.7 138.0 8.5 C 137.9 8.5 137.8 8.4 137.9 8.4 C 137.8 8.3 137.8 8.4 137.7 8.5 C 137.7 8.4 137.8 8.2 137.6 8.4 C 137.7 8.2 137.3 7.7 137.2 7.8 C 136.9 7.6 137.2 7.5 137.1 7.5 C 136.9 7.5 137.0 7.3 136.8 7.1 C 136.6 7.3 136.7 7.0 136.6 7.0 C 136.6 7.0 136.6 7.1 136.5 7.1 C 136.6 6.9 136.3 6.7 136.1 6.7 C 135.9 6.6 136.1 6.5 135.9 6.5 C 136.0 6.4 136.1 6.4 136.1 6.5 C 136.2 6.3 136.1 6.3 136.2 6.2 C 136.1 6.0 135.9 6.5 135.8 6.4 C 135.7 6.3 136.0 6.3 135.9 6.1 C 135.7 6.4 135.8 5.9 135.7 5.8 C 135.4 6.0 135.4 5.4 135.2 5.6 C 135.1 5.3 135.3 5.3 135.2 5.2 C 134.8 5.2 134.7 4.8 134.4 4.5 C 134.4 4.5 134.7 4.5 134.5 4.4 C 134.2 4.3 134.4 4.3 134.3 4.1 C 134.2 4.1 134.1 4.0 134.0 4.1 C 133.9 3.8 133.2 3.4 133.1 2.9 C 133.1 2.9 133.0 3.0 132.9 3.0 C 133.0 2.8 132.7 2.7 132.8 2.6 C 132.6 2.7 132.7 2.5 132.6 2.6 C 132.5 2.6 132.6 2.5 132.5 2.5 C 132.6 2.3 133.0 2.6 132.8 2.4 C 132.1 2.3 132.3 1.7 131.9 1.6 C 131.8 1.5 131.9 1.4 131.9 1.3 C 131.9 1.3 132.0 1.2 132.1 1.3 C 132.2 1.0 131.7 1.4 131.8 1.1 C 131.7 1.1 131.7 1.3 131.9 1.4 C 131.7 1.5 131.7 1.4 131.7 1.6 C 131.6 1.4 131.7 1.2 131.4 1.0 C 131.5 1.0 131.6 1.0 131.6 1.0 C 131.7 0.8 131.4 1.0 131.4 0.9 C 131.4 1.0 131.3 1.1 131.3 1.1 C 131.3 1.2 131.2 1.1 131.2 1.1 C 131.3 0.9 131.1 1.1 131.1 0.9 C 131.0 0.9 130.7 1.2 130.8 1.2 C 130.9 1.3 130.9 1.1 131.0 1.1 C 131.1 1.3 130.8 2.0 131.3 1.7 C 131.3 1.6 131.1 1.8 131.1 1.7 C 131.2 1.5 131.2 1.7 131.3 1.6 C 131.3 1.7 131.4 1.7 131.5 1.8 C 131.3 2.1 131.2 1.8 131.2 1.9 C 131.2 2.1 131.5 2.1 131.5 2.3 C 131.5 2.4 131.5 2.1 131.5 2.0 C 131.8 2.1 131.8 2.4 131.8 2.8 C 131.9 2.8 131.9 2.7 131.9 2.6 C 132.0 2.7 132.0 2.8 131.9 2.8 C 132.0 2.9 132.1 2.8 132.2 2.9 C 132.3 3.0 132.2 3.2 132.2 3.3 C 132.3 3.4 132.2 3.2 132.4 3.2 C 132.3 3.5 132.6 3.3 132.5 3.5 C 132.4 3.7 132.3 3.5 132.2 3.5 C 132.2 3.5 132.2 3.6 132.1 3.6 C 132.5 3.6 132.5 3.6 132.6 3.8 C 132.6 3.8 132.6 3.7 132.6 3.6 C 132.8 3.6 132.7 3.9 132.9 3.6 C 132.9 3.7 132.8 3.9 133.0 3.8 C 132.9 4.1 133.0 4.1 133.1 4.3 C 133.0 4.5 132.9 4.5 132.8 4.3 C 132.8 4.5 132.8 4.5 132.6 4.5 C 132.6 4.4 132.7 4.4 132.7 4.3 C 132.7 4.3 132.4 4.4 132.4 4.2 C 132.3 4.1 132.5 4.2 132.5 4.1 C 132.4 4.1 132.3 4.1 132.4 3.9 C 132.3 3.9 132.1 4.0 132.0 3.9 C 132.0 3.9 132.0 3.8 132.0 3.8 C 132.1 3.7 132.2 3.9 132.3 3.8 C 132.2 3.6 132.0 3.8 131.9 3.6 C 131.8 3.6 131.7 3.6 131.6 3.7 C 131.7 3.7 131.7 3.8 131.8 3.8 C 131.6 4.0 131.9 3.9 131.9 4.1 C 132.1 3.9 132.4 4.2 132.3 4.3 C 132.4 4.2 132.6 4.4 132.6 4.5 C 132.5 4.5 132.3 4.6 132.4 4.8 C 132.5 4.6 132.6 4.7 132.6 4.6 C 132.6 4.9 133.1 4.7 133.1 4.9 C 132.9 4.9 132.7 4.9 132.6 4.8 C 132.4 4.9 132.5 5.1 132.4 5.2 C 132.6 5.0 132.4 5.4 132.6 5.3 C 132.6 5.2 132.5 5.1 132.6 5.0 C 132.7 5.1 132.9 4.8 133.0 5.0 C 132.8 5.1 132.7 5.3 132.7 5.4 C 132.8 5.4 132.7 5.3 132.9 5.2 C 133.0 5.4 132.9 5.6 132.8 5.5 C 132.8 5.5 132.7 5.6 132.8 5.6 C 132.9 5.4 133.0 5.8 133.1 5.6 C 133.2 5.6 133.1 5.5 133.1 5.4 C 133.0 5.4 133.0 5.5 132.9 5.4 C 133.2 5.3 132.8 5.2 133.0 5.1 C 133.0 5.3 133.3 5.1 133.2 5.3 C 133.2 5.2 133.2 5.3 133.2 5.4 C 133.3 5.5 133.4 5.5 133.5 5.5 C 133.5 5.4 133.4 5.3 133.5 5.3 C 133.7 5.5 133.4 5.7 133.4 5.6 C 133.3 5.6 133.3 5.7 133.3 5.7 C 133.4 6.0 133.5 5.8 133.6 5.8 C 133.6 6.0 133.6 6.1 133.6 6.5 C 133.7 6.4 133.6 6.3 133.7 6.2 C 133.9 6.4 133.7 6.5 133.8 6.6 C 133.9 6.6 133.9 6.5 134.0 6.4 C 134.1 6.6 134.1 6.3 134.4 6.5 C 134.0 6.6 134.5 6.7 134.1 6.8 C 134.4 6.9 134.5 7.3 134.3 7.4 C 134.3 7.4 134.3 7.3 134.3 7.3 C 134.3 7.4 134.2 7.6 134.1 7.5 C 134.2 7.4 134.0 7.0 134.1 7.4 C 133.9 7.1 134.1 6.8 134.1 6.6 C 134.1 6.6 134.0 6.6 134.0 6.6 C 134.1 6.7 134.0 7.1 133.8 7.1 C 133.8 6.9 133.6 6.8 133.4 6.8 C 133.6 6.5 133.5 6.6 133.3 6.5 C 133.4 6.4 133.6 6.3 133.5 6.2 C 133.4 6.3 133.3 6.3 133.3 6.4 C 133.2 6.2 133.1 6.3 133.0 6.2 C 133.1 6.0 133.2 6.2 133.4 6.1 C 133.2 5.7 133.2 6.2 132.8 6.0 C 132.9 5.9 133.0 5.8 133.0 5.7 C 132.5 5.7 132.4 5.1 131.9 4.9 C 132.0 4.8 132.2 4.9 132.1 4.7 C 131.9 4.8 131.9 4.6 131.7 4.5 C 131.9 4.2 131.5 4.1 131.4 4.1 C 131.4 4.1 131.5 4.1 131.5 4.0 C 131.4 4.0 131.3 3.9 131.1 3.9 C 131.2 3.9 131.2 3.8 131.2 3.8 C 131.3 3.7 131.3 3.8 131.3 3.8 C 131.3 3.8 131.3 3.8 131.3 3.8 C 131.4 3.8 131.4 3.7 131.4 3.7 C 131.4 3.6 131.4 3.6 131.5 3.5 C 131.5 3.6 131.5 3.6 131.6 3.6 C 131.7 3.5 131.8 3.5 131.9 3.3 C 131.7 3.4 131.7 3.1 131.5 3.1 C 131.6 3.0 131.7 3.1 131.8 3.2 C 131.9 3.1 132.1 3.0 131.9 2.9 C 131.8 2.9 131.8 3.0 131.8 3.0 C 131.8 3.1 131.7 3.0 131.7 3.0 C 131.6 3.0 131.7 2.9 131.7 2.8 C 131.6 2.6 131.5 3.4 131.2 2.7 C 131.2 2.8 131.3 2.9 131.1 2.9 C 131.0 2.7 131.1 2.5 130.8 2.3 C 130.5 2.4 130.5 2.4 130.5 2.7 C 130.5 2.7 130.6 2.5 130.8 2.6 C 130.7 2.8 130.7 2.9 130.8 3.1 C 130.9 3.0 131.0 3.0 131.1 3.0 C 130.9 3.3 131.2 3.4 131.2 3.7 C 131.1 3.6 131.0 3.7 130.9 3.6 C 130.9 3.5 131.0 3.5 131.0 3.4 C 130.8 3.5 130.8 3.4 130.8 3.3 C 130.8 3.3 130.7 3.3 130.7 3.4 C 130.7 3.3 130.7 3.3 130.7 3.3 C 130.7 3.3 130.7 3.3 130.7 3.3 C 130.7 3.2 130.7 3.2 130.7 3.2 C 130.7 3.2 130.7 3.2 130.7 3.1 C 130.6 3.0 130.2 3.1 130.2 2.8 C 130.3 2.6 130.1 2.8 130.2 2.9 C 130.1 3.0 130.2 2.6 130.0 2.9 C 129.9 2.7 130.2 2.8 130.2 2.6 C 130.1 2.5 130.1 2.7 130.0 2.6 C 129.9 2.5 130.0 2.4 130.1 2.4 C 129.9 2.3 130.0 2.5 129.8 2.4 C 129.9 2.3 129.8 2.2 129.6 2.0 C 129.6 2.2 129.6 2.3 129.4 2.4 C 129.3 2.3 129.6 2.2 129.4 2.0 C 129.4 2.1 129.4 2.2 129.4 2.2 C 129.2 2.3 129.3 2.1 129.2 2.0 C 129.4 2.0 129.3 2.0 129.5 1.8 C 129.5 1.9 129.5 1.9 129.4 1.9 C 129.7 1.9 129.3 1.6 129.3 1.9 C 129.3 1.9 129.3 1.8 129.3 1.8 C 129.2 1.7 129.3 1.8 129.2 1.9 C 129.1 1.8 129.1 1.6 129.0 1.5 C 129.0 1.7 129.1 1.8 128.9 2.0 Z M 134.2 6.0 C 134.2 6.1 134.1 6.2 134.0 6.3 C 133.8 6.1 133.9 6.0 133.8 5.9 C 134.0 6.0 134.1 5.8 134.2 6.0 Z M 135.5 7.5 C 135.5 7.7 135.5 8.0 135.3 8.0 C 135.3 7.7 135.3 7.7 135.5 7.5 Z M 135.1 8.5 C 135.0 8.4 134.9 8.7 134.8 8.5 C 135.1 8.4 134.9 8.3 134.9 8.1 C 135.0 8.0 135.0 7.9 135.1 8.0 C 135.1 8.1 134.9 8.1 135.0 8.2 C 135.1 8.2 135.3 8.2 135.3 8.1 C 135.4 8.4 135.3 8.2 135.5 8.2 C 135.5 8.6 135.3 8.9 134.9 8.9 C 135.1 8.7 134.9 8.7 134.8 8.7 C 135.0 8.6 135.1 8.6 135.1 8.5 Z M 134.9 7.6 C 134.8 7.5 134.7 7.4 134.7 7.4 C 134.8 7.4 134.9 7.4 134.9 7.4 C 134.9 7.3 134.9 7.1 135.0 7.3 C 134.9 7.5 134.8 7.7 135.1 7.7 C 134.8 7.8 135.0 8.0 134.6 8.2 C 134.4 8.0 134.6 7.7 134.9 7.6 Z M 130.6 1.9 C 130.6 2.0 130.6 2.1 130.8 2.1 C 130.7 2.1 130.8 2.2 130.8 2.2 C 130.7 2.2 130.7 2.3 130.8 2.3 C 130.5 2.5 130.7 2.1 130.5 2.2 C 130.5 2.2 130.4 2.3 130.4 2.4 C 130.4 2.3 130.3 2.4 130.3 2.3 C 130.5 2.3 130.1 2.2 130.3 2.1 C 130.3 2.1 130.4 2.2 130.4 2.2 C 130.3 2.1 130.4 2.0 130.4 1.8 C 130.5 1.9 130.5 2.0 130.6 2.0 C 130.6 1.9 130.6 1.9 130.6 1.9 Z M 128.8 1.3 C 128.8 1.5 128.8 1.6 128.8 1.8 C 129.0 1.7 129.1 1.3 129.0 1.4 C 129.1 1.5 128.9 1.6 129.0 1.7 C 129.1 1.5 129.4 1.9 129.3 2.0 C 129.2 2.0 129.2 2.0 129.1 2.1 C 129.0 1.9 128.8 1.9 128.7 1.8 C 128.7 1.6 128.5 1.3 128.3 1.3 C 128.4 1.0 128.0 1.1 128.1 0.8 C 128.0 0.8 128.0 1.0 127.9 0.9 C 128.0 0.7 128.1 0.7 128.1 0.6 C 128.0 0.6 127.9 0.7 127.9 0.7 C 128.0 0.6 127.9 0.6 127.9 0.5 C 128.1 0.7 128.1 0.3 128.2 0.5 C 128.2 0.6 128.0 0.6 128.1 0.8 C 128.2 0.8 128.3 0.8 128.4 0.7 C 128.5 0.7 128.5 0.8 128.6 0.8 C 128.4 0.8 128.8 1.0 128.6 1.0 C 128.5 1.0 128.5 0.9 128.4 0.8 C 128.3 1.0 128.4 1.0 128.6 1.1 C 128.5 1.2 128.4 1.2 128.4 1.3 C 128.6 1.3 128.6 1.1 128.7 1.1 C 128.7 1.1 128.7 1.0 128.7 1.0 C 128.7 1.2 128.9 1.2 129.0 1.3 C 128.8 1.3 128.9 1.4 128.8 1.3 Z M 129.5 0.3 C 129.6 0.2 129.6 0.2 129.7 0.2 C 129.6 0.2 129.7 0.3 129.7 0.3 C 129.7 0.3 129.8 0.3 129.8 0.3 C 129.7 0.4 129.6 0.3 129.5 0.3 Z M 127.5 0.2 C 127.5 0.2 127.4 0.1 127.4 0.1 C 127.5 -0.0 127.6 0.1 127.7 -0.1 C 127.8 0.1 127.5 0.0 127.5 0.2 Z M 130.3 1.9 C 130.2 2.1 130.5 1.8 130.5 1.9 C 130.4 1.8 130.3 1.8 130.4 1.6 C 130.5 1.8 130.5 1.8 130.7 1.9 C 130.4 1.9 130.6 2.1 130.5 2.3 C 130.4 2.2 130.3 2.2 130.2 2.1 C 130.3 2.1 130.2 1.9 130.3 1.9 Z M 130.0 1.6 C 130.1 1.5 129.9 1.5 130.1 1.4 C 130.1 1.5 130.2 1.5 130.3 1.4 C 130.3 1.4 130.3 1.5 130.4 1.5 C 130.2 1.7 130.2 1.6 130.1 1.6 C 130.1 1.6 130.1 1.7 130.0 1.6 Z M 130.9 21.5 C 130.8 21.3 130.8 21.6 130.8 21.7 C 130.7 21.6 130.6 21.8 130.5 21.8 C 130.5 21.7 130.5 21.6 130.6 21.5 C 130.6 21.6 130.7 21.7 130.7 21.6 C 130.7 21.6 130.6 21.5 130.6 21.4 C 130.8 21.5 130.8 21.4 130.8 21.3 C 130.9 21.4 131.1 21.3 130.9 21.5 Z M 131.2 21.7 C 131.2 21.6 131.0 21.5 131.2 21.4 C 131.3 21.5 131.3 21.5 131.4 21.4 C 131.5 21.4 131.4 21.5 131.5 21.5 C 131.4 21.7 131.3 21.6 131.2 21.6 C 131.2 21.6 131.2 21.7 131.2 21.7 Z M 138.2 8.2 C 138.2 8.2 138.1 8.2 138.1 8.2 C 138.0 8.2 138.0 8.3 138.0 8.4 C 138.0 8.4 138.0 8.4 138.2 8.4 C 138.1 8.3 138.2 8.3 138.2 8.2 Z M 129.2 22.7 C 129.2 22.8 129.2 22.8 129.2 22.9 C 129.3 22.9 129.3 22.9 129.3 22.8 C 129.3 22.8 129.3 22.8 129.3 22.7 L 129.2 22.7 Z M 132.9 20.7 C 132.9 20.7 132.9 20.8 133.0 20.8 C 133.0 20.7 133.0 20.7 133.0 20.6 C 133.0 20.7 133.0 20.7 132.9 20.7 C 132.9 20.7 133.0 20.6 133.0 20.6 C 132.9 20.5 132.8 20.7 132.9 20.7 Z M 138.3 13.5 C 138.2 13.5 138.2 13.6 138.2 13.7 C 138.4 13.7 138.4 13.7 138.4 13.8 C 138.5 13.9 138.5 13.8 138.6 13.8 C 138.5 13.7 138.4 13.6 138.3 13.5 Z M 126.2 22.0 C 126.5 23.0 127.1 23.8 128.0 24.2 C 128.1 24.0 127.8 24.1 127.8 23.9 C 128.5 23.6 130.6 22.9 128.9 22.4 C 129.1 22.5 129.3 22.4 129.4 22.3 C 129.5 22.3 129.5 22.4 129.6 22.5 C 129.6 22.4 129.7 22.4 129.7 22.4 C 129.7 22.2 129.7 22.1 129.8 22.0 C 129.9 22.1 129.9 22.2 130.0 22.3 C 130.2 22.2 130.0 21.9 130.0 21.8 C 130.0 21.6 130.1 21.5 130.2 21.3 C 130.4 21.3 130.3 21.0 130.5 21.1 C 130.5 21.0 130.4 20.9 130.4 20.7 C 130.6 20.7 130.5 21.0 130.6 21.0 C 130.6 20.7 130.9 20.4 130.7 20.3 C 130.6 20.3 130.6 20.5 130.6 20.7 C 130.5 20.6 130.6 20.5 130.5 20.3 C 130.9 20.1 131.3 19.8 131.7 19.6 C 131.7 19.9 131.4 20.0 131.3 20.3 C 131.2 20.2 131.2 20.2 131.1 20.2 C 131.1 20.5 131.2 20.5 131.3 20.7 C 131.2 20.7 131.2 20.8 131.2 20.9 C 131.2 20.8 131.3 20.9 131.5 20.8 C 131.5 21.0 131.4 20.9 131.3 20.9 C 131.3 20.9 131.3 20.9 131.4 20.9 C 131.2 21.0 131.4 21.1 131.3 21.1 C 131.3 21.2 131.5 21.2 131.5 21.3 C 131.6 21.2 131.4 21.4 131.7 21.4 C 131.7 21.3 131.6 21.3 131.6 21.3 C 131.6 21.2 131.7 21.4 131.8 21.3 C 131.8 21.3 131.8 21.3 131.8 21.3 C 131.9 21.2 131.8 21.2 131.8 21.2 C 131.9 21.1 131.8 21.3 131.9 21.3 C 131.8 21.3 131.8 21.4 131.7 21.4 C 131.8 21.5 131.9 21.3 132.1 21.3 C 132.1 21.2 132.0 21.2 132.0 21.3 C 131.8 21.2 132.0 21.1 131.9 21.0 C 132.1 21.1 131.9 21.1 132.0 21.2 C 132.1 21.2 132.1 21.1 132.3 21.0 C 132.3 21.0 132.2 21.0 132.2 20.9 C 132.2 20.9 132.3 20.9 132.3 20.8 C 132.4 20.9 132.5 20.9 132.6 21.0 C 132.4 20.9 132.5 20.9 132.7 20.9 C 132.7 20.8 132.6 20.8 132.6 20.8 C 132.6 20.7 132.7 20.8 132.7 20.7 C 132.8 20.6 132.7 20.7 132.7 20.6 C 132.9 20.5 133.2 20.5 133.3 20.5 C 133.3 20.4 133.4 20.3 133.5 20.3 C 133.5 20.2 133.5 20.2 133.5 20.1 C 133.7 20.2 133.4 20.2 133.7 20.1 C 133.7 20.1 133.7 20.1 133.6 20.1 C 133.7 20.0 133.7 20.1 133.8 20.1 C 133.8 20.0 133.8 20.0 133.8 20.0 C 133.9 19.9 133.9 19.9 133.9 19.8 C 134.0 19.8 134.0 19.8 134.0 19.8 C 134.1 19.8 134.2 19.8 134.2 19.6 C 134.1 19.8 134.2 19.6 134.2 19.5 C 134.3 19.5 134.2 19.6 134.3 19.6 C 135.1 19.3 135.7 18.9 136.3 18.3 C 136.8 18.3 137.1 18.0 137.4 17.7 C 137.4 17.7 137.4 17.6 137.4 17.6 L 137.5 17.6 C 137.5 17.6 137.4 17.6 137.4 17.6 C 137.5 17.7 137.7 17.3 137.8 17.2 C 138.0 17.1 138.2 17.1 138.4 17.0 C 138.5 16.9 138.6 16.7 138.8 16.6 C 138.9 16.6 139.0 16.8 139.0 16.6 C 139.1 16.7 139.0 16.8 139.0 16.8 C 139.0 16.9 139.1 16.7 139.1 16.7 C 139.1 16.7 139.1 16.8 139.1 16.8 C 139.8 16.5 140.3 15.9 140.9 15.6 C 141.0 15.4 141.2 15.3 141.4 15.6 C 141.6 15.4 141.8 15.3 142.0 15.1 C 142.0 15.1 142.1 15.1 142.2 15.1 C 142.2 15.1 142.2 15.3 142.2 15.3 C 142.4 15.2 142.4 15.2 142.4 15.4 C 142.4 15.4 142.4 15.4 142.3 15.4 C 142.3 15.6 142.4 15.7 142.6 15.7 C 142.9 15.3 143.3 14.6 143.0 13.9 C 143.0 14.0 143.1 14.0 143.1 14.0 C 142.4 14.1 142.3 13.4 141.8 13.2 C 141.8 12.7 141.7 12.3 141.5 11.9 L 141.2 11.9 C 141.2 12.0 141.2 12.1 141.2 12.2 C 141.0 12.0 140.8 11.8 140.7 11.5 C 140.7 11.4 140.7 11.4 140.8 11.4 C 140.7 10.8 140.2 11.3 139.9 11.2 C 139.7 11.2 139.8 10.9 139.7 10.7 C 139.6 10.5 139.4 10.5 139.3 10.3 C 139.3 10.3 139.4 10.2 139.5 10.2 L 139.5 9.9 C 139.2 9.9 139.0 10.0 139.1 10.2 C 139.0 10.2 139.0 10.1 139.0 10.1 C 139.0 9.7 139.2 9.4 139.0 9.1 C 138.9 9.1 138.9 9.1 138.8 9.1 C 138.8 9.3 138.9 9.6 138.7 9.7 C 138.4 9.6 138.7 9.3 138.7 9.0 C 138.4 8.9 138.3 8.5 137.9 8.5 C 137.8 8.6 137.7 8.6 137.7 8.7 C 137.6 8.6 137.5 8.5 137.3 8.6 C 137.3 8.5 137.4 8.4 137.4 8.3 C 137.4 8.3 137.5 8.4 137.5 8.3 C 137.3 8.2 137.3 8.5 137.0 8.4 C 137.1 8.1 137.3 7.9 137.1 7.7 C 136.9 7.8 136.4 7.9 136.1 7.8 C 136.1 8.0 135.8 7.9 135.7 8.0 C 135.6 8.0 135.6 7.9 135.5 7.8 C 135.8 7.7 136.2 7.6 136.3 7.2 C 136.1 7.2 136.0 7.1 135.9 7.0 L 135.3 7.1 L 134.5 6.9 L 135.7 8.5 L 136.7 9.8 L 135.7 9.0 L 133.9 8.4 L 134.0 8.5 C 134.2 8.6 134.3 8.7 134.3 9.0 C 134.3 9.0 134.4 9.0 134.4 9.0 C 134.3 9.1 134.6 9.0 134.6 9.2 C 134.7 9.2 134.7 9.2 134.7 9.2 C 134.8 9.2 134.7 9.2 134.7 9.3 C 134.8 9.3 134.9 9.4 135.0 9.3 C 134.9 9.5 135.0 9.5 135.0 9.6 C 135.2 9.7 135.2 9.5 135.2 9.4 C 135.3 9.4 135.3 9.6 135.4 9.6 C 135.4 9.7 135.2 9.6 135.2 9.6 C 135.2 9.7 135.2 9.8 135.3 9.8 C 135.3 9.8 135.3 9.8 135.3 9.7 C 135.4 9.8 135.5 9.8 135.7 9.8 C 135.7 9.9 135.5 9.8 135.5 9.9 C 135.5 9.9 135.5 9.8 135.4 9.9 C 135.4 10.0 135.6 10.0 135.6 10.1 C 135.8 10.0 135.5 9.9 135.6 9.9 C 135.7 9.9 135.7 10.0 135.7 10.0 C 135.7 10.1 135.6 10.2 135.6 10.2 C 135.6 10.4 135.7 10.2 135.8 10.2 C 135.8 10.2 135.7 10.2 135.7 10.2 C 135.7 10.4 135.8 10.3 135.8 10.3 C 135.7 10.4 135.8 10.5 135.7 10.4 C 135.7 10.5 135.8 10.5 135.8 10.6 C 135.9 10.6 135.8 10.6 135.9 10.6 C 135.7 10.7 136.2 10.7 136.1 10.9 C 136.2 10.8 136.3 11.0 136.2 11.1 C 136.4 11.4 136.6 11.4 136.6 11.7 C 136.7 11.5 136.7 11.9 136.9 11.8 C 136.8 11.9 136.9 11.9 136.8 11.9 C 136.9 12.0 137.0 12.0 137.0 11.9 C 137.0 12.0 137.0 12.0 137.0 12.1 C 137.1 12.1 137.0 12.2 137.2 12.2 C 137.1 12.2 137.1 12.3 137.1 12.3 C 137.3 12.5 137.5 12.5 137.7 12.7 C 137.7 12.7 137.7 12.6 137.7 12.6 C 137.8 12.6 137.8 12.7 137.8 12.7 C 137.8 12.7 138.0 12.5 137.8 12.5 C 137.8 12.5 138.0 12.5 138.0 12.5 C 137.9 12.4 138.0 12.5 138.0 12.3 C 137.9 12.3 137.9 12.4 137.9 12.4 C 137.8 12.4 137.9 12.3 137.8 12.2 C 137.9 12.2 137.9 12.3 138.0 12.3 C 138.0 12.3 138.0 12.3 138.0 12.3 C 138.0 12.2 138.0 12.2 138.0 12.2 C 137.9 12.2 137.8 12.1 137.9 12.1 C 137.9 12.0 137.7 11.7 137.6 11.8 C 137.6 11.7 137.7 11.7 137.7 11.6 C 137.5 11.6 137.4 11.3 137.3 11.3 C 137.4 11.3 137.5 11.4 137.6 11.5 C 137.7 11.4 137.8 11.4 137.8 11.5 C 137.8 11.6 137.7 11.4 137.7 11.5 C 137.6 11.5 137.7 11.6 137.7 11.5 C 137.8 11.8 138.1 11.7 138.2 12.1 C 138.3 12.1 138.2 12.0 138.2 11.9 C 138.3 12.1 138.3 12.1 138.3 12.2 C 138.4 12.2 138.4 12.2 138.4 12.1 C 138.4 12.1 138.4 12.1 138.4 12.2 C 138.5 12.1 138.5 12.2 138.7 12.2 C 138.6 12.3 138.6 12.1 138.5 12.2 C 138.6 12.3 138.5 12.4 138.6 12.4 C 138.6 12.4 138.6 12.4 138.5 12.4 C 138.6 12.5 138.7 12.5 138.9 12.6 C 138.8 12.6 138.8 12.6 138.7 12.7 C 138.9 12.7 139.1 12.8 139.0 13.0 C 139.1 13.0 139.4 13.0 139.3 13.2 C 139.3 13.3 139.3 13.1 139.4 13.1 C 139.4 13.1 139.4 13.2 139.4 13.3 C 139.6 13.2 139.9 13.4 140.0 13.2 C 140.1 13.5 139.7 13.3 139.7 13.6 C 139.6 13.5 139.8 13.5 139.8 13.4 C 139.6 13.5 139.7 13.3 139.5 13.3 C 139.6 13.4 139.6 13.4 139.5 13.5 C 139.6 13.5 139.6 13.5 139.7 13.6 C 139.5 13.6 139.2 13.8 139.1 14.0 C 138.9 13.9 139.0 13.6 138.7 13.7 C 138.6 13.8 138.6 14.1 138.9 14.1 C 138.9 14.2 138.8 14.2 138.8 14.3 C 138.5 14.2 138.3 13.9 137.9 14.0 C 137.8 14.2 137.9 14.3 138.0 14.3 C 138.0 14.3 138.0 14.3 138.0 14.4 C 137.7 14.3 137.5 14.6 137.3 14.7 C 137.2 14.8 137.2 14.6 137.1 14.7 L 137.1 14.9 C 136.8 15.0 136.8 14.8 136.6 14.7 C 136.7 14.6 136.8 14.6 136.8 14.6 C 136.9 14.7 136.8 14.7 136.8 14.8 C 136.9 14.9 137.1 14.9 137.1 14.7 C 136.9 14.7 136.9 14.5 136.8 14.3 C 136.9 14.3 136.9 14.4 137.0 14.4 C 137.0 14.3 137.1 14.2 137.1 14.1 C 137.2 14.0 137.2 14.2 137.3 14.3 C 137.4 14.2 137.2 14.1 137.2 14.0 C 137.4 13.9 138.0 14.1 138.0 13.8 C 137.9 13.7 137.9 13.8 137.8 13.8 C 137.7 13.8 137.7 13.7 137.7 13.5 C 137.3 13.5 137.4 13.8 137.1 13.9 C 137.1 13.8 137.1 13.7 137.0 13.6 C 136.5 13.6 136.5 14.1 136.2 14.2 C 136.4 14.3 136.6 14.6 136.4 14.8 C 136.3 14.3 135.7 14.5 135.5 14.8 C 135.4 14.8 135.4 14.8 135.3 14.8 C 135.2 15.0 135.3 15.1 135.3 15.3 C 135.2 15.3 135.1 15.2 135.2 15.1 C 135.1 15.1 135.1 15.0 135.0 15.1 C 134.9 15.2 134.7 15.3 134.8 15.7 C 134.7 15.6 134.7 15.5 134.6 15.6 L 134.6 15.4 C 134.5 15.6 134.4 15.9 134.1 15.9 C 134.1 15.9 134.0 15.9 134.0 15.8 C 133.9 15.8 133.9 15.9 133.8 15.9 C 133.9 16.0 134.0 16.1 134.0 16.2 C 134.0 16.2 134.0 16.2 134.0 16.3 C 133.9 16.2 133.9 16.1 133.7 16.2 C 133.7 16.3 133.9 16.3 133.9 16.4 C 133.7 16.4 133.5 16.1 133.2 16.2 C 133.2 16.6 133.9 16.4 134.0 16.7 C 134.0 16.8 133.9 16.8 133.8 16.9 C 133.8 16.7 133.9 16.7 133.9 16.6 C 133.6 16.6 133.5 16.8 133.4 16.8 C 133.3 16.8 133.3 16.7 133.2 16.7 L 133.2 16.4 C 132.9 16.4 133.2 16.9 133.0 16.8 C 133.0 16.9 133.2 17.1 133.2 17.2 C 133.1 17.2 132.7 17.2 132.6 17.0 C 132.7 16.9 132.8 17.0 132.8 17.0 C 132.8 16.9 132.7 16.8 132.6 16.8 C 132.5 16.9 132.6 17.1 132.5 17.3 C 132.5 17.2 132.4 17.2 132.4 17.1 C 132.4 17.3 132.2 17.2 132.1 17.3 C 132.1 17.4 132.2 17.5 132.2 17.6 C 132.3 17.6 132.3 17.5 132.3 17.5 C 132.3 17.5 132.3 17.5 132.3 17.6 C 132.3 17.6 132.1 17.6 132.0 17.6 C 132.0 17.7 132.0 17.8 132.0 17.9 C 132.0 18.0 131.9 17.8 131.8 17.9 C 131.9 18.0 132.0 18.1 132.1 18.2 C 132.0 18.3 131.6 18.1 131.4 18.3 C 131.5 18.4 131.6 18.4 131.7 18.4 C 131.6 18.4 131.5 18.4 131.4 18.4 C 131.4 18.5 131.5 18.5 131.5 18.5 C 131.2 18.5 131.2 18.7 131.1 18.8 C 131.0 18.8 130.9 18.7 130.9 18.6 C 130.7 18.6 130.9 18.6 130.9 18.7 C 130.8 18.8 130.5 18.8 130.5 18.9 C 130.5 19.0 130.6 19.1 130.6 19.2 C 130.8 19.2 130.9 19.3 130.9 19.2 C 130.9 19.1 130.8 19.1 130.7 19.0 C 130.7 18.9 130.8 18.9 130.9 18.9 C 130.9 19.0 131.2 19.1 131.1 19.2 C 131.2 19.2 131.4 19.2 131.4 19.1 C 131.5 19.4 130.7 19.5 130.6 19.2 C 130.6 19.4 130.5 19.5 130.4 19.6 C 130.3 19.6 130.3 19.4 130.2 19.3 C 129.9 19.3 129.9 19.8 129.7 19.8 C 129.7 19.9 129.7 19.9 129.7 20.0 C 129.7 20.1 129.6 19.9 129.5 20.0 C 129.5 20.0 129.4 20.1 129.4 20.2 C 129.3 20.2 129.2 20.2 129.1 20.1 C 129.1 19.9 129.3 19.9 129.4 19.9 L 129.4 19.7 C 129.3 19.7 129.1 19.9 129.0 19.8 C 129.0 20.0 128.6 20.0 128.3 20.1 C 128.4 20.2 128.5 20.3 128.6 20.3 C 128.7 20.2 128.9 20.0 129.0 20.2 C 128.7 20.4 128.4 20.7 128.0 21.0 C 127.8 21.0 127.8 20.8 127.7 20.9 C 127.8 21.1 127.6 21.5 127.3 21.4 C 127.4 21.2 127.6 21.1 127.6 20.9 C 127.2 20.5 126.6 21.5 126.5 21.9 C 126.7 22.0 126.7 21.8 126.9 21.9 C 127.0 21.9 127.0 22.0 127.0 22.2 C 126.9 22.3 126.7 22.0 126.5 22.2 C 126.4 22.1 126.4 22.0 126.2 22.0 Z M 134.3 9.0 C 134.4 8.9 134.2 8.8 134.3 8.8 C 134.4 8.8 134.5 8.9 134.3 9.0 Z M 137.8 11.4 C 137.8 11.2 137.7 11.4 137.7 11.3 C 137.7 11.3 137.7 11.2 137.7 11.3 C 137.7 11.3 137.7 11.3 137.8 11.3 C 137.8 11.2 137.7 11.2 137.7 11.1 C 137.6 11.2 137.6 11.0 137.5 11.0 C 137.6 11.1 137.6 11.0 137.6 10.9 C 137.7 11.1 137.9 11.3 137.8 11.4 Z M 135.0 15.3 C 135.0 15.4 135.2 15.7 135.2 15.8 C 135.1 15.7 134.9 15.4 135.0 15.3 Z M 131.9 20.8 C 131.9 20.8 132.0 20.8 132.0 20.7 C 132.0 20.8 132.2 20.7 132.2 20.8 C 132.1 20.8 132.0 20.9 131.9 20.8 Z M 131.7 20.7 C 131.8 20.7 131.8 20.8 131.9 20.7 C 131.8 20.7 131.8 20.7 131.9 20.7 C 131.9 20.7 131.9 20.9 131.9 20.9 C 131.9 20.8 131.7 20.9 131.7 20.7 Z M 131.7 21.1 C 131.6 21.1 131.6 21.2 131.6 21.2 C 131.6 21.1 131.4 21.2 131.4 21.0 C 131.5 21.1 131.6 21.1 131.7 21.1 Z M 129.4 21.5 C 129.6 21.5 129.5 21.7 129.7 21.8 C 129.7 21.5 129.7 21.3 129.6 21.1 C 130.1 21.2 129.9 20.6 130.3 20.6 C 130.3 20.8 130.1 21.4 129.8 21.4 C 129.8 21.5 129.9 21.6 129.9 21.7 C 129.8 21.8 129.6 21.8 129.6 21.9 C 129.4 21.9 129.2 21.7 129.4 21.5 Z M 131.9 18.1 C 131.8 18.0 131.7 18.0 131.6 17.9 C 131.7 18.0 131.8 18.1 131.9 18.1 Z M 138.2 13.2 C 138.4 13.3 138.5 13.5 138.7 13.5 C 138.7 13.3 138.6 13.3 138.7 13.1 C 138.8 13.1 138.7 13.3 138.8 13.3 C 138.8 13.0 138.5 12.8 138.3 12.9 C 138.4 13.0 138.5 13.0 138.6 13.2 C 138.6 13.2 138.5 13.2 138.5 13.2 C 138.4 13.2 138.3 13.0 138.2 13.2 Z M 138.2 13.2 " fill="#EE851F"></path></g></svg>