<?xml version="1.0" encoding="UTF-8" standalone="no"?><svg xmlns="http://www.w3.org/2000/svg" xmlns:xlink="http://www.w3.org/1999/xlink" clip-rule="evenodd" stroke-miterlimit="10" viewBox="0 0 856 499"><desc>SVG generated by Keynote</desc><defs></defs><g transform="matrix(1.00, 0.00, -0.00, -1.00, 0.0, 499.0)"><g><g><clipPath id="clip0x6080076a36c0"><path d="M 1.0 498.0 L 855.0 498.0 L 855.0 1.0 L 1.0 1.0 Z M 1.0 498.0 "></path></clipPath><g clip-path="url(#clip0x6080076a36c0)"><g><clipPath id="clip0x6080076a3b40"><path d="M 0.0 0.0 L 856.0 0.0 L 856.0 499.0 L 0.0 499.0 Z M 0.0 0.0 "></path></clipPath><g clip-path="url(#clip0x6080076a3b40)"><g><g><clipPath id="clip0x6080076a39c0"><path d="M 2.0 497.0 L 215.0 497.0 L 215.0 398.0 L 2.0 398.0 Z M 2.0 497.0 "></path></clipPath><g clip-path="url(#clip0x6080076a39c0)"><g><clipPath id="clip0x6080076a3840"><path d="M 1.0 1.0 L 855.0 1.0 L 855.0 498.0 L 1.0 498.0 Z M 1.0 1.0 "></path></clipPath><g clip-path="url(#clip0x6080076a3840)"><image xlink:href="../../0FCAFCEB-380F-40DC-B87E-0887B79AF37C/assets/93AF66EACD6762C190778CA3F80A4842.jpeg" width="300.00" height="300.00" transform="matrix(1.00, 0.00, -0.00, -1.00, 2.0, 497.0)"></image></g></g></g></g><g><clipPath id="clip0x6080076a3540"><path d="M 215.0 497.0 L 428.0 497.0 L 428.0 398.0 L 215.0 398.0 Z M 215.0 497.0 "></path></clipPath><g clip-path="url(#clip0x6080076a3540)"><g><clipPath id="clip0x6080076a3420"><path d="M 1.0 1.0 L 855.0 1.0 L 855.0 498.0 L 1.0 498.0 Z M 1.0 1.0 "></path></clipPath><g clip-path="url(#clip0x6080076a3420)"><image xlink:href="../../0FCAFCEB-380F-40DC-B87E-0887B79AF37C/assets/93AF66EACD6762C190778CA3F80A4842.jpeg" width="300.00" height="300.00" transform="matrix(1.00, 0.00, -0.00, -1.00, 215.0, 497.0)"></image></g></g></g></g><g><clipPath id="clip0x6080076a34e0"><path d="M 428.0 497.0 L 641.0 497.0 L 641.0 398.0 L 428.0 398.0 Z M 428.0 497.0 "></path></clipPath><g clip-path="url(#clip0x6080076a34e0)"><g><clipPath id="clip0x6080076a4020"><path d="M 1.0 1.0 L 855.0 1.0 L 855.0 498.0 L 1.0 498.0 Z M 1.0 1.0 "></path></clipPath><g clip-path="url(#clip0x6080076a4020)"><image xlink:href="../../0FCAFCEB-380F-40DC-B87E-0887B79AF37C/assets/93AF66EACD6762C190778CA3F80A4842.jpeg" width="300.00" height="300.00" transform="matrix(1.00, 0.00, -0.00, -1.00, 428.0, 497.0)"></image></g></g></g></g><g><clipPath id="clip0x6000062a7080"><path d="M 641.0 497.0 L 854.0 497.0 L 854.0 398.0 L 641.0 398.0 Z M 641.0 497.0 "></path></clipPath><g clip-path="url(#clip0x6000062a7080)"><g><clipPath id="clip0x6000062a74a0"><path d="M 1.0 1.0 L 855.0 1.0 L 855.0 498.0 L 1.0 498.0 Z M 1.0 1.0 "></path></clipPath><g clip-path="url(#clip0x6000062a74a0)"><image xlink:href="../../0FCAFCEB-380F-40DC-B87E-0887B79AF37C/assets/93AF66EACD6762C190778CA3F80A4842.jpeg" width="300.00" height="300.00" transform="matrix(1.00, 0.00, -0.00, -1.00, 641.0, 497.0)"></image></g></g></g></g><g><clipPath id="clip0x6080076a4680"><path d="M 2.0 398.0 L 215.0 398.0 L 215.0 299.0 L 2.0 299.0 Z M 2.0 398.0 "></path></clipPath><g clip-path="url(#clip0x6080076a4680)"><g><clipPath id="clip0x6080076a43e0"><path d="M 1.0 1.0 L 855.0 1.0 L 855.0 498.0 L 1.0 498.0 Z M 1.0 1.0 "></path></clipPath><g clip-path="url(#clip0x6080076a43e0)"><image xlink:href="../../0FCAFCEB-380F-40DC-B87E-0887B79AF37C/assets/93AF66EACD6762C190778CA3F80A4842.jpeg" width="300.00" height="300.00" transform="matrix(1.00, 0.00, -0.00, -1.00, 2.0, 398.0)"></image></g></g></g></g><g><clipPath id="clip0x6000062a7a40"><path d="M 215.0 398.0 L 428.0 398.0 L 428.0 299.0 L 215.0 299.0 Z M 215.0 398.0 "></path></clipPath><g clip-path="url(#clip0x6000062a7a40)"><g><clipPath id="clip0x6000062a77a0"><path d="M 1.0 1.0 L 855.0 1.0 L 855.0 498.0 L 1.0 498.0 Z M 1.0 1.0 "></path></clipPath><g clip-path="url(#clip0x6000062a77a0)"><image xlink:href="../../0FCAFCEB-380F-40DC-B87E-0887B79AF37C/assets/087485C98451D86973D9D7A0ECE676ED.png" width="101.00" height="90.00" transform="matrix(1.10, 0.00, -0.00, -1.10, 265.9, 398.0)"></image></g></g></g></g><g><clipPath id="clip0x6080076a3f60"><path d="M 428.0 398.0 L 641.0 398.0 L 641.0 299.0 L 428.0 299.0 Z M 428.0 398.0 "></path></clipPath><g clip-path="url(#clip0x6080076a3f60)"><g><clipPath id="clip0x6080076a47a0"><path d="M 488.5 299.0 L 580.5 299.0 L 580.5 398.0 L 488.5 398.0 Z M 488.5 299.0 "></path></clipPath><g clip-path="url(#clip0x6080076a47a0)"><path d="M 488.5 398.0 L 580.5 398.0 L 580.5 299.0 L 488.5 299.0 Z M 488.5 398.0 " fill="#000000" fill-opacity="0.00"></path><image xlink:href="../../0FCAFCEB-380F-40DC-B87E-0887B79AF37C/assets/7B2259ABB0731F3532FCBFE097474AF1.png" width="558.00" height="600.00" transform="matrix(0.17, 0.00, -0.00, -0.16, 488.5, 397.6)"></image></g></g></g></g><g><clipPath id="clip0x6000062a7740"><path d="M 641.0 398.0 L 854.0 398.0 L 854.0 299.0 L 641.0 299.0 Z M 641.0 398.0 "></path></clipPath><g clip-path="url(#clip0x6000062a7740)"><g><clipPath id="clip0x6000062a7c20"><path d="M 701.5 299.0 L 793.5 299.0 L 793.5 398.0 L 701.5 398.0 Z M 701.5 299.0 "></path></clipPath><g clip-path="url(#clip0x6000062a7c20)"><path d="M 701.5 398.0 L 793.5 398.0 L 793.5 299.0 L 701.5 299.0 Z M 701.5 398.0 " fill="#000000" fill-opacity="0.00"></path><image xlink:href="../../0FCAFCEB-380F-40DC-B87E-0887B79AF37C/assets/7B2259ABB0731F3532FCBFE097474AF1.png" width="558.00" height="600.00" transform="matrix(0.17, 0.00, -0.00, -0.16, 701.5, 397.6)"></image></g></g></g></g><g><clipPath id="clip0x6000062a7ce0"><path d="M 2.0 299.0 L 215.0 299.0 L 215.0 200.0 L 2.0 200.0 Z M 2.0 299.0 "></path></clipPath><g clip-path="url(#clip0x6000062a7ce0)"><g><clipPath id="clip0x6000062a8040"><path d="M 1.0 1.0 L 855.0 1.0 L 855.0 498.0 L 1.0 498.0 Z M 1.0 1.0 "></path></clipPath><g clip-path="url(#clip0x6000062a8040)"><image xlink:href="../../0FCAFCEB-380F-40DC-B87E-0887B79AF37C/assets/93AF66EACD6762C190778CA3F80A4842.jpeg" width="300.00" height="300.00" transform="matrix(1.00, 0.00, -0.00, -1.00, 2.0, 299.0)"></image></g></g></g></g><g><clipPath id="clip0x6080076a4aa0"><path d="M 215.0 299.0 L 428.0 299.0 L 428.0 200.0 L 215.0 200.0 Z M 215.0 299.0 "></path></clipPath><g clip-path="url(#clip0x6080076a4aa0)"><g><clipPath id="clip0x6080076a4bc0"><path d="M 275.5 200.0 L 367.5 200.0 L 367.5 299.0 L 275.5 299.0 Z M 275.5 200.0 "></path></clipPath><g clip-path="url(#clip0x6080076a4bc0)"><path d="M 275.5 299.0 L 367.5 299.0 L 367.5 200.0 L 275.5 200.0 Z M 275.5 299.0 " fill="#000000" fill-opacity="0.00"></path><image xlink:href="../../0FCAFCEB-380F-40DC-B87E-0887B79AF37C/assets/7B2259ABB0731F3532FCBFE097474AF1.png" width="558.00" height="600.00" transform="matrix(0.17, 0.00, -0.00, -0.16, 275.5, 298.6)"></image></g></g></g></g><g><clipPath id="clip0x6000062a8400"><path d="M 428.0 299.0 L 641.0 299.0 L 641.0 200.0 L 428.0 200.0 Z M 428.0 299.0 "></path></clipPath><g clip-path="url(#clip0x6000062a8400)"><g><clipPath id="clip0x6000062a8280"><path d="M 1.0 1.0 L 855.0 1.0 L 855.0 498.0 L 1.0 498.0 Z M 1.0 1.0 "></path></clipPath><g clip-path="url(#clip0x6000062a8280)"><image xlink:href="../../0FCAFCEB-380F-40DC-B87E-0887B79AF37C/assets/087485C98451D86973D9D7A0ECE676ED.png" width="101.00" height="90.00" transform="matrix(1.10, 0.00, -0.00, -1.10, 478.9, 299.0)"></image></g></g></g></g><g><clipPath id="clip0x6080076a4c80"><path d="M 641.0 299.0 L 854.0 299.0 L 854.0 200.0 L 641.0 200.0 Z M 641.0 299.0 "></path></clipPath><g clip-path="url(#clip0x6080076a4c80)"><g><clipPath id="clip0x6080076a4fe0"><path d="M 701.5 200.0 L 793.5 200.0 L 793.5 299.0 L 701.5 299.0 Z M 701.5 200.0 "></path></clipPath><g clip-path="url(#clip0x6080076a4fe0)"><path d="M 701.5 299.0 L 793.5 299.0 L 793.5 200.0 L 701.5 200.0 Z M 701.5 299.0 " fill="#000000" fill-opacity="0.00"></path><image xlink:href="../../0FCAFCEB-380F-40DC-B87E-0887B79AF37C/assets/7B2259ABB0731F3532FCBFE097474AF1.png" width="558.00" height="600.00" transform="matrix(0.17, 0.00, -0.00, -0.16, 701.5, 298.6)"></image></g></g></g></g><g><clipPath id="clip0x6000062a86a0"><path d="M 2.0 200.0 L 215.0 200.0 L 215.0 101.0 L 2.0 101.0 Z M 2.0 200.0 "></path></clipPath><g clip-path="url(#clip0x6000062a86a0)"><g><clipPath id="clip0x6000062a8820"><path d="M 1.0 1.0 L 855.0 1.0 L 855.0 498.0 L 1.0 498.0 Z M 1.0 1.0 "></path></clipPath><g clip-path="url(#clip0x6000062a8820)"><image xlink:href="../../0FCAFCEB-380F-40DC-B87E-0887B79AF37C/assets/93AF66EACD6762C190778CA3F80A4842.jpeg" width="300.00" height="300.00" transform="matrix(1.00, 0.00, -0.00, -1.00, 2.0, 200.0)"></image></g></g></g></g><g><clipPath id="clip0x6000062a8ac0"><path d="M 215.0 200.0 L 428.0 200.0 L 428.0 101.0 L 215.0 101.0 Z M 215.0 200.0 "></path></clipPath><g clip-path="url(#clip0x6000062a8ac0)"><g><clipPath id="clip0x6000062a8b20"><path d="M 275.5 101.0 L 367.5 101.0 L 367.5 200.0 L 275.5 200.0 Z M 275.5 101.0 "></path></clipPath><g clip-path="url(#clip0x6000062a8b20)"><path d="M 275.5 200.0 L 367.5 200.0 L 367.5 101.0 L 275.5 101.0 Z M 275.5 200.0 " fill="#000000" fill-opacity="0.00"></path><image xlink:href="../../0FCAFCEB-380F-40DC-B87E-0887B79AF37C/assets/7B2259ABB0731F3532FCBFE097474AF1.png" width="558.00" height="600.00" transform="matrix(0.17, 0.00, -0.00, -0.16, 275.5, 199.6)"></image></g></g></g></g><g><clipPath id="clip0x6000062a8880"><path d="M 428.0 200.0 L 641.0 200.0 L 641.0 101.0 L 428.0 101.0 Z M 428.0 200.0 "></path></clipPath><g clip-path="url(#clip0x6000062a8880)"><g><clipPath id="clip0x6000062a9000"><path d="M 488.5 101.0 L 580.5 101.0 L 580.5 200.0 L 488.5 200.0 Z M 488.5 101.0 "></path></clipPath><g clip-path="url(#clip0x6000062a9000)"><path d="M 488.5 200.0 L 580.5 200.0 L 580.5 101.0 L 488.5 101.0 Z M 488.5 200.0 " fill="#000000" fill-opacity="0.00"></path><image xlink:href="../../0FCAFCEB-380F-40DC-B87E-0887B79AF37C/assets/7B2259ABB0731F3532FCBFE097474AF1.png" width="558.00" height="600.00" transform="matrix(0.17, 0.00, -0.00, -0.16, 488.5, 199.6)"></image></g></g></g></g><g><clipPath id="clip0x6000062a9120"><path d="M 641.0 200.0 L 854.0 200.0 L 854.0 101.0 L 641.0 101.0 Z M 641.0 200.0 "></path></clipPath><g clip-path="url(#clip0x6000062a9120)"><g><clipPath id="clip0x6000062a9420"><path d="M 1.0 1.0 L 855.0 1.0 L 855.0 498.0 L 1.0 498.0 Z M 1.0 1.0 "></path></clipPath><g clip-path="url(#clip0x6000062a9420)"><image xlink:href="../../0FCAFCEB-380F-40DC-B87E-0887B79AF37C/assets/171860430C1C9CA2F2EA75C8E2ADA591.png" width="86.00" height="100.00" transform="matrix(0.99, 0.00, -0.00, -0.99, 704.9, 200.0)"></image></g></g></g></g><g><clipPath id="clip0x6080076a51c0"><path d="M 2.0 101.0 L 215.0 101.0 L 215.0 2.0 L 2.0 2.0 Z M 2.0 101.0 "></path></clipPath><g clip-path="url(#clip0x6080076a51c0)"><g><clipPath id="clip0x6080076a5460"><path d="M 1.0 1.0 L 855.0 1.0 L 855.0 498.0 L 1.0 498.0 Z M 1.0 1.0 "></path></clipPath><g clip-path="url(#clip0x6080076a5460)"><image xlink:href="../../0FCAFCEB-380F-40DC-B87E-0887B79AF37C/assets/93AF66EACD6762C190778CA3F80A4842.jpeg" width="300.00" height="300.00" transform="matrix(1.00, 0.00, -0.00, -1.00, 2.0, 101.0)"></image></g></g></g></g><g><clipPath id="clip0x6080076a5700"><path d="M 215.0 101.0 L 428.0 101.0 L 428.0 2.0 L 215.0 2.0 Z M 215.0 101.0 "></path></clipPath><g clip-path="url(#clip0x6080076a5700)"><g><clipPath id="clip0x6080076a5760"><path d="M 1.0 1.0 L 855.0 1.0 L 855.0 498.0 L 1.0 498.0 Z M 1.0 1.0 "></path></clipPath><g clip-path="url(#clip0x6080076a5760)"><image xlink:href="../../0FCAFCEB-380F-40DC-B87E-0887B79AF37C/assets/087485C98451D86973D9D7A0ECE676ED.png" width="101.00" height="90.00" transform="matrix(1.10, 0.00, -0.00, -1.10, 265.9, 101.0)"></image></g></g></g></g><g><clipPath id="clip0x6080076a5640"><path d="M 428.0 101.0 L 641.0 101.0 L 641.0 2.0 L 428.0 2.0 Z M 428.0 101.0 "></path></clipPath><g clip-path="url(#clip0x6080076a5640)"><g><clipPath id="clip0x6080076a5be0"><path d="M 488.5 2.0 L 580.5 2.0 L 580.5 101.0 L 488.5 101.0 Z M 488.5 2.0 "></path></clipPath><g clip-path="url(#clip0x6080076a5be0)"><path d="M 488.5 101.0 L 580.5 101.0 L 580.5 2.0 L 488.5 2.0 Z M 488.5 101.0 " fill="#000000" fill-opacity="0.00"></path><image xlink:href="../../0FCAFCEB-380F-40DC-B87E-0887B79AF37C/assets/7B2259ABB0731F3532FCBFE097474AF1.png" width="558.00" height="600.00" transform="matrix(0.17, 0.00, -0.00, -0.16, 488.5, 100.6)"></image></g></g></g></g><g><clipPath id="clip0x6080076a5ca0"><path d="M 641.0 101.0 L 854.0 101.0 L 854.0 2.0 L 641.0 2.0 Z M 641.0 101.0 "></path></clipPath><g clip-path="url(#clip0x6080076a5ca0)"><g><clipPath id="clip0x6080076a6000"><path d="M 701.5 2.0 L 793.5 2.0 L 793.5 101.0 L 701.5 101.0 Z M 701.5 2.0 "></path></clipPath><g clip-path="url(#clip0x6080076a6000)"><path d="M 701.5 101.0 L 793.5 101.0 L 793.5 2.0 L 701.5 2.0 Z M 701.5 101.0 " fill="#000000" fill-opacity="0.00"></path><image xlink:href="../../0FCAFCEB-380F-40DC-B87E-0887B79AF37C/assets/7B2259ABB0731F3532FCBFE097474AF1.png" width="558.00" height="600.00" transform="matrix(0.17, 0.00, -0.00, -0.16, 701.5, 100.6)"></image></g></g></g></g></g></g></g></g></g><image xlink:href="../../0FCAFCEB-380F-40DC-B87E-0887B79AF37C/assets/ECECE6F916CB00A29B65798358C7ABF7.png" width="199.00" height="33.00" transform="matrix(1.00, 0.00, -0.00, -1.00, 221.0, 483.0)"></image><g><clipPath id="clip0x6080076a61e0"><path d="M 1.0 498.0 L 855.0 498.0 L 855.0 1.0 L 1.0 1.0 Z M 1.0 498.0 "></path></clipPath><g clip-path="url(#clip0x6080076a61e0)"><g><clipPath id="clip0x6080076a64e0"><path d="M 216.0 399.0 L 427.0 399.0 L 427.0 496.0 L 216.0 496.0 Z M 216.0 399.0 "></path></clipPath><g clip-path="url(#clip0x6080076a64e0)"><text xml:space="preserve" font-family="GillSans,Gill Sans" font-size="40.0" fill="#FFFFFF" transform="matrix(1.00, 0.00, -0.00, -1.00, 223.6, 455.2)">A</text><text xml:space="preserve" font-family="GillSans,Gill Sans" font-size="40.0" fill="#FFFFFF" transform="matrix(1.00, 0.00, -0.00, -1.00, 250.3, 455.2)">c</text><text xml:space="preserve" font-family="GillSans,Gill Sans" font-size="40.0" fill="#FFFFFF" transform="matrix(1.00, 0.00, -0.00, -1.00, 267.8, 455.2)">c</text><text xml:space="preserve" font-family="GillSans,Gill Sans" font-size="40.0" fill="#FFFFFF" transform="matrix(1.00, 0.00, -0.00, -1.00, 285.4, 455.2)">e</text><text xml:space="preserve" font-family="GillSans,Gill Sans" font-size="40.0" fill="#FFFFFF" transform="matrix(1.00, 0.00, -0.00, -1.00, 304.5, 455.2)">l</text><text xml:space="preserve" font-family="GillSans,Gill Sans" font-size="40.0" fill="#FFFFFF" transform="matrix(1.00, 0.00, -0.00, -1.00, 313.3, 455.2)">e</text><text xml:space="preserve" font-family="GillSans,Gill Sans" font-size="40.0" fill="#FFFFFF" transform="matrix(1.00, 0.00, -0.00, -1.00, 332.5, 455.2)">r</text><text xml:space="preserve" font-family="GillSans,Gill Sans" font-size="40.0" fill="#FFFFFF" transform="matrix(1.00, 0.00, -0.00, -1.00, 347.3, 455.2)">o</text><text xml:space="preserve" font-family="GillSans,Gill Sans" font-size="40.0" fill="#FFFFFF" transform="matrix(1.00, 0.00, -0.00, -1.00, 369.4, 455.2)">m</text><text xml:space="preserve" font-family="GillSans,Gill Sans" font-size="40.0" fill="#FFFFFF" transform="matrix(1.00, 0.00, -0.00, -1.00, 400.2, 455.2)">e</text></g></g></g></g><image xlink:href="../../0FCAFCEB-380F-40DC-B87E-0887B79AF37C/assets/BE6B6C5B839084857329741F46F800AD.png" width="52.00" height="27.00" transform="matrix(1.00, 0.00, -0.00, -1.00, 295.0, 431.0)"></image><g><clipPath id="clip0x6080076a6960"><path d="M 1.0 498.0 L 855.0 498.0 L 855.0 1.0 L 1.0 1.0 Z M 1.0 498.0 "></path></clipPath><g clip-path="url(#clip0x6080076a6960)"><g><clipPath id="clip0x6080076a6cc0"><path d="M 216.0 399.0 L 427.0 399.0 L 427.0 496.0 L 216.0 496.0 Z M 216.0 399.0 "></path></clipPath><g clip-path="url(#clip0x6080076a6cc0)"><text xml:space="preserve" font-family="GillSans,Gill Sans" font-size="40.0" fill="#FFFFFF" transform="matrix(1.00, 0.00, -0.00, -1.00, 297.3, 409.2)">t</text><text xml:space="preserve" font-family="GillSans,Gill Sans" font-size="40.0" fill="#FFFFFF" transform="matrix(1.00, 0.00, -0.00, -1.00, 310.7, 409.2)">e</text><text xml:space="preserve" font-family="GillSans,Gill Sans" font-size="40.0" fill="#FFFFFF" transform="matrix(1.00, 0.00, -0.00, -1.00, 329.8, 409.2)">r</text></g></g></g></g><image xlink:href="../../0FCAFCEB-380F-40DC-B87E-0887B79AF37C/assets/3FAE9B65F1744AC861369998B33D7BA2.png" width="191.00" height="42.00" transform="matrix(1.00, 0.00, -0.00, -1.00, 439.0, 483.0)"></image><g><clipPath id="clip0x6080076a6ea0"><path d="M 1.0 498.0 L 855.0 498.0 L 855.0 1.0 L 1.0 1.0 Z M 1.0 498.0 "></path></clipPath><g clip-path="url(#clip0x6080076a6ea0)"><g><clipPath id="clip0x6080076a7200"><path d="M 429.0 399.0 L 640.0 399.0 L 640.0 496.0 L 429.0 496.0 Z M 429.0 399.0 "></path></clipPath><g clip-path="url(#clip0x6080076a7200)"><text xml:space="preserve" font-family="GillSans,Gill Sans" font-size="40.0" fill="#FFFFFF" transform="matrix(1.00, 0.00, -0.00, -1.00, 439.5, 455.2)">M</text><text xml:space="preserve" font-family="GillSans,Gill Sans" font-size="40.0" fill="#FFFFFF" transform="matrix(1.00, 0.00, -0.00, -1.00, 470.8, 455.2)">a</text><text xml:space="preserve" font-family="GillSans,Gill Sans" font-size="40.0" fill="#FFFFFF" transform="matrix(1.00, 0.00, -0.00, -1.00, 487.8, 455.2)">g</text><text xml:space="preserve" font-family="GillSans,Gill Sans" font-size="40.0" fill="#FFFFFF" transform="matrix(1.00, 0.00, -0.00, -1.00, 504.9, 455.2)">n</text><text xml:space="preserve" font-family="GillSans,Gill Sans" font-size="40.0" fill="#FFFFFF" transform="matrix(1.00, 0.00, -0.00, -1.00, 524.9, 455.2)">e</text><text xml:space="preserve" font-family="GillSans,Gill Sans" font-size="40.0" fill="#FFFFFF" transform="matrix(1.00, 0.00, -0.00, -1.00, 544.0, 455.2)">t</text><text xml:space="preserve" font-family="GillSans,Gill Sans" font-size="40.0" fill="#FFFFFF" transform="matrix(1.00, 0.00, -0.00, -1.00, 557.4, 455.2)">o</text><text xml:space="preserve" font-family="GillSans,Gill Sans" font-size="40.0" fill="#FFFFFF" transform="matrix(1.00, 0.00, -0.00, -1.00, 579.4, 455.2)">m</text><text xml:space="preserve" font-family="GillSans,Gill Sans" font-size="40.0" fill="#FFFFFF" transform="matrix(1.00, 0.00, -0.00, -1.00, 610.3, 455.2)">e</text></g></g></g></g><image xlink:href="../../0FCAFCEB-380F-40DC-B87E-0887B79AF37C/assets/BE6B6C5B839084857329741F46F800AD.png" width="52.00" height="27.00" transform="matrix(1.00, 0.00, -0.00, -1.00, 508.0, 431.0)"></image><g><clipPath id="clip0x6080076a7620"><path d="M 1.0 498.0 L 855.0 498.0 L 855.0 1.0 L 1.0 1.0 Z M 1.0 498.0 "></path></clipPath><g clip-path="url(#clip0x6080076a7620)"><g><clipPath id="clip0x6080076a7980"><path d="M 429.0 399.0 L 640.0 399.0 L 640.0 496.0 L 429.0 496.0 Z M 429.0 399.0 "></path></clipPath><g clip-path="url(#clip0x6080076a7980)"><text xml:space="preserve" font-family="GillSans,Gill Sans" font-size="40.0" fill="#FFFFFF" transform="matrix(1.00, 0.00, -0.00, -1.00, 510.3, 409.2)">t</text><text xml:space="preserve" font-family="GillSans,Gill Sans" font-size="40.0" fill="#FFFFFF" transform="matrix(1.00, 0.00, -0.00, -1.00, 523.7, 409.2)">e</text><text xml:space="preserve" font-family="GillSans,Gill Sans" font-size="40.0" fill="#FFFFFF" transform="matrix(1.00, 0.00, -0.00, -1.00, 542.8, 409.2)">r</text></g></g></g></g><image xlink:href="../../0FCAFCEB-380F-40DC-B87E-0887B79AF37C/assets/8255EF54F3DA2A88070AD060CC4987A3.png" width="179.00" height="42.00" transform="matrix(1.00, 0.00, -0.00, -1.00, 658.0, 461.0)"></image><g><clipPath id="clip0x6080076a7b60"><path d="M 1.0 498.0 L 855.0 498.0 L 855.0 1.0 L 1.0 1.0 Z M 1.0 498.0 "></path></clipPath><g clip-path="url(#clip0x6080076a7b60)"><g><clipPath id="clip0x6080076a7ec0"><path d="M 642.0 399.0 L 853.0 399.0 L 853.0 496.0 L 642.0 496.0 Z M 642.0 399.0 "></path></clipPath><g clip-path="url(#clip0x6080076a7ec0)"><text xml:space="preserve" font-family="GillSans,Gill Sans" font-size="40.0" fill="#FFFFFF" transform="matrix(1.00, 0.00, -0.00, -1.00, 658.4, 433.2)">G</text><text xml:space="preserve" font-family="GillSans,Gill Sans" font-size="40.0" fill="#FFFFFF" transform="matrix(1.00, 0.00, -0.00, -1.00, 688.0, 433.2)">y</text><text xml:space="preserve" font-family="GillSans,Gill Sans" font-size="40.0" fill="#FFFFFF" transform="matrix(1.00, 0.00, -0.00, -1.00, 705.5, 433.2)">r</text><text xml:space="preserve" font-family="GillSans,Gill Sans" font-size="40.0" fill="#FFFFFF" transform="matrix(1.00, 0.00, -0.00, -1.00, 720.4, 433.2)">o</text><text xml:space="preserve" font-family="GillSans,Gill Sans" font-size="40.0" fill="#FFFFFF" transform="matrix(1.00, 0.00, -0.00, -1.00, 742.5, 433.2)">s</text><text xml:space="preserve" font-family="GillSans,Gill Sans" font-size="40.0" fill="#FFFFFF" transform="matrix(1.00, 0.00, -0.00, -1.00, 757.8, 433.2)">c</text><text xml:space="preserve" font-family="GillSans,Gill Sans" font-size="40.0" fill="#FFFFFF" transform="matrix(1.00, 0.00, -0.00, -1.00, 775.4, 433.2)">o</text><text xml:space="preserve" font-family="GillSans,Gill Sans" font-size="40.0" fill="#FFFFFF" transform="matrix(1.00, 0.00, -0.00, -1.00, 797.4, 433.2)">p</text><text xml:space="preserve" font-family="GillSans,Gill Sans" font-size="40.0" fill="#FFFFFF" transform="matrix(1.00, 0.00, -0.00, -1.00, 817.4, 433.2)">e</text></g></g></g></g><image xlink:href="../../0FCAFCEB-380F-40DC-B87E-0887B79AF37C/assets/0821997DA9455BA1DBA7F789AE8CE17B.png" width="137.00" height="33.00" transform="matrix(1.00, 0.00, -0.00, -1.00, 39.0, 362.0)"></image><g><clipPath id="clip0x6080076a82e0"><path d="M 1.0 498.0 L 855.0 498.0 L 855.0 1.0 L 1.0 1.0 Z M 1.0 498.0 "></path></clipPath><g clip-path="url(#clip0x6080076a82e0)"><g><clipPath id="clip0x6080076a8640"><path d="M 3.0 300.0 L 214.0 300.0 L 214.0 397.0 L 3.0 397.0 Z M 3.0 300.0 "></path></clipPath><g clip-path="url(#clip0x6080076a8640)"><text xml:space="preserve" font-family="GillSans,Gill Sans" font-size="40.0" fill="#FFFFFF" transform="matrix(1.00, 0.00, -0.00, -1.00, 41.0, 334.2)">A</text><text xml:space="preserve" font-family="GillSans,Gill Sans" font-size="40.0" fill="#FFFFFF" transform="matrix(1.00, 0.00, -0.00, -1.00, 67.7, 334.2)">t</text><text xml:space="preserve" font-family="GillSans,Gill Sans" font-size="40.0" fill="#FFFFFF" transform="matrix(1.00, 0.00, -0.00, -1.00, 81.0, 334.2)">t</text><text xml:space="preserve" font-family="GillSans,Gill Sans" font-size="40.0" fill="#FFFFFF" transform="matrix(1.00, 0.00, -0.00, -1.00, 94.3, 334.2)">i</text><text xml:space="preserve" font-family="GillSans,Gill Sans" font-size="40.0" fill="#FFFFFF" transform="matrix(1.00, 0.00, -0.00, -1.00, 103.1, 334.2)">t</text><text xml:space="preserve" font-family="GillSans,Gill Sans" font-size="40.0" fill="#FFFFFF" transform="matrix(1.00, 0.00, -0.00, -1.00, 116.4, 334.2)">u</text><text xml:space="preserve" font-family="GillSans,Gill Sans" font-size="40.0" fill="#FFFFFF" transform="matrix(1.00, 0.00, -0.00, -1.00, 136.4, 334.2)">d</text><text xml:space="preserve" font-family="GillSans,Gill Sans" font-size="40.0" fill="#FFFFFF" transform="matrix(1.00, 0.00, -0.00, -1.00, 156.8, 334.2)">e</text></g></g></g></g><image xlink:href="../../0FCAFCEB-380F-40DC-B87E-0887B79AF37C/assets/9AFDB76107076E5C560985E23F290420.png" width="133.00" height="42.00" transform="matrix(1.00, 0.00, -0.00, -1.00, 43.0, 263.0)"></image><g><clipPath id="clip0x6080076a8a00"><path d="M 1.0 498.0 L 855.0 498.0 L 855.0 1.0 L 1.0 1.0 Z M 1.0 498.0 "></path></clipPath><g clip-path="url(#clip0x6080076a8a00)"><g><clipPath id="clip0x6080076a8d60"><path d="M 3.0 201.0 L 214.0 201.0 L 214.0 298.0 L 3.0 298.0 Z M 3.0 201.0 "></path></clipPath><g clip-path="url(#clip0x6080076a8d60)"><text xml:space="preserve" font-family="GillSans,Gill Sans" font-size="40.0" fill="#FFFFFF" transform="matrix(1.00, 0.00, -0.00, -1.00, 42.7, 235.2)">H</text><text xml:space="preserve" font-family="GillSans,Gill Sans" font-size="40.0" fill="#FFFFFF" transform="matrix(1.00, 0.00, -0.00, -1.00, 71.8, 235.2)">e</text><text xml:space="preserve" font-family="GillSans,Gill Sans" font-size="40.0" fill="#FFFFFF" transform="matrix(1.00, 0.00, -0.00, -1.00, 91.0, 235.2)">a</text><text xml:space="preserve" font-family="GillSans,Gill Sans" font-size="40.0" fill="#FFFFFF" transform="matrix(1.00, 0.00, -0.00, -1.00, 108.1, 235.2)">d</text><text xml:space="preserve" font-family="GillSans,Gill Sans" font-size="40.0" fill="#FFFFFF" transform="matrix(1.00, 0.00, -0.00, -1.00, 128.5, 235.2)">i</text><text xml:space="preserve" font-family="GillSans,Gill Sans" font-size="40.0" fill="#FFFFFF" transform="matrix(1.00, 0.00, -0.00, -1.00, 137.2, 235.2)">n</text><text xml:space="preserve" font-family="GillSans,Gill Sans" font-size="40.0" fill="#FFFFFF" transform="matrix(1.00, 0.00, -0.00, -1.00, 157.2, 235.2)">g</text></g></g></g></g><image xlink:href="../../0FCAFCEB-380F-40DC-B87E-0887B79AF37C/assets/940B535A11472189D51EB8DDE8DE59DE.png" width="69.00" height="42.00" transform="matrix(1.00, 0.00, -0.00, -1.00, 73.0, 164.0)"></image><g><clipPath id="clip0x6080076a90c0"><path d="M 1.0 498.0 L 855.0 498.0 L 855.0 1.0 L 1.0 1.0 Z M 1.0 498.0 "></path></clipPath><g clip-path="url(#clip0x6080076a90c0)"><g><clipPath id="clip0x6080076a9420"><path d="M 3.0 102.0 L 214.0 102.0 L 214.0 199.0 L 3.0 199.0 Z M 3.0 102.0 "></path></clipPath><g clip-path="url(#clip0x6080076a9420)"><text xml:space="preserve" font-family="GillSans,Gill Sans" font-size="40.0" fill="#FFFFFF" transform="matrix(1.00, 0.00, -0.00, -1.00, 75.0, 136.2)">S</text><text xml:space="preserve" font-family="GillSans,Gill Sans" font-size="40.0" fill="#FFFFFF" transform="matrix(1.00, 0.00, -0.00, -1.00, 93.3, 136.2)">p</text><text xml:space="preserve" font-family="GillSans,Gill Sans" font-size="40.0" fill="#FFFFFF" transform="matrix(1.00, 0.00, -0.00, -1.00, 113.3, 136.2)">i</text><text xml:space="preserve" font-family="GillSans,Gill Sans" font-size="40.0" fill="#FFFFFF" transform="matrix(1.00, 0.00, -0.00, -1.00, 122.1, 136.2)">n</text></g></g></g></g><image xlink:href="../../0FCAFCEB-380F-40DC-B87E-0887B79AF37C/assets/061140F331F068065F556675EDA59358.png" width="94.00" height="33.00" transform="matrix(1.00, 0.00, -0.00, -1.00, 61.0, 65.0)"></image><g><clipPath id="clip0x6080076a9660"><path d="M 1.0 498.0 L 855.0 498.0 L 855.0 1.0 L 1.0 1.0 Z M 1.0 498.0 "></path></clipPath><g clip-path="url(#clip0x6080076a9660)"><g><clipPath id="clip0x6080076a99c0"><path d="M 3.0 3.0 L 214.0 3.0 L 214.0 100.0 L 3.0 100.0 Z M 3.0 3.0 "></path></clipPath><g clip-path="url(#clip0x6080076a99c0)"><text xml:space="preserve" font-family="GillSans,Gill Sans" font-size="40.0" fill="#FFFFFF" transform="matrix(1.00, 0.00, -0.00, -1.00, 62.2, 37.2)">S</text><text xml:space="preserve" font-family="GillSans,Gill Sans" font-size="40.0" fill="#FFFFFF" transform="matrix(1.00, 0.00, -0.00, -1.00, 80.6, 37.2)">h</text><text xml:space="preserve" font-family="GillSans,Gill Sans" font-size="40.0" fill="#FFFFFF" transform="matrix(1.00, 0.00, -0.00, -1.00, 100.6, 37.2)">a</text><text xml:space="preserve" font-family="GillSans,Gill Sans" font-size="40.0" fill="#FFFFFF" transform="matrix(1.00, 0.00, -0.00, -1.00, 117.6, 37.2)">k</text><text xml:space="preserve" font-family="GillSans,Gill Sans" font-size="40.0" fill="#FFFFFF" transform="matrix(1.00, 0.00, -0.00, -1.00, 135.6, 37.2)">e</text></g></g></g></g><g><clipPath id="clip0x6080076a9d80"><path d="M 1.0 498.0 L 855.0 498.0 L 855.0 1.0 L 1.0 1.0 Z M 1.0 498.0 "></path></clipPath><g clip-path="url(#clip0x6080076a9d80)"><g><clipPath id="clip0x6080076a9f00"><path d="M 0.0 0.0 L 856.0 0.0 L 856.0 499.0 L 0.0 499.0 Z M 0.0 0.0 "></path></clipPath><g clip-path="url(#clip0x6080076a9f00)"><path d="M 428.0 1.0 L 428.0 101.0 " fill="none" stroke="#000000" stroke-width="2.00" transform="matrix(1.00, 0.00, 0.00, -1.00, 0.0, 499.0)"></path><path d="M 428.0 101.0 L 428.0 498.0 " fill="none" stroke="#000000" stroke-width="2.00" transform="matrix(1.00, 0.00, 0.00, -1.00, 0.0, 499.0)"></path><path d="M 641.0 1.0 L 641.0 101.0 " fill="none" stroke="#000000" stroke-width="2.00" transform="matrix(1.00, 0.00, 0.00, -1.00, 0.0, 499.0)"></path><path d="M 641.0 101.0 L 641.0 498.0 " fill="none" stroke="#000000" stroke-width="2.00" transform="matrix(1.00, 0.00, 0.00, -1.00, 0.0, 499.0)"></path><path d="M 1.0 200.0 L 215.0 200.0 " fill="none" stroke="#000000" stroke-width="2.00" transform="matrix(1.00, 0.00, 0.00, -1.00, 0.0, 499.0)"></path><path d="M 215.0 200.0 L 855.0 200.0 " fill="none" stroke="#000000" stroke-width="2.00" transform="matrix(1.00, 0.00, 0.00, -1.00, 0.0, 499.0)"></path><path d="M 1.0 299.0 L 215.0 299.0 " fill="none" stroke="#000000" stroke-width="2.00" transform="matrix(1.00, 0.00, 0.00, -1.00, 0.0, 499.0)"></path><path d="M 215.0 299.0 L 855.0 299.0 " fill="none" stroke="#000000" stroke-width="2.00" transform="matrix(1.00, 0.00, 0.00, -1.00, 0.0, 499.0)"></path><path d="M 1.0 398.0 L 215.0 398.0 " fill="none" stroke="#000000" stroke-width="2.00" transform="matrix(1.00, 0.00, 0.00, -1.00, 0.0, 499.0)"></path><path d="M 215.0 398.0 L 855.0 398.0 " fill="none" stroke="#000000" stroke-width="2.00" transform="matrix(1.00, 0.00, 0.00, -1.00, 0.0, 499.0)"></path><path d="M 215.0 1.0 L 215.0 101.0 " fill="none" stroke="#000000" stroke-width="2.00" transform="matrix(1.00, 0.00, 0.00, -1.00, 0.0, 499.0)"></path><path d="M 215.0 101.0 L 215.0 498.0 " fill="none" stroke="#000000" stroke-width="2.00" transform="matrix(1.00, 0.00, 0.00, -1.00, 0.0, 499.0)"></path><path d="M 1.0 101.0 L 855.0 101.0 " fill="none" stroke="#000000" stroke-width="2.00" transform="matrix(1.00, 0.00, 0.00, -1.00, 0.0, 499.0)"></path><path d="M 2.0 1.0 L 2.0 101.0 " fill="none" stroke="#000000" stroke-width="2.00" transform="matrix(1.00, 0.00, 0.00, -1.00, 0.0, 499.0)"></path><path d="M 2.0 101.0 L 2.0 498.0 " fill="none" stroke="#000000" stroke-width="2.00" transform="matrix(1.00, 0.00, 0.00, -1.00, 0.0, 499.0)"></path><path d="M 854.0 1.0 L 854.0 101.0 " fill="none" stroke="#000000" stroke-width="2.00" transform="matrix(1.00, 0.00, 0.00, -1.00, 0.0, 499.0)"></path><path d="M 854.0 101.0 L 854.0 498.0 " fill="none" stroke="#000000" stroke-width="2.00" transform="matrix(1.00, 0.00, 0.00, -1.00, 0.0, 499.0)"></path><path d="M 1.0 2.0 L 855.0 2.0 " fill="none" stroke="#000000" stroke-width="2.00" transform="matrix(1.00, 0.00, 0.00, -1.00, 0.0, 499.0)"></path><path d="M 1.0 497.0 L 215.0 497.0 " fill="none" stroke="#000000" stroke-width="2.00" transform="matrix(1.00, 0.00, 0.00, -1.00, 0.0, 499.0)"></path><path d="M 215.0 497.0 L 855.0 497.0 " fill="none" stroke="#000000" stroke-width="2.00" transform="matrix(1.00, 0.00, 0.00, -1.00, 0.0, 499.0)"></path></g></g></g></g></g></g></svg>