<?xml version="1.0" encoding="UTF-8" standalone="no"?><svg xmlns="http://www.w3.org/2000/svg" xmlns:xlink="http://www.w3.org/1999/xlink" clip-rule="evenodd" stroke-miterlimit="10" viewBox="0 0 677 144"><desc>SVG generated by Keynote</desc><defs></defs><g transform="matrix(1.00, 0.00, -0.00, -1.00, 0.0, 144.0)"><text xml:space="preserve" font-family="Menlo-Regular,Menlo" font-size="20.0" fill="#000000" transform="matrix(1.00, 0.00, -0.00, -1.00, 1.0, 125.7)">t</text><text xml:space="preserve" font-family="Menlo-Regular,Menlo" font-size="20.0" fill="#000000" transform="matrix(1.00, 0.00, -0.00, -1.00, 13.0, 125.7)">y</text><text xml:space="preserve" font-family="Menlo-Regular,Menlo" font-size="20.0" fill="#000000" transform="matrix(1.00, 0.00, -0.00, -1.00, 25.1, 125.7)">p</text><text xml:space="preserve" font-family="Menlo-Regular,Menlo" font-size="20.0" fill="#000000" transform="matrix(1.00, 0.00, -0.00, -1.00, 37.1, 125.7)">e</text><text xml:space="preserve" font-family="Menlo-Regular,Menlo" font-size="20.0" fill="#000000" transform="matrix(1.00, 0.00, -0.00, -1.00, 49.2, 125.7)">d</text><text xml:space="preserve" font-family="Menlo-Regular,Menlo" font-size="20.0" fill="#000000" transform="matrix(1.00, 0.00, -0.00, -1.00, 61.2, 125.7)">e</text><text xml:space="preserve" font-family="Menlo-Regular,Menlo" font-size="20.0" fill="#000000" transform="matrix(1.00, 0.00, -0.00, -1.00, 73.3, 125.7)">f</text><text xml:space="preserve" font-family="Menlo-Regular,Menlo" font-size="20.0" fill="#000000" transform="matrix(1.00, 0.00, -0.00, -1.00, 85.3, 125.7)"> </text><text xml:space="preserve" font-family="Menlo-Regular,Menlo" font-size="20.0" fill="#000000" transform="matrix(1.00, 0.00, -0.00, -1.00, 97.3, 125.7)">e</text><text xml:space="preserve" font-family="Menlo-Regular,Menlo" font-size="20.0" fill="#000000" transform="matrix(1.00, 0.00, -0.00, -1.00, 109.4, 125.7)">n</text><text xml:space="preserve" font-family="Menlo-Regular,Menlo" font-size="20.0" fill="#000000" transform="matrix(1.00, 0.00, -0.00, -1.00, 121.4, 125.7)">u</text><text xml:space="preserve" font-family="Menlo-Regular,Menlo" font-size="20.0" fill="#000000" transform="matrix(1.00, 0.00, -0.00, -1.00, 133.5, 125.7)">m</text><text xml:space="preserve" font-family="Menlo-Regular,Menlo" font-size="20.0" fill="#000000" transform="matrix(1.00, 0.00, -0.00, -1.00, 145.5, 125.7)"> </text><text xml:space="preserve" font-family="Menlo-Regular,Menlo" font-size="20.0" fill="#000000" transform="matrix(1.00, 0.00, -0.00, -1.00, 157.6, 125.7)">{</text><text xml:space="preserve" font-family="Menlo-Regular,Menlo" font-size="20.0" fill="#000000" transform="matrix(1.00, 0.00, -0.00, -1.00, 169.6, 125.7)"> </text><text xml:space="preserve" font-family="Menlo-Regular,Menlo" font-size="20.0" fill="#000000" transform="matrix(1.00, 0.00, -0.00, -1.00, 1.0, 101.7)"> </text><text xml:space="preserve" font-family="Menlo-Regular,Menlo" font-size="20.0" fill="#000000" transform="matrix(1.00, 0.00, -0.00, -1.00, 13.0, 101.7)"> </text><text xml:space="preserve" font-family="Menlo-Regular,Menlo" font-size="20.0" fill="#000000" transform="matrix(1.00, 0.00, -0.00, -1.00, 25.1, 101.7)"> </text><text xml:space="preserve" font-family="Menlo-Regular,Menlo" font-size="20.0" fill="#000000" transform="matrix(1.00, 0.00, -0.00, -1.00, 37.1, 101.7)"> </text><text xml:space="preserve" font-family="Menlo-Regular,Menlo" font-size="20.0" fill="#000000" transform="matrix(1.00, 0.00, -0.00, -1.00, 49.2, 101.7)">C</text><text xml:space="preserve" font-family="Menlo-Regular,Menlo" font-size="20.0" fill="#000000" transform="matrix(1.00, 0.00, -0.00, -1.00, 61.2, 101.7)">M</text><text xml:space="preserve" font-family="Menlo-Regular,Menlo" font-size="20.0" fill="#000000" transform="matrix(1.00, 0.00, -0.00, -1.00, 73.3, 101.7)">M</text><text xml:space="preserve" font-family="Menlo-Regular,Menlo" font-size="20.0" fill="#000000" transform="matrix(1.00, 0.00, -0.00, -1.00, 85.3, 101.7)">a</text><text xml:space="preserve" font-family="Menlo-Regular,Menlo" font-size="20.0" fill="#000000" transform="matrix(1.00, 0.00, -0.00, -1.00, 97.3, 101.7)">g</text><text xml:space="preserve" font-family="Menlo-Regular,Menlo" font-size="20.0" fill="#000000" transform="matrix(1.00, 0.00, -0.00, -1.00, 109.4, 101.7)">n</text><text xml:space="preserve" font-family="Menlo-Regular,Menlo" font-size="20.0" fill="#000000" transform="matrix(1.00, 0.00, -0.00, -1.00, 121.4, 101.7)">e</text><text xml:space="preserve" font-family="Menlo-Regular,Menlo" font-size="20.0" fill="#000000" transform="matrix(1.00, 0.00, -0.00, -1.00, 133.5, 101.7)">t</text><text xml:space="preserve" font-family="Menlo-Regular,Menlo" font-size="20.0" fill="#000000" transform="matrix(1.00, 0.00, -0.00, -1.00, 145.5, 101.7)">i</text><text xml:space="preserve" font-family="Menlo-Regular,Menlo" font-size="20.0" fill="#000000" transform="matrix(1.00, 0.00, -0.00, -1.00, 157.6, 101.7)">c</text><text xml:space="preserve" font-family="Menlo-Regular,Menlo" font-size="20.0" fill="#000000" transform="matrix(1.00, 0.00, -0.00, -1.00, 169.6, 101.7)">F</text><text xml:space="preserve" font-family="Menlo-Regular,Menlo" font-size="20.0" fill="#000000" transform="matrix(1.00, 0.00, -0.00, -1.00, 181.6, 101.7)">i</text><text xml:space="preserve" font-family="Menlo-Regular,Menlo" font-size="20.0" fill="#000000" transform="matrix(1.00, 0.00, -0.00, -1.00, 193.7, 101.7)">e</text><text xml:space="preserve" font-family="Menlo-Regular,Menlo" font-size="20.0" fill="#000000" transform="matrix(1.00, 0.00, -0.00, -1.00, 205.7, 101.7)">l</text><text xml:space="preserve" font-family="Menlo-Regular,Menlo" font-size="20.0" fill="#000000" transform="matrix(1.00, 0.00, -0.00, -1.00, 217.8, 101.7)">d</text><text xml:space="preserve" font-family="Menlo-Regular,Menlo" font-size="20.0" fill="#000000" transform="matrix(1.00, 0.00, -0.00, -1.00, 229.8, 101.7)">C</text><text xml:space="preserve" font-family="Menlo-Regular,Menlo" font-size="20.0" fill="#000000" transform="matrix(1.00, 0.00, -0.00, -1.00, 241.9, 101.7)">a</text><text xml:space="preserve" font-family="Menlo-Regular,Menlo" font-size="20.0" fill="#000000" transform="matrix(1.00, 0.00, -0.00, -1.00, 253.9, 101.7)">l</text><text xml:space="preserve" font-family="Menlo-Regular,Menlo" font-size="20.0" fill="#000000" transform="matrix(1.00, 0.00, -0.00, -1.00, 265.9, 101.7)">i</text><text xml:space="preserve" font-family="Menlo-Regular,Menlo" font-size="20.0" fill="#000000" transform="matrix(1.00, 0.00, -0.00, -1.00, 278.0, 101.7)">b</text><text xml:space="preserve" font-family="Menlo-Regular,Menlo" font-size="20.0" fill="#000000" transform="matrix(1.00, 0.00, -0.00, -1.00, 290.0, 101.7)">r</text><text xml:space="preserve" font-family="Menlo-Regular,Menlo" font-size="20.0" fill="#000000" transform="matrix(1.00, 0.00, -0.00, -1.00, 302.1, 101.7)">a</text><text xml:space="preserve" font-family="Menlo-Regular,Menlo" font-size="20.0" fill="#000000" transform="matrix(1.00, 0.00, -0.00, -1.00, 314.1, 101.7)">t</text><text xml:space="preserve" font-family="Menlo-Regular,Menlo" font-size="20.0" fill="#000000" transform="matrix(1.00, 0.00, -0.00, -1.00, 326.2, 101.7)">i</text><text xml:space="preserve" font-family="Menlo-Regular,Menlo" font-size="20.0" fill="#000000" transform="matrix(1.00, 0.00, -0.00, -1.00, 338.2, 101.7)">o</text><text xml:space="preserve" font-family="Menlo-Regular,Menlo" font-size="20.0" fill="#000000" transform="matrix(1.00, 0.00, -0.00, -1.00, 350.2, 101.7)">n</text><text xml:space="preserve" font-family="Menlo-Regular,Menlo" font-size="20.0" fill="#000000" transform="matrix(1.00, 0.00, -0.00, -1.00, 362.3, 101.7)">A</text><text xml:space="preserve" font-family="Menlo-Regular,Menlo" font-size="20.0" fill="#000000" transform="matrix(1.00, 0.00, -0.00, -1.00, 374.3, 101.7)">c</text><text xml:space="preserve" font-family="Menlo-Regular,Menlo" font-size="20.0" fill="#000000" transform="matrix(1.00, 0.00, -0.00, -1.00, 386.4, 101.7)">c</text><text xml:space="preserve" font-family="Menlo-Regular,Menlo" font-size="20.0" fill="#000000" transform="matrix(1.00, 0.00, -0.00, -1.00, 398.4, 101.7)">u</text><text xml:space="preserve" font-family="Menlo-Regular,Menlo" font-size="20.0" fill="#000000" transform="matrix(1.00, 0.00, -0.00, -1.00, 410.5, 101.7)">r</text><text xml:space="preserve" font-family="Menlo-Regular,Menlo" font-size="20.0" fill="#000000" transform="matrix(1.00, 0.00, -0.00, -1.00, 422.5, 101.7)">a</text><text xml:space="preserve" font-family="Menlo-Regular,Menlo" font-size="20.0" fill="#000000" transform="matrix(1.00, 0.00, -0.00, -1.00, 434.5, 101.7)">c</text><text xml:space="preserve" font-family="Menlo-Regular,Menlo" font-size="20.0" fill="#000000" transform="matrix(1.00, 0.00, -0.00, -1.00, 446.6, 101.7)">y</text><text xml:space="preserve" font-family="Menlo-Regular,Menlo" font-size="20.0" fill="#000000" transform="matrix(1.00, 0.00, -0.00, -1.00, 458.6, 101.7)">U</text><text xml:space="preserve" font-family="Menlo-Regular,Menlo" font-size="20.0" fill="#000000" transform="matrix(1.00, 0.00, -0.00, -1.00, 470.7, 101.7)">n</text><text xml:space="preserve" font-family="Menlo-Regular,Menlo" font-size="20.0" fill="#000000" transform="matrix(1.00, 0.00, -0.00, -1.00, 482.7, 101.7)">c</text><text xml:space="preserve" font-family="Menlo-Regular,Menlo" font-size="20.0" fill="#000000" transform="matrix(1.00, 0.00, -0.00, -1.00, 494.8, 101.7)">a</text><text xml:space="preserve" font-family="Menlo-Regular,Menlo" font-size="20.0" fill="#000000" transform="matrix(1.00, 0.00, -0.00, -1.00, 506.8, 101.7)">l</text><text xml:space="preserve" font-family="Menlo-Regular,Menlo" font-size="20.0" fill="#000000" transform="matrix(1.00, 0.00, -0.00, -1.00, 518.8, 101.7)">i</text><text xml:space="preserve" font-family="Menlo-Regular,Menlo" font-size="20.0" fill="#000000" transform="matrix(1.00, 0.00, -0.00, -1.00, 530.9, 101.7)">b</text><text xml:space="preserve" font-family="Menlo-Regular,Menlo" font-size="20.0" fill="#000000" transform="matrix(1.00, 0.00, -0.00, -1.00, 542.9, 101.7)">r</text><text xml:space="preserve" font-family="Menlo-Regular,Menlo" font-size="20.0" fill="#000000" transform="matrix(1.00, 0.00, -0.00, -1.00, 555.0, 101.7)">a</text><text xml:space="preserve" font-family="Menlo-Regular,Menlo" font-size="20.0" fill="#000000" transform="matrix(1.00, 0.00, -0.00, -1.00, 567.0, 101.7)">t</text><text xml:space="preserve" font-family="Menlo-Regular,Menlo" font-size="20.0" fill="#000000" transform="matrix(1.00, 0.00, -0.00, -1.00, 579.1, 101.7)">e</text><text xml:space="preserve" font-family="Menlo-Regular,Menlo" font-size="20.0" fill="#000000" transform="matrix(1.00, 0.00, -0.00, -1.00, 591.1, 101.7)">d</text><text xml:space="preserve" font-family="Menlo-Regular,Menlo" font-size="20.0" fill="#000000" transform="matrix(1.00, 0.00, -0.00, -1.00, 603.2, 101.7)"> </text><text xml:space="preserve" font-family="Menlo-Regular,Menlo" font-size="20.0" fill="#000000" transform="matrix(1.00, 0.00, -0.00, -1.00, 615.2, 101.7)">=</text><text xml:space="preserve" font-family="Menlo-Regular,Menlo" font-size="20.0" fill="#000000" transform="matrix(1.00, 0.00, -0.00, -1.00, 627.2, 101.7)"> </text><text xml:space="preserve" font-family="Menlo-Regular,Menlo" font-size="20.0" fill="#000000" transform="matrix(1.00, 0.00, -0.00, -1.00, 639.3, 101.7)">-</text><text xml:space="preserve" font-family="Menlo-Regular,Menlo" font-size="20.0" fill="#000000" transform="matrix(1.00, 0.00, -0.00, -1.00, 651.3, 101.7)">1</text><text xml:space="preserve" font-family="Menlo-Regular,Menlo" font-size="20.0" fill="#000000" transform="matrix(1.00, 0.00, -0.00, -1.00, 663.4, 101.7)">,</text><text xml:space="preserve" font-family="Menlo-Regular,Menlo" font-size="20.0" fill="#000000" transform="matrix(1.00, 0.00, -0.00, -1.00, 675.4, 101.7)"> </text><text xml:space="preserve" font-family="Menlo-Regular,Menlo" font-size="20.0" fill="#000000" transform="matrix(1.00, 0.00, -0.00, -1.00, 1.0, 77.7)"> </text><text xml:space="preserve" font-family="Menlo-Regular,Menlo" font-size="20.0" fill="#000000" transform="matrix(1.00, 0.00, -0.00, -1.00, 13.0, 77.7)"> </text><text xml:space="preserve" font-family="Menlo-Regular,Menlo" font-size="20.0" fill="#000000" transform="matrix(1.00, 0.00, -0.00, -1.00, 25.1, 77.7)"> </text><text xml:space="preserve" font-family="Menlo-Regular,Menlo" font-size="20.0" fill="#000000" transform="matrix(1.00, 0.00, -0.00, -1.00, 37.1, 77.7)"> </text><text xml:space="preserve" font-family="Menlo-Regular,Menlo" font-size="20.0" fill="#000000" transform="matrix(1.00, 0.00, -0.00, -1.00, 49.2, 77.7)">C</text><text xml:space="preserve" font-family="Menlo-Regular,Menlo" font-size="20.0" fill="#000000" transform="matrix(1.00, 0.00, -0.00, -1.00, 61.2, 77.7)">M</text><text xml:space="preserve" font-family="Menlo-Regular,Menlo" font-size="20.0" fill="#000000" transform="matrix(1.00, 0.00, -0.00, -1.00, 73.3, 77.7)">M</text><text xml:space="preserve" font-family="Menlo-Regular,Menlo" font-size="20.0" fill="#000000" transform="matrix(1.00, 0.00, -0.00, -1.00, 85.3, 77.7)">a</text><text xml:space="preserve" font-family="Menlo-Regular,Menlo" font-size="20.0" fill="#000000" transform="matrix(1.00, 0.00, -0.00, -1.00, 97.3, 77.7)">g</text><text xml:space="preserve" font-family="Menlo-Regular,Menlo" font-size="20.0" fill="#000000" transform="matrix(1.00, 0.00, -0.00, -1.00, 109.4, 77.7)">n</text><text xml:space="preserve" font-family="Menlo-Regular,Menlo" font-size="20.0" fill="#000000" transform="matrix(1.00, 0.00, -0.00, -1.00, 121.4, 77.7)">e</text><text xml:space="preserve" font-family="Menlo-Regular,Menlo" font-size="20.0" fill="#000000" transform="matrix(1.00, 0.00, -0.00, -1.00, 133.5, 77.7)">t</text><text xml:space="preserve" font-family="Menlo-Regular,Menlo" font-size="20.0" fill="#000000" transform="matrix(1.00, 0.00, -0.00, -1.00, 145.5, 77.7)">i</text><text xml:space="preserve" font-family="Menlo-Regular,Menlo" font-size="20.0" fill="#000000" transform="matrix(1.00, 0.00, -0.00, -1.00, 157.6, 77.7)">c</text><text xml:space="preserve" font-family="Menlo-Regular,Menlo" font-size="20.0" fill="#000000" transform="matrix(1.00, 0.00, -0.00, -1.00, 169.6, 77.7)">F</text><text xml:space="preserve" font-family="Menlo-Regular,Menlo" font-size="20.0" fill="#000000" transform="matrix(1.00, 0.00, -0.00, -1.00, 181.6, 77.7)">i</text><text xml:space="preserve" font-family="Menlo-Regular,Menlo" font-size="20.0" fill="#000000" transform="matrix(1.00, 0.00, -0.00, -1.00, 193.7, 77.7)">e</text><text xml:space="preserve" font-family="Menlo-Regular,Menlo" font-size="20.0" fill="#000000" transform="matrix(1.00, 0.00, -0.00, -1.00, 205.7, 77.7)">l</text><text xml:space="preserve" font-family="Menlo-Regular,Menlo" font-size="20.0" fill="#000000" transform="matrix(1.00, 0.00, -0.00, -1.00, 217.8, 77.7)">d</text><text xml:space="preserve" font-family="Menlo-Regular,Menlo" font-size="20.0" fill="#000000" transform="matrix(1.00, 0.00, -0.00, -1.00, 229.8, 77.7)">C</text><text xml:space="preserve" font-family="Menlo-Regular,Menlo" font-size="20.0" fill="#000000" transform="matrix(1.00, 0.00, -0.00, -1.00, 241.9, 77.7)">a</text><text xml:space="preserve" font-family="Menlo-Regular,Menlo" font-size="20.0" fill="#000000" transform="matrix(1.00, 0.00, -0.00, -1.00, 253.9, 77.7)">l</text><text xml:space="preserve" font-family="Menlo-Regular,Menlo" font-size="20.0" fill="#000000" transform="matrix(1.00, 0.00, -0.00, -1.00, 265.9, 77.7)">i</text><text xml:space="preserve" font-family="Menlo-Regular,Menlo" font-size="20.0" fill="#000000" transform="matrix(1.00, 0.00, -0.00, -1.00, 278.0, 77.7)">b</text><text xml:space="preserve" font-family="Menlo-Regular,Menlo" font-size="20.0" fill="#000000" transform="matrix(1.00, 0.00, -0.00, -1.00, 290.0, 77.7)">r</text><text xml:space="preserve" font-family="Menlo-Regular,Menlo" font-size="20.0" fill="#000000" transform="matrix(1.00, 0.00, -0.00, -1.00, 302.1, 77.7)">a</text><text xml:space="preserve" font-family="Menlo-Regular,Menlo" font-size="20.0" fill="#000000" transform="matrix(1.00, 0.00, -0.00, -1.00, 314.1, 77.7)">t</text><text xml:space="preserve" font-family="Menlo-Regular,Menlo" font-size="20.0" fill="#000000" transform="matrix(1.00, 0.00, -0.00, -1.00, 326.2, 77.7)">i</text><text xml:space="preserve" font-family="Menlo-Regular,Menlo" font-size="20.0" fill="#000000" transform="matrix(1.00, 0.00, -0.00, -1.00, 338.2, 77.7)">o</text><text xml:space="preserve" font-family="Menlo-Regular,Menlo" font-size="20.0" fill="#000000" transform="matrix(1.00, 0.00, -0.00, -1.00, 350.2, 77.7)">n</text><text xml:space="preserve" font-family="Menlo-Regular,Menlo" font-size="20.0" fill="#000000" transform="matrix(1.00, 0.00, -0.00, -1.00, 362.3, 77.7)">A</text><text xml:space="preserve" font-family="Menlo-Regular,Menlo" font-size="20.0" fill="#000000" transform="matrix(1.00, 0.00, -0.00, -1.00, 374.3, 77.7)">c</text><text xml:space="preserve" font-family="Menlo-Regular,Menlo" font-size="20.0" fill="#000000" transform="matrix(1.00, 0.00, -0.00, -1.00, 386.4, 77.7)">c</text><text xml:space="preserve" font-family="Menlo-Regular,Menlo" font-size="20.0" fill="#000000" transform="matrix(1.00, 0.00, -0.00, -1.00, 398.4, 77.7)">u</text><text xml:space="preserve" font-family="Menlo-Regular,Menlo" font-size="20.0" fill="#000000" transform="matrix(1.00, 0.00, -0.00, -1.00, 410.5, 77.7)">r</text><text xml:space="preserve" font-family="Menlo-Regular,Menlo" font-size="20.0" fill="#000000" transform="matrix(1.00, 0.00, -0.00, -1.00, 422.5, 77.7)">a</text><text xml:space="preserve" font-family="Menlo-Regular,Menlo" font-size="20.0" fill="#000000" transform="matrix(1.00, 0.00, -0.00, -1.00, 434.5, 77.7)">c</text><text xml:space="preserve" font-family="Menlo-Regular,Menlo" font-size="20.0" fill="#000000" transform="matrix(1.00, 0.00, -0.00, -1.00, 446.6, 77.7)">y</text><text xml:space="preserve" font-family="Menlo-Regular,Menlo" font-size="20.0" fill="#000000" transform="matrix(1.00, 0.00, -0.00, -1.00, 458.6, 77.7)">L</text><text xml:space="preserve" font-family="Menlo-Regular,Menlo" font-size="20.0" fill="#000000" transform="matrix(1.00, 0.00, -0.00, -1.00, 470.7, 77.7)">o</text><text xml:space="preserve" font-family="Menlo-Regular,Menlo" font-size="20.0" fill="#000000" transform="matrix(1.00, 0.00, -0.00, -1.00, 482.7, 77.7)">w</text><text xml:space="preserve" font-family="Menlo-Regular,Menlo" font-size="20.0" fill="#000000" transform="matrix(1.00, 0.00, -0.00, -1.00, 494.8, 77.7)">,</text><text xml:space="preserve" font-family="Menlo-Regular,Menlo" font-size="20.0" fill="#000000" transform="matrix(1.00, 0.00, -0.00, -1.00, 506.8, 77.7)"> </text><text xml:space="preserve" font-family="Menlo-Regular,Menlo" font-size="20.0" fill="#000000" transform="matrix(1.00, 0.00, -0.00, -1.00, 1.0, 53.7)"> </text><text xml:space="preserve" font-family="Menlo-Regular,Menlo" font-size="20.0" fill="#000000" transform="matrix(1.00, 0.00, -0.00, -1.00, 13.0, 53.7)"> </text><text xml:space="preserve" font-family="Menlo-Regular,Menlo" font-size="20.0" fill="#000000" transform="matrix(1.00, 0.00, -0.00, -1.00, 25.1, 53.7)"> </text><text xml:space="preserve" font-family="Menlo-Regular,Menlo" font-size="20.0" fill="#000000" transform="matrix(1.00, 0.00, -0.00, -1.00, 37.1, 53.7)"> </text><text xml:space="preserve" font-family="Menlo-Regular,Menlo" font-size="20.0" fill="#000000" transform="matrix(1.00, 0.00, -0.00, -1.00, 49.2, 53.7)">C</text><text xml:space="preserve" font-family="Menlo-Regular,Menlo" font-size="20.0" fill="#000000" transform="matrix(1.00, 0.00, -0.00, -1.00, 61.2, 53.7)">M</text><text xml:space="preserve" font-family="Menlo-Regular,Menlo" font-size="20.0" fill="#000000" transform="matrix(1.00, 0.00, -0.00, -1.00, 73.3, 53.7)">M</text><text xml:space="preserve" font-family="Menlo-Regular,Menlo" font-size="20.0" fill="#000000" transform="matrix(1.00, 0.00, -0.00, -1.00, 85.3, 53.7)">a</text><text xml:space="preserve" font-family="Menlo-Regular,Menlo" font-size="20.0" fill="#000000" transform="matrix(1.00, 0.00, -0.00, -1.00, 97.3, 53.7)">g</text><text xml:space="preserve" font-family="Menlo-Regular,Menlo" font-size="20.0" fill="#000000" transform="matrix(1.00, 0.00, -0.00, -1.00, 109.4, 53.7)">n</text><text xml:space="preserve" font-family="Menlo-Regular,Menlo" font-size="20.0" fill="#000000" transform="matrix(1.00, 0.00, -0.00, -1.00, 121.4, 53.7)">e</text><text xml:space="preserve" font-family="Menlo-Regular,Menlo" font-size="20.0" fill="#000000" transform="matrix(1.00, 0.00, -0.00, -1.00, 133.5, 53.7)">t</text><text xml:space="preserve" font-family="Menlo-Regular,Menlo" font-size="20.0" fill="#000000" transform="matrix(1.00, 0.00, -0.00, -1.00, 145.5, 53.7)">i</text><text xml:space="preserve" font-family="Menlo-Regular,Menlo" font-size="20.0" fill="#000000" transform="matrix(1.00, 0.00, -0.00, -1.00, 157.6, 53.7)">c</text><text xml:space="preserve" font-family="Menlo-Regular,Menlo" font-size="20.0" fill="#000000" transform="matrix(1.00, 0.00, -0.00, -1.00, 169.6, 53.7)">F</text><text xml:space="preserve" font-family="Menlo-Regular,Menlo" font-size="20.0" fill="#000000" transform="matrix(1.00, 0.00, -0.00, -1.00, 181.6, 53.7)">i</text><text xml:space="preserve" font-family="Menlo-Regular,Menlo" font-size="20.0" fill="#000000" transform="matrix(1.00, 0.00, -0.00, -1.00, 193.7, 53.7)">e</text><text xml:space="preserve" font-family="Menlo-Regular,Menlo" font-size="20.0" fill="#000000" transform="matrix(1.00, 0.00, -0.00, -1.00, 205.7, 53.7)">l</text><text xml:space="preserve" font-family="Menlo-Regular,Menlo" font-size="20.0" fill="#000000" transform="matrix(1.00, 0.00, -0.00, -1.00, 217.8, 53.7)">d</text><text xml:space="preserve" font-family="Menlo-Regular,Menlo" font-size="20.0" fill="#000000" transform="matrix(1.00, 0.00, -0.00, -1.00, 229.8, 53.7)">C</text><text xml:space="preserve" font-family="Menlo-Regular,Menlo" font-size="20.0" fill="#000000" transform="matrix(1.00, 0.00, -0.00, -1.00, 241.9, 53.7)">a</text><text xml:space="preserve" font-family="Menlo-Regular,Menlo" font-size="20.0" fill="#000000" transform="matrix(1.00, 0.00, -0.00, -1.00, 253.9, 53.7)">l</text><text xml:space="preserve" font-family="Menlo-Regular,Menlo" font-size="20.0" fill="#000000" transform="matrix(1.00, 0.00, -0.00, -1.00, 265.9, 53.7)">i</text><text xml:space="preserve" font-family="Menlo-Regular,Menlo" font-size="20.0" fill="#000000" transform="matrix(1.00, 0.00, -0.00, -1.00, 278.0, 53.7)">b</text><text xml:space="preserve" font-family="Menlo-Regular,Menlo" font-size="20.0" fill="#000000" transform="matrix(1.00, 0.00, -0.00, -1.00, 290.0, 53.7)">r</text><text xml:space="preserve" font-family="Menlo-Regular,Menlo" font-size="20.0" fill="#000000" transform="matrix(1.00, 0.00, -0.00, -1.00, 302.1, 53.7)">a</text><text xml:space="preserve" font-family="Menlo-Regular,Menlo" font-size="20.0" fill="#000000" transform="matrix(1.00, 0.00, -0.00, -1.00, 314.1, 53.7)">t</text><text xml:space="preserve" font-family="Menlo-Regular,Menlo" font-size="20.0" fill="#000000" transform="matrix(1.00, 0.00, -0.00, -1.00, 326.2, 53.7)">i</text><text xml:space="preserve" font-family="Menlo-Regular,Menlo" font-size="20.0" fill="#000000" transform="matrix(1.00, 0.00, -0.00, -1.00, 338.2, 53.7)">o</text><text xml:space="preserve" font-family="Menlo-Regular,Menlo" font-size="20.0" fill="#000000" transform="matrix(1.00, 0.00, -0.00, -1.00, 350.2, 53.7)">n</text><text xml:space="preserve" font-family="Menlo-Regular,Menlo" font-size="20.0" fill="#000000" transform="matrix(1.00, 0.00, -0.00, -1.00, 362.3, 53.7)">A</text><text xml:space="preserve" font-family="Menlo-Regular,Menlo" font-size="20.0" fill="#000000" transform="matrix(1.00, 0.00, -0.00, -1.00, 374.3, 53.7)">c</text><text xml:space="preserve" font-family="Menlo-Regular,Menlo" font-size="20.0" fill="#000000" transform="matrix(1.00, 0.00, -0.00, -1.00, 386.4, 53.7)">c</text><text xml:space="preserve" font-family="Menlo-Regular,Menlo" font-size="20.0" fill="#000000" transform="matrix(1.00, 0.00, -0.00, -1.00, 398.4, 53.7)">u</text><text xml:space="preserve" font-family="Menlo-Regular,Menlo" font-size="20.0" fill="#000000" transform="matrix(1.00, 0.00, -0.00, -1.00, 410.5, 53.7)">r</text><text xml:space="preserve" font-family="Menlo-Regular,Menlo" font-size="20.0" fill="#000000" transform="matrix(1.00, 0.00, -0.00, -1.00, 422.5, 53.7)">a</text><text xml:space="preserve" font-family="Menlo-Regular,Menlo" font-size="20.0" fill="#000000" transform="matrix(1.00, 0.00, -0.00, -1.00, 434.5, 53.7)">c</text><text xml:space="preserve" font-family="Menlo-Regular,Menlo" font-size="20.0" fill="#000000" transform="matrix(1.00, 0.00, -0.00, -1.00, 446.6, 53.7)">y</text><text xml:space="preserve" font-family="Menlo-Regular,Menlo" font-size="20.0" fill="#000000" transform="matrix(1.00, 0.00, -0.00, -1.00, 458.6, 53.7)">M</text><text xml:space="preserve" font-family="Menlo-Regular,Menlo" font-size="20.0" fill="#000000" transform="matrix(1.00, 0.00, -0.00, -1.00, 470.7, 53.7)">e</text><text xml:space="preserve" font-family="Menlo-Regular,Menlo" font-size="20.0" fill="#000000" transform="matrix(1.00, 0.00, -0.00, -1.00, 482.7, 53.7)">d</text><text xml:space="preserve" font-family="Menlo-Regular,Menlo" font-size="20.0" fill="#000000" transform="matrix(1.00, 0.00, -0.00, -1.00, 494.8, 53.7)">i</text><text xml:space="preserve" font-family="Menlo-Regular,Menlo" font-size="20.0" fill="#000000" transform="matrix(1.00, 0.00, -0.00, -1.00, 506.8, 53.7)">u</text><text xml:space="preserve" font-family="Menlo-Regular,Menlo" font-size="20.0" fill="#000000" transform="matrix(1.00, 0.00, -0.00, -1.00, 518.8, 53.7)">m</text><text xml:space="preserve" font-family="Menlo-Regular,Menlo" font-size="20.0" fill="#000000" transform="matrix(1.00, 0.00, -0.00, -1.00, 530.9, 53.7)">,</text><text xml:space="preserve" font-family="Menlo-Regular,Menlo" font-size="20.0" fill="#000000" transform="matrix(1.00, 0.00, -0.00, -1.00, 542.9, 53.7)"> </text><text xml:space="preserve" font-family="Menlo-Regular,Menlo" font-size="20.0" fill="#000000" transform="matrix(1.00, 0.00, -0.00, -1.00, 1.0, 29.7)"> </text><text xml:space="preserve" font-family="Menlo-Regular,Menlo" font-size="20.0" fill="#000000" transform="matrix(1.00, 0.00, -0.00, -1.00, 13.0, 29.7)"> </text><text xml:space="preserve" font-family="Menlo-Regular,Menlo" font-size="20.0" fill="#000000" transform="matrix(1.00, 0.00, -0.00, -1.00, 25.1, 29.7)"> </text><text xml:space="preserve" font-family="Menlo-Regular,Menlo" font-size="20.0" fill="#000000" transform="matrix(1.00, 0.00, -0.00, -1.00, 37.1, 29.7)"> </text><text xml:space="preserve" font-family="Menlo-Regular,Menlo" font-size="20.0" fill="#000000" transform="matrix(1.00, 0.00, -0.00, -1.00, 49.2, 29.7)">C</text><text xml:space="preserve" font-family="Menlo-Regular,Menlo" font-size="20.0" fill="#000000" transform="matrix(1.00, 0.00, -0.00, -1.00, 61.2, 29.7)">M</text><text xml:space="preserve" font-family="Menlo-Regular,Menlo" font-size="20.0" fill="#000000" transform="matrix(1.00, 0.00, -0.00, -1.00, 73.3, 29.7)">M</text><text xml:space="preserve" font-family="Menlo-Regular,Menlo" font-size="20.0" fill="#000000" transform="matrix(1.00, 0.00, -0.00, -1.00, 85.3, 29.7)">a</text><text xml:space="preserve" font-family="Menlo-Regular,Menlo" font-size="20.0" fill="#000000" transform="matrix(1.00, 0.00, -0.00, -1.00, 97.3, 29.7)">g</text><text xml:space="preserve" font-family="Menlo-Regular,Menlo" font-size="20.0" fill="#000000" transform="matrix(1.00, 0.00, -0.00, -1.00, 109.4, 29.7)">n</text><text xml:space="preserve" font-family="Menlo-Regular,Menlo" font-size="20.0" fill="#000000" transform="matrix(1.00, 0.00, -0.00, -1.00, 121.4, 29.7)">e</text><text xml:space="preserve" font-family="Menlo-Regular,Menlo" font-size="20.0" fill="#000000" transform="matrix(1.00, 0.00, -0.00, -1.00, 133.5, 29.7)">t</text><text xml:space="preserve" font-family="Menlo-Regular,Menlo" font-size="20.0" fill="#000000" transform="matrix(1.00, 0.00, -0.00, -1.00, 145.5, 29.7)">i</text><text xml:space="preserve" font-family="Menlo-Regular,Menlo" font-size="20.0" fill="#000000" transform="matrix(1.00, 0.00, -0.00, -1.00, 157.6, 29.7)">c</text><text xml:space="preserve" font-family="Menlo-Regular,Menlo" font-size="20.0" fill="#000000" transform="matrix(1.00, 0.00, -0.00, -1.00, 169.6, 29.7)">F</text><text xml:space="preserve" font-family="Menlo-Regular,Menlo" font-size="20.0" fill="#000000" transform="matrix(1.00, 0.00, -0.00, -1.00, 181.6, 29.7)">i</text><text xml:space="preserve" font-family="Menlo-Regular,Menlo" font-size="20.0" fill="#000000" transform="matrix(1.00, 0.00, -0.00, -1.00, 193.7, 29.7)">e</text><text xml:space="preserve" font-family="Menlo-Regular,Menlo" font-size="20.0" fill="#000000" transform="matrix(1.00, 0.00, -0.00, -1.00, 205.7, 29.7)">l</text><text xml:space="preserve" font-family="Menlo-Regular,Menlo" font-size="20.0" fill="#000000" transform="matrix(1.00, 0.00, -0.00, -1.00, 217.8, 29.7)">d</text><text xml:space="preserve" font-family="Menlo-Regular,Menlo" font-size="20.0" fill="#000000" transform="matrix(1.00, 0.00, -0.00, -1.00, 229.8, 29.7)">C</text><text xml:space="preserve" font-family="Menlo-Regular,Menlo" font-size="20.0" fill="#000000" transform="matrix(1.00, 0.00, -0.00, -1.00, 241.9, 29.7)">a</text><text xml:space="preserve" font-family="Menlo-Regular,Menlo" font-size="20.0" fill="#000000" transform="matrix(1.00, 0.00, -0.00, -1.00, 253.9, 29.7)">l</text><text xml:space="preserve" font-family="Menlo-Regular,Menlo" font-size="20.0" fill="#000000" transform="matrix(1.00, 0.00, -0.00, -1.00, 265.9, 29.7)">i</text><text xml:space="preserve" font-family="Menlo-Regular,Menlo" font-size="20.0" fill="#000000" transform="matrix(1.00, 0.00, -0.00, -1.00, 278.0, 29.7)">b</text><text xml:space="preserve" font-family="Menlo-Regular,Menlo" font-size="20.0" fill="#000000" transform="matrix(1.00, 0.00, -0.00, -1.00, 290.0, 29.7)">r</text><text xml:space="preserve" font-family="Menlo-Regular,Menlo" font-size="20.0" fill="#000000" transform="matrix(1.00, 0.00, -0.00, -1.00, 302.1, 29.7)">a</text><text xml:space="preserve" font-family="Menlo-Regular,Menlo" font-size="20.0" fill="#000000" transform="matrix(1.00, 0.00, -0.00, -1.00, 314.1, 29.7)">t</text><text xml:space="preserve" font-family="Menlo-Regular,Menlo" font-size="20.0" fill="#000000" transform="matrix(1.00, 0.00, -0.00, -1.00, 326.2, 29.7)">i</text><text xml:space="preserve" font-family="Menlo-Regular,Menlo" font-size="20.0" fill="#000000" transform="matrix(1.00, 0.00, -0.00, -1.00, 338.2, 29.7)">o</text><text xml:space="preserve" font-family="Menlo-Regular,Menlo" font-size="20.0" fill="#000000" transform="matrix(1.00, 0.00, -0.00, -1.00, 350.2, 29.7)">n</text><text xml:space="preserve" font-family="Menlo-Regular,Menlo" font-size="20.0" fill="#000000" transform="matrix(1.00, 0.00, -0.00, -1.00, 362.3, 29.7)">A</text><text xml:space="preserve" font-family="Menlo-Regular,Menlo" font-size="20.0" fill="#000000" transform="matrix(1.00, 0.00, -0.00, -1.00, 374.3, 29.7)">c</text><text xml:space="preserve" font-family="Menlo-Regular,Menlo" font-size="20.0" fill="#000000" transform="matrix(1.00, 0.00, -0.00, -1.00, 386.4, 29.7)">c</text><text xml:space="preserve" font-family="Menlo-Regular,Menlo" font-size="20.0" fill="#000000" transform="matrix(1.00, 0.00, -0.00, -1.00, 398.4, 29.7)">u</text><text xml:space="preserve" font-family="Menlo-Regular,Menlo" font-size="20.0" fill="#000000" transform="matrix(1.00, 0.00, -0.00, -1.00, 410.5, 29.7)">r</text><text xml:space="preserve" font-family="Menlo-Regular,Menlo" font-size="20.0" fill="#000000" transform="matrix(1.00, 0.00, -0.00, -1.00, 422.5, 29.7)">a</text><text xml:space="preserve" font-family="Menlo-Regular,Menlo" font-size="20.0" fill="#000000" transform="matrix(1.00, 0.00, -0.00, -1.00, 434.5, 29.7)">c</text><text xml:space="preserve" font-family="Menlo-Regular,Menlo" font-size="20.0" fill="#000000" transform="matrix(1.00, 0.00, -0.00, -1.00, 446.6, 29.7)">y</text><text xml:space="preserve" font-family="Menlo-Regular,Menlo" font-size="20.0" fill="#000000" transform="matrix(1.00, 0.00, -0.00, -1.00, 458.6, 29.7)">H</text><text xml:space="preserve" font-family="Menlo-Regular,Menlo" font-size="20.0" fill="#000000" transform="matrix(1.00, 0.00, -0.00, -1.00, 470.7, 29.7)">i</text><text xml:space="preserve" font-family="Menlo-Regular,Menlo" font-size="20.0" fill="#000000" transform="matrix(1.00, 0.00, -0.00, -1.00, 482.7, 29.7)">g</text><text xml:space="preserve" font-family="Menlo-Regular,Menlo" font-size="20.0" fill="#000000" transform="matrix(1.00, 0.00, -0.00, -1.00, 494.8, 29.7)">h</text><text xml:space="preserve" font-family="Menlo-Regular,Menlo" font-size="20.0" fill="#000000" transform="matrix(1.00, 0.00, -0.00, -1.00, 506.8, 29.7)"> </text><text xml:space="preserve" font-family="Menlo-Regular,Menlo" font-size="20.0" fill="#000000" transform="matrix(1.00, 0.00, -0.00, -1.00, 1.0, 5.7)">}</text><text xml:space="preserve" font-family="Menlo-Regular,Menlo" font-size="20.0" fill="#000000" transform="matrix(1.00, 0.00, -0.00, -1.00, 13.0, 5.7)"> </text><text xml:space="preserve" font-family="Menlo-Regular,Menlo" font-size="20.0" fill="#000000" transform="matrix(1.00, 0.00, -0.00, -1.00, 25.1, 5.7)">C</text><text xml:space="preserve" font-family="Menlo-Regular,Menlo" font-size="20.0" fill="#000000" transform="matrix(1.00, 0.00, -0.00, -1.00, 37.1, 5.7)">M</text><text xml:space="preserve" font-family="Menlo-Regular,Menlo" font-size="20.0" fill="#000000" transform="matrix(1.00, 0.00, -0.00, -1.00, 49.2, 5.7)">M</text><text xml:space="preserve" font-family="Menlo-Regular,Menlo" font-size="20.0" fill="#000000" transform="matrix(1.00, 0.00, -0.00, -1.00, 61.2, 5.7)">a</text><text xml:space="preserve" font-family="Menlo-Regular,Menlo" font-size="20.0" fill="#000000" transform="matrix(1.00, 0.00, -0.00, -1.00, 73.3, 5.7)">g</text><text xml:space="preserve" font-family="Menlo-Regular,Menlo" font-size="20.0" fill="#000000" transform="matrix(1.00, 0.00, -0.00, -1.00, 85.3, 5.7)">n</text><text xml:space="preserve" font-family="Menlo-Regular,Menlo" font-size="20.0" fill="#000000" transform="matrix(1.00, 0.00, -0.00, -1.00, 97.3, 5.7)">e</text><text xml:space="preserve" font-family="Menlo-Regular,Menlo" font-size="20.0" fill="#000000" transform="matrix(1.00, 0.00, -0.00, -1.00, 109.4, 5.7)">t</text><text xml:space="preserve" font-family="Menlo-Regular,Menlo" font-size="20.0" fill="#000000" transform="matrix(1.00, 0.00, -0.00, -1.00, 121.4, 5.7)">i</text><text xml:space="preserve" font-family="Menlo-Regular,Menlo" font-size="20.0" fill="#000000" transform="matrix(1.00, 0.00, -0.00, -1.00, 133.5, 5.7)">c</text><text xml:space="preserve" font-family="Menlo-Regular,Menlo" font-size="20.0" fill="#000000" transform="matrix(1.00, 0.00, -0.00, -1.00, 145.5, 5.7)">F</text><text xml:space="preserve" font-family="Menlo-Regular,Menlo" font-size="20.0" fill="#000000" transform="matrix(1.00, 0.00, -0.00, -1.00, 157.6, 5.7)">i</text><text xml:space="preserve" font-family="Menlo-Regular,Menlo" font-size="20.0" fill="#000000" transform="matrix(1.00, 0.00, -0.00, -1.00, 169.6, 5.7)">e</text><text xml:space="preserve" font-family="Menlo-Regular,Menlo" font-size="20.0" fill="#000000" transform="matrix(1.00, 0.00, -0.00, -1.00, 181.6, 5.7)">l</text><text xml:space="preserve" font-family="Menlo-Regular,Menlo" font-size="20.0" fill="#000000" transform="matrix(1.00, 0.00, -0.00, -1.00, 193.7, 5.7)">d</text><text xml:space="preserve" font-family="Menlo-Regular,Menlo" font-size="20.0" fill="#000000" transform="matrix(1.00, 0.00, -0.00, -1.00, 205.7, 5.7)">C</text><text xml:space="preserve" font-family="Menlo-Regular,Menlo" font-size="20.0" fill="#000000" transform="matrix(1.00, 0.00, -0.00, -1.00, 217.8, 5.7)">a</text><text xml:space="preserve" font-family="Menlo-Regular,Menlo" font-size="20.0" fill="#000000" transform="matrix(1.00, 0.00, -0.00, -1.00, 229.8, 5.7)">l</text><text xml:space="preserve" font-family="Menlo-Regular,Menlo" font-size="20.0" fill="#000000" transform="matrix(1.00, 0.00, -0.00, -1.00, 241.9, 5.7)">i</text><text xml:space="preserve" font-family="Menlo-Regular,Menlo" font-size="20.0" fill="#000000" transform="matrix(1.00, 0.00, -0.00, -1.00, 253.9, 5.7)">b</text><text xml:space="preserve" font-family="Menlo-Regular,Menlo" font-size="20.0" fill="#000000" transform="matrix(1.00, 0.00, -0.00, -1.00, 265.9, 5.7)">r</text><text xml:space="preserve" font-family="Menlo-Regular,Menlo" font-size="20.0" fill="#000000" transform="matrix(1.00, 0.00, -0.00, -1.00, 278.0, 5.7)">a</text><text xml:space="preserve" font-family="Menlo-Regular,Menlo" font-size="20.0" fill="#000000" transform="matrix(1.00, 0.00, -0.00, -1.00, 290.0, 5.7)">t</text><text xml:space="preserve" font-family="Menlo-Regular,Menlo" font-size="20.0" fill="#000000" transform="matrix(1.00, 0.00, -0.00, -1.00, 302.1, 5.7)">i</text><text xml:space="preserve" font-family="Menlo-Regular,Menlo" font-size="20.0" fill="#000000" transform="matrix(1.00, 0.00, -0.00, -1.00, 314.1, 5.7)">o</text><text xml:space="preserve" font-family="Menlo-Regular,Menlo" font-size="20.0" fill="#000000" transform="matrix(1.00, 0.00, -0.00, -1.00, 326.2, 5.7)">n</text><text xml:space="preserve" font-family="Menlo-Regular,Menlo" font-size="20.0" fill="#000000" transform="matrix(1.00, 0.00, -0.00, -1.00, 338.2, 5.7)">A</text><text xml:space="preserve" font-family="Menlo-Regular,Menlo" font-size="20.0" fill="#000000" transform="matrix(1.00, 0.00, -0.00, -1.00, 350.2, 5.7)">c</text><text xml:space="preserve" font-family="Menlo-Regular,Menlo" font-size="20.0" fill="#000000" transform="matrix(1.00, 0.00, -0.00, -1.00, 362.3, 5.7)">c</text><text xml:space="preserve" font-family="Menlo-Regular,Menlo" font-size="20.0" fill="#000000" transform="matrix(1.00, 0.00, -0.00, -1.00, 374.3, 5.7)">u</text><text xml:space="preserve" font-family="Menlo-Regular,Menlo" font-size="20.0" fill="#000000" transform="matrix(1.00, 0.00, -0.00, -1.00, 386.4, 5.7)">r</text><text xml:space="preserve" font-family="Menlo-Regular,Menlo" font-size="20.0" fill="#000000" transform="matrix(1.00, 0.00, -0.00, -1.00, 398.4, 5.7)">a</text><text xml:space="preserve" font-family="Menlo-Regular,Menlo" font-size="20.0" fill="#000000" transform="matrix(1.00, 0.00, -0.00, -1.00, 410.5, 5.7)">c</text><text xml:space="preserve" font-family="Menlo-Regular,Menlo" font-size="20.0" fill="#000000" transform="matrix(1.00, 0.00, -0.00, -1.00, 422.5, 5.7)">y</text><text xml:space="preserve" font-family="Menlo-Regular,Menlo" font-size="20.0" fill="#000000" transform="matrix(1.00, 0.00, -0.00, -1.00, 434.5, 5.7)">;</text></g></svg>