<?xml version="1.0" encoding="UTF-8" standalone="no"?><svg xmlns="http://www.w3.org/2000/svg" xmlns:xlink="http://www.w3.org/1999/xlink" clip-rule="evenodd" stroke-miterlimit="10" viewBox="0 0 230 49"><desc>SVG generated by Keynote</desc><defs></defs><g transform="matrix(1.00, 0.00, -0.00, -1.00, 0.0, 49.0)"><text xml:space="preserve" font-family="Helvetica,Helvetica" font-size="48.0" fill="#000000" transform="matrix(1.00, 0.00, -0.00, -1.00, -1.1, 12.0)">G</text><text xml:space="preserve" font-family="Helvetica,Helvetica" font-size="48.0" fill="#000000" transform="matrix(1.00, 0.00, -0.00, -1.00, 36.3, 12.0)">y</text><text xml:space="preserve" font-family="Helvetica,Helvetica" font-size="48.0" fill="#000000" transform="matrix(1.00, 0.00, -0.00, -1.00, 60.3, 12.0)">r</text><text xml:space="preserve" font-family="Helvetica,Helvetica" font-size="48.0" fill="#000000" transform="matrix(1.00, 0.00, -0.00, -1.00, 76.3, 12.0)">o</text><text xml:space="preserve" font-family="Helvetica,Helvetica" font-size="48.0" fill="#000000" transform="matrix(1.00, 0.00, -0.00, -1.00, 103.0, 12.0)">s</text><text xml:space="preserve" font-family="Helvetica,Helvetica" font-size="48.0" fill="#000000" transform="matrix(1.00, 0.00, -0.00, -1.00, 127.0, 12.0)">c</text><text xml:space="preserve" font-family="Helvetica,Helvetica" font-size="48.0" fill="#000000" transform="matrix(1.00, 0.00, -0.00, -1.00, 151.0, 12.0)">o</text><text xml:space="preserve" font-family="Helvetica,Helvetica" font-size="48.0" fill="#000000" transform="matrix(1.00, 0.00, -0.00, -1.00, 177.7, 12.0)">p</text><text xml:space="preserve" font-family="Helvetica,Helvetica" font-size="48.0" fill="#000000" transform="matrix(1.00, 0.00, -0.00, -1.00, 204.4, 12.0)">e</text></g></svg>