<?xml version="1.0" encoding="UTF-8" standalone="no"?><svg xmlns="http://www.w3.org/2000/svg" xmlns:xlink="http://www.w3.org/1999/xlink" clip-rule="evenodd" stroke-miterlimit="10" viewBox="0 0 201 23"><desc>SVG generated by Keynote</desc><defs></defs><g transform="matrix(1.00, 0.00, -0.00, -1.00, 0.0, 23.0)"><text xml:space="preserve" font-family="Monaco,Monaco" font-size="20.0" fill="#000000" transform="matrix(1.00, 0.00, -0.00, -1.00, 0.0, 5.7)">}</text><text xml:space="preserve" font-family="Monaco,Monaco" font-size="20.0" fill="#000000" transform="matrix(1.00, 0.00, -0.00, -1.00, 12.0, 5.7)"> </text><text xml:space="preserve" font-family="Monaco,Monaco" font-size="20.0" fill="#000000" transform="matrix(1.00, 0.00, -0.00, -1.00, 24.0, 5.7)">C</text><text xml:space="preserve" font-family="Monaco,Monaco" font-size="20.0" fill="#000000" transform="matrix(1.00, 0.00, -0.00, -1.00, 36.0, 5.7)">M</text><text xml:space="preserve" font-family="Monaco,Monaco" font-size="20.0" fill="#000000" transform="matrix(1.00, 0.00, -0.00, -1.00, 48.0, 5.7)">A</text><text xml:space="preserve" font-family="Monaco,Monaco" font-size="20.0" fill="#000000" transform="matrix(1.00, 0.00, -0.00, -1.00, 60.0, 5.7)">c</text><text xml:space="preserve" font-family="Monaco,Monaco" font-size="20.0" fill="#000000" transform="matrix(1.00, 0.00, -0.00, -1.00, 72.0, 5.7)">c</text><text xml:space="preserve" font-family="Monaco,Monaco" font-size="20.0" fill="#000000" transform="matrix(1.00, 0.00, -0.00, -1.00, 84.0, 5.7)">e</text><text xml:space="preserve" font-family="Monaco,Monaco" font-size="20.0" fill="#000000" transform="matrix(1.00, 0.00, -0.00, -1.00, 96.0, 5.7)">l</text><text xml:space="preserve" font-family="Monaco,Monaco" font-size="20.0" fill="#000000" transform="matrix(1.00, 0.00, -0.00, -1.00, 108.0, 5.7)">e</text><text xml:space="preserve" font-family="Monaco,Monaco" font-size="20.0" fill="#000000" transform="matrix(1.00, 0.00, -0.00, -1.00, 120.0, 5.7)">r</text><text xml:space="preserve" font-family="Monaco,Monaco" font-size="20.0" fill="#000000" transform="matrix(1.00, 0.00, -0.00, -1.00, 132.0, 5.7)">a</text><text xml:space="preserve" font-family="Monaco,Monaco" font-size="20.0" fill="#000000" transform="matrix(1.00, 0.00, -0.00, -1.00, 144.0, 5.7)">t</text><text xml:space="preserve" font-family="Monaco,Monaco" font-size="20.0" fill="#000000" transform="matrix(1.00, 0.00, -0.00, -1.00, 156.1, 5.7)">i</text><text xml:space="preserve" font-family="Monaco,Monaco" font-size="20.0" fill="#000000" transform="matrix(1.00, 0.00, -0.00, -1.00, 168.1, 5.7)">o</text><text xml:space="preserve" font-family="Monaco,Monaco" font-size="20.0" fill="#000000" transform="matrix(1.00, 0.00, -0.00, -1.00, 180.1, 5.7)">n</text><text xml:space="preserve" font-family="Monaco,Monaco" font-size="20.0" fill="#000000" transform="matrix(1.00, 0.00, -0.00, -1.00, 192.1, 5.7)">;</text></g></svg>