<?xml version="1.0" encoding="UTF-8" standalone="no"?><svg xmlns="http://www.w3.org/2000/svg" xmlns:xlink="http://www.w3.org/1999/xlink" clip-rule="evenodd" stroke-miterlimit="10" viewBox="0 0 137 22"><desc>SVG generated by Keynote</desc><defs></defs><g transform="matrix(1.00, 0.00, -0.00, -1.00, 0.0, 22.0)"><g><clipPath id="clip0x60000c2a3000"><path d="M 0.0 5.0 L 137.0 5.0 L 137.0 22.0 L 0.0 22.0 Z M 0.0 5.0 "></path></clipPath><g clip-path="url(#clip0x60000c2a3000)"><text xml:space="preserve" font-family="Helvetica,Helvetica" font-size="20.0" fill="#000000" transform="matrix(1.00, 0.00, -0.00, -1.00, 1.2, 5.6)">A</text><text xml:space="preserve" font-family="Helvetica,Helvetica" font-size="20.0" fill="#000000" transform="matrix(1.00, 0.00, -0.00, -1.00, 14.5, 5.6)">c</text><text xml:space="preserve" font-family="Helvetica,Helvetica" font-size="20.0" fill="#000000" transform="matrix(1.00, 0.00, -0.00, -1.00, 24.5, 5.6)">c</text><text xml:space="preserve" font-family="Helvetica,Helvetica" font-size="20.0" fill="#000000" transform="matrix(1.00, 0.00, -0.00, -1.00, 34.5, 5.6)">e</text><text xml:space="preserve" font-family="Helvetica,Helvetica" font-size="20.0" fill="#000000" transform="matrix(1.00, 0.00, -0.00, -1.00, 45.7, 5.6)">l</text><text xml:space="preserve" font-family="Helvetica,Helvetica" font-size="20.0" fill="#000000" transform="matrix(1.00, 0.00, -0.00, -1.00, 50.1, 5.6)">e</text><text xml:space="preserve" font-family="Helvetica,Helvetica" font-size="20.0" fill="#000000" transform="matrix(1.00, 0.00, -0.00, -1.00, 61.2, 5.6)">r</text><text xml:space="preserve" font-family="Helvetica,Helvetica" font-size="20.0" fill="#000000" transform="matrix(1.00, 0.00, -0.00, -1.00, 67.9, 5.6)">o</text><text xml:space="preserve" font-family="Helvetica,Helvetica" font-size="20.0" fill="#000000" transform="matrix(1.00, 0.00, -0.00, -1.00, 79.0, 5.6)">m</text><text xml:space="preserve" font-family="Helvetica,Helvetica" font-size="20.0" fill="#000000" transform="matrix(1.00, 0.00, -0.00, -1.00, 95.7, 5.6)">e</text><text xml:space="preserve" font-family="Helvetica,Helvetica" font-size="20.0" fill="#000000" transform="matrix(1.00, 0.00, -0.00, -1.00, 106.8, 5.6)">t</text><text xml:space="preserve" font-family="Helvetica,Helvetica" font-size="20.0" fill="#000000" transform="matrix(1.00, 0.00, -0.00, -1.00, 112.4, 5.6)">e</text><text xml:space="preserve" font-family="Helvetica,Helvetica" font-size="20.0" fill="#000000" transform="matrix(1.00, 0.00, -0.00, -1.00, 123.5, 5.6)">r</text><text xml:space="preserve" font-family="Helvetica,Helvetica" font-size="20.0" fill="#000000" transform="matrix(1.00, 0.00, -0.00, -1.00, 130.2, 5.6)">)</text></g></g></g></svg>