<?xml version="1.0" encoding="UTF-8" standalone="no"?><svg xmlns="http://www.w3.org/2000/svg" xmlns:xlink="http://www.w3.org/1999/xlink" clip-rule="evenodd" stroke-miterlimit="10" viewBox="0 0 856 499"><desc>SVG generated by Keynote</desc><defs></defs><g transform="matrix(1.00, 0.00, -0.00, -1.00, 0.0, 499.0)"><g><g><clipPath id="clip0x6080080b7b20"><path d="M 1.0 498.0 L 855.0 498.0 L 855.0 1.0 L 1.0 1.0 Z M 1.0 498.0 "></path></clipPath><g clip-path="url(#clip0x6080080b7b20)"><g><clipPath id="clip0x6080080b79a0"><path d="M 0.0 0.0 L 856.0 0.0 L 856.0 499.0 L 0.0 499.0 Z M 0.0 0.0 "></path></clipPath><g clip-path="url(#clip0x6080080b79a0)"><g><g><clipPath id="clip0x6080080b7ac0"><path d="M 2.0 497.0 L 172.4 497.0 L 172.4 398.0 L 2.0 398.0 Z M 2.0 497.0 "></path></clipPath><g clip-path="url(#clip0x6080080b7ac0)"><g><clipPath id="clip0x6080080b7700"><path d="M 1.0 0.0 L 856.0 0.0 L 856.0 498.0 L 1.0 498.0 Z M 1.0 0.0 "></path></clipPath><g clip-path="url(#clip0x6080080b7700)"><image xlink:href="../../0FCAFCEB-380F-40DC-B87E-0887B79AF37C/assets/93AF66EACD6762C190778CA3F80A4842.jpeg" width="300.00" height="300.00" transform="matrix(1.00, 0.00, -0.00, -1.00, 2.0, 497.0)"></image></g></g></g></g><g><clipPath id="clip0x600006abf860"><path d="M 172.4 497.0 L 342.8 497.0 L 342.8 398.0 L 172.4 398.0 Z M 172.4 497.0 "></path></clipPath><g clip-path="url(#clip0x600006abf860)"><g><clipPath id="clip0x600006abfaa0"><path d="M 1.0 0.0 L 856.0 0.0 L 856.0 498.0 L 1.0 498.0 Z M 1.0 0.0 "></path></clipPath><g clip-path="url(#clip0x600006abfaa0)"><image xlink:href="../../0FCAFCEB-380F-40DC-B87E-0887B79AF37C/assets/93AF66EACD6762C190778CA3F80A4842.jpeg" width="300.00" height="300.00" transform="matrix(1.00, 0.00, -0.00, -1.00, 172.4, 497.0)"></image></g></g></g></g><g><clipPath id="clip0x600006abfce0"><path d="M 342.8 497.0 L 513.2 497.0 L 513.2 398.0 L 342.8 398.0 Z M 342.8 497.0 "></path></clipPath><g clip-path="url(#clip0x600006abfce0)"><g><clipPath id="clip0x600006ca0000"><path d="M 1.0 0.0 L 856.0 0.0 L 856.0 498.0 L 1.0 498.0 Z M 1.0 0.0 "></path></clipPath><g clip-path="url(#clip0x600006ca0000)"><image xlink:href="../../0FCAFCEB-380F-40DC-B87E-0887B79AF37C/assets/93AF66EACD6762C190778CA3F80A4842.jpeg" width="300.00" height="300.00" transform="matrix(1.00, 0.00, -0.00, -1.00, 342.8, 497.0)"></image></g></g></g></g><g><clipPath id="clip0x6080080b8180"><path d="M 513.2 497.0 L 683.6 497.0 L 683.6 398.0 L 513.2 398.0 Z M 513.2 497.0 "></path></clipPath><g clip-path="url(#clip0x6080080b8180)"><g><clipPath id="clip0x6080080b80c0"><path d="M 1.0 0.0 L 856.0 0.0 L 856.0 498.0 L 1.0 498.0 Z M 1.0 0.0 "></path></clipPath><g clip-path="url(#clip0x6080080b80c0)"><image xlink:href="../../0FCAFCEB-380F-40DC-B87E-0887B79AF37C/assets/93AF66EACD6762C190778CA3F80A4842.jpeg" width="300.00" height="300.00" transform="matrix(1.00, 0.00, -0.00, -1.00, 513.2, 497.0)"></image></g></g></g></g><g><clipPath id="clip0x6080080b82a0"><path d="M 683.6 497.0 L 854.0 497.0 L 854.0 398.0 L 683.6 398.0 Z M 683.6 497.0 "></path></clipPath><g clip-path="url(#clip0x6080080b82a0)"><g><clipPath id="clip0x6080080b83c0"><path d="M 1.0 0.0 L 856.0 0.0 L 856.0 498.0 L 1.0 498.0 Z M 1.0 0.0 "></path></clipPath><g clip-path="url(#clip0x6080080b83c0)"><image xlink:href="../../0FCAFCEB-380F-40DC-B87E-0887B79AF37C/assets/93AF66EACD6762C190778CA3F80A4842.jpeg" width="300.00" height="300.00" transform="matrix(1.00, 0.00, -0.00, -1.00, 683.6, 497.0)"></image></g></g></g></g><g><clipPath id="clip0x600006abf7a0"><path d="M 2.0 398.0 L 172.4 398.0 L 172.4 299.0 L 2.0 299.0 Z M 2.0 398.0 "></path></clipPath><g clip-path="url(#clip0x600006abf7a0)"><g><clipPath id="clip0x600006abf8c0"><path d="M 1.0 0.0 L 856.0 0.0 L 856.0 498.0 L 1.0 498.0 Z M 1.0 0.0 "></path></clipPath><g clip-path="url(#clip0x600006abf8c0)"><image xlink:href="../../0FCAFCEB-380F-40DC-B87E-0887B79AF37C/assets/93AF66EACD6762C190778CA3F80A4842.jpeg" width="300.00" height="300.00" transform="matrix(1.00, 0.00, -0.00, -1.00, 2.0, 398.0)"></image></g></g></g></g><g><clipPath id="clip0x600006ca0120"><path d="M 172.4 398.0 L 342.8 398.0 L 342.8 299.0 L 172.4 299.0 Z M 172.4 398.0 "></path></clipPath><g clip-path="url(#clip0x600006ca0120)"><g><clipPath id="clip0x600006ca04e0"><path d="M 1.0 0.0 L 856.0 0.0 L 856.0 498.0 L 1.0 498.0 Z M 1.0 0.0 "></path></clipPath><g clip-path="url(#clip0x600006ca04e0)"><image xlink:href="../../0FCAFCEB-380F-40DC-B87E-0887B79AF37C/assets/087485C98451D86973D9D7A0ECE676ED.png" width="101.00" height="90.00" transform="matrix(1.10, 0.00, -0.00, -1.10, 202.1, 398.0)"></image></g></g></g></g><g><clipPath id="clip0x6080080b8900"><path d="M 342.8 398.0 L 513.2 398.0 L 513.2 299.0 L 342.8 299.0 Z M 342.8 398.0 "></path></clipPath><g clip-path="url(#clip0x6080080b8900)"><g><clipPath id="clip0x6080080b8840"><path d="M 382.0 299.0 L 474.0 299.0 L 474.0 398.0 L 382.0 398.0 Z M 382.0 299.0 "></path></clipPath><g clip-path="url(#clip0x6080080b8840)"><path d="M 382.0 398.0 L 474.0 398.0 L 474.0 299.0 L 382.0 299.0 Z M 382.0 398.0 " fill="#000000" fill-opacity="0.00"></path><image xlink:href="../../0FCAFCEB-380F-40DC-B87E-0887B79AF37C/assets/7B2259ABB0731F3532FCBFE097474AF1.png" width="558.00" height="600.00" transform="matrix(0.17, 0.00, -0.00, -0.16, 382.0, 397.6)"></image></g></g></g></g><g><clipPath id="clip0x600006ca0540"><path d="M 513.2 398.0 L 683.6 398.0 L 683.6 299.0 L 513.2 299.0 Z M 513.2 398.0 "></path></clipPath><g clip-path="url(#clip0x600006ca0540)"><g><clipPath id="clip0x600006ca08a0"><path d="M 552.4 299.0 L 644.4 299.0 L 644.4 398.0 L 552.4 398.0 Z M 552.4 299.0 "></path></clipPath><g clip-path="url(#clip0x600006ca08a0)"><path d="M 552.4 398.0 L 644.4 398.0 L 644.4 299.0 L 552.4 299.0 Z M 552.4 398.0 " fill="#000000" fill-opacity="0.00"></path><image xlink:href="../../0FCAFCEB-380F-40DC-B87E-0887B79AF37C/assets/7B2259ABB0731F3532FCBFE097474AF1.png" width="558.00" height="600.00" transform="matrix(0.17, 0.00, -0.00, -0.16, 552.4, 397.6)"></image></g></g></g></g><g><clipPath id="clip0x6080080b7e20"><path d="M 683.6 398.0 L 854.0 398.0 L 854.0 299.0 L 683.6 299.0 Z M 683.6 398.0 "></path></clipPath><g clip-path="url(#clip0x6080080b7e20)"><g><clipPath id="clip0x6080080b8c60"><path d="M 726.2 299.0 L 811.4 299.0 L 811.4 398.0 L 726.2 398.0 Z M 726.2 299.0 "></path></clipPath><g clip-path="url(#clip0x6080080b8c60)"><path d="M 726.2 398.0 L 811.4 398.0 L 811.4 299.0 L 726.2 299.0 Z M 726.2 398.0 " fill="#000000" fill-opacity="0.00"></path><image xlink:href="../../0FCAFCEB-380F-40DC-B87E-0887B79AF37C/assets/171860430C1C9CA2F2EA75C8E2ADA591.png" width="86.00" height="100.00" transform="matrix(0.99, 0.00, -0.00, -0.99, 726.2, 398.0)"></image></g></g></g></g><g><clipPath id="clip0x600006ca0960"><path d="M 2.0 299.0 L 172.4 299.0 L 172.4 200.0 L 2.0 200.0 Z M 2.0 299.0 "></path></clipPath><g clip-path="url(#clip0x600006ca0960)"><g><clipPath id="clip0x600006ca0cc0"><path d="M 1.0 0.0 L 856.0 0.0 L 856.0 498.0 L 1.0 498.0 Z M 1.0 0.0 "></path></clipPath><g clip-path="url(#clip0x600006ca0cc0)"><image xlink:href="../../0FCAFCEB-380F-40DC-B87E-0887B79AF37C/assets/93AF66EACD6762C190778CA3F80A4842.jpeg" width="300.00" height="300.00" transform="matrix(1.00, 0.00, -0.00, -1.00, 2.0, 299.0)"></image></g></g></g></g><g><clipPath id="clip0x600006ca0f60"><path d="M 172.4 299.0 L 342.8 299.0 L 342.8 200.0 L 172.4 200.0 Z M 172.4 299.0 "></path></clipPath><g clip-path="url(#clip0x600006ca0f60)"><g><clipPath id="clip0x600006ca0fc0"><path d="M 211.6 200.0 L 303.6 200.0 L 303.6 299.0 L 211.6 299.0 Z M 211.6 200.0 "></path></clipPath><g clip-path="url(#clip0x600006ca0fc0)"><path d="M 211.6 299.0 L 303.6 299.0 L 303.6 200.0 L 211.6 200.0 Z M 211.6 299.0 " fill="#000000" fill-opacity="0.00"></path><image xlink:href="../../0FCAFCEB-380F-40DC-B87E-0887B79AF37C/assets/7B2259ABB0731F3532FCBFE097474AF1.png" width="558.00" height="600.00" transform="matrix(0.17, 0.00, -0.00, -0.16, 211.6, 298.6)"></image></g></g></g></g><g><clipPath id="clip0x6080080b8ea0"><path d="M 342.8 299.0 L 513.2 299.0 L 513.2 200.0 L 342.8 200.0 Z M 342.8 299.0 "></path></clipPath><g clip-path="url(#clip0x6080080b8ea0)"><g><clipPath id="clip0x6080080b90e0"><path d="M 1.0 0.0 L 856.0 0.0 L 856.0 498.0 L 1.0 498.0 Z M 1.0 0.0 "></path></clipPath><g clip-path="url(#clip0x6080080b90e0)"><image xlink:href="../../0FCAFCEB-380F-40DC-B87E-0887B79AF37C/assets/087485C98451D86973D9D7A0ECE676ED.png" width="101.00" height="90.00" transform="matrix(1.10, 0.00, -0.00, -1.10, 372.4, 299.0)"></image></g></g></g></g><g><clipPath id="clip0x6080080b9140"><path d="M 513.2 299.0 L 683.6 299.0 L 683.6 200.0 L 513.2 200.0 Z M 513.2 299.0 "></path></clipPath><g clip-path="url(#clip0x6080080b9140)"><g><clipPath id="clip0x6080080b94a0"><path d="M 552.4 200.0 L 644.4 200.0 L 644.4 299.0 L 552.4 299.0 Z M 552.4 200.0 "></path></clipPath><g clip-path="url(#clip0x6080080b94a0)"><path d="M 552.4 299.0 L 644.4 299.0 L 644.4 200.0 L 552.4 200.0 Z M 552.4 299.0 " fill="#000000" fill-opacity="0.00"></path><image xlink:href="../../0FCAFCEB-380F-40DC-B87E-0887B79AF37C/assets/7B2259ABB0731F3532FCBFE097474AF1.png" width="558.00" height="600.00" transform="matrix(0.17, 0.00, -0.00, -0.16, 552.4, 298.6)"></image></g></g></g></g><g><clipPath id="clip0x600006ca0d80"><path d="M 683.6 299.0 L 854.0 299.0 L 854.0 200.0 L 683.6 200.0 Z M 683.6 299.0 "></path></clipPath><g clip-path="url(#clip0x600006ca0d80)"><g><clipPath id="clip0x600006ca1440"><path d="M 726.2 200.0 L 811.4 200.0 L 811.4 299.0 L 726.2 299.0 Z M 726.2 200.0 "></path></clipPath><g clip-path="url(#clip0x600006ca1440)"><path d="M 726.2 299.0 L 811.4 299.0 L 811.4 200.0 L 726.2 200.0 Z M 726.2 299.0 " fill="#000000" fill-opacity="0.00"></path><image xlink:href="../../0FCAFCEB-380F-40DC-B87E-0887B79AF37C/assets/171860430C1C9CA2F2EA75C8E2ADA591.png" width="86.00" height="100.00" transform="matrix(0.99, 0.00, -0.00, -0.99, 726.2, 299.0)"></image></g></g></g></g><g><clipPath id="clip0x600006ca1500"><path d="M 2.0 200.0 L 172.4 200.0 L 172.4 101.0 L 2.0 101.0 Z M 2.0 200.0 "></path></clipPath><g clip-path="url(#clip0x600006ca1500)"><g><clipPath id="clip0x600006ca1860"><path d="M 1.0 0.0 L 856.0 0.0 L 856.0 498.0 L 1.0 498.0 Z M 1.0 0.0 "></path></clipPath><g clip-path="url(#clip0x600006ca1860)"><image xlink:href="../../0FCAFCEB-380F-40DC-B87E-0887B79AF37C/assets/93AF66EACD6762C190778CA3F80A4842.jpeg" width="300.00" height="300.00" transform="matrix(1.00, 0.00, -0.00, -1.00, 2.0, 200.0)"></image></g></g></g></g><g><clipPath id="clip0x6080080b9620"><path d="M 172.4 200.0 L 342.8 200.0 L 342.8 101.0 L 172.4 101.0 Z M 172.4 200.0 "></path></clipPath><g clip-path="url(#clip0x6080080b9620)"><g><clipPath id="clip0x6080080b9800"><path d="M 211.6 101.0 L 303.6 101.0 L 303.6 200.0 L 211.6 200.0 Z M 211.6 101.0 "></path></clipPath><g clip-path="url(#clip0x6080080b9800)"><path d="M 211.6 200.0 L 303.6 200.0 L 303.6 101.0 L 211.6 101.0 Z M 211.6 200.0 " fill="#000000" fill-opacity="0.00"></path><image xlink:href="../../0FCAFCEB-380F-40DC-B87E-0887B79AF37C/assets/7B2259ABB0731F3532FCBFE097474AF1.png" width="558.00" height="600.00" transform="matrix(0.17, 0.00, -0.00, -0.16, 211.6, 199.6)"></image></g></g></g></g><g><clipPath id="clip0x6080080b98c0"><path d="M 342.8 200.0 L 513.2 200.0 L 513.2 101.0 L 342.8 101.0 Z M 342.8 200.0 "></path></clipPath><g clip-path="url(#clip0x6080080b98c0)"><g><clipPath id="clip0x6080080b9c20"><path d="M 382.0 101.0 L 474.0 101.0 L 474.0 200.0 L 382.0 200.0 Z M 382.0 101.0 "></path></clipPath><g clip-path="url(#clip0x6080080b9c20)"><path d="M 382.0 200.0 L 474.0 200.0 L 474.0 101.0 L 382.0 101.0 Z M 382.0 200.0 " fill="#000000" fill-opacity="0.00"></path><image xlink:href="../../0FCAFCEB-380F-40DC-B87E-0887B79AF37C/assets/7B2259ABB0731F3532FCBFE097474AF1.png" width="558.00" height="600.00" transform="matrix(0.17, 0.00, -0.00, -0.16, 382.0, 199.6)"></image></g></g></g></g><g><clipPath id="clip0x6080080b9ce0"><path d="M 513.2 200.0 L 683.6 200.0 L 683.6 101.0 L 513.2 101.0 Z M 513.2 200.0 "></path></clipPath><g clip-path="url(#clip0x6080080b9ce0)"><g><clipPath id="clip0x6080080ba040"><path d="M 1.0 0.0 L 856.0 0.0 L 856.0 498.0 L 1.0 498.0 Z M 1.0 0.0 "></path></clipPath><g clip-path="url(#clip0x6080080ba040)"><image xlink:href="../../0FCAFCEB-380F-40DC-B87E-0887B79AF37C/assets/171860430C1C9CA2F2EA75C8E2ADA591.png" width="86.00" height="100.00" transform="matrix(0.99, 0.00, -0.00, -0.99, 555.8, 200.0)"></image></g></g></g></g><g><clipPath id="clip0x6080080ba0a0"><path d="M 683.6 200.0 L 854.0 200.0 L 854.0 101.0 L 683.6 101.0 Z M 683.6 200.0 "></path></clipPath><g clip-path="url(#clip0x6080080ba0a0)"><g><clipPath id="clip0x6080080ba400"><path d="M 726.2 101.0 L 811.4 101.0 L 811.4 200.0 L 726.2 200.0 Z M 726.2 101.0 "></path></clipPath><g clip-path="url(#clip0x6080080ba400)"><path d="M 726.2 200.0 L 811.4 200.0 L 811.4 101.0 L 726.2 101.0 Z M 726.2 200.0 " fill="#000000" fill-opacity="0.00"></path><image xlink:href="../../0FCAFCEB-380F-40DC-B87E-0887B79AF37C/assets/171860430C1C9CA2F2EA75C8E2ADA591.png" width="86.00" height="100.00" transform="matrix(0.99, 0.00, -0.00, -0.99, 726.2, 200.0)"></image></g></g></g></g><g><clipPath id="clip0x6080080ba4c0"><path d="M 2.0 101.0 L 172.4 101.0 L 172.4 2.0 L 2.0 2.0 Z M 2.0 101.0 "></path></clipPath><g clip-path="url(#clip0x6080080ba4c0)"><g><clipPath id="clip0x6080080ba820"><path d="M 1.0 0.0 L 856.0 0.0 L 856.0 498.0 L 1.0 498.0 Z M 1.0 0.0 "></path></clipPath><g clip-path="url(#clip0x6080080ba820)"><image xlink:href="../../0FCAFCEB-380F-40DC-B87E-0887B79AF37C/assets/93AF66EACD6762C190778CA3F80A4842.jpeg" width="300.00" height="300.00" transform="matrix(1.00, 0.00, -0.00, -1.00, 2.0, 101.0)"></image></g></g></g></g><g><clipPath id="clip0x6080080baac0"><path d="M 172.4 101.0 L 342.8 101.0 L 342.8 2.0 L 172.4 2.0 Z M 172.4 101.0 "></path></clipPath><g clip-path="url(#clip0x6080080baac0)"><g><clipPath id="clip0x6080080bab20"><path d="M 1.0 0.0 L 856.0 0.0 L 856.0 498.0 L 1.0 498.0 Z M 1.0 0.0 "></path></clipPath><g clip-path="url(#clip0x6080080bab20)"><image xlink:href="../../0FCAFCEB-380F-40DC-B87E-0887B79AF37C/assets/087485C98451D86973D9D7A0ECE676ED.png" width="101.00" height="90.00" transform="matrix(1.10, 0.00, -0.00, -1.10, 202.1, 101.0)"></image></g></g></g></g><g><clipPath id="clip0x6080080baa00"><path d="M 342.8 101.0 L 513.2 101.0 L 513.2 2.0 L 342.8 2.0 Z M 342.8 101.0 "></path></clipPath><g clip-path="url(#clip0x6080080baa00)"><g><clipPath id="clip0x6080080bafa0"><path d="M 382.0 2.0 L 474.0 2.0 L 474.0 101.0 L 382.0 101.0 Z M 382.0 2.0 "></path></clipPath><g clip-path="url(#clip0x6080080bafa0)"><path d="M 382.0 101.0 L 474.0 101.0 L 474.0 2.0 L 382.0 2.0 Z M 382.0 101.0 " fill="#000000" fill-opacity="0.00"></path><image xlink:href="../../0FCAFCEB-380F-40DC-B87E-0887B79AF37C/assets/7B2259ABB0731F3532FCBFE097474AF1.png" width="558.00" height="600.00" transform="matrix(0.17, 0.00, -0.00, -0.16, 382.0, 100.6)"></image></g></g></g></g><g><clipPath id="clip0x6080080bb060"><path d="M 513.2 101.0 L 683.6 101.0 L 683.6 2.0 L 513.2 2.0 Z M 513.2 101.0 "></path></clipPath><g clip-path="url(#clip0x6080080bb060)"><g><clipPath id="clip0x6080080bb3c0"><path d="M 552.4 2.0 L 644.4 2.0 L 644.4 101.0 L 552.4 101.0 Z M 552.4 2.0 "></path></clipPath><g clip-path="url(#clip0x6080080bb3c0)"><path d="M 552.4 101.0 L 644.4 101.0 L 644.4 2.0 L 552.4 2.0 Z M 552.4 101.0 " fill="#000000" fill-opacity="0.00"></path><image xlink:href="../../0FCAFCEB-380F-40DC-B87E-0887B79AF37C/assets/7B2259ABB0731F3532FCBFE097474AF1.png" width="558.00" height="600.00" transform="matrix(0.17, 0.00, -0.00, -0.16, 552.4, 100.6)"></image></g></g></g></g><g><clipPath id="clip0x6080080bb480"><path d="M 683.6 101.0 L 854.0 101.0 L 854.0 2.0 L 683.6 2.0 Z M 683.6 101.0 "></path></clipPath><g clip-path="url(#clip0x6080080bb480)"><g><clipPath id="clip0x6080080bb7e0"><path d="M 726.2 2.0 L 811.4 2.0 L 811.4 101.0 L 726.2 101.0 Z M 726.2 2.0 "></path></clipPath><g clip-path="url(#clip0x6080080bb7e0)"><path d="M 726.2 101.0 L 811.4 101.0 L 811.4 2.0 L 726.2 2.0 Z M 726.2 101.0 " fill="#000000" fill-opacity="0.00"></path><image xlink:href="../../0FCAFCEB-380F-40DC-B87E-0887B79AF37C/assets/171860430C1C9CA2F2EA75C8E2ADA591.png" width="86.00" height="100.00" transform="matrix(0.99, 0.00, -0.00, -0.99, 726.2, 101.0)"></image></g></g></g></g></g></g></g></g></g><image xlink:href="B68D64E51B6E67603BBF7A531FB6549C.png" width="149.00" height="33.00" transform="matrix(1.00, 0.00, -0.00, -1.00, 182.0, 483.0)"></image><g><clipPath id="clip0x6080080bb9c0"><path d="M 1.0 498.0 L 855.0 498.0 L 855.0 1.0 L 1.0 1.0 Z M 1.0 498.0 "></path></clipPath><g clip-path="url(#clip0x6080080bb9c0)"><g><clipPath id="clip0x6080080bbcc0"><path d="M 173.4 399.0 L 341.8 399.0 L 341.8 496.0 L 173.4 496.0 Z M 173.4 399.0 "></path></clipPath><g clip-path="url(#clip0x6080080bbcc0)"><text xml:space="preserve" font-family="GillSans,Gill Sans" font-size="40.0" fill="#FFFFFF" transform="matrix(1.00, 0.00, -0.00, -1.00, 184.7, 455.2)">A</text><text xml:space="preserve" font-family="GillSans,Gill Sans" font-size="40.0" fill="#FFFFFF" transform="matrix(1.00, 0.00, -0.00, -1.00, 211.4, 455.2)">c</text><text xml:space="preserve" font-family="GillSans,Gill Sans" font-size="40.0" fill="#FFFFFF" transform="matrix(1.00, 0.00, -0.00, -1.00, 228.9, 455.2)">c</text><text xml:space="preserve" font-family="GillSans,Gill Sans" font-size="40.0" fill="#FFFFFF" transform="matrix(1.00, 0.00, -0.00, -1.00, 246.5, 455.2)">e</text><text xml:space="preserve" font-family="GillSans,Gill Sans" font-size="40.0" fill="#FFFFFF" transform="matrix(1.00, 0.00, -0.00, -1.00, 265.6, 455.2)">l</text><text xml:space="preserve" font-family="GillSans,Gill Sans" font-size="40.0" fill="#FFFFFF" transform="matrix(1.00, 0.00, -0.00, -1.00, 274.4, 455.2)">e</text><text xml:space="preserve" font-family="GillSans,Gill Sans" font-size="40.0" fill="#FFFFFF" transform="matrix(1.00, 0.00, -0.00, -1.00, 293.6, 455.2)">r</text><text xml:space="preserve" font-family="GillSans,Gill Sans" font-size="40.0" fill="#FFFFFF" transform="matrix(1.00, 0.00, -0.00, -1.00, 308.4, 455.2)">o</text></g></g></g></g><image xlink:href="16B605B5D5BED8A62EC929EC31C26BC4.png" width="100.00" height="27.00" transform="matrix(1.00, 0.00, -0.00, -1.00, 208.0, 431.0)"></image><g><clipPath id="clip0x6080080bc080"><path d="M 1.0 498.0 L 855.0 498.0 L 855.0 1.0 L 1.0 1.0 Z M 1.0 498.0 "></path></clipPath><g clip-path="url(#clip0x6080080bc080)"><g><clipPath id="clip0x6080080bc3e0"><path d="M 173.4 399.0 L 341.8 399.0 L 341.8 496.0 L 173.4 496.0 Z M 173.4 399.0 "></path></clipPath><g clip-path="url(#clip0x6080080bc3e0)"><text xml:space="preserve" font-family="GillSans,Gill Sans" font-size="40.0" fill="#FFFFFF" transform="matrix(1.00, 0.00, -0.00, -1.00, 208.4, 409.2)">m</text><text xml:space="preserve" font-family="GillSans,Gill Sans" font-size="40.0" fill="#FFFFFF" transform="matrix(1.00, 0.00, -0.00, -1.00, 239.3, 409.2)">e</text><text xml:space="preserve" font-family="GillSans,Gill Sans" font-size="40.0" fill="#FFFFFF" transform="matrix(1.00, 0.00, -0.00, -1.00, 258.4, 409.2)">t</text><text xml:space="preserve" font-family="GillSans,Gill Sans" font-size="40.0" fill="#FFFFFF" transform="matrix(1.00, 0.00, -0.00, -1.00, 271.8, 409.2)">e</text><text xml:space="preserve" font-family="GillSans,Gill Sans" font-size="40.0" fill="#FFFFFF" transform="matrix(1.00, 0.00, -0.00, -1.00, 290.9, 409.2)">r</text></g></g></g></g><image xlink:href="B8099E66342E2AD7F8C73D4CC24A8A53.png" width="140.00" height="42.00" transform="matrix(1.00, 0.00, -0.00, -1.00, 358.0, 483.0)"></image><g><clipPath id="clip0x6080080bc680"><path d="M 1.0 498.0 L 855.0 498.0 L 855.0 1.0 L 1.0 1.0 Z M 1.0 498.0 "></path></clipPath><g clip-path="url(#clip0x6080080bc680)"><g><clipPath id="clip0x6080080bc9e0"><path d="M 343.8 399.0 L 512.2 399.0 L 512.2 496.0 L 343.8 496.0 Z M 343.8 399.0 "></path></clipPath><g clip-path="url(#clip0x6080080bc9e0)"><text xml:space="preserve" font-family="GillSans,Gill Sans" font-size="40.0" fill="#FFFFFF" transform="matrix(1.00, 0.00, -0.00, -1.00, 358.0, 455.2)">M</text><text xml:space="preserve" font-family="GillSans,Gill Sans" font-size="40.0" fill="#FFFFFF" transform="matrix(1.00, 0.00, -0.00, -1.00, 389.3, 455.2)">a</text><text xml:space="preserve" font-family="GillSans,Gill Sans" font-size="40.0" fill="#FFFFFF" transform="matrix(1.00, 0.00, -0.00, -1.00, 406.3, 455.2)">g</text><text xml:space="preserve" font-family="GillSans,Gill Sans" font-size="40.0" fill="#FFFFFF" transform="matrix(1.00, 0.00, -0.00, -1.00, 423.4, 455.2)">n</text><text xml:space="preserve" font-family="GillSans,Gill Sans" font-size="40.0" fill="#FFFFFF" transform="matrix(1.00, 0.00, -0.00, -1.00, 443.4, 455.2)">e</text><text xml:space="preserve" font-family="GillSans,Gill Sans" font-size="40.0" fill="#FFFFFF" transform="matrix(1.00, 0.00, -0.00, -1.00, 462.5, 455.2)">t</text><text xml:space="preserve" font-family="GillSans,Gill Sans" font-size="40.0" fill="#FFFFFF" transform="matrix(1.00, 0.00, -0.00, -1.00, 475.9, 455.2)">o</text></g></g></g></g><image xlink:href="132E773CB588D78CFF96342F49090CB7.png" width="101.00" height="27.00" transform="matrix(1.00, 0.00, -0.00, -1.00, 378.0, 431.0)"></image><g><clipPath id="clip0x600006ca1ce0"><path d="M 1.0 498.0 L 855.0 498.0 L 855.0 1.0 L 1.0 1.0 Z M 1.0 498.0 "></path></clipPath><g clip-path="url(#clip0x600006ca1ce0)"><g><clipPath id="clip0x600006ca1a40"><path d="M 343.8 399.0 L 512.2 399.0 L 512.2 496.0 L 343.8 496.0 Z M 343.8 399.0 "></path></clipPath><g clip-path="url(#clip0x600006ca1a40)"><text xml:space="preserve" font-family="GillSans,Gill Sans" font-size="40.0" fill="#FFFFFF" transform="matrix(1.00, 0.00, -0.00, -1.00, 378.8, 409.2)">m</text><text xml:space="preserve" font-family="GillSans,Gill Sans" font-size="40.0" fill="#FFFFFF" transform="matrix(1.00, 0.00, -0.00, -1.00, 409.7, 409.2)">e</text><text xml:space="preserve" font-family="GillSans,Gill Sans" font-size="40.0" fill="#FFFFFF" transform="matrix(1.00, 0.00, -0.00, -1.00, 428.8, 409.2)">t</text><text xml:space="preserve" font-family="GillSans,Gill Sans" font-size="40.0" fill="#FFFFFF" transform="matrix(1.00, 0.00, -0.00, -1.00, 442.2, 409.2)">e</text><text xml:space="preserve" font-family="GillSans,Gill Sans" font-size="40.0" fill="#FFFFFF" transform="matrix(1.00, 0.00, -0.00, -1.00, 461.3, 409.2)">r</text></g></g></g></g><image xlink:href="FB76BA486D68559C792FB2BC13006D4A.png" width="85.00" height="42.00" transform="matrix(1.00, 0.00, -0.00, -1.00, 556.0, 461.0)"></image><g><clipPath id="clip0x6080080bcd40"><path d="M 1.0 498.0 L 855.0 498.0 L 855.0 1.0 L 1.0 1.0 Z M 1.0 498.0 "></path></clipPath><g clip-path="url(#clip0x6080080bcd40)"><g><clipPath id="clip0x6080080bd0a0"><path d="M 514.2 399.0 L 682.6 399.0 L 682.6 496.0 L 514.2 496.0 Z M 514.2 399.0 "></path></clipPath><g clip-path="url(#clip0x6080080bd0a0)"><text xml:space="preserve" font-family="GillSans,Gill Sans" font-size="40.0" fill="#FFFFFF" transform="matrix(1.00, 0.00, -0.00, -1.00, 556.4, 433.2)">G</text><text xml:space="preserve" font-family="GillSans,Gill Sans" font-size="40.0" fill="#FFFFFF" transform="matrix(1.00, 0.00, -0.00, -1.00, 586.0, 433.2)">y</text><text xml:space="preserve" font-family="GillSans,Gill Sans" font-size="40.0" fill="#FFFFFF" transform="matrix(1.00, 0.00, -0.00, -1.00, 603.5, 433.2)">r</text><text xml:space="preserve" font-family="GillSans,Gill Sans" font-size="40.0" fill="#FFFFFF" transform="matrix(1.00, 0.00, -0.00, -1.00, 618.4, 433.2)">o</text></g></g></g></g><image xlink:href="18E18CA6FD70982347DE9E2671513014.png" width="111.00" height="33.00" transform="matrix(1.00, 0.00, -0.00, -1.00, 714.0, 483.0)"></image><g><clipPath id="clip0x600006ca1f20"><path d="M 1.0 498.0 L 855.0 498.0 L 855.0 1.0 L 1.0 1.0 Z M 1.0 498.0 "></path></clipPath><g clip-path="url(#clip0x600006ca1f20)"><g><clipPath id="clip0x600006ca2280"><path d="M 684.6 399.0 L 853.0 399.0 L 853.0 496.0 L 684.6 496.0 Z M 684.6 399.0 "></path></clipPath><g clip-path="url(#clip0x600006ca2280)"><text xml:space="preserve" font-family="GillSans,Gill Sans" font-size="40.0" fill="#FFFFFF" transform="matrix(1.00, 0.00, -0.00, -1.00, 713.0, 455.2)">D</text><text xml:space="preserve" font-family="GillSans,Gill Sans" font-size="40.0" fill="#FFFFFF" transform="matrix(1.00, 0.00, -0.00, -1.00, 743.0, 455.2)">e</text><text xml:space="preserve" font-family="GillSans,Gill Sans" font-size="40.0" fill="#FFFFFF" transform="matrix(1.00, 0.00, -0.00, -1.00, 761.6, 455.2)">v</text><text xml:space="preserve" font-family="GillSans,Gill Sans" font-size="40.0" fill="#FFFFFF" transform="matrix(1.00, 0.00, -0.00, -1.00, 779.1, 455.2)">i</text><text xml:space="preserve" font-family="GillSans,Gill Sans" font-size="40.0" fill="#FFFFFF" transform="matrix(1.00, 0.00, -0.00, -1.00, 787.9, 455.2)">c</text><text xml:space="preserve" font-family="GillSans,Gill Sans" font-size="40.0" fill="#FFFFFF" transform="matrix(1.00, 0.00, -0.00, -1.00, 805.4, 455.2)">e</text><text xml:space="preserve" font-family="GillSans,Gill Sans" font-size="40.0" fill="#FFFFFF" transform="matrix(1.00, 0.00, -0.00, -1.00, 824.6, 455.2)"> </text></g></g></g></g><image xlink:href="EE8CB7FA6962AB73AD5B62DCD67473B2.png" width="117.00" height="33.00" transform="matrix(1.00, 0.00, -0.00, -1.00, 710.0, 437.0)"></image><g><clipPath id="clip0x6080080bd2e0"><path d="M 1.0 498.0 L 855.0 498.0 L 855.0 1.0 L 1.0 1.0 Z M 1.0 498.0 "></path></clipPath><g clip-path="url(#clip0x6080080bd2e0)"><g><clipPath id="clip0x6080080bd640"><path d="M 684.6 399.0 L 853.0 399.0 L 853.0 496.0 L 684.6 496.0 Z M 684.6 399.0 "></path></clipPath><g clip-path="url(#clip0x6080080bd640)"><text xml:space="preserve" font-family="GillSans,Gill Sans" font-size="40.0" fill="#FFFFFF" transform="matrix(1.00, 0.00, -0.00, -1.00, 710.1, 409.2)">M</text><text xml:space="preserve" font-family="GillSans,Gill Sans" font-size="40.0" fill="#FFFFFF" transform="matrix(1.00, 0.00, -0.00, -1.00, 741.3, 409.2)">o</text><text xml:space="preserve" font-family="GillSans,Gill Sans" font-size="40.0" fill="#FFFFFF" transform="matrix(1.00, 0.00, -0.00, -1.00, 763.4, 409.2)">t</text><text xml:space="preserve" font-family="GillSans,Gill Sans" font-size="40.0" fill="#FFFFFF" transform="matrix(1.00, 0.00, -0.00, -1.00, 776.7, 409.2)">i</text><text xml:space="preserve" font-family="GillSans,Gill Sans" font-size="40.0" fill="#FFFFFF" transform="matrix(1.00, 0.00, -0.00, -1.00, 785.5, 409.2)">o</text><text xml:space="preserve" font-family="GillSans,Gill Sans" font-size="40.0" fill="#FFFFFF" transform="matrix(1.00, 0.00, -0.00, -1.00, 807.5, 409.2)">n</text></g></g></g></g><image xlink:href="47FBF9DFB2A9C6E6912507FAC27B0F25.png" width="138.00" height="33.00" transform="matrix(1.00, 0.00, -0.00, -1.00, 17.0, 362.0)"></image><g><clipPath id="clip0x600006ca25e0"><path d="M 1.0 498.0 L 855.0 498.0 L 855.0 1.0 L 1.0 1.0 Z M 1.0 498.0 "></path></clipPath><g clip-path="url(#clip0x600006ca25e0)"><g><clipPath id="clip0x600006ca2940"><path d="M 3.0 300.0 L 171.4 300.0 L 171.4 397.0 L 3.0 397.0 Z M 3.0 300.0 "></path></clipPath><g clip-path="url(#clip0x600006ca2940)"><text xml:space="preserve" font-family="GillSans,Gill Sans" font-size="40.0" fill="#FFFFFF" transform="matrix(1.00, 0.00, -0.00, -1.00, 19.7, 334.2)">A</text><text xml:space="preserve" font-family="GillSans,Gill Sans" font-size="40.0" fill="#FFFFFF" transform="matrix(1.00, 0.00, -0.00, -1.00, 46.4, 334.2)">t</text><text xml:space="preserve" font-family="GillSans,Gill Sans" font-size="40.0" fill="#FFFFFF" transform="matrix(1.00, 0.00, -0.00, -1.00, 59.7, 334.2)">t</text><text xml:space="preserve" font-family="GillSans,Gill Sans" font-size="40.0" fill="#FFFFFF" transform="matrix(1.00, 0.00, -0.00, -1.00, 73.0, 334.2)">i</text><text xml:space="preserve" font-family="GillSans,Gill Sans" font-size="40.0" fill="#FFFFFF" transform="matrix(1.00, 0.00, -0.00, -1.00, 81.8, 334.2)">t</text><text xml:space="preserve" font-family="GillSans,Gill Sans" font-size="40.0" fill="#FFFFFF" transform="matrix(1.00, 0.00, -0.00, -1.00, 95.1, 334.2)">u</text><text xml:space="preserve" font-family="GillSans,Gill Sans" font-size="40.0" fill="#FFFFFF" transform="matrix(1.00, 0.00, -0.00, -1.00, 115.1, 334.2)">d</text><text xml:space="preserve" font-family="GillSans,Gill Sans" font-size="40.0" fill="#FFFFFF" transform="matrix(1.00, 0.00, -0.00, -1.00, 135.5, 334.2)">e</text></g></g></g></g><image xlink:href="1F527CBD12952FC0B7BE8582A25F52F3.png" width="132.00" height="42.00" transform="matrix(1.00, 0.00, -0.00, -1.00, 22.0, 263.0)"></image><g><clipPath id="clip0x6080080bd940"><path d="M 1.0 498.0 L 855.0 498.0 L 855.0 1.0 L 1.0 1.0 Z M 1.0 498.0 "></path></clipPath><g clip-path="url(#clip0x6080080bd940)"><g><clipPath id="clip0x6080080bdca0"><path d="M 3.0 201.0 L 171.4 201.0 L 171.4 298.0 L 3.0 298.0 Z M 3.0 201.0 "></path></clipPath><g clip-path="url(#clip0x6080080bdca0)"><text xml:space="preserve" font-family="GillSans,Gill Sans" font-size="40.0" fill="#FFFFFF" transform="matrix(1.00, 0.00, -0.00, -1.00, 21.4, 235.2)">H</text><text xml:space="preserve" font-family="GillSans,Gill Sans" font-size="40.0" fill="#FFFFFF" transform="matrix(1.00, 0.00, -0.00, -1.00, 50.5, 235.2)">e</text><text xml:space="preserve" font-family="GillSans,Gill Sans" font-size="40.0" fill="#FFFFFF" transform="matrix(1.00, 0.00, -0.00, -1.00, 69.7, 235.2)">a</text><text xml:space="preserve" font-family="GillSans,Gill Sans" font-size="40.0" fill="#FFFFFF" transform="matrix(1.00, 0.00, -0.00, -1.00, 86.8, 235.2)">d</text><text xml:space="preserve" font-family="GillSans,Gill Sans" font-size="40.0" fill="#FFFFFF" transform="matrix(1.00, 0.00, -0.00, -1.00, 107.2, 235.2)">i</text><text xml:space="preserve" font-family="GillSans,Gill Sans" font-size="40.0" fill="#FFFFFF" transform="matrix(1.00, 0.00, -0.00, -1.00, 115.9, 235.2)">n</text><text xml:space="preserve" font-family="GillSans,Gill Sans" font-size="40.0" fill="#FFFFFF" transform="matrix(1.00, 0.00, -0.00, -1.00, 135.9, 235.2)">g</text></g></g></g></g><image xlink:href="F8A08D38429398843BA04041AF0DC288.png" width="68.00" height="42.00" transform="matrix(1.00, 0.00, -0.00, -1.00, 52.0, 164.0)"></image><g><clipPath id="clip0x600006ca2d60"><path d="M 1.0 498.0 L 855.0 498.0 L 855.0 1.0 L 1.0 1.0 Z M 1.0 498.0 "></path></clipPath><g clip-path="url(#clip0x600006ca2d60)"><g><clipPath id="clip0x600006ca31e0"><path d="M 3.0 102.0 L 171.4 102.0 L 171.4 199.0 L 3.0 199.0 Z M 3.0 102.0 "></path></clipPath><g clip-path="url(#clip0x600006ca31e0)"><text xml:space="preserve" font-family="GillSans,Gill Sans" font-size="40.0" fill="#FFFFFF" transform="matrix(1.00, 0.00, -0.00, -1.00, 53.7, 136.2)">S</text><text xml:space="preserve" font-family="GillSans,Gill Sans" font-size="40.0" fill="#FFFFFF" transform="matrix(1.00, 0.00, -0.00, -1.00, 72.0, 136.2)">p</text><text xml:space="preserve" font-family="GillSans,Gill Sans" font-size="40.0" fill="#FFFFFF" transform="matrix(1.00, 0.00, -0.00, -1.00, 92.0, 136.2)">i</text><text xml:space="preserve" font-family="GillSans,Gill Sans" font-size="40.0" fill="#FFFFFF" transform="matrix(1.00, 0.00, -0.00, -1.00, 100.8, 136.2)">n</text></g></g></g></g><image xlink:href="5E3BEFA5B2A67CF1E019F2025E97E87A.png" width="95.00" height="33.00" transform="matrix(1.00, 0.00, -0.00, -1.00, 39.0, 65.0)"></image><g><clipPath id="clip0x600006ca3420"><path d="M 1.0 498.0 L 855.0 498.0 L 855.0 1.0 L 1.0 1.0 Z M 1.0 498.0 "></path></clipPath><g clip-path="url(#clip0x600006ca3420)"><g><clipPath id="clip0x600006ca3780"><path d="M 3.0 3.0 L 171.4 3.0 L 171.4 100.0 L 3.0 100.0 Z M 3.0 3.0 "></path></clipPath><g clip-path="url(#clip0x600006ca3780)"><text xml:space="preserve" font-family="GillSans,Gill Sans" font-size="40.0" fill="#FFFFFF" transform="matrix(1.00, 0.00, -0.00, -1.00, 40.9, 37.2)">S</text><text xml:space="preserve" font-family="GillSans,Gill Sans" font-size="40.0" fill="#FFFFFF" transform="matrix(1.00, 0.00, -0.00, -1.00, 59.3, 37.2)">h</text><text xml:space="preserve" font-family="GillSans,Gill Sans" font-size="40.0" fill="#FFFFFF" transform="matrix(1.00, 0.00, -0.00, -1.00, 79.3, 37.2)">a</text><text xml:space="preserve" font-family="GillSans,Gill Sans" font-size="40.0" fill="#FFFFFF" transform="matrix(1.00, 0.00, -0.00, -1.00, 96.3, 37.2)">k</text><text xml:space="preserve" font-family="GillSans,Gill Sans" font-size="40.0" fill="#FFFFFF" transform="matrix(1.00, 0.00, -0.00, -1.00, 114.3, 37.2)">e</text></g></g></g></g><g><clipPath id="clip0x600006ca3b40"><path d="M 1.0 498.0 L 855.0 498.0 L 855.0 1.0 L 1.0 1.0 Z M 1.0 498.0 "></path></clipPath><g clip-path="url(#clip0x600006ca3b40)"><g><clipPath id="clip0x600006ca3cc0"><path d="M 0.0 0.0 L 856.0 0.0 L 856.0 499.0 L 0.0 499.0 Z M 0.0 0.0 "></path></clipPath><g clip-path="url(#clip0x600006ca3cc0)"><path d="M 342.8 1.0 L 342.8 101.0 " fill="none" stroke="#000000" stroke-width="2.00" transform="matrix(1.00, 0.00, 0.00, -1.00, 0.0, 499.0)"></path><path d="M 342.8 101.0 L 342.8 498.0 " fill="none" stroke="#000000" stroke-width="2.00" transform="matrix(1.00, 0.00, 0.00, -1.00, 0.0, 499.0)"></path><path d="M 513.2 1.0 L 513.2 101.0 " fill="none" stroke="#000000" stroke-width="2.00" transform="matrix(1.00, 0.00, 0.00, -1.00, 0.0, 499.0)"></path><path d="M 513.2 101.0 L 513.2 498.0 " fill="none" stroke="#000000" stroke-width="2.00" transform="matrix(1.00, 0.00, 0.00, -1.00, 0.0, 499.0)"></path><path d="M 683.6 1.0 L 683.6 101.0 " fill="none" stroke="#000000" stroke-width="2.00" transform="matrix(1.00, 0.00, 0.00, -1.00, 0.0, 499.0)"></path><path d="M 683.6 101.0 L 683.6 498.0 " fill="none" stroke="#000000" stroke-width="2.00" transform="matrix(1.00, 0.00, 0.00, -1.00, 0.0, 499.0)"></path><path d="M 1.0 200.0 L 172.4 200.0 " fill="none" stroke="#000000" stroke-width="2.00" transform="matrix(1.00, 0.00, 0.00, -1.00, 0.0, 499.0)"></path><path d="M 172.4 200.0 L 855.0 200.0 " fill="none" stroke="#000000" stroke-width="2.00" transform="matrix(1.00, 0.00, 0.00, -1.00, 0.0, 499.0)"></path><path d="M 1.0 299.0 L 172.4 299.0 " fill="none" stroke="#000000" stroke-width="2.00" transform="matrix(1.00, 0.00, 0.00, -1.00, 0.0, 499.0)"></path><path d="M 172.4 299.0 L 855.0 299.0 " fill="none" stroke="#000000" stroke-width="2.00" transform="matrix(1.00, 0.00, 0.00, -1.00, 0.0, 499.0)"></path><path d="M 1.0 398.0 L 172.4 398.0 " fill="none" stroke="#000000" stroke-width="2.00" transform="matrix(1.00, 0.00, 0.00, -1.00, 0.0, 499.0)"></path><path d="M 172.4 398.0 L 855.0 398.0 " fill="none" stroke="#000000" stroke-width="2.00" transform="matrix(1.00, 0.00, 0.00, -1.00, 0.0, 499.0)"></path><path d="M 172.4 1.0 L 172.4 101.0 " fill="none" stroke="#000000" stroke-width="2.00" transform="matrix(1.00, 0.00, 0.00, -1.00, 0.0, 499.0)"></path><path d="M 172.4 101.0 L 172.4 498.0 " fill="none" stroke="#000000" stroke-width="2.00" transform="matrix(1.00, 0.00, 0.00, -1.00, 0.0, 499.0)"></path><path d="M 1.0 101.0 L 855.0 101.0 " fill="none" stroke="#000000" stroke-width="2.00" transform="matrix(1.00, 0.00, 0.00, -1.00, 0.0, 499.0)"></path><path d="M 2.0 1.0 L 2.0 101.0 " fill="none" stroke="#000000" stroke-width="2.00" transform="matrix(1.00, 0.00, 0.00, -1.00, 0.0, 499.0)"></path><path d="M 2.0 101.0 L 2.0 498.0 " fill="none" stroke="#000000" stroke-width="2.00" transform="matrix(1.00, 0.00, 0.00, -1.00, 0.0, 499.0)"></path><path d="M 854.0 1.0 L 854.0 101.0 " fill="none" stroke="#000000" stroke-width="2.00" transform="matrix(1.00, 0.00, 0.00, -1.00, 0.0, 499.0)"></path><path d="M 854.0 101.0 L 854.0 498.0 " fill="none" stroke="#000000" stroke-width="2.00" transform="matrix(1.00, 0.00, 0.00, -1.00, 0.0, 499.0)"></path><path d="M 1.0 2.0 L 855.0 2.0 " fill="none" stroke="#000000" stroke-width="2.00" transform="matrix(1.00, 0.00, 0.00, -1.00, 0.0, 499.0)"></path><path d="M 1.0 497.0 L 172.4 497.0 " fill="none" stroke="#000000" stroke-width="2.00" transform="matrix(1.00, 0.00, 0.00, -1.00, 0.0, 499.0)"></path><path d="M 172.4 497.0 L 855.0 497.0 " fill="none" stroke="#000000" stroke-width="2.00" transform="matrix(1.00, 0.00, 0.00, -1.00, 0.0, 499.0)"></path></g></g></g></g></g></g></svg>