<?xml version="1.0" encoding="UTF-8" standalone="no"?><svg xmlns="http://www.w3.org/2000/svg" xmlns:xlink="http://www.w3.org/1999/xlink" clip-rule="evenodd" stroke-miterlimit="10" viewBox="0 0 300 38"><desc>SVG generated by Keynote</desc><defs></defs><g transform="matrix(1.00, 0.00, -0.00, -1.00, 0.0, 38.0)"><text xml:space="preserve" font-family="Helvetica,Helvetica" font-size="48.0" fill="#000000" transform="matrix(1.00, 0.00, -0.00, -1.00, -2.1, 2.0)">D</text><text xml:space="preserve" font-family="Helvetica,Helvetica" font-size="48.0" fill="#000000" transform="matrix(1.00, 0.00, -0.00, -1.00, 32.6, 2.0)">e</text><text xml:space="preserve" font-family="Helvetica,Helvetica" font-size="48.0" fill="#000000" transform="matrix(1.00, 0.00, -0.00, -1.00, 59.3, 2.0)">v</text><text xml:space="preserve" font-family="Helvetica,Helvetica" font-size="48.0" fill="#000000" transform="matrix(1.00, 0.00, -0.00, -1.00, 83.3, 2.0)">i</text><text xml:space="preserve" font-family="Helvetica,Helvetica" font-size="48.0" fill="#000000" transform="matrix(1.00, 0.00, -0.00, -1.00, 94.0, 2.0)">c</text><text xml:space="preserve" font-family="Helvetica,Helvetica" font-size="48.0" fill="#000000" transform="matrix(1.00, 0.00, -0.00, -1.00, 118.0, 2.0)">e</text><text xml:space="preserve" font-family="Helvetica,Helvetica" font-size="48.0" fill="#000000" transform="matrix(1.00, 0.00, -0.00, -1.00, 144.7, 2.0)"> </text><text xml:space="preserve" font-family="Helvetica,Helvetica" font-size="48.0" fill="#000000" transform="matrix(1.00, 0.00, -0.00, -1.00, 158.0, 2.0)">M</text><text xml:space="preserve" font-family="Helvetica,Helvetica" font-size="48.0" fill="#000000" transform="matrix(1.00, 0.00, -0.00, -1.00, 198.0, 2.0)">o</text><text xml:space="preserve" font-family="Helvetica,Helvetica" font-size="48.0" fill="#000000" transform="matrix(1.00, 0.00, -0.00, -1.00, 224.7, 2.0)">t</text><text xml:space="preserve" font-family="Helvetica,Helvetica" font-size="48.0" fill="#000000" transform="matrix(1.00, 0.00, -0.00, -1.00, 238.0, 2.0)">i</text><text xml:space="preserve" font-family="Helvetica,Helvetica" font-size="48.0" fill="#000000" transform="matrix(1.00, 0.00, -0.00, -1.00, 248.7, 2.0)">o</text><text xml:space="preserve" font-family="Helvetica,Helvetica" font-size="48.0" fill="#000000" transform="matrix(1.00, 0.00, -0.00, -1.00, 275.4, 2.0)">n</text></g></svg>