<?xml version="1.0" encoding="UTF-8" standalone="no"?><svg xmlns="http://www.w3.org/2000/svg" xmlns:xlink="http://www.w3.org/1999/xlink" clip-rule="evenodd" stroke-miterlimit="10" viewBox="0 0 105 20"><desc>SVG generated by Keynote</desc><defs></defs><g transform="matrix(1.00, 0.00, -0.00, -1.00, 0.0, 20.0)"><text xml:space="preserve" font-family="BodoniSvtyTwoOSITCTT-Book,Bodoni SvtyTwo OS ITC TT" font-size="24.0" fill="#A6AAAD" transform="matrix(1.00, 0.00, -0.00, -1.00, 1.0, 1.4)">T</text><text xml:space="preserve" font-family="BodoniSvtyTwoOSITCTT-Book,Bodoni SvtyTwo OS ITC TT" font-size="24.0" fill="#A6AAAD" transform="matrix(1.00, 0.00, -0.00, -1.00, 15.1, 1.4)">r</text><text xml:space="preserve" font-family="BodoniSvtyTwoOSITCTT-Book,Bodoni SvtyTwo OS ITC TT" font-size="24.0" fill="#A6AAAD" transform="matrix(1.00, 0.00, -0.00, -1.00, 23.2, 1.4)">u</text><text xml:space="preserve" font-family="BodoniSvtyTwoOSITCTT-Book,Bodoni SvtyTwo OS ITC TT" font-size="24.0" fill="#A6AAAD" transform="matrix(1.00, 0.00, -0.00, -1.00, 34.9, 1.4)">e</text><text xml:space="preserve" font-family="BodoniSvtyTwoOSITCTT-Book,Bodoni SvtyTwo OS ITC TT" font-size="24.0" fill="#A6AAAD" transform="matrix(1.00, 0.00, -0.00, -1.00, 45.3, 1.4)"> </text><text xml:space="preserve" font-family="BodoniSvtyTwoOSITCTT-Book,Bodoni SvtyTwo OS ITC TT" font-size="24.0" fill="#A6AAAD" transform="matrix(1.00, 0.00, -0.00, -1.00, 49.7, 1.4)">N</text><text xml:space="preserve" font-family="BodoniSvtyTwoOSITCTT-Book,Bodoni SvtyTwo OS ITC TT" font-size="24.0" fill="#A6AAAD" transform="matrix(1.00, 0.00, -0.00, -1.00, 65.5, 1.4)">o</text><text xml:space="preserve" font-family="BodoniSvtyTwoOSITCTT-Book,Bodoni SvtyTwo OS ITC TT" font-size="24.0" fill="#A6AAAD" transform="matrix(1.00, 0.00, -0.00, -1.00, 77.0, 1.4)">r</text><text xml:space="preserve" font-family="BodoniSvtyTwoOSITCTT-Book,Bodoni SvtyTwo OS ITC TT" font-size="24.0" fill="#A6AAAD" transform="matrix(1.00, 0.00, -0.00, -1.00, 85.1, 1.4)">t</text><text xml:space="preserve" font-family="BodoniSvtyTwoOSITCTT-Book,Bodoni SvtyTwo OS ITC TT" font-size="24.0" fill="#A6AAAD" transform="matrix(1.00, 0.00, -0.00, -1.00, 91.9, 1.4)">h</text></g></svg>