<?xml version="1.0" encoding="UTF-8" standalone="no"?><svg xmlns="http://www.w3.org/2000/svg" xmlns:xlink="http://www.w3.org/1999/xlink" clip-rule="evenodd" stroke-miterlimit="10" viewBox="0 0 853 525"><desc>SVG generated by Keynote</desc><defs><pattern id="patternP1" patternUnits="userSpaceOnUse" width="300" height="300" viewBox="0 0 300 300"><image xlink:href="../../0FCAFCEB-380F-40DC-B87E-0887B79AF37C/assets/93AF66EACD6762C190778CA3F80A4842.jpeg" width="300.00" height="300.00"></image></pattern><pattern id="patternP2" patternUnits="userSpaceOnUse" width="300" height="300" viewBox="0 0 300 300"><image xlink:href="../../0FCAFCEB-380F-40DC-B87E-0887B79AF37C/assets/93AF66EACD6762C190778CA3F80A4842.jpeg" width="300.00" height="300.00"></image></pattern></defs><g transform="matrix(1.00, 0.00, -0.00, -1.00, 0.0, 525.0)"><g><g><clipPath id="clip0x608008eb6e00"><path d="M 1.0 524.0 L 852.0 524.0 L 852.0 1.0 L 1.0 1.0 Z M 1.0 524.0 "></path></clipPath><g clip-path="url(#clip0x608008eb6e00)"><g><clipPath id="clip0x608008eb7040"><path d="M 0.0 0.0 L 853.0 0.0 L 853.0 525.0 L 0.0 525.0 Z M 0.0 0.0 "></path></clipPath><g clip-path="url(#clip0x608008eb7040)"><g><g><clipPath id="clip0x608008eb7160"><path d="M 2.0 523.0 L 182.7 523.0 L 182.7 392.8 L 2.0 392.8 Z M 2.0 523.0 "></path></clipPath><g clip-path="url(#clip0x608008eb7160)"><g><clipPath id="clip0x608008eb7580"><path d="M 1.0 1.0 L 852.0 1.0 L 852.0 524.0 L 1.0 524.0 Z M 1.0 1.0 "></path></clipPath><g clip-path="url(#clip0x608008eb7580)"><image xlink:href="../../0FCAFCEB-380F-40DC-B87E-0887B79AF37C/assets/93AF66EACD6762C190778CA3F80A4842.jpeg" width="300.00" height="300.00" transform="matrix(1.00, 0.00, -0.00, -1.00, 2.0, 523.0)"></image></g></g></g></g><g><clipPath id="clip0x608008eb7280"><path d="M 182.7 523.0 L 516.8 523.0 L 516.8 392.8 L 182.7 392.8 Z M 182.7 523.0 "></path></clipPath><g clip-path="url(#clip0x608008eb7280)"><g><clipPath id="clip0x608008eb6d40"><path d="M 1.0 1.0 L 852.0 1.0 L 852.0 524.0 L 1.0 524.0 Z M 1.0 1.0 "></path></clipPath><g clip-path="url(#clip0x608008eb6d40)"><path d="M 182.7 392.8 L 516.8 392.8 L 516.8 523.0 L 182.7 523.0 Z M 182.7 392.8 " fill="url(#patternP1)"></path></g></g></g></g><g><clipPath id="clip0x608008eb7be0"><path d="M 516.8 523.0 L 851.0 523.0 L 851.0 392.8 L 516.8 392.8 Z M 516.8 523.0 "></path></clipPath><g clip-path="url(#clip0x608008eb7be0)"><g><clipPath id="clip0x608008eb74c0"><path d="M 1.0 1.0 L 852.0 1.0 L 852.0 524.0 L 1.0 524.0 Z M 1.0 1.0 "></path></clipPath><g clip-path="url(#clip0x608008eb74c0)"><path d="M 516.8 392.8 L 851.0 392.8 L 851.0 523.0 L 516.8 523.0 Z M 516.8 392.8 " fill="url(#patternP2)"></path></g></g></g></g><g><clipPath id="clip0x608008eb8060"><path d="M 2.0 392.8 L 182.7 392.8 L 182.7 262.5 L 2.0 262.5 Z M 2.0 392.8 "></path></clipPath><g clip-path="url(#clip0x608008eb8060)"><g><clipPath id="clip0x608008eb7460"><path d="M 1.0 1.0 L 852.0 1.0 L 852.0 524.0 L 1.0 524.0 Z M 1.0 1.0 "></path></clipPath><g clip-path="url(#clip0x608008eb7460)"><image xlink:href="../../0FCAFCEB-380F-40DC-B87E-0887B79AF37C/assets/93AF66EACD6762C190778CA3F80A4842.jpeg" width="300.00" height="300.00" transform="matrix(1.00, 0.00, -0.00, -1.00, 2.0, 392.8)"></image></g></g></g></g><g><clipPath id="clip0x608008eb82a0"><path d="M 2.0 262.5 L 182.7 262.5 L 182.7 132.2 L 2.0 132.2 Z M 2.0 262.5 "></path></clipPath><g clip-path="url(#clip0x608008eb82a0)"><g><clipPath id="clip0x608008eb8300"><path d="M 1.0 1.0 L 852.0 1.0 L 852.0 524.0 L 1.0 524.0 Z M 1.0 1.0 "></path></clipPath><g clip-path="url(#clip0x608008eb8300)"><image xlink:href="../../0FCAFCEB-380F-40DC-B87E-0887B79AF37C/assets/93AF66EACD6762C190778CA3F80A4842.jpeg" width="300.00" height="300.00" transform="matrix(1.00, 0.00, -0.00, -1.00, 2.0, 262.5)"></image></g></g></g></g><g><clipPath id="clip0x608008eb7e20"><path d="M 2.0 132.2 L 182.7 132.2 L 182.7 2.0 L 2.0 2.0 Z M 2.0 132.2 "></path></clipPath><g clip-path="url(#clip0x608008eb7e20)"><g><clipPath id="clip0x608008eb86c0"><path d="M 1.0 1.0 L 852.0 1.0 L 852.0 524.0 L 1.0 524.0 Z M 1.0 1.0 "></path></clipPath><g clip-path="url(#clip0x608008eb86c0)"><image xlink:href="../../0FCAFCEB-380F-40DC-B87E-0887B79AF37C/assets/93AF66EACD6762C190778CA3F80A4842.jpeg" width="300.00" height="300.00" transform="matrix(1.00, 0.00, -0.00, -1.00, 2.0, 132.2)"></image></g></g></g></g></g></g></g></g></g><image xlink:href="../../5B563A35-4091-498E-B697-A1A6144C3C15/assets/97A37087F6942A2838F587BA46F6648D.png" width="76.00" height="33.00" transform="matrix(1.00, 0.00, -0.00, -1.00, 311.0, 472.0)"></image><g><clipPath id="clip0x608008eb8cc0"><path d="M 1.0 524.0 L 852.0 524.0 L 852.0 1.0 L 1.0 1.0 Z M 1.0 524.0 "></path></clipPath><g clip-path="url(#clip0x608008eb8cc0)"><g><clipPath id="clip0x608008eb7940"><path d="M 183.7 393.8 L 515.8 393.8 L 515.8 522.0 L 183.7 522.0 Z M 183.7 393.8 "></path></clipPath><g clip-path="url(#clip0x608008eb7940)"><text xml:space="preserve" font-family="GillSans,Gill Sans" font-size="40.0" fill="#FFFFFF" transform="matrix(1.00, 0.00, -0.00, -1.00, 311.9, 444.2)">P</text><text xml:space="preserve" font-family="GillSans,Gill Sans" font-size="40.0" fill="#FFFFFF" transform="matrix(1.00, 0.00, -0.00, -1.00, 332.3, 444.2)">u</text><text xml:space="preserve" font-family="GillSans,Gill Sans" font-size="40.0" fill="#FFFFFF" transform="matrix(1.00, 0.00, -0.00, -1.00, 352.3, 444.2)">s</text><text xml:space="preserve" font-family="GillSans,Gill Sans" font-size="40.0" fill="#FFFFFF" transform="matrix(1.00, 0.00, -0.00, -1.00, 367.6, 444.2)">h</text></g></g></g></g><image xlink:href="../../5B563A35-4091-498E-B697-A1A6144C3C15/assets/9B0D45AAE3C8B29989E2D186C0FCB5D3.png" width="59.00" height="33.00" transform="matrix(1.00, 0.00, -0.00, -1.00, 654.0, 472.0)"></image><g><clipPath id="clip0x608008eb8e40"><path d="M 1.0 524.0 L 852.0 524.0 L 852.0 1.0 L 1.0 1.0 Z M 1.0 524.0 "></path></clipPath><g clip-path="url(#clip0x608008eb8e40)"><g><clipPath id="clip0x608008eb91a0"><path d="M 517.8 393.8 L 850.0 393.8 L 850.0 522.0 L 517.8 522.0 Z M 517.8 393.8 "></path></clipPath><g clip-path="url(#clip0x608008eb91a0)"><text xml:space="preserve" font-family="GillSans,Gill Sans" font-size="40.0" fill="#FFFFFF" transform="matrix(1.00, 0.00, -0.00, -1.00, 655.0, 444.2)">P</text><text xml:space="preserve" font-family="GillSans,Gill Sans" font-size="40.0" fill="#FFFFFF" transform="matrix(1.00, 0.00, -0.00, -1.00, 675.3, 444.2)">u</text><text xml:space="preserve" font-family="GillSans,Gill Sans" font-size="40.0" fill="#FFFFFF" transform="matrix(1.00, 0.00, -0.00, -1.00, 695.3, 444.2)">l</text><text xml:space="preserve" font-family="GillSans,Gill Sans" font-size="40.0" fill="#FFFFFF" transform="matrix(1.00, 0.00, -0.00, -1.00, 704.1, 444.2)">l</text></g></g></g></g><image xlink:href="../../5B563A35-4091-498E-B697-A1A6144C3C15/assets/010D8A1CA07110A6A096D35D25723A31.png" width="124.00" height="33.00" transform="matrix(1.00, 0.00, -0.00, -1.00, 30.0, 341.0)"></image><g><clipPath id="clip0x608008eb93e0"><path d="M 1.0 524.0 L 852.0 524.0 L 852.0 1.0 L 1.0 1.0 Z M 1.0 524.0 "></path></clipPath><g clip-path="url(#clip0x608008eb93e0)"><g><clipPath id="clip0x608008eb9740"><path d="M 3.0 263.5 L 181.7 263.5 L 181.7 391.8 L 3.0 391.8 Z M 3.0 263.5 "></path></clipPath><g clip-path="url(#clip0x608008eb9740)"><text xml:space="preserve" font-family="GillSans,Gill Sans" font-size="40.0" fill="#FFFFFF" transform="matrix(1.00, 0.00, -0.00, -1.00, 30.6, 314.0)">P</text><text xml:space="preserve" font-family="GillSans,Gill Sans" font-size="40.0" fill="#FFFFFF" transform="matrix(1.00, 0.00, -0.00, -1.00, 49.9, 314.0)">o</text><text xml:space="preserve" font-family="GillSans,Gill Sans" font-size="40.0" fill="#FFFFFF" transform="matrix(1.00, 0.00, -0.00, -1.00, 72.0, 314.0)">s</text><text xml:space="preserve" font-family="GillSans,Gill Sans" font-size="40.0" fill="#FFFFFF" transform="matrix(1.00, 0.00, -0.00, -1.00, 87.4, 314.0)">i</text><text xml:space="preserve" font-family="GillSans,Gill Sans" font-size="40.0" fill="#FFFFFF" transform="matrix(1.00, 0.00, -0.00, -1.00, 96.2, 314.0)">t</text><text xml:space="preserve" font-family="GillSans,Gill Sans" font-size="40.0" fill="#FFFFFF" transform="matrix(1.00, 0.00, -0.00, -1.00, 109.5, 314.0)">i</text><text xml:space="preserve" font-family="GillSans,Gill Sans" font-size="40.0" fill="#FFFFFF" transform="matrix(1.00, 0.00, -0.00, -1.00, 118.3, 314.0)">v</text><text xml:space="preserve" font-family="GillSans,Gill Sans" font-size="40.0" fill="#FFFFFF" transform="matrix(1.00, 0.00, -0.00, -1.00, 135.0, 314.0)">e</text></g></g></g></g><g><clipPath id="clip0x608008eb9c20"><path d="M 1.0 524.0 L 852.0 524.0 L 852.0 1.0 L 1.0 1.0 Z M 1.0 524.0 "></path></clipPath><g clip-path="url(#clip0x608008eb9c20)"><g><clipPath id="clip0x608008eb9da0"><path d="M 183.7 263.5 L 515.8 263.5 L 515.8 391.8 L 183.7 391.8 Z M 183.7 263.5 "></path></clipPath><g clip-path="url(#clip0x608008eb9da0)"><text xml:space="preserve" font-family="GillSans,Gill Sans" font-size="36.0" fill="#000000" transform="matrix(1.00, 0.00, -0.00, -1.00, 190.1, 315.0)">A</text><text xml:space="preserve" font-family="GillSans,Gill Sans" font-size="36.0" fill="#000000" transform="matrix(1.00, 0.00, -0.00, -1.00, 214.1, 315.0)">b</text><text xml:space="preserve" font-family="GillSans,Gill Sans" font-size="36.0" fill="#000000" transform="matrix(1.00, 0.00, -0.00, -1.00, 232.1, 315.0)">s</text><text xml:space="preserve" font-family="GillSans,Gill Sans" font-size="36.0" fill="#000000" transform="matrix(1.00, 0.00, -0.00, -1.00, 246.0, 315.0)">o</text><text xml:space="preserve" font-family="GillSans,Gill Sans" font-size="36.0" fill="#000000" transform="matrix(1.00, 0.00, -0.00, -1.00, 265.8, 315.0)">l</text><text xml:space="preserve" font-family="GillSans,Gill Sans" font-size="36.0" fill="#000000" transform="matrix(1.00, 0.00, -0.00, -1.00, 273.7, 315.0)">u</text><text xml:space="preserve" font-family="GillSans,Gill Sans" font-size="36.0" fill="#000000" transform="matrix(1.00, 0.00, -0.00, -1.00, 291.7, 315.0)">t</text><text xml:space="preserve" font-family="GillSans,Gill Sans" font-size="36.0" fill="#000000" transform="matrix(1.00, 0.00, -0.00, -1.00, 303.7, 315.0)">e</text><text xml:space="preserve" font-family="GillSans,Gill Sans" font-size="36.0" fill="#000000" transform="matrix(1.00, 0.00, -0.00, -1.00, 321.0, 315.0)">l</text><text xml:space="preserve" font-family="GillSans,Gill Sans" font-size="36.0" fill="#000000" transform="matrix(1.00, 0.00, -0.00, -1.00, 328.5, 315.0)">y</text><text xml:space="preserve" font-family="GillSans,Gill Sans" font-size="36.0" fill="#000000" transform="matrix(1.00, 0.00, -0.00, -1.00, 344.3, 315.0)"> </text><text xml:space="preserve" font-family="GillSans,Gill Sans" font-size="36.0" fill="#000000" transform="matrix(1.00, 0.00, -0.00, -1.00, 354.3, 315.0)">a</text><text xml:space="preserve" font-family="GillSans,Gill Sans" font-size="36.0" fill="#000000" transform="matrix(1.00, 0.00, -0.00, -1.00, 369.6, 315.0)">l</text><text xml:space="preserve" font-family="GillSans,Gill Sans" font-size="36.0" fill="#000000" transform="matrix(1.00, 0.00, -0.00, -1.00, 377.5, 315.0)">l</text><text xml:space="preserve" font-family="GillSans,Gill Sans" font-size="36.0" fill="#000000" transform="matrix(1.00, 0.00, -0.00, -1.00, 385.4, 315.0)"> </text><text xml:space="preserve" font-family="GillSans,Gill Sans" font-size="36.0" fill="#000000" transform="matrix(1.00, 0.00, -0.00, -1.00, 395.4, 315.0)">s</text><text xml:space="preserve" font-family="GillSans,Gill Sans" font-size="36.0" fill="#000000" transform="matrix(1.00, 0.00, -0.00, -1.00, 409.3, 315.0)">a</text><text xml:space="preserve" font-family="GillSans,Gill Sans" font-size="36.0" fill="#000000" transform="matrix(1.00, 0.00, -0.00, -1.00, 424.6, 315.0)">m</text><text xml:space="preserve" font-family="GillSans,Gill Sans" font-size="36.0" fill="#000000" transform="matrix(1.00, 0.00, -0.00, -1.00, 452.4, 315.0)">p</text><text xml:space="preserve" font-family="GillSans,Gill Sans" font-size="36.0" fill="#000000" transform="matrix(1.00, 0.00, -0.00, -1.00, 470.4, 315.0)">l</text><text xml:space="preserve" font-family="GillSans,Gill Sans" font-size="36.0" fill="#000000" transform="matrix(1.00, 0.00, -0.00, -1.00, 478.3, 315.0)">e</text><text xml:space="preserve" font-family="GillSans,Gill Sans" font-size="36.0" fill="#000000" transform="matrix(1.00, 0.00, -0.00, -1.00, 495.5, 315.0)">s</text></g></g></g></g><g><clipPath id="clip0x608008eba7c0"><path d="M 1.0 524.0 L 852.0 524.0 L 852.0 1.0 L 1.0 1.0 Z M 1.0 524.0 "></path></clipPath><g clip-path="url(#clip0x608008eba7c0)"><g><clipPath id="clip0x608008eba940"><path d="M 517.8 263.5 L 850.0 263.5 L 850.0 391.8 L 517.8 391.8 Z M 517.8 263.5 "></path></clipPath><g clip-path="url(#clip0x608008eba940)"><text xml:space="preserve" font-family="GillSans,Gill Sans" font-size="36.0" fill="#000000" transform="matrix(1.00, 0.00, -0.00, -1.00, 582.0, 336.0)">M</text><text xml:space="preserve" font-family="GillSans,Gill Sans" font-size="36.0" fill="#000000" transform="matrix(1.00, 0.00, -0.00, -1.00, 610.1, 336.0)">o</text><text xml:space="preserve" font-family="GillSans,Gill Sans" font-size="36.0" fill="#000000" transform="matrix(1.00, 0.00, -0.00, -1.00, 629.9, 336.0)">r</text><text xml:space="preserve" font-family="GillSans,Gill Sans" font-size="36.0" fill="#000000" transform="matrix(1.00, 0.00, -0.00, -1.00, 643.5, 336.0)">e</text><text xml:space="preserve" font-family="GillSans,Gill Sans" font-size="36.0" fill="#000000" transform="matrix(1.00, 0.00, -0.00, -1.00, 660.7, 336.0)"> </text><text xml:space="preserve" font-family="GillSans,Gill Sans" font-size="36.0" fill="#000000" transform="matrix(1.00, 0.00, -0.00, -1.00, 670.7, 336.0)">e</text><text xml:space="preserve" font-family="GillSans,Gill Sans" font-size="36.0" fill="#000000" transform="matrix(1.00, 0.00, -0.00, -1.00, 688.0, 336.0)">f</text><text xml:space="preserve" font-family="GillSans,Gill Sans" font-size="36.0" fill="#000000" transform="matrix(1.00, 0.00, -0.00, -1.00, 697.0, 336.0)">ï¬</text><text xml:space="preserve" font-family="GillSans,Gill Sans" font-size="36.0" fill="#000000" transform="matrix(1.00, 0.00, -0.00, -1.00, 715.0, 336.0)">c</text><text xml:space="preserve" font-family="GillSans,Gill Sans" font-size="36.0" fill="#000000" transform="matrix(1.00, 0.00, -0.00, -1.00, 730.7, 336.0)">i</text><text xml:space="preserve" font-family="GillSans,Gill Sans" font-size="36.0" fill="#000000" transform="matrix(1.00, 0.00, -0.00, -1.00, 738.6, 336.0)">e</text><text xml:space="preserve" font-family="GillSans,Gill Sans" font-size="36.0" fill="#000000" transform="matrix(1.00, 0.00, -0.00, -1.00, 755.9, 336.0)">n</text><text xml:space="preserve" font-family="GillSans,Gill Sans" font-size="36.0" fill="#000000" transform="matrix(1.00, 0.00, -0.00, -1.00, 773.9, 336.0)">t</text><text xml:space="preserve" font-family="GillSans,Gill Sans" font-size="36.0" fill="#000000" transform="matrix(1.00, 0.00, -0.00, -1.00, 785.9, 336.0)">	</text><text xml:space="preserve" font-family="GillSans,Gill Sans" font-size="36.0" fill="#000000" transform="matrix(1.00, 0.00, -0.00, -1.00, 813.9, 336.0)">
</text><text xml:space="preserve" font-family="GillSans,Gill Sans" font-size="36.0" fill="#000000" transform="matrix(1.00, 0.00, -0.00, -1.00, 813.9, 336.0)"></text><text xml:space="preserve" font-family="GillSans,Gill Sans" font-size="36.0" fill="#000000" transform="matrix(1.00, 0.00, -0.00, -1.00, 612.0, 295.0)">L</text><text xml:space="preserve" font-family="GillSans,Gill Sans" font-size="36.0" fill="#000000" transform="matrix(1.00, 0.00, -0.00, -1.00, 629.7, 295.0)">e</text><text xml:space="preserve" font-family="GillSans,Gill Sans" font-size="36.0" fill="#000000" transform="matrix(1.00, 0.00, -0.00, -1.00, 646.9, 295.0)">s</text><text xml:space="preserve" font-family="GillSans,Gill Sans" font-size="36.0" fill="#000000" transform="matrix(1.00, 0.00, -0.00, -1.00, 660.8, 295.0)">s</text><text xml:space="preserve" font-family="GillSans,Gill Sans" font-size="36.0" fill="#000000" transform="matrix(1.00, 0.00, -0.00, -1.00, 674.6, 295.0)"> </text><text xml:space="preserve" font-family="GillSans,Gill Sans" font-size="36.0" fill="#000000" transform="matrix(1.00, 0.00, -0.00, -1.00, 684.6, 295.0)">c</text><text xml:space="preserve" font-family="GillSans,Gill Sans" font-size="36.0" fill="#000000" transform="matrix(1.00, 0.00, -0.00, -1.00, 700.4, 295.0)">o</text><text xml:space="preserve" font-family="GillSans,Gill Sans" font-size="36.0" fill="#000000" transform="matrix(1.00, 0.00, -0.00, -1.00, 720.2, 295.0)">d</text><text xml:space="preserve" font-family="GillSans,Gill Sans" font-size="36.0" fill="#000000" transform="matrix(1.00, 0.00, -0.00, -1.00, 738.6, 295.0)">e</text></g></g></g></g><image xlink:href="../../5B563A35-4091-498E-B697-A1A6144C3C15/assets/9848906E433ED42D01712FD34673EA25.png" width="142.00" height="42.00" transform="matrix(1.00, 0.00, -0.00, -1.00, 22.0, 211.0)"></image><g><clipPath id="clip0x608008ebb360"><path d="M 1.0 524.0 L 852.0 524.0 L 852.0 1.0 L 1.0 1.0 Z M 1.0 524.0 "></path></clipPath><g clip-path="url(#clip0x608008ebb360)"><g><clipPath id="clip0x608008ebb6c0"><path d="M 3.0 133.2 L 181.7 133.2 L 181.7 261.5 L 3.0 261.5 Z M 3.0 133.2 "></path></clipPath><g clip-path="url(#clip0x608008ebb6c0)"><text xml:space="preserve" font-family="GillSans,Gill Sans" font-size="40.0" fill="#FFFFFF" transform="matrix(1.00, 0.00, -0.00, -1.00, 21.1, 183.7)">N</text><text xml:space="preserve" font-family="GillSans,Gill Sans" font-size="40.0" fill="#FFFFFF" transform="matrix(1.00, 0.00, -0.00, -1.00, 52.3, 183.7)">e</text><text xml:space="preserve" font-family="GillSans,Gill Sans" font-size="40.0" fill="#FFFFFF" transform="matrix(1.00, 0.00, -0.00, -1.00, 71.5, 183.7)">g</text><text xml:space="preserve" font-family="GillSans,Gill Sans" font-size="40.0" fill="#FFFFFF" transform="matrix(1.00, 0.00, -0.00, -1.00, 88.5, 183.7)">a</text><text xml:space="preserve" font-family="GillSans,Gill Sans" font-size="40.0" fill="#FFFFFF" transform="matrix(1.00, 0.00, -0.00, -1.00, 105.6, 183.7)">t</text><text xml:space="preserve" font-family="GillSans,Gill Sans" font-size="40.0" fill="#FFFFFF" transform="matrix(1.00, 0.00, -0.00, -1.00, 118.9, 183.7)">i</text><text xml:space="preserve" font-family="GillSans,Gill Sans" font-size="40.0" fill="#FFFFFF" transform="matrix(1.00, 0.00, -0.00, -1.00, 127.7, 183.7)">v</text><text xml:space="preserve" font-family="GillSans,Gill Sans" font-size="40.0" fill="#FFFFFF" transform="matrix(1.00, 0.00, -0.00, -1.00, 144.4, 183.7)">e</text></g></g></g></g><g><clipPath id="clip0x608008ebbba0"><path d="M 1.0 524.0 L 852.0 524.0 L 852.0 1.0 L 1.0 1.0 Z M 1.0 524.0 "></path></clipPath><g clip-path="url(#clip0x608008ebbba0)"><g><clipPath id="clip0x608008ebbd20"><path d="M 183.7 133.2 L 515.8 133.2 L 515.8 261.5 L 183.7 261.5 Z M 183.7 133.2 "></path></clipPath><g clip-path="url(#clip0x608008ebbd20)"><text xml:space="preserve" font-family="GillSans,Gill Sans" font-size="36.0" fill="#000000" transform="matrix(1.00, 0.00, -0.00, -1.00, 203.0, 184.8)">I</text><text xml:space="preserve" font-family="GillSans,Gill Sans" font-size="36.0" fill="#000000" transform="matrix(1.00, 0.00, -0.00, -1.00, 212.0, 184.8)">n</text><text xml:space="preserve" font-family="GillSans,Gill Sans" font-size="36.0" fill="#000000" transform="matrix(1.00, 0.00, -0.00, -1.00, 230.0, 184.8)">c</text><text xml:space="preserve" font-family="GillSans,Gill Sans" font-size="36.0" fill="#000000" transform="matrix(1.00, 0.00, -0.00, -1.00, 245.8, 184.8)">r</text><text xml:space="preserve" font-family="GillSans,Gill Sans" font-size="36.0" fill="#000000" transform="matrix(1.00, 0.00, -0.00, -1.00, 259.3, 184.8)">e</text><text xml:space="preserve" font-family="GillSans,Gill Sans" font-size="36.0" fill="#000000" transform="matrix(1.00, 0.00, -0.00, -1.00, 276.6, 184.8)">a</text><text xml:space="preserve" font-family="GillSans,Gill Sans" font-size="36.0" fill="#000000" transform="matrix(1.00, 0.00, -0.00, -1.00, 291.9, 184.8)">s</text><text xml:space="preserve" font-family="GillSans,Gill Sans" font-size="36.0" fill="#000000" transform="matrix(1.00, 0.00, -0.00, -1.00, 305.8, 184.8)">e</text><text xml:space="preserve" font-family="GillSans,Gill Sans" font-size="36.0" fill="#000000" transform="matrix(1.00, 0.00, -0.00, -1.00, 323.0, 184.8)">d</text><text xml:space="preserve" font-family="GillSans,Gill Sans" font-size="36.0" fill="#000000" transform="matrix(1.00, 0.00, -0.00, -1.00, 341.4, 184.8)"> </text><text xml:space="preserve" font-family="GillSans,Gill Sans" font-size="36.0" fill="#000000" transform="matrix(1.00, 0.00, -0.00, -1.00, 351.4, 184.8)">O</text><text xml:space="preserve" font-family="GillSans,Gill Sans" font-size="36.0" fill="#000000" transform="matrix(1.00, 0.00, -0.00, -1.00, 381.0, 184.8)">v</text><text xml:space="preserve" font-family="GillSans,Gill Sans" font-size="36.0" fill="#000000" transform="matrix(1.00, 0.00, -0.00, -1.00, 396.0, 184.8)">e</text><text xml:space="preserve" font-family="GillSans,Gill Sans" font-size="36.0" fill="#000000" transform="matrix(1.00, 0.00, -0.00, -1.00, 413.3, 184.8)">r</text><text xml:space="preserve" font-family="GillSans,Gill Sans" font-size="36.0" fill="#000000" transform="matrix(1.00, 0.00, -0.00, -1.00, 427.5, 184.8)">h</text><text xml:space="preserve" font-family="GillSans,Gill Sans" font-size="36.0" fill="#000000" transform="matrix(1.00, 0.00, -0.00, -1.00, 445.5, 184.8)">e</text><text xml:space="preserve" font-family="GillSans,Gill Sans" font-size="36.0" fill="#000000" transform="matrix(1.00, 0.00, -0.00, -1.00, 462.8, 184.8)">a</text><text xml:space="preserve" font-family="GillSans,Gill Sans" font-size="36.0" fill="#000000" transform="matrix(1.00, 0.00, -0.00, -1.00, 478.1, 184.8)">d</text></g></g></g></g><g><clipPath id="clip0x608008ebc5c0"><path d="M 1.0 524.0 L 852.0 524.0 L 852.0 1.0 L 1.0 1.0 Z M 1.0 524.0 "></path></clipPath><g clip-path="url(#clip0x608008ebc5c0)"><g><clipPath id="clip0x608008ebc740"><path d="M 517.8 133.2 L 850.0 133.2 L 850.0 261.5 L 517.8 261.5 Z M 517.8 133.2 "></path></clipPath><g clip-path="url(#clip0x608008ebc740)"><text xml:space="preserve" font-family="GillSans,Gill Sans" font-size="36.0" fill="#000000" transform="matrix(1.00, 0.00, -0.00, -1.00, 536.2, 205.8)">E</text><text xml:space="preserve" font-family="GillSans,Gill Sans" font-size="36.0" fill="#000000" transform="matrix(1.00, 0.00, -0.00, -1.00, 554.2, 205.8)">v</text><text xml:space="preserve" font-family="GillSans,Gill Sans" font-size="36.0" fill="#000000" transform="matrix(1.00, 0.00, -0.00, -1.00, 569.2, 205.8)">e</text><text xml:space="preserve" font-family="GillSans,Gill Sans" font-size="36.0" fill="#000000" transform="matrix(1.00, 0.00, -0.00, -1.00, 586.5, 205.8)">n</text><text xml:space="preserve" font-family="GillSans,Gill Sans" font-size="36.0" fill="#000000" transform="matrix(1.00, 0.00, -0.00, -1.00, 604.5, 205.8)">t</text><text xml:space="preserve" font-family="GillSans,Gill Sans" font-size="36.0" fill="#000000" transform="matrix(1.00, 0.00, -0.00, -1.00, 616.5, 205.8)">u</text><text xml:space="preserve" font-family="GillSans,Gill Sans" font-size="36.0" fill="#000000" transform="matrix(1.00, 0.00, -0.00, -1.00, 634.5, 205.8)">a</text><text xml:space="preserve" font-family="GillSans,Gill Sans" font-size="36.0" fill="#000000" transform="matrix(1.00, 0.00, -0.00, -1.00, 649.8, 205.8)">l</text><text xml:space="preserve" font-family="GillSans,Gill Sans" font-size="36.0" fill="#000000" transform="matrix(1.00, 0.00, -0.00, -1.00, 657.7, 205.8)">l</text><text xml:space="preserve" font-family="GillSans,Gill Sans" font-size="36.0" fill="#000000" transform="matrix(1.00, 0.00, -0.00, -1.00, 665.3, 205.8)">y</text><text xml:space="preserve" font-family="GillSans,Gill Sans" font-size="36.0" fill="#000000" transform="matrix(1.00, 0.00, -0.00, -1.00, 681.1, 205.8)"> </text><text xml:space="preserve" font-family="GillSans,Gill Sans" font-size="36.0" fill="#000000" transform="matrix(1.00, 0.00, -0.00, -1.00, 691.0, 205.8)">a</text><text xml:space="preserve" font-family="GillSans,Gill Sans" font-size="36.0" fill="#000000" transform="matrix(1.00, 0.00, -0.00, -1.00, 706.4, 205.8)">d</text><text xml:space="preserve" font-family="GillSans,Gill Sans" font-size="36.0" fill="#000000" transform="matrix(1.00, 0.00, -0.00, -1.00, 724.4, 205.8)">d</text><text xml:space="preserve" font-family="GillSans,Gill Sans" font-size="36.0" fill="#000000" transform="matrix(1.00, 0.00, -0.00, -1.00, 742.7, 205.8)">i</text><text xml:space="preserve" font-family="GillSans,Gill Sans" font-size="36.0" fill="#000000" transform="matrix(1.00, 0.00, -0.00, -1.00, 750.6, 205.8)">t</text><text xml:space="preserve" font-family="GillSans,Gill Sans" font-size="36.0" fill="#000000" transform="matrix(1.00, 0.00, -0.00, -1.00, 762.6, 205.8)">i</text><text xml:space="preserve" font-family="GillSans,Gill Sans" font-size="36.0" fill="#000000" transform="matrix(1.00, 0.00, -0.00, -1.00, 770.5, 205.8)">o</text><text xml:space="preserve" font-family="GillSans,Gill Sans" font-size="36.0" fill="#000000" transform="matrix(1.00, 0.00, -0.00, -1.00, 790.4, 205.8)">n</text><text xml:space="preserve" font-family="GillSans,Gill Sans" font-size="36.0" fill="#000000" transform="matrix(1.00, 0.00, -0.00, -1.00, 808.4, 205.8)">a</text><text xml:space="preserve" font-family="GillSans,Gill Sans" font-size="36.0" fill="#000000" transform="matrix(1.00, 0.00, -0.00, -1.00, 823.7, 205.8)">l</text><text xml:space="preserve" font-family="GillSans,Gill Sans" font-size="36.0" fill="#000000" transform="matrix(1.00, 0.00, -0.00, -1.00, 831.6, 205.8)"> </text><text xml:space="preserve" font-family="GillSans,Gill Sans" font-size="36.0" fill="#000000" transform="matrix(1.00, 0.00, -0.00, -1.00, 563.3, 164.8)">T</text><text xml:space="preserve" font-family="GillSans,Gill Sans" font-size="36.0" fill="#000000" transform="matrix(1.00, 0.00, -0.00, -1.00, 585.0, 164.8)">i</text><text xml:space="preserve" font-family="GillSans,Gill Sans" font-size="36.0" fill="#000000" transform="matrix(1.00, 0.00, -0.00, -1.00, 592.9, 164.8)">m</text><text xml:space="preserve" font-family="GillSans,Gill Sans" font-size="36.0" fill="#000000" transform="matrix(1.00, 0.00, -0.00, -1.00, 620.7, 164.8)">e</text><text xml:space="preserve" font-family="GillSans,Gill Sans" font-size="36.0" fill="#000000" transform="matrix(1.00, 0.00, -0.00, -1.00, 637.9, 164.8)">r</text><text xml:space="preserve" font-family="GillSans,Gill Sans" font-size="36.0" fill="#000000" transform="matrix(1.00, 0.00, -0.00, -1.00, 652.2, 164.8)"> </text><text xml:space="preserve" font-family="GillSans,Gill Sans" font-size="36.0" fill="#000000" transform="matrix(1.00, 0.00, -0.00, -1.00, 662.2, 164.8)">n</text><text xml:space="preserve" font-family="GillSans,Gill Sans" font-size="36.0" fill="#000000" transform="matrix(1.00, 0.00, -0.00, -1.00, 680.2, 164.8)">e</text><text xml:space="preserve" font-family="GillSans,Gill Sans" font-size="36.0" fill="#000000" transform="matrix(1.00, 0.00, -0.00, -1.00, 697.4, 164.8)">c</text><text xml:space="preserve" font-family="GillSans,Gill Sans" font-size="36.0" fill="#000000" transform="matrix(1.00, 0.00, -0.00, -1.00, 713.2, 164.8)">e</text><text xml:space="preserve" font-family="GillSans,Gill Sans" font-size="36.0" fill="#000000" transform="matrix(1.00, 0.00, -0.00, -1.00, 730.4, 164.8)">s</text><text xml:space="preserve" font-family="GillSans,Gill Sans" font-size="36.0" fill="#000000" transform="matrix(1.00, 0.00, -0.00, -1.00, 744.3, 164.8)">s</text><text xml:space="preserve" font-family="GillSans,Gill Sans" font-size="36.0" fill="#000000" transform="matrix(1.00, 0.00, -0.00, -1.00, 758.1, 164.8)">a</text><text xml:space="preserve" font-family="GillSans,Gill Sans" font-size="36.0" fill="#000000" transform="matrix(1.00, 0.00, -0.00, -1.00, 773.5, 164.8)">r</text><text xml:space="preserve" font-family="GillSans,Gill Sans" font-size="36.0" fill="#000000" transform="matrix(1.00, 0.00, -0.00, -1.00, 788.8, 164.8)">y</text></g></g></g></g><image xlink:href="../../5B563A35-4091-498E-B697-A1A6144C3C15/assets/86F69C3024B1E3B737EE6CC17CAD1200.png" width="98.00" height="42.00" transform="matrix(1.00, 0.00, -0.00, -1.00, 43.0, 81.0)"></image><g><clipPath id="clip0x608008ebd5e0"><path d="M 1.0 524.0 L 852.0 524.0 L 852.0 1.0 L 1.0 1.0 Z M 1.0 524.0 "></path></clipPath><g clip-path="url(#clip0x608008ebd5e0)"><g><clipPath id="clip0x608008ebd940"><path d="M 3.0 3.0 L 181.7 3.0 L 181.7 131.2 L 3.0 131.2 Z M 3.0 3.0 "></path></clipPath><g clip-path="url(#clip0x608008ebd940)"><text xml:space="preserve" font-family="GillSans,Gill Sans" font-size="40.0" fill="#FFFFFF" transform="matrix(1.00, 0.00, -0.00, -1.00, 43.8, 53.5)">U</text><text xml:space="preserve" font-family="GillSans,Gill Sans" font-size="40.0" fill="#FFFFFF" transform="matrix(1.00, 0.00, -0.00, -1.00, 72.2, 53.5)">s</text><text xml:space="preserve" font-family="GillSans,Gill Sans" font-size="40.0" fill="#FFFFFF" transform="matrix(1.00, 0.00, -0.00, -1.00, 87.5, 53.5)">a</text><text xml:space="preserve" font-family="GillSans,Gill Sans" font-size="40.0" fill="#FFFFFF" transform="matrix(1.00, 0.00, -0.00, -1.00, 104.6, 53.5)">g</text><text xml:space="preserve" font-family="GillSans,Gill Sans" font-size="40.0" fill="#FFFFFF" transform="matrix(1.00, 0.00, -0.00, -1.00, 121.7, 53.5)">e</text></g></g></g></g><g><clipPath id="clip0x608008ebdd00"><path d="M 1.0 524.0 L 852.0 524.0 L 852.0 1.0 L 1.0 1.0 Z M 1.0 524.0 "></path></clipPath><g clip-path="url(#clip0x608008ebdd00)"><g><clipPath id="clip0x608008ebde80"><path d="M 183.7 3.0 L 515.8 3.0 L 515.8 131.2 L 183.7 131.2 Z M 183.7 3.0 "></path></clipPath><g clip-path="url(#clip0x608008ebde80)"><text xml:space="preserve" font-family="GillSans,Gill Sans" font-size="36.0" fill="#000000" transform="matrix(1.00, 0.00, -0.00, -1.00, 193.8, 54.5)">D</text><text xml:space="preserve" font-family="GillSans,Gill Sans" font-size="36.0" fill="#000000" transform="matrix(1.00, 0.00, -0.00, -1.00, 220.8, 54.5)">a</text><text xml:space="preserve" font-family="GillSans,Gill Sans" font-size="36.0" fill="#000000" transform="matrix(1.00, 0.00, -0.00, -1.00, 236.2, 54.5)">t</text><text xml:space="preserve" font-family="GillSans,Gill Sans" font-size="36.0" fill="#000000" transform="matrix(1.00, 0.00, -0.00, -1.00, 248.2, 54.5)">a</text><text xml:space="preserve" font-family="GillSans,Gill Sans" font-size="36.0" fill="#000000" transform="matrix(1.00, 0.00, -0.00, -1.00, 263.5, 54.5)"> </text><text xml:space="preserve" font-family="GillSans,Gill Sans" font-size="36.0" fill="#000000" transform="matrix(1.00, 0.00, -0.00, -1.00, 273.5, 54.5)">C</text><text xml:space="preserve" font-family="GillSans,Gill Sans" font-size="36.0" fill="#000000" transform="matrix(1.00, 0.00, -0.00, -1.00, 299.0, 54.5)">o</text><text xml:space="preserve" font-family="GillSans,Gill Sans" font-size="36.0" fill="#000000" transform="matrix(1.00, 0.00, -0.00, -1.00, 318.9, 54.5)">l</text><text xml:space="preserve" font-family="GillSans,Gill Sans" font-size="36.0" fill="#000000" transform="matrix(1.00, 0.00, -0.00, -1.00, 326.8, 54.5)">l</text><text xml:space="preserve" font-family="GillSans,Gill Sans" font-size="36.0" fill="#000000" transform="matrix(1.00, 0.00, -0.00, -1.00, 334.7, 54.5)">e</text><text xml:space="preserve" font-family="GillSans,Gill Sans" font-size="36.0" fill="#000000" transform="matrix(1.00, 0.00, -0.00, -1.00, 351.9, 54.5)">c</text><text xml:space="preserve" font-family="GillSans,Gill Sans" font-size="36.0" fill="#000000" transform="matrix(1.00, 0.00, -0.00, -1.00, 367.7, 54.5)">t</text><text xml:space="preserve" font-family="GillSans,Gill Sans" font-size="36.0" fill="#000000" transform="matrix(1.00, 0.00, -0.00, -1.00, 379.7, 54.5)">i</text><text xml:space="preserve" font-family="GillSans,Gill Sans" font-size="36.0" fill="#000000" transform="matrix(1.00, 0.00, -0.00, -1.00, 387.6, 54.5)">o</text><text xml:space="preserve" font-family="GillSans,Gill Sans" font-size="36.0" fill="#000000" transform="matrix(1.00, 0.00, -0.00, -1.00, 407.4, 54.5)">n</text><text xml:space="preserve" font-family="GillSans,Gill Sans" font-size="36.0" fill="#000000" transform="matrix(1.00, 0.00, -0.00, -1.00, 425.4, 54.5)"> </text><text xml:space="preserve" font-family="GillSans,Gill Sans" font-size="36.0" fill="#000000" transform="matrix(1.00, 0.00, -0.00, -1.00, 431.8, 54.5)">A</text><text xml:space="preserve" font-family="GillSans,Gill Sans" font-size="36.0" fill="#000000" transform="matrix(1.00, 0.00, -0.00, -1.00, 455.8, 54.5)">p</text><text xml:space="preserve" font-family="GillSans,Gill Sans" font-size="36.0" fill="#000000" transform="matrix(1.00, 0.00, -0.00, -1.00, 473.8, 54.5)">p</text><text xml:space="preserve" font-family="GillSans,Gill Sans" font-size="36.0" fill="#000000" transform="matrix(1.00, 0.00, -0.00, -1.00, 491.8, 54.5)">s</text></g></g></g></g><g><clipPath id="clip0x608008ebe7e0"><path d="M 1.0 524.0 L 852.0 524.0 L 852.0 1.0 L 1.0 1.0 Z M 1.0 524.0 "></path></clipPath><g clip-path="url(#clip0x608008ebe7e0)"><g><clipPath id="clip0x608008ebe960"><path d="M 517.8 3.0 L 850.0 3.0 L 850.0 131.2 L 517.8 131.2 Z M 517.8 3.0 "></path></clipPath><g clip-path="url(#clip0x608008ebe960)"><text xml:space="preserve" font-family="GillSans,Gill Sans" font-size="36.0" fill="#000000" transform="matrix(1.00, 0.00, -0.00, -1.00, 576.0, 75.5)">M</text><text xml:space="preserve" font-family="GillSans,Gill Sans" font-size="36.0" fill="#000000" transform="matrix(1.00, 0.00, -0.00, -1.00, 604.1, 75.5)">o</text><text xml:space="preserve" font-family="GillSans,Gill Sans" font-size="36.0" fill="#000000" transform="matrix(1.00, 0.00, -0.00, -1.00, 624.0, 75.5)">s</text><text xml:space="preserve" font-family="GillSans,Gill Sans" font-size="36.0" fill="#000000" transform="matrix(1.00, 0.00, -0.00, -1.00, 637.8, 75.5)">t</text><text xml:space="preserve" font-family="GillSans,Gill Sans" font-size="36.0" fill="#000000" transform="matrix(1.00, 0.00, -0.00, -1.00, 649.8, 75.5)"> </text><text xml:space="preserve" font-family="GillSans,Gill Sans" font-size="36.0" fill="#000000" transform="matrix(1.00, 0.00, -0.00, -1.00, 656.2, 75.5)">A</text><text xml:space="preserve" font-family="GillSans,Gill Sans" font-size="36.0" fill="#000000" transform="matrix(1.00, 0.00, -0.00, -1.00, 680.2, 75.5)">p</text><text xml:space="preserve" font-family="GillSans,Gill Sans" font-size="36.0" fill="#000000" transform="matrix(1.00, 0.00, -0.00, -1.00, 698.2, 75.5)">p</text><text xml:space="preserve" font-family="GillSans,Gill Sans" font-size="36.0" fill="#000000" transform="matrix(1.00, 0.00, -0.00, -1.00, 716.2, 75.5)">s</text><text xml:space="preserve" font-family="GillSans,Gill Sans" font-size="36.0" fill="#000000" transform="matrix(1.00, 0.00, -0.00, -1.00, 730.1, 75.5)"> </text><text xml:space="preserve" font-family="GillSans,Gill Sans" font-size="36.0" fill="#000000" transform="matrix(1.00, 0.00, -0.00, -1.00, 740.1, 75.5)">a</text><text xml:space="preserve" font-family="GillSans,Gill Sans" font-size="36.0" fill="#000000" transform="matrix(1.00, 0.00, -0.00, -1.00, 755.4, 75.5)">n</text><text xml:space="preserve" font-family="GillSans,Gill Sans" font-size="36.0" fill="#000000" transform="matrix(1.00, 0.00, -0.00, -1.00, 773.4, 75.5)">d</text><text xml:space="preserve" font-family="GillSans,Gill Sans" font-size="36.0" fill="#000000" transform="matrix(1.00, 0.00, -0.00, -1.00, 791.8, 75.5)"> </text><text xml:space="preserve" font-family="GillSans,Gill Sans" font-size="36.0" fill="#000000" transform="matrix(1.00, 0.00, -0.00, -1.00, 633.5, 34.5)">G</text><text xml:space="preserve" font-family="GillSans,Gill Sans" font-size="36.0" fill="#000000" transform="matrix(1.00, 0.00, -0.00, -1.00, 660.1, 34.5)">a</text><text xml:space="preserve" font-family="GillSans,Gill Sans" font-size="36.0" fill="#000000" transform="matrix(1.00, 0.00, -0.00, -1.00, 675.5, 34.5)">m</text><text xml:space="preserve" font-family="GillSans,Gill Sans" font-size="36.0" fill="#000000" transform="matrix(1.00, 0.00, -0.00, -1.00, 703.3, 34.5)">e</text><text xml:space="preserve" font-family="GillSans,Gill Sans" font-size="36.0" fill="#000000" transform="matrix(1.00, 0.00, -0.00, -1.00, 720.5, 34.5)">s</text></g></g></g></g><g><clipPath id="clip0x608008ebf260"><path d="M 1.0 524.0 L 852.0 524.0 L 852.0 1.0 L 1.0 1.0 Z M 1.0 524.0 "></path></clipPath><g clip-path="url(#clip0x608008ebf260)"><g><clipPath id="clip0x608008ebf3e0"><path d="M 0.0 0.0 L 853.0 0.0 L 853.0 525.0 L 0.0 525.0 Z M 0.0 0.0 "></path></clipPath><g clip-path="url(#clip0x608008ebf3e0)"><path d="M 516.8 1.0 L 516.8 132.2 " fill="none" stroke="#000000" stroke-width="2.00" transform="matrix(1.00, 0.00, 0.00, -1.00, 0.0, 525.0)"></path><path d="M 516.8 132.2 L 516.8 524.0 " fill="none" stroke="#000000" stroke-width="2.00" transform="matrix(1.00, 0.00, 0.00, -1.00, 0.0, 525.0)"></path><path d="M 1.0 262.5 L 182.7 262.5 " fill="none" stroke="#000000" stroke-width="2.00" transform="matrix(1.00, 0.00, 0.00, -1.00, 0.0, 525.0)"></path><path d="M 182.7 262.5 L 852.0 262.5 " fill="none" stroke="#000000" stroke-width="2.00" transform="matrix(1.00, 0.00, 0.00, -1.00, 0.0, 525.0)"></path><path d="M 1.0 392.8 L 182.7 392.8 " fill="none" stroke="#000000" stroke-width="2.00" transform="matrix(1.00, 0.00, 0.00, -1.00, 0.0, 525.0)"></path><path d="M 182.7 392.8 L 852.0 392.8 " fill="none" stroke="#000000" stroke-width="2.00" transform="matrix(1.00, 0.00, 0.00, -1.00, 0.0, 525.0)"></path><path d="M 182.7 1.0 L 182.7 132.2 " fill="none" stroke="#000000" stroke-width="2.00" transform="matrix(1.00, 0.00, 0.00, -1.00, 0.0, 525.0)"></path><path d="M 182.7 132.2 L 182.7 524.0 " fill="none" stroke="#000000" stroke-width="2.00" transform="matrix(1.00, 0.00, 0.00, -1.00, 0.0, 525.0)"></path><path d="M 1.0 132.2 L 852.0 132.2 " fill="none" stroke="#000000" stroke-width="2.00" transform="matrix(1.00, 0.00, 0.00, -1.00, 0.0, 525.0)"></path><path d="M 2.0 1.0 L 2.0 132.2 " fill="none" stroke="#000000" stroke-width="2.00" transform="matrix(1.00, 0.00, 0.00, -1.00, 0.0, 525.0)"></path><path d="M 2.0 132.2 L 2.0 524.0 " fill="none" stroke="#000000" stroke-width="2.00" transform="matrix(1.00, 0.00, 0.00, -1.00, 0.0, 525.0)"></path><path d="M 851.0 1.0 L 851.0 132.2 " fill="none" stroke="#000000" stroke-width="2.00" transform="matrix(1.00, 0.00, 0.00, -1.00, 0.0, 525.0)"></path><path d="M 851.0 132.2 L 851.0 524.0 " fill="none" stroke="#000000" stroke-width="2.00" transform="matrix(1.00, 0.00, 0.00, -1.00, 0.0, 525.0)"></path><path d="M 1.0 2.0 L 852.0 2.0 " fill="none" stroke="#000000" stroke-width="2.00" transform="matrix(1.00, 0.00, 0.00, -1.00, 0.0, 525.0)"></path><path d="M 1.0 523.0 L 182.7 523.0 " fill="none" stroke="#000000" stroke-width="2.00" transform="matrix(1.00, 0.00, 0.00, -1.00, 0.0, 525.0)"></path><path d="M 182.7 523.0 L 852.0 523.0 " fill="none" stroke="#000000" stroke-width="2.00" transform="matrix(1.00, 0.00, 0.00, -1.00, 0.0, 525.0)"></path></g></g></g></g></g></g></svg>