<?xml version="1.0" encoding="UTF-8" standalone="no"?><svg xmlns="http://www.w3.org/2000/svg" xmlns:xlink="http://www.w3.org/1999/xlink" clip-rule="evenodd" stroke-miterlimit="10" viewBox="0 0 206 22"><desc>SVG generated by Keynote</desc><defs></defs><g transform="matrix(1.00, 0.00, -0.00, -1.00, 0.0, 22.0)"><text xml:space="preserve" font-family="Menlo-Regular,Menlo" font-size="20.0" fill="#008300" transform="matrix(1.00, 0.00, -0.00, -1.00, 0.3, 5.7)">/</text><text xml:space="preserve" font-family="Menlo-Regular,Menlo" font-size="20.0" fill="#008300" transform="matrix(1.00, 0.00, -0.00, -1.00, 12.4, 5.7)">/</text><text xml:space="preserve" font-family="Menlo-Regular,Menlo" font-size="20.0" fill="#008300" transform="matrix(1.00, 0.00, -0.00, -1.00, 24.4, 5.7)">f</text><text xml:space="preserve" font-family="Menlo-Regular,Menlo" font-size="20.0" fill="#008300" transform="matrix(1.00, 0.00, -0.00, -1.00, 36.5, 5.7)">a</text><text xml:space="preserve" font-family="Menlo-Regular,Menlo" font-size="20.0" fill="#008300" transform="matrix(1.00, 0.00, -0.00, -1.00, 48.5, 5.7)">i</text><text xml:space="preserve" font-family="Menlo-Regular,Menlo" font-size="20.0" fill="#008300" transform="matrix(1.00, 0.00, -0.00, -1.00, 60.5, 5.7)">l</text><text xml:space="preserve" font-family="Menlo-Regular,Menlo" font-size="20.0" fill="#008300" transform="matrix(1.00, 0.00, -0.00, -1.00, 72.6, 5.7)"> </text><text xml:space="preserve" font-family="Menlo-Regular,Menlo" font-size="20.0" fill="#008300" transform="matrix(1.00, 0.00, -0.00, -1.00, 84.6, 5.7)">g</text><text xml:space="preserve" font-family="Menlo-Regular,Menlo" font-size="20.0" fill="#008300" transform="matrix(1.00, 0.00, -0.00, -1.00, 96.7, 5.7)">r</text><text xml:space="preserve" font-family="Menlo-Regular,Menlo" font-size="20.0" fill="#008300" transform="matrix(1.00, 0.00, -0.00, -1.00, 108.7, 5.7)">a</text><text xml:space="preserve" font-family="Menlo-Regular,Menlo" font-size="20.0" fill="#008300" transform="matrix(1.00, 0.00, -0.00, -1.00, 120.8, 5.7)">c</text><text xml:space="preserve" font-family="Menlo-Regular,Menlo" font-size="20.0" fill="#008300" transform="matrix(1.00, 0.00, -0.00, -1.00, 132.8, 5.7)">e</text><text xml:space="preserve" font-family="Menlo-Regular,Menlo" font-size="20.0" fill="#008300" transform="matrix(1.00, 0.00, -0.00, -1.00, 144.8, 5.7)">f</text><text xml:space="preserve" font-family="Menlo-Regular,Menlo" font-size="20.0" fill="#008300" transform="matrix(1.00, 0.00, -0.00, -1.00, 156.9, 5.7)">u</text><text xml:space="preserve" font-family="Menlo-Regular,Menlo" font-size="20.0" fill="#008300" transform="matrix(1.00, 0.00, -0.00, -1.00, 168.9, 5.7)">l</text><text xml:space="preserve" font-family="Menlo-Regular,Menlo" font-size="20.0" fill="#008300" transform="matrix(1.00, 0.00, -0.00, -1.00, 181.0, 5.7)">l</text><text xml:space="preserve" font-family="Menlo-Regular,Menlo" font-size="20.0" fill="#008300" transform="matrix(1.00, 0.00, -0.00, -1.00, 193.0, 5.7)">y</text></g></svg>