<?xml version="1.0" encoding="UTF-8" standalone="no"?><svg xmlns="http://www.w3.org/2000/svg" xmlns:xlink="http://www.w3.org/1999/xlink" clip-rule="evenodd" stroke-miterlimit="10" viewBox="0 0 207 104"><desc>SVG generated by Keynote</desc><defs></defs><g transform="matrix(1.00, 0.00, -0.00, -1.00, 0.0, 104.0)"><path d="M 66.0 102.0 C 55.0 102.0 46.0 93.0 46.0 82.0 L 46.0 53.0 L 2.2 43.0 L 46.0 33.0 L 46.0 22.0 C 46.0 11.0 55.0 2.0 66.0 2.0 L 185.0 2.0 C 196.0 2.0 205.0 11.0 205.0 22.0 L 205.0 82.0 C 205.0 93.0 196.0 102.0 185.0 102.0 L 66.0 102.0 Z M 66.0 102.0 " fill="#F9ED9B"></path><path d="M 20.0 0.0 C 9.0 0.0 0.0 9.0 0.0 20.0 L 0.0 49.0 L -43.8 59.0 L 0.0 69.0 L 0.0 80.0 C 0.0 91.0 9.0 100.0 20.0 100.0 L 139.0 100.0 C 150.0 100.0 159.0 91.0 159.0 80.0 L 159.0 20.0 C 159.0 9.0 150.0 0.0 139.0 0.0 L 20.0 0.0 Z M 20.0 0.0 " fill="none" stroke="#000000" stroke-width="2.00" transform="matrix(1.00, 0.00, 0.00, -1.00, 46.0, 102.0)"></path></g></svg>